<svg data-name="Layer 1" xmlns="http://www.w3.org/2000/svg" viewBox="0 0 108.39 177"><path d="M39.19 65.44c0 5-.31 5.95-5 8.68L18 83.5V64.78c0-5 .31-5.95 5-8.68l16.19-9.34z" fill="#fff"/><path d="M23.01 56.1c-4.7 2.73-5 3.63-5 8.68V83.5l16.18-9.38c4.7-2.73 5-3.64 5-8.68V46.76z" fill="#fff"/><path d="M54.19 0L.01 31.28v62.57l54.18 31.28 54.18-31.28V31.28zm-21 106.08l-6-3.47v-3.67l6-3.47zm12 6.92l-6-3.5V92.01l6-3.46zm12 3.5l-3 1.73-3-1.73V85.08l2.82-1.62h.36l2.82 1.62zm12-7l-6 3.46V88.5l6 3.47zm12-6.93l-6 3.47V95.5l6 3.47zm-7-28.49l28.16 16.26-12 6.93L68.19 84.5c-8.24-4.78-11-9.59-11-19.07a3 3 0 0 0-6 0c0 9.48-2.78 14.29-11 19.06L18.01 97.3l-12-6.93v-25.6c0-9.48 2.77-14.29 11-19.06l22.18-12.8V15.59l12-6.93v39.92l6 3.47V25.98l45.18 26.09-12 6.92-21.18-12.23v18.68c0 5.06.3 5.95 5 8.68zm8.72 94.64a3.27 3.27 0 0 0-1.84-.5 3.48 3.48 0 0 0-1.55.31 3.1 3.1 0 0 0-1.07.85 3.7 3.7 0 0 0-.62 1.22 5.18 5.18 0 0 0-.2 1.42 5.7 5.7 0 0 0 .2 1.52 3.71 3.71 0 0 0 .62 1.26 3.23 3.23 0 0 0 1.07.85 3.74 3.74 0 0 0 1.56.31 3.37 3.37 0 0 0 1.19-.2 2.83 2.83 0 0 0 .89-.57 2.45 2.45 0 0 0 .59-.86 3.29 3.29 0 0 0 .26-1.08h1.35a4.16 4.16 0 0 1-1.32 2.76 4.48 4.48 0 0 1-3.07 1 5.26 5.26 0 0 1-2.06-.37 4.09 4.09 0 0 1-1.46-1 4.21 4.21 0 0 1-.87-1.55 6 6 0 0 1-.29-1.93 5.87 5.87 0 0 1 .31-1.93 4.63 4.63 0 0 1 .91-1.57 4.33 4.33 0 0 1 1.51-1.06 5.15 5.15 0 0 1 2.06-.39 5.68 5.68 0 0 1 1.51.2 4 4 0 0 1 1.26.58 3.21 3.21 0 0 1 .92.95 3.43 3.43 0 0 1 .49 1.33h-1.35a2.31 2.31 0 0 0-1-1.55zm6.71-1.33l3.19 7.9 3.21-7.9h1.84v9.4h-1.27v-7.82l-3.17 7.82h-1.15l-3.16-7.82v7.82h-1.28v-9.4zm16.27 1.28a3 3 0 0 0-1.72-.45 3.92 3.92 0 0 0-.84.08 2.34 2.34 0 0 0-.73.26 1.5 1.5 0 0 0-.51.49 1.44 1.44 0 0 0-.19.77 1 1 0 0 0 .27.71 2.2 2.2 0 0 0 .74.44 6.8 6.8 0 0 0 1 .28l1.28.25a12.23 12.23 0 0 1 1.19.31 3.66 3.66 0 0 1 1 .48 2.34 2.34 0 0 1 .74.76 2.26 2.26 0 0 1 .27 1.16 2.22 2.22 0 0 1-.36 1.28 2.77 2.77 0 0 1-.93.87 4 4 0 0 1-1.27.49 6.66 6.66 0 0 1-1.4.15 6.51 6.51 0 0 1-1.61-.2 4 4 0 0 1-1.33-.6 2.79 2.79 0 0 1-.91-1 3.14 3.14 0 0 1-.33-1.48h1.27a2.08 2.08 0 0 0 .25 1 2.18 2.18 0 0 0 .65.7 3 3 0 0 0 .95.41 4.56 4.56 0 0 0 1.11.13 5.69 5.69 0 0 0 .91-.08 2.61 2.61 0 0 0 .83-.27 1.52 1.52 0 0 0 .6-.52 1.46 1.46 0 0 0 .23-.84 1.14 1.14 0 0 0-.28-.79 2.14 2.14 0 0 0-.74-.5 5.8 5.8 0 0 0-1-.3l-1.19-.25c-.4-.08-.8-.18-1.18-.29a4.53 4.53 0 0 1-1.05-.43 2.36 2.36 0 0 1-.74-.7 2 2 0 0 1-.27-1.07 2.35 2.35 0 0 1 .31-1.24 2.69 2.69 0 0 1 .83-.85 3.79 3.79 0 0 1 1.18-.5 5.55 5.55 0 0 1 1.35-.17 6 6 0 0 1 1.45.17 3.5 3.5 0 0 1 1.17.54 2.76 2.76 0 0 1 .8.93 3.19 3.19 0 0 1 .32 1.34h-1.28a1.89 1.89 0 0 0-.84-1.47zm-80.15-9.99v-33.51h-8.72v10.82c-.26-.1-.52-.19-.8-.27a10.29 10.29 0 0 0-1.62-.41 12 12 0 0 0-2.08-.17 14.26 14.26 0 0 0-6.07 1.15 10.5 10.5 0 0 0-3.87 3 11.32 11.32 0 0 0-2 4.24 20.48 20.48 0 0 0-.56 4.74 18.53 18.53 0 0 0 .64 4.94 11 11 0 0 0 2.13 4.17 10.77 10.77 0 0 0 3.85 2.89 13.63 13.63 0 0 0 5.71 1.08h.63a31.82 31.82 0 0 0 4.91-.35 32.46 32.46 0 0 0 4.13-.91 20.9 20.9 0 0 0 3.49-1.32zM8.9 145.91a7.48 7.48 0 0 1 .71-2.34 4.32 4.32 0 0 1 4.21-2.43 8.08 8.08 0 0 1 1.2.18 4.41 4.41 0 0 1 1.08.35c.3.11.59.24.87.37v12.46a5.62 5.62 0 0 1-1 .51 9.36 9.36 0 0 1-1.31.4 3.35 3.35 0 0 1-1.48 0 5.17 5.17 0 0 1-2.35-.93 4.57 4.57 0 0 1-1.32-1.62 6.75 6.75 0 0 1-.62-2.13 17.53 17.53 0 0 1-.16-2.41 17.1 17.1 0 0 1 .17-2.41z" fill="#fff"/><path fill="#fff" d="M29.7 125.13H38.42V132.88H29.7z"/><path d="M29.69 156.05a9 9 0 0 1-1.46 5 11.68 11.68 0 0 1-3.4 3.25l-.5.31 6.18 5.45.28-.18a21.48 21.48 0 0 0 2.92-2.23 14.52 14.52 0 0 0 2.4-2.88 14.89 14.89 0 0 0 1.62-3.62 18.54 18.54 0 0 0 .69-4.46v-19.85h-8.73zm57.15-20.06a8.33 8.33 0 0 0-.8-.27 10.15 10.15 0 0 0-1.61-.41 12.2 12.2 0 0 0-2.09-.17 14.26 14.26 0 0 0-6.07 1.15 10.58 10.58 0 0 0-3.87 3 11.15 11.15 0 0 0-2 4.24 19.9 19.9 0 0 0-.57 4.74 18.89 18.89 0 0 0 .64 4.94 11 11 0 0 0 2.14 4.17 10.73 10.73 0 0 0 3.84 2.89 13.63 13.63 0 0 0 5.71 1.08h.63a32 32 0 0 0 4.92-.35 33.26 33.26 0 0 0 4.13-.91 21.24 21.24 0 0 0 3.49-1.32l.24-.13v-33.47h-8.72zm0 18.5a5.88 5.88 0 0 1-1 .51 10 10 0 0 1-1.32.4 3.35 3.35 0 0 1-1.48 0 5.17 5.17 0 0 1-2.35-.93 4.68 4.68 0 0 1-1.32-1.62 7 7 0 0 1-.62-2.13 17.53 17.53 0 0 1-.16-2.41 17.1 17.1 0 0 1 .18-2.4 7.68 7.68 0 0 1 .72-2.34 4.48 4.48 0 0 1 1.53-1.74 4.57 4.57 0 0 1 2.67-.69 8.42 8.42 0 0 1 1.21.18 4.56 4.56 0 0 1 1.08.35c.29.11.58.24.86.37z" fill="#fff"/><path fill="#fff" d="M99.52 125.13H108.24V132.88H99.52z"/><path fill="#fff" d="M99.52 136.84H108.24V160.7H99.52z"/><path d="M64.85 153.85c-4.91 1.56-9.43 2-11.65 1.09a5.4 5.4 0 0 1-1.82-1.23 5 5 0 0 1-1-1.65 6.42 6.42 0 0 1-.35-1.37h17.16s.58-5.48-1.38-9.16a11.86 11.86 0 0 0-6.39-5.58 13.83 13.83 0 0 0-4.79-.81 15.79 15.79 0 0 0-5.12.83 12.52 12.52 0 0 0-4.32 2.53 11.6 11.6 0 0 0-2.9 4.1 14 14 0 0 0-1.05 5.61 14.9 14.9 0 0 0 1 5.54 11.53 11.53 0 0 0 2.78 4.17 12.09 12.09 0 0 0 4.37 2.61 17.44 17.44 0 0 0 5.78.9 30.63 30.63 0 0 0 3.41-.19c1.14-.12 2.19-.27 3.1-.44s1.68-.34 2.27-.49a5.19 5.19 0 0 0 .92-.3zm-13.5-11.61a4.1 4.1 0 0 1 3.24-1.14 5 5 0 0 1 1.91.33 3.29 3.29 0 0 1 1.26.9 3.91 3.91 0 0 1 .75 1.36 7 7 0 0 1 .27 1.32h-8.73a6.16 6.16 0 0 1 1.3-2.77z" fill="#fff"/></svg>