<svg viewBox="0 0 43.2 23.4" xmlns="http://www.w3.org/2000/svg"><g fill="#fff"><path d="M10.2 0H0v.4h.6c.6 0 1.1.2 1.1 2.3v17.6c0 2.1-.5 2.3-1.1 2.3H0v.5h10.2c5.6 0 9.5-4.4 9.5-11.6S15.8 0 10.2 0m1.7 20.3c0 1.4-.6 2.1-1.7 2.1H8.7V.8h1.5c1.1 0 1.7.6 1.7 2.1z"/><path d="M38.2.5V0h-4.5v.5h.4c1 0 1.4.9 1.4 2.4v12.3L27.5 0h-8.1v.5h.7c.8 0 1.1.3 1.1 1.7v18.1c0 1.5-.5 2.4-1.4 2.4h-.4v.5h4.5v-.5h-.4c-1 0-1.4-.9-1.4-2.4v-15l9.4 17.9h4.9V2.8c0-1.5.5-2.4 1.4-2.4h.4zM40.4 17a2.91 2.91 0 0 0-2.8 3.2c0 2.1 1.2 3.2 2.8 3.2a2.91 2.91 0 0 0 2.8-3.2c0-2.1-1.2-3.2-2.8-3.2"/></g></svg>