<svg id="Layer_1" xmlns="http://www.w3.org/2000/svg" viewBox="0 0 152.1 153.4"><style>.st0{fill:#fff}</style><path class="st0" d="M38.4 113.7c-.9 0-1.7.7-1.7 1.6V123.6c-4-3.2-9.8-2.6-13 1.4-1.3 1.6-2 3.7-2 5.8-.1 5.1 4 9.3 9.1 9.4 5.1.1 9.3-4 9.4-9.1V115.4c0-.5-.2-.9-.5-1.2-.4-.3-.9-.5-1.3-.5m-2.2 19.4c-.6 1.4-1.7 2.5-3.1 3.1-1.4.6-3.1.6-4.5 0s-2.5-1.7-3.1-3.1c-.6-1.4-.6-3 0-4.5.6-1.4 1.7-2.5 3.1-3.1 1.4-.6 3.1-.6 4.5 0s2.5 1.7 3.1 3.1c.6 1.4.6 3 0 4.5m21.4-8.8c-3.6-3.6-9.4-3.6-13 0-1.7 1.7-2.7 4.1-2.7 6.5-.1 5.1 4 9.3 9.1 9.4 5.1.1 9.3-4 9.4-9.1v-.3c0-1.2-.2-2.4-.7-3.5-.5-1.1-1.2-2.2-2.1-3m-1.2 8.7c-.3.7-.7 1.3-1.2 1.8s-1.2 1-1.8 1.3c-1.4.6-3.1.6-4.5 0s-2.5-1.7-3.1-3.1c-.6-1.4-.6-3 0-4.5.6-1.4 1.7-2.5 3.1-3.1 1.4-.6 3.1-.6 4.5 0 .7.3 1.3.7 1.8 1.3.5.5.9 1.2 1.2 1.8.7 1.5.7 3.1 0 4.5m39.4-9.7c0-.2 0-.5-.1-.7-.1-.2-.2-.4-.4-.5-.2-.2-.3-.3-.5-.4-.2-.1-.4-.1-.7-.1-.3 0-.6.1-.9.3l-9.8 6.4v-12.9c0-.5-.2-.9-.5-1.2-.3-.3-.8-.5-1.2-.5-.9 0-1.7.8-1.7 1.7v22.9c0 .5.2.9.5 1.2.3.3.8.5 1.2.5.5 0 .9-.2 1.2-.5.3-.3.5-.8.5-1.2v-5.9l2-1.3 7.6 8.5c.3.3.7.5 1.2.4.2 0 .5 0 .7-.1.2-.1.4-.2.5-.4.2-.2.3-.3.4-.6.1-.2.1-.4.1-.7 0-.4-.2-.9-.5-1.2l-7.1-8 6.9-4.5c.4-.1.6-.6.6-1.2m-28.6 3.4c.5-.5 1.2-.9 1.8-1.2.7-.3 1.5-.5 2.3-.5.7 0 1.4.1 2 .4.6.3 1.2.6 1.8 1.1.3.3.7.4 1.1.4.5 0 .9-.2 1.2-.5.3-.3.5-.8.5-1.2 0-.5-.2-1-.6-1.3-1.6-1.5-3.8-2.3-6-2.2-5.1 0-9.2 4.1-9.2 9.2s4.1 9.2 9.2 9.2c2.2 0 4.4-.8 6-2.2.3-.3.5-.8.5-1.3 0-.9-.7-1.7-1.6-1.7h-.1c-.4 0-.8.1-1.1.4-.5.5-1.1.8-1.7 1.1-.6.2-1.3.4-2 .4-.8 0-1.5-.1-2.3-.5-.7-.3-1.3-.7-1.8-1.2-2.3-2.4-2.3-6.1 0-8.4 0 .1 0 0 0 0m62.8-3.9c-.3-.3-.7-.6-1.2-.7-.5-.2-1-.3-1.5-.4-.5-.1-1-.1-1.6-.1-1.1 0-2.1.2-3.1.5-1 .4-1.9.9-2.7 1.5v-.3c0-1-.8-1.7-1.8-1.7-.9 0-1.6.8-1.7 1.7v15c0 1 .8 1.7 1.8 1.7.9 0 1.6-.8 1.7-1.7v-7.5c0-.8.1-1.5.5-2.3.3-.7.7-1.3 1.2-1.8s1.2-.9 1.8-1.2c.7-.3 1.5-.5 2.3-.5.8 0 1.5.1 2.3.4.2.1.5.2.7.2.2 0 .5 0 .7-.1.2-.1.4-.2.5-.4.2-.2.3-.3.4-.5.1-.2.1-.4.1-.7 0-.4-.1-.8-.4-1.1m-16 4.5c-1.5-3.4-4.8-5.7-8.5-5.7-5.1 0-9.2 4.1-9.2 9.2s4.1 9.2 9.2 9.2c2.2 0 4.4-.8 6-2.2l.1-.1c.2-.1.3-.3.4-.4.6-.8.4-1.9-.4-2.4-.7-.4-1.5-.4-2.1.2l-.2.2c-.5.4-1.1.7-1.7 1-.6.2-1.3.3-2 .3-.6 0-1.2-.1-1.8-.3-.6-.2-1.1-.5-1.6-.8-.5-.4-.9-.8-1.3-1.3s-.6-1.1-.8-1.7h13c.5 0 .9-.2 1.2-.5.3-.3.5-.8.5-1.2-.1-1.2-.4-2.4-.8-3.5m-14.1 1.8c.2-.6.4-1.2.8-1.7s.8-.9 1.3-1.3 1-.6 1.6-.8c.6-.2 1.2-.3 1.8-.3.6 0 1.2.1 1.8.3 1.2.4 2.2 1.1 2.9 2.1.4.5.7 1.1.8 1.7h-11zm24.2 8.5c-.7 0-1.2.6-1.2 1.2s.6 1.2 1.2 1.2c.7 0 1.2-.5 1.2-1.2s-.5-1.3-1.2-1.2m0 2.1c-.5 0-1-.4-1-.9s.4-1 .9-1 1 .4 1 .9v.1c0 .4-.4.9-.9.9"/><path class="st0" d="M124.4 138.8c.1 0 .2-.2.2-.3 0-.1 0-.2-.1-.3-.1-.1-.3-.1-.4-.1h-.5v1.2h.3v-.5h.1c.2 0 .2.1.2.2s0 .2.1.3h.3c0-.1-.1-.2-.1-.3.1-.1 0-.2-.1-.2m-.4-.1h-.1v-.3h.2c.2 0 .3.1.3.2-.1 0-.2.1-.4.1"/><g><path class="st0" d="M131.7 43.9c-.3-.2-3.2-2.4-9.2-2.4-1.6 0-3.2.1-4.8.4-1.2-8-7.8-12-8.1-12.1l-1.6-.9-1.1 1.5c-1.3 2.1-2.3 4.4-2.9 6.8-1.1 4.6-.4 8.9 1.9 12.6-2.8 1.6-7.3 2-8.2 2H22.9c-2 0-3.5 1.6-3.5 3.5-.1 6.5 1 13.1 3.3 19.2C25.2 81.2 29 86.2 34 89.2c5.6 3.4 14.7 5.4 24.9 5.4 4.6 0 9.3-.4 13.8-1.3 6.3-1.2 12.5-3.4 18.1-6.6 4.6-2.7 8.8-6.1 12.3-10.1 5.9-6.7 9.4-14.2 12.1-20.8h1c6.5 0 10.5-2.6 12.7-4.8 1.5-1.4 2.6-3.1 3.3-4.9l.5-1.4-1-.8z"/><path class="st0" d="M29.8 49.5h10c.5 0 .9-.4.9-.9v-8.9c0-.5-.4-.9-.9-.9h-10c-.5 0-.9.4-.9.9v8.9c0 .5.4.9.9.9m13.8 0h10c.5 0 .9-.4.9-.9v-8.9c0-.5-.4-.9-.9-.9h-10c-.5 0-.9.4-.9.9v8.9c0 .5.4.9.9.9m14 0h10c.5 0 .9-.4.9-.9v-8.9c0-.5-.4-.9-.9-.9h-10c-.5 0-.9.4-.9.9v8.9c0 .5.4.9.9.9m13.9 0h10c.5 0 .9-.4.9-.9v-8.9c0-.5-.4-.9-.9-.9h-10c-.5 0-.9.4-.9.9v8.9c0 .5.4.9.9.9M43.6 36.7h10c.5 0 .9-.4.9-.9v-8.9c0-.5-.4-.9-.9-.9h-10c-.5 0-.9.4-.9.9v8.9c0 .5.4.9.9.9m14 0h10c.5 0 .9-.4.9-.9v-8.9c0-.5-.4-.9-.9-.9h-10c-.5 0-.9.4-.9.9v8.9c0 .5.4.9.9.9m13.9 0h10c.5 0 .9-.4.9-.9v-8.9c0-.5-.4-.9-.9-.9h-10c-.5 0-.9.4-.9.9v8.9c0 .5.4.9.9.9m0-12.9h10c.5 0 .9-.4.9-.9V14c0-.5-.4-.9-.9-.9h-10c-.5 0-.9.4-.9.9v9c0 .4.4.8.9.8m13.9 25.7h10c.5 0 .9-.4.9-.9v-8.9c0-.5-.4-.9-.9-.9h-10c-.5 0-.9.4-.9.9v8.9c0 .5.4.9.9.9"/></g></svg>