<?xml version="1.0" encoding="utf-8"?>
<!-- Generator: Adobe Illustrator 25.1.0, SVG Export Plug-In . SVG Version: 6.00 Build 0)  -->
<svg version="1.1" id="Layer_1" xmlns="http://www.w3.org/2000/svg" xmlns:xlink="http://www.w3.org/1999/xlink" x="0px" y="0px"
	 viewBox="0 0 218 45" style="enable-background:new 0 0 218 45;" xml:space="preserve">
<style type="text/css">
	.st0{fill:#FFFFFF;}
</style>
<g>
	<path class="st0" d="M79.7,16.7c-2.3,0-4.6,0.9-6.3,2.5c-1.7,1.5-2.6,3.7-2.6,6v15.5l4-0.9V25.5c0-1.3,0.5-2.5,1.4-3.4
		c1.8-1.9,4.8-1.9,6.7-0.1c0.9,0.9,1.4,2.2,1.4,3.5c0.1,1.4-0.4,2.7-1.4,3.6c-1.1,0.9-2.6,1.4-4.1,1.3c-0.5,0-1-0.1-1.5-0.2
		c-0.1,0-0.3-0.1-0.4-0.1l-0.8,3.7c1.1,0.4,2.2,0.6,3.3,0.6c4.8,0.1,8.9-3.7,9-8.6c0-0.1,0-0.3,0-0.4c0.1-4.8-3.7-8.7-8.5-8.8
		C80,16.7,79.9,16.7,79.7,16.7L79.7,16.7z M98.7,16.7c-4.9,0.1-8.9,4.1-8.8,9.1c0,2.3,0.9,4.5,2.6,6.2c1.6,1.7,3.9,2.6,6.2,2.6
		c2.4,0.1,4.7-0.9,6.3-2.6c3.5-3.5,3.5-9.1,0.1-12.6C103.4,17.7,101.1,16.7,98.7,16.7z M102,29.2c-0.8,1-2,1.5-3.3,1.5
		c-1.3,0-2.5-0.5-3.3-1.5C94.5,28.3,94,27,94,25.7c0-1.3,0.5-2.6,1.4-3.6c1.6-1.8,4.5-2,6.3-0.4c0.1,0.1,0.2,0.2,0.3,0.3
		C103.9,24.1,103.9,27.2,102,29.2L102,29.2z M111.3,18.8c-1.3,1.2-2,2.9-1.9,4.6v10.9h4V23.9c-0.1-1.6,1.1-3,2.7-3.1
		c0.1,0,0.3,0,0.4,0h0.2l0.9-3.8H116C114.2,16.9,112.5,17.6,111.3,18.8z M163.9,16.9c-1.8,0-3.6,0.7-4.9,2c-1.2-1.3-2.9-2-4.7-2
		c-1.8-0.1-3.5,0.7-4.8,2c-1.3,1.3-2,3-1.9,4.8v10.6h4V23.7c0-0.8,0.2-1.5,0.7-2.1c0.5-0.5,1.3-0.8,2-0.8c0.7,0,1.4,0.2,2,0.8
		c0.5,0.6,0.8,1.3,0.7,2v10.6h4V23.7c0-0.7,0.2-1.5,0.7-2c0.5-0.5,1.2-0.8,2-0.8c0.8,0,1.5,0.3,2,0.8c0.5,0.6,0.8,1.3,0.8,2v10.5h4
		V23.7c0-1.8-0.7-3.5-1.9-4.8C167.4,17.6,165.7,16.9,163.9,16.9L163.9,16.9z M181.3,16.7c-4.9,0.1-8.9,4.1-8.8,9.1
		c0,2.3,0.9,4.5,2.6,6.2c1.6,1.7,3.9,2.6,6.2,2.6c2.4,0.1,4.7-0.9,6.3-2.6c3.5-3.5,3.5-9.1,0.1-12.6C186,17.7,183.7,16.7,181.3,16.7
		L181.3,16.7z M184.6,29.2c-0.8,1-2,1.5-3.3,1.5c-1.3,0-2.5-0.5-3.3-1.5c-0.9-0.9-1.4-2.2-1.4-3.5c0-1.3,0.5-2.6,1.4-3.6
		c1.6-1.8,4.5-2,6.3-0.4c0.1,0.1,0.2,0.2,0.3,0.3C186.5,24.1,186.5,27.2,184.6,29.2L184.6,29.2z M140.4,18.2
		c-1.9-1.4-4.4-1.9-6.7-1.3c-4.9,1-8,5.7-7.1,10.6c0,0.1,0,0.1,0,0.2c0.4,2.3,1.8,4.4,3.8,5.6c2,1.3,4.4,1.7,6.7,1.2
		c0.5-0.1,1-0.2,1.4-0.4c0.6-0.3,1.2-0.6,1.8-0.9l-0.9-4c-0.4,0.4-0.9,0.7-1.4,0.9c-0.4,0.2-0.8,0.3-1.2,0.4
		c-1.3,0.3-2.8,0.1-3.9-0.6c-2.3-1.5-3-4.5-1.5-6.8c0,0,0,0,0,0c0.7-1.1,1.8-1.9,3.1-2.1c1.3-0.3,2.7,0,3.7,0.8
		c1.1,1,1.9,2.3,2.1,3.8l2.1,8.9h4.1l-2.3-9.9C143.8,21.9,142.4,19.7,140.4,18.2L140.4,18.2z M64.6,19.2c-0.2-0.4-0.4-0.9-0.5-1.3
		c-0.1-0.4-0.2-0.7-0.2-1.1c0-0.7,0.4-1.4,1-1.7c0.7-0.5,1.5-0.7,2.4-0.7h5.9l0.9-4.1h-7.7c-1.8-0.1-3.6,0.6-5,1.8
		c-1.3,1.2-2,2.8-2,4.5c0,1.1,0.3,2.2,0.8,3.1l2.9,5.9c0.2,0.4,0.3,0.8,0.5,1.3c0.1,0.3,0.2,0.7,0.2,1.1c0,0.7-0.3,1.4-0.9,1.8
		c-0.7,0.5-1.5,0.8-2.3,0.7h-5.1l-0.9,4h6.8c1.8,0.1,3.6-0.5,5-1.7c1.3-1,2-2.5,2-4.2c0-1.3-0.4-2.6-1-3.7L64.6,19.2z M123.2,29.9
		c-0.5-0.5-0.8-1.2-0.8-2l0.1-7.2h2.6l0.8-3.8h-3.5v-4.4l-4,0.9v14.5c-0.2,3.3,2.3,6.2,5.7,6.4c0.2,0,0.5,0,0.7,0h1.7l-0.8-3.7
		C124.8,30.7,123.9,30.4,123.2,29.9z M198.7,16.9c-1.8,0-3.5,0.7-4.7,1.9c-1.2,1.2-1.9,2.9-1.9,4.6v10.9h4V23.9
		c0-0.8,0.3-1.7,0.9-2.3c0.6-0.6,1.4-0.9,2.3-0.9h0.2l0.9-3.8L198.7,16.9z M212.3,29c-1.9,2.1-5.1,2.3-7.3,0.5
		c-2.1-1.9-2.3-5.1-0.5-7.3s5.1-2.3,7.3-0.5c0.6,0.5,1.1,1.2,1.4,1.9l-7.9,1.8l0.7,2.9l7.5-1.7l3.8-0.9v-0.1c0-4.9-4-8.9-8.9-8.9
		c-4.9,0-8.9,4-8.9,8.9c0,4.9,4,8.9,8.9,8.9c3.2,0,6.2-1.8,7.8-4.6L212.3,29z M25.4,18h2.4v1.4h-2.4V18z M38.1,18h2.4v1.4h-2.4V18z
		 M34.1,18h2.4v1.4h-2.4V18z M29.7,18h2.4v1.4h-2.4V18z"/>
	<path class="st0" d="M37.5,1.2c-3.4,0-6.6,1.3-9.1,3.5L26,7l-2-2C19-0.3,10.5-0.5,5.1,4.6s-5.6,13.6-0.5,19
		c0.1,0.1,0.1,0.1,0.2,0.2L26,45l20.7-20.7c5.4-5.1,5.6-13.6,0.5-19C44.7,2.7,41.1,1.2,37.5,1.2z M7.6,21c-0.4-0.5-0.8-1-1.2-1.6
		h1.7V18H5.8C3.9,13.1,6.3,7.7,11.2,5.8c0.8-0.3,1.7-0.5,2.6-0.6V7h1.4V5.2c2.3,0.1,4.5,1.1,6.1,2.7l0.8,0.8
		c2.1,2.6,2.6,6.2,1.4,9.3H21v1.4h1.7c-1.6,2.7-4.4,4.5-7.6,4.6v-2h-1.4v2c-1.9-0.2-3.7-0.9-5.1-2L7.6,21z M26,39.4l-3.7-3.7h7.3
		L26,39.4z M41.8,23.6L31.1,34.3H20.9l-5.8-5.8v-2.2h-1.4v0.8l-2-2c5.8,1.5,11.8-1.9,13.4-7.8c0.5-1.8,0.5-3.8,0-5.6l0.9,0.9
		l5.1-5.1c2.9-2.6,7.2-3.2,10.7-1.4V23.6z M43.9,21.5l-0.7,0.7V7.1c4.1,3.2,4.9,9.1,1.7,13.2C44.6,20.8,44.3,21.2,43.9,21.5z"/>
	<path class="st0" d="M13.8,20.1h1.4v-0.8c0.6-0.1,1.1-0.3,1.7-0.6v0.6h2.4V18h-1.3c2-1.9,2-5,0.1-7c-0.8-0.8-1.8-1.3-2.8-1.4V8.8
		h-1.4v0.8c-2.7,0.4-4.6,2.9-4.2,5.6c0.2,1.1,0.7,2.1,1.4,2.9H9.7v1.4h2.4v-0.6c0.5,0.3,1,0.4,1.6,0.5L13.8,20.1z M10.9,14.5
		c0-1.7,1.2-3.1,2.8-3.5v0.6h1.4V11c1.9,0.4,3.1,2.3,2.8,4.2c-0.3,1.4-1.4,2.5-2.8,2.8v-0.6h-1.4v0.6C12.1,17.6,10.9,16.1,10.9,14.5
		z"/>
	<path class="st0" d="M13.8,13.2h1.4v2.4h-1.4V13.2z"/>
</g>
</svg>
