<svg enable-background="new 0 0 213.6 140" viewBox="0 0 213.6 140" xmlns="http://www.w3.org/2000/svg"><path d="m213.1 64.3-.4-1.2-.9-1.2-.1-.7-.6-.7-.7-1.5-1.4-1.6-3.5-1.2-6-1-1 .3-.6-.1-1.6.3-2.9-.4-1.7.6-1.8.3-.9.4-.8.1-1.7.9-6.5 2.2-.4.4-3.3 1.6-2.3.8-3 1.1-4.3 2.2-1.6 1-1.3.3-2.8-.5-1.7-.8-3.2-1.7-1.6-.6-1.5-.7-6.5-2.1-1.6-.2-8.8-1-.7-.6-2.4-1.1-.7.7-.8.3-1.3 1.3-.5-.9.2.2.1-.1h.1l1-1.1.4-.1 1.5-1.3.6.3 1.1-.8 1.1-2.3.1-3 .6-.1v-.6l-1.5-3.2v-1.2l-.1-.2-.3-.8.1-1.3.5-.6.3-2.2-.4-1.7.2-.4v-1.8l-1.2-2-2.4-3.8-1-.6-2.1.1-.8.3-2.6.3-.7-.3h-.5l-1.3-.6-3.1-.6h-.6l-.8.8-1.5.6-2.7 2.5h-.3l-.7-.4-2.1.1-1.3 1.2-.7 1.6-.5 2.3.2 1.8.3.6.3 1.2-.6.2-.6-.3v-.1l-.4-.1-.2-.1v.1l-1.7-.3-3.2.3-.8.4-8.7-1.9-1.6-.3-6.8-.1-1.6.2-1.7.1-3.6.5-1.9.2-2.8-.4-9 5.7v-.3l-.2-2 .3-2.1-.1-2.3v-2.6l.3-2.4.1-1.2-.3-1.2.1-1.2v-1.2l-1.5-1.1-.3-1 .3-1-.6-.7-1.2-4.5-.3-.7c0-.3-.1-.6-.1-.9-.6-2.1-.2-4.3-.2-4.3s-.9.2-1.4 1.3l-2.7-3.6-3.4-3.4-3.8-3.1-3.5-2.2-4.9-1.7-5.3-1.2-1 .1c-2.1-.1-3.7-.9-3.7-.9s-.2.5 0 1.2l-3.7.3-7.2 2.3-6.2 4-4.7 5.7-3.9 6.2-.4 1.2c-.3.4-.6.8-.7 1.3-.7 2.2-2.3 3.7-2.3 3.7s.4.3 1.1.4l-.1.3-.3 1.5c-.7 1.3-1.4 2.1-1.4 2.1s.3.2.9.2l-.6 3-.6 6.6 1 3.5.9 3 1.5 2.5 1.4 2.4 2 1.7 2.3 1 1.9 1.2 2 .6.4.1c1.3.7 2.1 1.6 2.1 1.6s.2-.4.3-1l.6.1 3.6-.5 3.6-1.2 3.7-1.6 3-3 2.9-3.3h-1.2l1.8-4.5.1-4.8-.1-4.2-1.3-3.5-1.9-2.7-2.6-1.6-3-.5-3.3.9-3.4 2.3c-1.1.6-2.1.9-2.1.9s.3.4 1 .6l-.5.7-.6 1-.1.1c-1 .8-1.8 1.3-1.8 1.3s.3.2.7.3l-.1.6v.5l-.3.1.1.2-.3.4v.7l.1.7.3.7v.8l.8.3.8.2 1.1-.1 1-.1.6-.9.4-.8c.4.3.8.4.8.4s.1-1.1.7-2.4l.1-.1.1-.4c.2-.4.5-.9.8-1.3.2-.3.3-.5.4-.8l.5-.6 1.1-.6 1.1-.6 1.2.1 1.1.6 1.1.9.4 1.8.6 2.3.2 2.7-.2 2.4-.6 2.2-.9 1.9-1 2.2-.4-.5s-.5.9-1 1.6c-.2.2-1.8 1.3-1.8 1.3l-3.3.9-3.4.7-3.3-.9-3.1-1.3-2.5-2.5-1.6-3.4-1.3-4.4.3-5.1 1.3-5.6 2.3-5.8 3.2-5.5 3.8-4.2c.1.4.3.7.3.7s.5-1 1.4-2.2l3.9-2.9 6.4-1.7 7.4-.4 4.9 1.3 4.3 2.2 2.7 2.7 3.5 2.9 2.4 3.7 2 3.9 1.2 4.2 1.2 4c-.5-.2-.9-.1-.9-.1s.6.9 1.1 2.1l.1 1 .1 1.9c-.5-.4-1-.4-1-.4s.7 1.7.7 3.7l.2 2.3-.3 2.1.2 1.9-.1 1.2-1.2.4-2.9 1.4-2.2 1.1-3.4 1.3h-.6l-6.1 3.2-1.8.6-.6.5-.5.5-1.4 1.1-1.6.9-1.7 2.4-1.3.9-.3.5-.9.6-3.4 5-1.5 3.4.2 2.1.6 1.5.1.9.4.5.2 1.4.5 1.1.8.7 1.5.7.3.4.5.2 1.1-.2.7-.6 1.9-.6.4-.7.1-.8-.1-.2-.7.1v-.2h-1.2l-.5-1.4-.6-1.5-.4-.6-.1-.8.9-1.8 1.1-1.2 1.4-2.1.1-.1.2 2.3.4 1.6.6.3 1.1-.4.3-1.5.3-1.5.3-1.6.8-2.4.7-1.8.8-.6.6-1 3.9-1.6 2.2-.5 4-1.2 1.2-.1 1.3-.3 3.2.1.5-.1.2 2.3.5 2.8c-.7 0-1.2.3-1.2.3s1.4 1.7 1.8 4.1c.1.4.2.8.4 1.1l.3 1.2.6 1.4.7 2.5 1.3 2.7.8.8.5 1 1.4 1.1v.3l.6 1.6.8 1.3.8.6 1.7 1.1h.3l.4.4 2.2 1 1.3.4 1.9.4 2.2-.3 1.7-.5h1l-.6.6-.4 1.2.3.3v.4.2l-.8 1.8-.6.8.1.1v.1l-.3.6-.5 1.8-.6 1-.1.8-1.5 4.6-.2.8-.2.2-.8 1.5-1.7 2.8-1.3 1.3-.8 1-.1 1.7-.6.9-.4 2.5v1.6l-.6 3.9-.5.1-2.4 1.4-1 .3-1.3.8-.6.1-.6.7-1.3 2.6-.3 1.5-.6 2.3-.8 1.5v1.2l.6.6.6.1.4-.4h.3l1.2-1.2 1.1-2 .4-1 .8-.8.2.3.2 2.9-.4 1-1.3 3.4-1 1.3-1 .8h-.4l-1.7 1-.3-.3-.4.4.3 1.4.6.7h2l.5.3 1 .2.6-.3h.6v.1h1.4l.8-.1.4-.4 1-.3.9-.8 3.1-5.4 1-3.1.2.2v.1l.2.8-.2.2-.6 1.1.8.8h.7l.4-.2 2.4.1.4-.3.5-.6.7-.3.8-.6.2-.6 1.3-1.8.6-1.8-.4-2.7.7-.3 5.4-3.1 2.3-1.1 2.4-.9 1.3-.6 1.4-.3.7-.4 1.3-.3 1.3-.6 1-.2.6-.4 1.1-.3.2-.2 2.7-2.5.4-2.2.6-3.6.6-5.2-.3-5.8v-1.3l-.6-2.9-1.3-3.1.1-.1.5-.3.1-.3-.6-2.3-.5-.8-.9-2.7-.1-4.5.3-1 .2-1 1-1 3.5-3.3h.7l2.6-.6h.6l1.7-.2.5-.2h.6l1.3-.6 1.3-.2 1.6-.7h.7l16.9 3.3 4.1 1.9.3-.3 2.7.6 2.2.5.1-.3.4-.5h.1l3.8.5 3.7 1.2 4 1.5.3-.4 3.7 1.1 1.9.2 2.6.4 2.2-.2 3.7-1.5 1.1-.7 2.6-1.4.8-1 1.2-.7 1.3-1.1 2.4-2.1 1.1-.7.9-.8 3.6-2.1 1.9-1.2 3.8-1.7 1.2.3 1-.1 1.8.8 2.3 1 1.4.9 1.3.8 1.3.8 1-.5.2-.6-.9-1.4-1.6-1.7h.2l2.5.4 1.6.1 1.9.6.5.6.1.7.6 1.4.7 1.3-.8.8.1.1-.5.4.1.2.6.5.8.3 1.8-.9.9-.2.9-.7.2-.5-.1-.5.5-1.6zm-135.7-2.4-2 1.6-1 .5-1.7.3-1.4.7-.8.8h-1l-1.6-.8-1.5-1.7-1.7-2.9s-.4-1.1-.5-2.7c0-.2 0-.5-.1-.8l1-.3 1.3-2.1 3.4 2 1.8-3.3 1.5-2.1v-.6l3.8.1.2.5 4.3-.1 3.9.1 3.7.7h.1l.1.2-.6.3-3 1.7-3.9 3.1zm13.7 45.2v.4l-.2.2-1.4-.3-1.9.6-3.1 1.6-4.2 2.7-.3-1.3.1-2.9 1.1-2.4 4-4.9 1.4-1.5 2.3-2.9.2 4 .2.5v.1l.1.1.3-.2.3-.3.1 3.6 1 .6-.2 1.5z" fill="#f40"/></svg>