<svg viewBox="0 0 452 138.7" xmlns="http://www.w3.org/2000/svg" ><g fill="#fff" stroke="#fff"><path d="m222 87c-1.3-1.4-2.8-2.2-4.6-2.2h-27.9c-1.8 0-3.5.7-5 2.2-1.6 1.4-2.5 3.1-2.7 4.8l-4.1 38.1c-.2 1.8.4 3.4 1.7 4.8s2.8 2.2 4.6 2.2h27.9c1.8 0 3.5-.7 5-2.2 1.6-1.4 2.5-3.1 2.7-4.8l4.1-38.1c.1-1.7-.4-3.3-1.7-4.8zm-20.9 35.9h-3.5l2.5-24.1h3.5zm66.6-35.9c-1.3-1.4-2.8-2.2-4.6-2.2h-27.9c-1.8 0-3.5.7-5.1 2.2s-2.5 3.1-2.7 4.8l-4.8 45.1h19.4l4-38.2h3.5l-4 38.2h19.2l4.8-45.1c.1-1.7-.5-3.3-1.8-4.8zm45 25.8 2.9-27.9h-19.2l-2.9 27.9h-3.5l2.9-27.9h-19.2l-5.5 52.1h19.2l1.1-10.2h3.5l-1 10.2h19.2l1-10.2c.2-1.8-.4-3.5-1.6-4.9-1.3-1.4-2.8-2.1-4.6-2.1 1.8 0 3.6-.7 5.2-2.1 1.5-1.5 2.4-3.1 2.5-4.9zm47.2-14 1.5-13.9h-41.9l-5.5 52.1h41.9l1.5-14.1h-22.7l.5-5h15.8l1.4-14.1h-15.7l.5-5zm28-13.9-2.7 25.5h-3.5l2.7-25.5h-19.2l-2.9 27.9c-.2 1.8.4 3.5 1.6 4.9 1.3 1.4 2.8 2.1 4.6 2.1h15.6l-.3 3.3h-15.7l-1.5 13.9h27.9c1.8 0 3.5-.7 5.1-2.1s2.4-3 2.6-4.9l4.8-45.1zm63 16.5 1.1-9.5c.2-1.8-.4-3.4-1.7-4.8s-2.8-2.2-4.6-2.2h-27.9c-1.8 0-3.5.7-5 2.2-1.6 1.4-2.5 3.1-2.7 4.8l-2 19c-.2 1.8.4 3.4 1.6 4.9 1.3 1.4 2.8 2.1 4.6 2.1h15.7l-.5 5h-3.5l.3-2.5h-19.3l-1 9.6c-.2 1.8.4 3.4 1.7 4.8s2.8 2.2 4.6 2.2h27.9c1.8 0 3.5-.7 5-2.2 1.6-1.5 2.5-3.1 2.7-4.8l2-19.1c.2-1.8-.4-3.5-1.6-4.9-1.3-1.4-2.8-2.1-4.6-2.1h-15.7l.5-5h3.5l-.3 2.6zm-438.9 9.5c-.2 1.8.4 3.4 1.6 4.9 1.3 1.4 2.8 2.1 4.7 2.1h15.7l-.5 5h-22.7l-1.5 14.1h34.9c1.8 0 3.5-.7 5.1-2.2s2.5-3.1 2.7-4.8l2-19.1c.2-1.8-.4-3.5-1.6-4.9-1.3-1.4-2.8-2.1-4.7-2.1h-15.7l.5-5h22.7l1.5-13.9h-41.9zm159.9-26h-50.8c-1.8 0-3.5.7-5.1 2.2-1.6 1.4-2.5 3.1-2.7 4.8l-4.8 45.1h19.2l4-38.2h3.5l-4 38.2h19.2l4-38.2h3.7l-4.1 38.2h19.2l4.8-45.1c.2-1.8-.4-3.5-1.6-4.9-1.1-1.4-2.6-2.1-4.5-2.1z"/><path d="m212.6 63.5-.4-1.2-.9-1.2-.1-.7-.6-.7-.7-1.5-1.4-1.6-3.5-1.2-6-1-1 .3-.6-.1-1.6.3-2.9-.4-1.7.6-1.8.3-.9.4-.8.1-1.7.9-6.5 2.2-.4.4-3.3 1.6-2.3.8-3 1.1-4.3 2.2-1.6 1-1.3.3-2.8-.5-1.7-.8-3.2-1.7-1.6-.6-1.5-.7-6.5-2.1-1.6-.2-8.8-1-.7-.6-2.4-1.1-.7.7-.8.2-1.3 1.3-.5-.9.2.2.1-.1h.1l1-1.1.4-.1 1.5-1.3.6.3 1.1-.8 1.1-2.3.1-3 .6-.1v-.6l-1.5-3.2-.2-1.1-.1-.2-.3-.8.1-1.3.5-.6.3-2.2-.4-1.7.2-.4v-1.7l-1.2-2-2.4-3.8-1-.6-2.1.1-.8.3-2.6.3-.7-.3h-.6l-1.3-.6-3.1-.6h-.6l-.8.8-1.5.6-2.7 2.5h-.3l-.7-.4-2.1.1-1.3 1.2-.7 1.6-.5 2.3.2 1.8.3.6.3 1.2-.6.2-.6-.3v-.1l-.4-.1-.2-.1v.1l-1.7-.3-3.2.3-.8.4-8.7-1.9-1.2-.5-6.8-.1-1.6.2-1.7.1-3.6.5-1.9.2-2.8-.4-9 5.7v-.3l-.2-2 .3-2.1-.1-2.3-.2-2.4.3-2.4.1-1.2-.3-1.2.1-1.2v-1.2l-1.5-1.1-.3-1 .3-1-.6-.7-1.2-4.5-.3-.7c0-.3-.1-.6-.1-.9-.6-2.1-.2-4.3-.2-4.3s-.9.2-1.4 1.3l-2.7-3.6-3.4-3.5-3.8-3.1-3.5-2.2-4.9-1.7-5.3-1.2-1 .1c-2.1-.1-3.7-.9-3.7-.9s-.2.6 0 1.2l-3.7.3-7.2 2.3-6.2 4-4.7 5.7-3.9 6.2-.3 1.3c-.3.4-.6.8-.7 1.3-.8 2.2-2.4 3.7-2.4 3.7s.4.3 1.1.4l-.1.3-.3 1.5c-.6 1.3-1.3 2.2-1.3 2.2s.3.2.9.2l-.6 3-.6 6.6 1 3.5.9 3 1.5 2.5 1.4 2.4 2 1.7 2.3 1 1.9 1.2 2 .6.4.1c1.3.7 2.1 1.6 2.1 1.6s.2-.4.3-1l.6.1 3.6-.5 3.6-1.2 3.7-1.6 3-3 2.9-3.3h-1.2l1.8-4.5.1-4.8-.1-4.2-1.3-3.5-1.9-2.7-2.6-1.5-3-.5-3.4.6-3.4 2.3c-1.1.6-2.1.9-2.1.9s.3.4 1 .6l-.5.7-.6 1v.2c-1 .8-1.8 1.3-1.8 1.3s.3.2.7.3l-.1.5v.5l-.3.1.1.2-.3.4v.7l.1.7.3.7v.8l.8.3.8.2 1.1-.1 1-.1.6-.9.4-.8c.4.3.8.4.8.4s.1-1.1.7-2.4l.1-.1.1-.4c.2-.4.5-.9.8-1.3.2-.2.3-.5.4-.8l.5-.6 1.1-.6 1.1-.6 1.2.1 1.1.6 1.1.9.4 1.8.6 2.3.2 2.7-.2 2.4-.6 2.2-.9 1.9-1 2.2-.4-.4s-.5.9-1 1.6c-.2.2-1.8 1.3-1.8 1.3l-3.3.9-3.4.7-3.3-.9-3.1-1.3-2.5-2.5-1.7-3.4-1.2-4.4.3-5.1 1.3-5.7 2.3-5.8 3.2-5.5 3.8-4.2c.1.4.3.7.3.7s.5-1 1.4-2.2l3.9-2.9 6.4-1.7 7.4-.4 4.9 1.3 4.3 2.2 2.7 2.7 3.5 2.9 2.4 3.7 2 3.9 1.2 4.2 1.2 4c-.4-.1-.8-.1-.8-.1s.6.9 1.1 2.1l.1 1 .1 1.9c-.5-.4-1-.4-1-.4s.7 1.7.7 3.7l.2 2.3-.3 2.1.2 1.9v1.4l-1.2.4-2.9 1.4-2.2 1.1-3.4 1.3h-.6l-6.1 3.2-1.7.6-.6.5-.9.4-1.3 1.1-1.6.9-1.7 2.4-1.3.9-.3.5-.9.6-3.4 5-1.5 3.4.2 2.1.6 1.5.1.9.4.5.2 1.4.5 1.1.8.7 1.5.7.3.4.5.2 1.1-.2.7-.6 1.9-.6.4-.7.1-.8-.1-.2-.6.3v-.2h-1.2l-.5-1.4-.6-1.5-.4-.6-.1-.8.9-1.8 1.1-1.2 1.4-2.1.1-.1.2 2.3.4 1.6.6.3 1.1-.4.3-1.5.3-1.5.3-1.6.8-2.4.7-1.8.8-.6.6-1 3.9-1.6 2.2-.5 4-1.2 1.2-.1 1.3-.3 3.2-.3.5-.1.2 2.3.5 2.8c-.6.1-1.1.3-1.1.3s1.4 1.7 1.8 4.1c.1.4.2.8.4 1.1l.3 1.2.6 1.4.7 2.5 1.3 2.7.8.8.5 1 1.4 1.1v.3l.6 1.6.8 1.3.8.6 1.7 1.1h.3l.4.4 2.2 1 1.3.4 1.9.4 2.2-.3 1.7-.5h1l-.6.6-.4 1.2.3.3.3.2v.2l-.8 1.8-.6.8.1.1v.1l-.3.6-.5 1.8-.6 1-.1.8-1.5 4.6-.2.8-.2.2-.8 1.5-1.7 2.8-1.3 1.3-.8 1-.1 1.7-.6.9-.4 2.5v1.6l-.6 3.9-.5.1-2.4 1.4-1 .3-1.3.8-.6.1-.6.7-1.3 2.6-.3 1.5-.6 2.3-.8 1.5v1.2l.6.6.6.1.4-.4h.3l1.2-1.2 1.1-2 .4-1 .8-.8.2.3.2 2.9-.4 1-1.3 3.4-1 1.3-1 .8h-.7l-1.7 1-.3-.3-.4.4.3 1.4.6.7h2l.5.3 1 .2.6-.3h.6v.1h1.4l.8-.1.4-.4 1-.3.9-.8 3.1-5.4 1-3.1.2.2v.1l.2.8-.2.2-.6 1.1.8.8h.8l.4-.2 2.2-.1.4-.3.5-.6.7-.3.8-.6.2-.6 1.3-1.8.6-1.8-.4-2.7.7-.3 5.4-3.1 2.3-1.1 2.4-.9 1.3-.6 1.4-.3.7-.4 1.3-.3 1.3-.6 1-.2.6-.4 1.1-.3.2-.2 2.7-2.5.4-2.2.6-3.6.6-5.2-.3-5.8v-1.2l-.6-2.9-1.3-3.1.1-.1.5-.3.1-.3-.6-2.3-.5-.8-.9-2.7-.1-4.5.3-1 .2-1 1-1 3.5-3.3h.7l2.6-.6h.6l1.7-.2.5-.2h.6l1.3-.6 1.3-.2 1.6-.7h.7l16.9 3.3 4.1 1.9.3-.3 2.7.6 2.2.5.1-.3.4-.5h.1l3.8.5 3.7 1.2 4 1.5.3-.4 3.7 1.1 1.9.2 2.6.4 2.2-.2 3.7-1.5 1.1-.7 2.6-1.4.8-1 1.2-.7 1.3-1.1 2.4-2.1 1.1-.7.9-.8 3.6-2.1 1.9-1.2 3.8-1.7 1.2.3 1-.1 1.8.8 2.3 1 1.4.9 1.2.6 1.3.8 1-.5.2-.6-.9-1.4-1.6-1.7h.2l2.5.4 1.6.1 1.9.6.5.6.1.7.6 1.4.7 1.3-.8.8.1.1-.5.4.1.2.6.5.8.3 1.8-.9.9-.2.9-.7.2-.5-.1-.5.5-1.6zm-135.7-2.4-2 1.6-1 .5-1.7.3-1.3.7-.9.8h-1l-1.7-.8-1.5-1.7-1.7-2.9s-.4-1.1-.5-2.7c0-.2 0-.5-.1-.8l1-.3 1.3-2.1 3.4 2 1.8-3.3 1.5-2.1v-.6l3.8.1.2.5 4.3-.1 3.9.1 3.7.7h.1l.1.2-.6.4-2.9 1.7-3.9 3.1zm13.6 45.3v.4l-.2.2-1.4-.3-1.9.6-3.1 1.6-4.2 2.7-.3-1.3.1-2.9 1.1-2.4 4-4.9 1.4-1.5 2.3-2.9.2 4 .2.5v.1l.1.1.3-.2.3-.3.1 3.6 1 .6-.2 1.5z"/></g></svg>