<svg width="387" height="318" viewBox="0 0 387 318" fill="none" xmlns="http://www.w3.org/2000/svg">
<path d="M185.925 175.376L180.632 169.968L174.049 173.702L169.531 167.65L162.561 170.483L158.947 163.787L151.589 165.59L148.878 158.508L141.263 159.409L139.585 152.07L131.969 151.812L131.323 144.215L123.837 143.056L124.224 135.459L116.995 133.27L118.286 125.802L111.445 122.583L113.768 115.372L107.444 111.252L110.8 104.427L104.991 99.5343L109.251 93.2249L103.829 87.688L108.863 82.0225L104.604 75.713L110.412 70.82L107.056 63.9955L113.51 59.8751L111.187 52.6643L118.028 49.4452L116.737 41.977L123.966 39.788L123.579 32.1909L131.065 31.032L131.711 23.435L139.326 23.3062L141.005 15.9667L148.62 16.868L151.331 9.78604L158.689 11.5887L162.303 4.89302L169.531 7.72582L174.049 1.67393L180.632 5.40807L185.925 0L191.991 4.63549L197.929 0L203.221 5.40807L209.805 1.67393L214.451 7.72582L221.551 4.89302L225.165 11.46L232.523 9.65728L235.233 16.7393L242.849 15.8379L244.527 23.1775L252.143 23.435L252.788 31.032L260.275 32.1909L259.888 39.788L267.116 41.977L265.826 49.4452L272.667 52.6643L270.343 59.8751L276.797 63.9955L273.441 70.82L279.25 75.713L274.99 82.0225L280.024 87.688L274.99 93.3537L279.25 99.6631L273.441 104.556L276.797 111.381L270.343 115.501L272.667 122.712L265.826 125.931L267.245 133.399L260.017 135.588L260.275 143.185L252.788 144.344L252.143 151.941L244.527 152.07L242.849 159.409L235.233 158.508L232.523 165.59L225.165 163.787L221.551 170.483L214.451 167.65L209.934 173.702L203.221 169.968L197.929 175.376L191.862 170.741L185.925 175.376ZM191.991 168.037L197.8 172.543L202.963 167.264L209.288 170.869L213.677 164.946L220.518 167.65L224.003 161.212L231.103 163.015L233.684 156.19L241.042 156.963L242.72 149.752L250.078 149.623L250.723 142.284L257.952 141.125L257.693 133.785L264.664 131.596L263.373 124.386L270.085 121.295L267.762 114.342L273.958 110.35L270.731 103.784L276.281 99.0193L272.15 92.9674L277.056 87.4305L272.15 81.8937L276.281 75.8418L270.731 71.0775L273.958 64.5106L267.762 60.5189L270.085 53.5657L263.373 50.4754L264.664 43.2646L257.564 41.0756L257.823 33.7361L250.594 32.5772L249.949 25.2377L242.591 25.1089L240.913 18.0269L233.555 18.7995L230.974 11.975L223.874 13.7777L220.389 7.33953L213.677 10.3011L209.288 4.37796L202.963 7.98335L197.8 2.70404L191.991 7.21076L186.183 2.70404L181.02 7.98335L174.695 4.37796L170.177 10.3011L163.335 7.59706L159.85 14.0352L152.751 12.2325L150.169 19.057L142.812 18.2844L141.134 25.3664L133.776 25.4952L133.131 32.8347L125.773 33.9936L126.031 41.3331L118.932 43.5221L120.223 50.7329L113.51 53.8232L115.834 60.7765L109.638 64.7681L112.865 71.3351L107.314 76.0993L111.574 82.1512L106.669 87.688L111.574 93.2249L107.444 99.2768L112.994 104.041L109.767 110.608L115.963 114.6L113.639 121.553L120.352 124.643L119.061 131.854L126.16 134.043L125.902 141.383L133.131 142.541L133.776 149.881L141.134 150.01L142.812 157.092L150.169 156.319L152.751 163.144L159.85 161.341L163.465 167.779L170.306 165.075L174.695 170.998L181.02 167.393L186.183 172.672L191.991 168.037Z" fill="black"/>
<path d="M186.699 165.204C185.925 165.204 185.408 164.56 185.408 163.788C185.408 163.015 186.054 162.5 186.828 162.5C187.603 162.5 188.119 163.144 188.119 163.916C188.119 164.689 187.474 165.204 186.699 165.204ZM195.864 163.916C195.864 163.144 196.38 162.5 197.155 162.5C197.929 162.5 198.574 163.015 198.574 163.788C198.574 164.56 198.058 165.204 197.284 165.204C197.284 165.204 197.284 165.204 197.155 165.204C196.509 165.204 195.864 164.689 195.864 163.916ZM176.114 163.788C175.34 163.659 174.953 162.886 175.082 162.242C175.211 161.47 175.985 161.084 176.631 161.212C177.405 161.341 177.792 162.114 177.663 162.757C177.534 163.401 177.018 163.788 176.373 163.788C176.373 163.788 176.244 163.788 176.114 163.788ZM206.19 162.757C206.061 161.985 206.448 161.341 207.223 161.212C207.997 161.084 208.643 161.47 208.772 162.242C208.901 163.015 208.514 163.659 207.739 163.788C207.61 163.788 207.61 163.788 207.481 163.788C206.965 163.788 206.319 163.401 206.19 162.757ZM165.917 160.955C165.143 160.697 164.884 159.925 165.143 159.152C165.401 158.508 166.175 158.122 166.95 158.38C167.595 158.637 167.982 159.41 167.724 160.182C167.595 160.697 166.95 161.084 166.433 161.084C166.175 160.955 166.046 160.955 165.917 160.955ZM216.388 160.053C216.129 159.41 216.517 158.508 217.162 158.251C217.937 157.993 218.711 158.38 218.969 159.023C219.227 159.667 218.84 160.44 218.066 160.826C217.937 160.826 217.807 160.955 217.678 160.955C217.033 160.955 216.517 160.568 216.388 160.053ZM156.107 156.706C155.462 156.319 155.203 155.547 155.462 154.903C155.849 154.259 156.623 154.002 157.269 154.259C157.914 154.645 158.172 155.418 157.785 156.062C157.527 156.577 157.01 156.834 156.623 156.834C156.623 156.834 156.365 156.834 156.107 156.706ZM225.94 156.062C225.552 155.418 225.81 154.517 226.585 154.259C227.23 153.873 228.134 154.13 228.392 154.774C228.779 155.418 228.521 156.319 227.876 156.577C227.618 156.706 227.489 156.706 227.23 156.706C226.714 156.834 226.198 156.577 225.94 156.062ZM147.071 151.169C146.426 150.782 146.297 149.881 146.684 149.237C147.071 148.593 147.975 148.465 148.62 148.851C149.266 149.237 149.395 150.139 148.878 150.782C148.62 151.169 148.233 151.298 147.717 151.298C147.588 151.426 147.329 151.426 147.071 151.169ZM234.975 150.782C234.588 150.139 234.717 149.366 235.362 148.851C236.008 148.465 236.782 148.593 237.299 149.109C237.686 149.752 237.557 150.525 237.04 151.04C236.782 151.169 236.524 151.298 236.266 151.298C235.621 151.426 235.233 151.169 234.975 150.782ZM138.81 144.473C138.294 143.958 138.165 143.057 138.681 142.542C139.197 142.027 140.101 141.898 140.617 142.413C141.134 142.928 141.134 143.829 140.617 144.344C140.359 144.602 139.972 144.731 139.585 144.731C139.456 144.859 139.068 144.731 138.81 144.473ZM243.236 144.344C242.72 143.829 242.72 142.928 243.365 142.413C243.882 141.898 244.785 141.898 245.302 142.542C245.818 143.057 245.818 143.958 245.302 144.473C245.043 144.731 244.656 144.859 244.398 144.859C243.882 144.859 243.494 144.731 243.236 144.344ZM131.582 136.747C131.065 136.103 131.194 135.331 131.711 134.816C132.356 134.301 133.131 134.429 133.647 134.945C134.163 135.588 134.034 136.361 133.518 136.876C133.26 137.134 133.001 137.133 132.614 137.133C132.227 137.262 131.84 137.133 131.582 136.747ZM250.465 136.876C249.819 136.361 249.819 135.588 250.207 134.945C250.723 134.429 251.498 134.301 252.143 134.816C252.788 135.331 252.788 136.103 252.401 136.747C252.143 137.005 251.756 137.262 251.368 137.262C250.981 137.262 250.723 137.134 250.465 136.876ZM125.386 128.12C124.999 127.476 125.257 126.575 125.902 126.189C126.547 125.802 127.322 126.06 127.838 126.575C128.226 127.219 127.967 128.12 127.322 128.506C127.064 128.635 126.806 128.764 126.547 128.764C126.16 128.764 125.644 128.506 125.386 128.12ZM256.661 128.506C256.015 128.12 255.886 127.219 256.273 126.575C256.661 125.931 257.564 125.674 258.21 126.06C258.855 126.446 259.113 127.347 258.726 127.991C258.468 128.378 258.081 128.635 257.564 128.635C257.048 128.635 256.79 128.635 256.661 128.506ZM120.481 118.72C120.223 118.076 120.481 117.175 121.126 116.918C121.771 116.66 122.675 116.918 122.933 117.561C123.191 118.205 122.933 119.107 122.288 119.364C122.159 119.493 121.901 119.493 121.771 119.493C121.255 119.493 120.739 119.235 120.481 118.72ZM261.566 119.364C260.92 119.107 260.533 118.205 260.92 117.561C261.179 116.918 262.082 116.531 262.728 116.918C263.373 117.175 263.76 117.948 263.373 118.72C263.115 119.235 262.598 119.493 262.082 119.493C261.953 119.493 261.824 119.364 261.566 119.364ZM116.996 108.805C116.737 108.033 117.254 107.389 117.899 107.132C118.674 106.874 119.319 107.389 119.577 108.033C119.706 108.805 119.319 109.449 118.674 109.707C118.544 109.707 118.415 109.707 118.286 109.707C117.641 109.707 117.125 109.321 116.996 108.805ZM265.309 109.578C264.535 109.449 264.147 108.677 264.406 107.904C264.664 107.132 265.309 106.745 266.084 107.003C266.858 107.26 267.245 107.904 266.987 108.677C266.858 109.321 266.213 109.707 265.696 109.707C265.567 109.578 265.438 109.578 265.309 109.578ZM114.801 98.3756C114.672 97.6031 115.188 96.9592 115.963 96.8305C116.737 96.7017 117.383 97.2168 117.512 97.9893C117.641 98.7619 117.125 99.4058 116.35 99.5345H116.221C115.447 99.5345 114.93 99.0195 114.801 98.3756ZM267.633 99.4057C266.858 99.277 266.342 98.6332 266.471 97.8606C266.6 97.088 267.245 96.5729 268.02 96.7017C268.794 96.8305 269.311 97.4743 269.182 98.2469C269.052 98.8907 268.536 99.4057 267.891 99.4057C267.762 99.4057 267.633 99.4057 267.633 99.4057ZM114.027 87.817C114.027 87.0444 114.672 86.4006 115.447 86.4006C116.221 86.4006 116.737 87.0444 116.866 87.817C116.866 88.5896 116.221 89.2334 115.447 89.2334C114.672 89.1047 114.027 88.5896 114.027 87.817ZM267.116 87.6883C267.116 87.5595 267.116 87.6883 267.116 87.6883C267.116 87.5595 267.116 87.5595 267.116 87.4307C267.116 86.6581 267.762 86.0143 268.536 86.0143C269.311 86.0143 269.956 86.6581 269.956 87.4307V87.5595V87.6883C269.956 88.4608 269.311 89.1047 268.536 89.1047C267.762 89.1047 267.116 88.4608 267.116 87.6883ZM115.963 78.8036C115.188 78.6748 114.672 78.031 114.801 77.2584C114.93 76.4858 115.576 75.9708 116.35 76.0995C117.125 76.2283 117.641 76.8721 117.512 77.6447C117.383 78.2885 116.866 78.8036 116.092 78.8036H115.963ZM266.342 77.2584C266.213 76.4858 266.729 75.842 267.504 75.7132C268.278 75.5845 268.923 76.0995 269.052 76.8721C269.182 77.6447 268.665 78.2885 267.891 78.4173H267.762C267.116 78.4173 266.471 77.9022 266.342 77.2584ZM117.899 68.5025C117.125 68.2449 116.737 67.6011 116.996 66.8285C117.125 66.056 117.899 65.6697 118.674 65.9272C119.448 66.056 119.835 66.8285 119.577 67.6011C119.448 68.2449 118.932 68.6312 118.286 68.6312C118.028 68.6312 118.028 68.5025 117.899 68.5025ZM264.276 67.2148C264.018 66.4422 264.535 65.7984 265.18 65.5409C265.955 65.2834 266.6 65.7984 266.858 66.4422C267.116 67.2148 266.6 67.9874 265.955 68.1162C265.825 68.1162 265.696 68.1162 265.567 68.1162C265.051 68.2449 264.406 67.8587 264.276 67.2148ZM121.126 58.5877C120.481 58.3301 120.093 57.4288 120.481 56.785C120.739 56.1412 121.642 55.7549 122.288 56.0124C122.933 56.2699 123.32 57.1713 122.933 57.8151C122.675 58.3301 122.159 58.5877 121.642 58.5877C121.513 58.7164 121.384 58.7164 121.126 58.5877ZM260.791 57.5576C260.533 56.9137 260.791 56.0124 261.437 55.7549C262.082 55.4973 262.986 55.7549 263.244 56.3987C263.502 57.0425 263.244 57.9438 262.598 58.2014C262.469 58.3301 262.211 58.3301 262.082 58.3301C261.566 58.4589 261.049 58.0726 260.791 57.5576ZM125.773 49.3167C125.128 48.9304 124.869 48.029 125.257 47.3852C125.644 46.7414 126.547 46.4839 127.193 46.8702C127.838 47.2565 128.096 48.029 127.709 48.6729C127.451 49.0592 127.064 49.3167 126.547 49.3167C126.289 49.4454 126.031 49.4454 125.773 49.3167ZM256.015 48.5441C255.628 47.9003 255.757 47.1277 256.403 46.6126C257.048 46.2264 257.822 46.4839 258.339 46.9989C258.726 47.6428 258.468 48.5441 257.822 48.9304C257.564 49.0592 257.306 49.0592 257.177 49.0592C256.79 49.1879 256.273 48.9304 256.015 48.5441ZM131.582 40.6895C130.936 40.1745 130.936 39.4019 131.323 38.7581C131.84 38.1142 132.614 38.1142 133.26 38.5005C133.776 39.0156 133.905 39.7882 133.389 40.432C133.131 40.8183 132.743 40.947 132.356 40.947C132.227 40.947 131.84 40.8183 131.582 40.6895ZM250.078 40.1745C249.561 39.6594 249.69 38.7581 250.207 38.243C250.852 37.728 251.627 37.8567 252.143 38.3718C252.659 38.8868 252.53 39.7882 252.014 40.3032C251.756 40.5608 251.498 40.5608 251.11 40.5608C250.723 40.6895 250.336 40.5608 250.078 40.1745ZM138.681 32.9637C138.165 32.4486 138.165 31.5473 138.681 31.0322C139.197 30.5172 140.101 30.5172 140.617 31.161C141.134 31.6761 141.134 32.5774 140.617 33.0925C140.359 33.35 139.972 33.4788 139.714 33.4788C139.197 33.35 138.939 33.2212 138.681 32.9637ZM243.107 32.7062C242.591 32.1911 242.462 31.2898 242.978 30.7747C243.495 30.2597 244.398 30.2597 244.914 30.7747C245.431 31.2898 245.56 32.1911 244.914 32.7062C244.656 32.9637 244.269 33.0925 243.882 33.0925C243.753 33.0925 243.365 32.9637 243.107 32.7062ZM146.555 26.1392C146.168 25.4954 146.297 24.7228 146.813 24.2078C147.459 23.8215 148.233 23.9502 148.749 24.4653C149.137 25.1091 149.007 25.8817 148.491 26.3968C148.233 26.5255 147.975 26.6543 147.717 26.6543C147.329 26.783 146.813 26.5255 146.555 26.1392ZM235.104 26.268C234.459 25.8817 234.33 24.9804 234.846 24.3365C235.233 23.6927 236.137 23.564 236.782 24.079C237.428 24.4653 237.557 25.3666 237.17 26.0105C236.911 26.3968 236.524 26.5255 236.008 26.5255C235.621 26.5255 235.362 26.5255 235.104 26.268ZM155.332 20.6024C154.945 19.9586 155.203 19.0572 155.978 18.7997C156.623 18.4134 157.527 18.6709 157.785 19.3148C158.172 19.9586 157.914 20.8599 157.14 21.1174C156.881 21.2462 156.752 21.2462 156.494 21.2462C156.107 21.375 155.591 21.1174 155.332 20.6024ZM226.327 20.9887C225.681 20.6024 225.423 19.8298 225.681 19.186C226.069 18.5422 226.843 18.2846 227.489 18.5422C228.134 18.9285 228.392 19.701 228.134 20.3449C227.876 20.8599 227.359 21.1174 226.972 21.1174C226.714 21.1174 226.585 21.1174 226.327 20.9887ZM164.884 16.2244C164.626 15.4518 165.013 14.6793 165.659 14.4217C166.304 14.1642 167.208 14.5505 167.466 15.1943C167.724 15.8381 167.337 16.6107 166.692 16.997C166.562 16.997 166.433 17.1258 166.175 17.1258C165.659 17.1258 165.013 16.8682 164.884 16.2244ZM216.904 16.997C216.258 16.7395 215.871 15.9669 216.129 15.1943C216.388 14.5505 217.162 14.1642 217.807 14.4217C218.453 14.6793 218.84 15.4518 218.582 16.2244C218.324 16.7395 217.807 17.1258 217.291 17.1258C217.291 16.997 217.033 16.997 216.904 16.997ZM174.824 13.2629C174.695 12.4903 175.082 11.8465 175.856 11.7177C176.631 11.5889 177.276 11.9752 177.405 12.7478C177.534 13.5204 177.147 14.1642 176.373 14.293C176.244 14.293 176.244 14.293 176.114 14.293C175.598 14.293 174.953 13.9067 174.824 13.2629ZM207.094 14.1642C206.319 14.0354 205.803 13.2629 206.061 12.619C206.19 11.8465 206.965 11.4602 207.61 11.5889C208.385 11.7177 208.772 12.4903 208.643 13.1341C208.514 13.7779 207.997 14.1642 207.352 14.1642C207.223 14.293 207.094 14.293 207.094 14.1642ZM185.15 11.5889C185.15 10.8163 185.666 10.1725 186.441 10.1725C187.215 10.1725 187.861 10.6876 187.861 11.4602C187.861 12.2327 187.344 12.8766 186.57 12.8766C186.57 12.8766 186.57 12.8766 186.441 12.8766C185.795 12.8766 185.279 12.3615 185.15 11.5889ZM196.896 12.8766C196.122 12.8766 195.606 12.2327 195.606 11.4602C195.606 10.6876 196.251 10.1725 197.025 10.1725C197.8 10.1725 198.316 10.8163 198.316 11.5889C198.316 12.3615 197.671 12.8766 196.896 12.8766Z" fill="black"/>
<path d="M187.215 159.667H187.086C185.796 159.538 184.892 158.379 184.118 157.349C183.73 156.834 182.956 155.933 182.698 155.804C182.31 155.804 181.407 156.448 180.89 156.834C179.729 157.607 178.696 158.508 177.405 158.25C176.115 157.993 175.469 156.705 174.695 155.546C174.307 154.903 173.791 154.001 173.404 153.872C173.017 153.744 171.984 154.387 171.468 154.645C170.306 155.289 169.015 156.061 167.853 155.546C166.692 155.16 166.175 153.744 165.659 152.456C165.401 151.812 165.014 150.782 164.626 150.653C164.368 150.525 163.206 150.911 162.561 151.168C161.27 151.683 159.979 152.198 158.818 151.555C157.656 150.911 157.398 149.623 157.011 148.207C156.881 147.563 156.623 146.404 156.236 146.275C155.978 146.147 154.816 146.404 154.171 146.533C152.88 146.919 151.46 147.177 150.427 146.404C149.395 145.632 149.266 144.215 149.137 142.928C149.008 142.284 149.008 141.125 148.62 140.867C148.362 140.61 147.2 140.739 146.555 140.867C145.135 140.996 143.715 141.125 142.812 140.352C141.908 139.451 141.908 138.034 141.908 136.618C141.908 135.974 141.908 134.815 141.779 134.558C141.521 134.3 140.359 134.3 139.714 134.172C138.294 134.172 136.874 134.043 136.099 133.141C135.325 132.111 135.583 130.695 135.712 129.407C135.841 128.764 135.97 127.605 135.841 127.347C135.583 127.09 134.551 126.832 133.776 126.703C132.356 126.446 130.936 126.188 130.291 125.158C129.645 124.128 130.033 122.712 130.42 121.424C130.678 120.78 130.936 119.621 130.807 119.364C130.678 119.106 129.516 118.72 128.871 118.462C127.58 118.076 126.16 117.561 125.644 116.402C125.128 115.243 125.773 113.956 126.289 112.668C126.548 112.024 127.064 110.994 126.935 110.608C126.806 110.35 125.773 109.835 125.128 109.449C123.837 108.805 122.546 108.29 122.288 107.002C121.901 105.844 122.675 104.556 123.45 103.397C123.837 103.011 124.482 101.981 124.482 101.723C124.353 101.337 123.45 100.822 122.933 100.436C121.772 99.6629 120.61 98.8904 120.352 97.6027C120.223 96.3151 121.126 95.285 122.03 94.2549C122.546 93.7398 123.191 92.8385 123.191 92.4522C123.191 92.0659 122.288 91.2933 121.772 90.907C120.739 90.0057 119.706 89.1043 119.706 87.8167C119.706 86.529 120.739 85.6277 121.901 84.7264C122.417 84.3401 123.321 83.5675 123.321 83.1812C123.321 82.7949 122.546 81.8936 122.159 81.3785C121.255 80.3484 120.352 79.1895 120.481 78.0306C120.61 76.743 121.901 75.9704 123.062 75.1978C123.579 74.8116 124.611 74.1677 124.611 73.7814C124.74 73.3952 124.095 72.4938 123.708 71.85C122.933 70.6911 122.159 69.5322 122.546 68.2446C122.933 66.957 124.224 66.4419 125.386 65.7981C126.031 65.5406 127.064 65.0255 127.193 64.6392C127.322 64.2529 126.806 63.2228 126.548 62.579C125.902 61.2914 125.386 60.0037 125.902 58.8449C126.418 57.686 127.838 57.1709 129.129 56.7846C129.775 56.5271 130.936 56.2696 131.065 55.8833C131.194 55.6258 130.936 54.4669 130.678 53.8231C130.291 52.5354 129.904 51.119 130.549 50.0889C131.194 48.9301 132.614 48.8013 134.034 48.5438C134.68 48.415 135.841 48.2862 136.099 47.9C136.358 47.6424 136.099 46.4836 135.97 45.8397C135.712 44.4233 135.454 43.0069 136.358 42.1056C137.132 41.0755 138.552 41.0755 139.972 41.0755C140.617 41.0755 141.779 40.9467 142.037 40.6892C142.295 40.4317 142.295 39.2728 142.166 38.629C142.166 37.2126 142.037 35.7962 143.07 34.8948C143.973 33.9935 145.393 34.1222 146.813 34.251C147.459 34.3798 148.62 34.3798 148.878 34.251C149.137 33.9935 149.266 32.8346 149.395 32.1908C149.524 30.7744 149.653 29.358 150.686 28.7142C151.718 27.9416 153.138 28.3279 154.429 28.5854C155.074 28.7142 156.236 28.9717 156.494 28.8429C156.752 28.7142 157.011 27.5553 157.269 26.9115C157.656 25.6238 157.914 24.2074 159.076 23.5636C160.238 22.9198 161.528 23.4349 162.819 23.9499C163.465 24.2074 164.497 24.5937 164.884 24.465C165.143 24.3362 165.659 23.3061 165.917 22.6623C166.433 21.3746 166.95 20.087 168.112 19.572C169.273 19.1857 170.564 19.8295 171.726 20.4733C172.371 20.8596 173.404 21.3746 173.662 21.2459C174.049 21.1171 174.566 20.2158 174.953 19.572C175.598 18.4131 176.373 17.1254 177.663 16.8679C178.954 16.6104 180.116 17.5117 181.149 18.2843C181.665 18.6706 182.569 19.4432 182.956 19.3144C183.343 19.3144 183.988 18.4131 184.376 17.7693C185.279 16.6104 186.054 15.5803 187.345 15.4515C188.635 15.3228 189.668 16.3529 190.572 17.383C191.088 17.898 191.862 18.6706 192.25 18.6706C192.637 18.6706 193.411 17.898 193.928 17.383C194.96 16.3529 195.864 15.4515 197.155 15.4515C198.445 15.5803 199.349 16.7392 200.124 17.7693C200.511 18.2843 201.285 19.1857 201.543 19.3144C201.931 19.3144 202.834 18.6706 203.351 18.2843C204.512 17.5117 205.545 16.6104 206.836 16.8679C208.127 17.1254 208.772 18.4131 209.546 19.572C209.934 20.2158 210.45 21.1171 210.837 21.2459C211.224 21.3746 212.257 20.7308 212.773 20.4733C213.935 19.8295 215.226 19.0569 216.388 19.572C217.549 19.9582 218.066 21.3746 218.582 22.6623C218.84 23.3061 219.227 24.3362 219.615 24.465C219.873 24.5937 221.035 24.2074 221.68 23.9499C222.971 23.4349 224.262 22.9198 225.423 23.5636C226.585 24.2074 226.843 25.4951 227.23 26.9115C227.36 27.5553 227.618 28.7142 228.005 28.8429C228.263 28.9717 229.425 28.7142 230.07 28.5854C231.361 28.3279 232.781 27.9416 233.814 28.7142C234.846 29.4868 234.975 30.9032 235.104 32.1908C235.233 32.8346 235.233 33.9935 235.621 34.251C235.879 34.5085 237.041 34.3798 237.686 34.251C239.106 34.1222 240.526 33.9935 241.429 34.7661C242.333 35.6674 242.333 37.0838 242.333 38.5002C242.333 39.144 242.333 40.3029 242.462 40.5604C242.72 40.818 243.882 40.818 244.527 40.818C245.947 40.818 247.367 40.9467 248.142 41.9768C248.916 43.0069 248.658 44.4233 248.529 45.711C248.4 46.3548 248.271 47.5137 248.4 47.7712C248.529 48.0287 249.69 48.2862 250.465 48.415C251.885 48.6725 253.305 48.9301 253.95 49.9602C254.596 50.9903 254.208 52.4067 253.821 53.6943C253.563 54.3381 253.305 55.497 253.434 55.7545C253.563 56.0121 254.725 56.3984 255.37 56.6559C256.661 57.0422 258.081 57.5572 258.597 58.7161C259.113 59.875 258.468 61.1626 257.952 62.4502C257.693 63.0941 257.177 64.1242 257.306 64.5105C257.435 64.768 258.468 65.283 259.113 65.6693C260.404 66.3132 261.695 66.8282 261.953 68.1158C262.34 69.2747 261.566 70.5624 260.791 71.7212C260.404 72.2363 259.759 73.2664 259.888 73.6527C260.017 74.039 260.921 74.6828 261.437 74.9403C262.599 75.7129 263.76 76.4855 264.018 77.7731C264.148 79.0608 263.244 80.0909 262.34 81.121C261.824 81.636 261.179 82.5374 261.179 82.9237C261.179 83.31 262.082 84.0825 262.599 84.4688C263.631 85.3702 264.664 86.2715 264.664 87.5592C264.664 88.8468 263.631 89.7481 262.469 90.6495C261.953 91.0358 261.05 91.8083 261.05 92.1946C261.05 92.5809 261.824 93.4823 262.211 93.9973C263.115 95.0274 264.018 96.1863 263.889 97.3452C263.76 98.6328 262.469 99.4054 261.308 100.178C260.791 100.564 259.759 101.208 259.759 101.594C259.63 101.981 260.275 102.882 260.662 103.526C261.437 104.685 262.211 105.844 261.824 107.131C261.437 108.419 260.146 108.934 258.984 109.578C258.339 109.835 257.306 110.35 257.177 110.737C257.048 111.123 257.564 112.153 257.823 112.797C258.468 114.084 258.984 115.372 258.468 116.531C257.952 117.69 256.532 118.205 255.241 118.591C254.596 118.849 253.434 119.106 253.305 119.493C253.176 119.75 253.434 120.909 253.692 121.553C254.079 122.84 254.596 124.257 253.821 125.287C253.176 126.317 251.756 126.575 250.336 126.832C249.69 126.961 248.529 127.09 248.271 127.476C248.012 127.733 248.271 128.892 248.4 129.536C248.658 130.952 248.916 132.369 248.012 133.27C247.238 134.3 245.818 134.3 244.398 134.3C243.753 134.3 242.591 134.429 242.333 134.687C242.075 134.944 242.075 136.103 242.204 136.747C242.204 138.163 242.333 139.58 241.3 140.481C240.397 141.382 238.977 141.254 237.557 141.125C236.911 140.996 235.75 140.996 235.492 141.125C235.233 141.382 235.104 142.541 234.975 143.185C234.846 144.601 234.717 146.018 233.684 146.662C232.652 147.434 231.232 147.048 229.941 146.79C229.296 146.662 228.134 146.404 227.876 146.533C227.618 146.662 227.36 147.821 227.101 148.464C226.714 149.752 226.456 151.168 225.294 151.812C224.133 152.456 222.842 151.941 221.551 151.426C220.905 151.168 219.873 150.782 219.486 150.911C219.227 151.04 218.711 152.07 218.453 152.714C217.937 154.001 217.42 155.289 216.259 155.804C215.097 156.19 213.806 155.546 212.644 154.903C211.999 154.516 210.966 154.001 210.708 154.13C210.321 154.259 209.805 155.16 209.417 155.804C208.772 156.963 207.997 158.25 206.707 158.508C205.416 158.765 204.254 157.864 203.221 157.092C202.705 156.705 201.802 155.933 201.414 156.061C201.027 156.061 200.382 156.963 199.994 157.607C199.091 158.765 198.316 159.796 197.026 159.924C195.735 160.053 194.702 159.023 193.799 157.993C193.282 157.478 192.508 156.705 192.121 156.705C191.733 156.705 190.959 157.478 190.442 157.993C189.281 158.637 188.377 159.667 187.215 159.667ZM182.569 153.744C182.698 153.744 182.827 153.744 182.827 153.744C183.988 153.872 184.892 155.031 185.666 156.061C186.054 156.576 186.828 157.607 187.215 157.607C187.603 157.607 188.377 156.834 188.894 156.319C189.797 155.418 190.83 154.387 191.991 154.387C193.153 154.387 194.186 155.418 195.089 156.319C195.606 156.834 196.38 157.607 196.767 157.607C197.155 157.607 197.8 156.576 198.316 156.061C199.091 155.031 199.994 153.872 201.156 153.744C202.318 153.615 203.48 154.387 204.512 155.16C205.029 155.546 205.932 156.319 206.319 156.19C206.707 156.061 207.223 155.031 207.61 154.516C208.256 153.357 208.901 152.198 210.063 151.812C211.224 151.426 212.386 152.198 213.548 152.842C214.064 153.1 215.226 153.744 215.484 153.615C215.742 153.486 216.259 152.327 216.517 151.812C217.033 150.525 217.549 149.366 218.582 148.851C219.744 148.336 221.035 148.851 222.196 149.366C222.842 149.623 224.003 150.01 224.262 149.881C224.52 149.752 224.778 148.593 225.036 147.949C225.294 146.662 225.681 145.374 226.714 144.73C227.747 144.086 229.038 144.473 230.328 144.73C230.974 144.859 232.136 145.116 232.394 144.988C232.652 144.859 232.781 143.571 232.91 142.928C233.039 141.64 233.168 140.223 234.072 139.451C234.975 138.678 236.395 138.807 237.686 138.936C238.331 139.065 239.622 139.065 239.751 138.936C240.009 138.678 240.009 137.519 239.88 136.876C239.88 135.588 239.751 134.172 240.655 133.27C241.429 132.369 242.849 132.369 244.14 132.24C244.785 132.24 246.076 132.111 246.205 131.854C246.463 131.596 246.205 130.437 246.076 129.794C245.818 128.506 245.689 127.09 246.334 126.188C246.98 125.158 248.4 125.029 249.69 124.772C250.336 124.643 251.498 124.514 251.756 124.128C251.885 123.87 251.627 122.712 251.369 122.068C250.981 120.78 250.594 119.493 251.11 118.462C251.627 117.432 252.918 116.917 254.208 116.531C254.854 116.273 256.015 116.016 256.145 115.63C256.274 115.372 255.757 114.213 255.499 113.698C254.983 112.539 254.337 111.252 254.725 110.093C255.112 108.934 256.403 108.419 257.564 107.775C258.21 107.518 259.242 107.002 259.372 106.616C259.501 106.359 258.855 105.329 258.468 104.685C257.693 103.526 256.919 102.367 257.177 101.208C257.435 100.049 258.597 99.2766 259.63 98.5041C260.146 98.1178 261.179 97.474 261.308 97.0877C261.308 96.7014 260.533 95.8 260.146 95.285C259.242 94.2549 258.339 93.2248 258.468 92.0659C258.597 90.907 259.63 90.0057 260.533 89.1043C261.05 88.5893 261.953 87.8167 261.953 87.5592C261.953 87.1729 261.05 86.4003 260.533 86.014C259.501 85.1126 258.468 84.2113 258.468 83.0524C258.339 81.8936 259.242 80.8634 260.146 79.8333C260.533 79.3183 261.308 78.4169 261.308 78.1594C261.308 77.7731 260.275 77.1293 259.63 76.743C258.468 75.9704 257.435 75.3266 257.177 74.039C256.919 72.8801 257.693 71.7212 258.468 70.5624C258.855 70.0473 259.501 69.0172 259.372 68.6309C259.242 68.2446 258.21 67.7296 257.564 67.472C256.403 66.957 255.112 66.3132 254.725 65.1543C254.337 63.9954 254.854 62.7078 255.499 61.5489C255.757 60.9051 256.274 59.875 256.145 59.6174C256.015 59.3599 254.854 58.9736 254.208 58.7161C252.918 58.3298 251.627 57.9435 251.11 56.7846C250.594 55.7545 250.981 54.4669 251.369 53.1793C251.627 52.5354 251.885 51.3766 251.756 51.119C251.627 50.8615 250.336 50.604 249.69 50.4752C248.4 50.2177 246.98 49.9602 246.334 49.0588C245.689 48.0287 245.818 46.7411 246.076 45.4534C246.205 44.8096 246.334 43.6508 246.205 43.3932C245.947 43.1357 244.785 43.1357 244.14 43.0069C242.849 43.0069 241.429 42.8782 240.655 41.9768C239.88 41.0755 239.88 39.6591 239.88 38.3714C239.88 37.7276 239.88 36.44 239.751 36.3112C239.493 36.0537 238.331 36.1825 237.686 36.3112C236.395 36.44 234.975 36.5688 234.072 35.7962C233.168 35.0236 233.039 33.736 232.91 32.3196C232.781 31.6757 232.652 30.5169 232.394 30.2593C232.136 30.1306 230.974 30.3881 230.328 30.5169C229.038 30.7744 227.747 31.1607 226.714 30.5169C225.681 29.873 225.294 28.5854 225.036 27.2978C224.907 26.654 224.649 25.4951 224.262 25.3663C224.003 25.2376 222.842 25.6238 222.196 25.8814C220.905 26.3964 219.615 26.9115 218.582 26.3964C217.42 25.8814 216.904 24.5937 216.517 23.4349C216.259 22.791 215.871 21.6322 215.484 21.6322C215.226 21.5034 214.064 22.1472 213.548 22.4048C212.386 23.0486 211.224 23.6924 210.063 23.4349C208.901 23.0486 208.256 21.8897 207.61 20.7308C207.223 20.2158 206.707 19.0569 206.319 19.0569C205.932 18.9281 205.029 19.7007 204.512 20.087C203.48 20.8596 202.318 21.7609 201.156 21.5034C199.994 21.3746 199.091 20.2158 198.316 19.1857C197.929 18.6706 197.155 17.6405 196.767 17.6405C196.509 17.6405 195.606 18.4131 195.089 18.9281C194.186 19.8295 193.153 20.8596 191.991 20.8596C190.83 20.8596 189.797 19.8295 188.894 18.9281C188.377 18.4131 187.603 17.6405 187.215 17.6405C186.828 17.6405 186.183 18.6706 185.796 19.1857C185.021 20.2158 184.118 21.3746 182.956 21.5034C181.794 21.6322 180.632 20.8596 179.6 20.087C179.083 19.7007 178.051 18.9281 177.793 19.0569C177.405 19.1857 176.889 20.2158 176.502 20.7308C175.856 21.8897 175.211 23.0486 174.049 23.4349C172.887 23.6924 171.726 23.0486 170.564 22.4048C170.048 22.1472 168.886 21.5034 168.628 21.6322C168.37 21.7609 167.853 22.9198 167.595 23.4349C167.079 24.7225 166.563 25.8814 165.53 26.3964C164.368 26.9115 163.077 26.3964 161.916 25.8814C161.27 25.6238 160.109 25.2376 159.85 25.3663C159.592 25.4951 159.205 26.654 159.076 27.2978C158.818 28.5854 158.43 29.873 157.398 30.5169C156.365 31.1607 155.074 30.7744 153.784 30.5169C153.138 30.3881 151.976 30.1306 151.718 30.2593C151.46 30.3881 151.331 31.6757 151.202 32.3196C151.073 33.6072 150.944 35.0236 150.04 35.7962C149.137 36.5688 147.717 36.44 146.426 36.3112C145.781 36.1825 144.49 36.1825 144.361 36.3112C143.715 36.6975 143.844 37.9852 143.844 38.629C143.844 39.9166 143.973 41.333 143.07 42.2344C142.295 43.1357 140.875 43.1357 139.585 43.2645C138.939 43.2645 137.648 43.3932 137.519 43.6508C137.261 43.9083 137.519 45.0672 137.648 45.711C137.907 46.9986 138.036 48.415 137.39 49.3164C136.745 50.3465 135.325 50.4752 134.034 50.7328C133.389 50.8615 132.227 51.119 131.969 51.3766C131.84 51.6341 132.227 52.793 132.356 53.4368C132.743 54.7244 133.131 56.0121 132.614 57.0422C132.098 58.0723 130.807 58.5873 129.516 58.9736C128.871 59.2312 127.709 59.4887 127.58 59.875C127.451 60.1325 127.967 61.2914 128.226 61.8064C128.742 62.9653 129.387 64.2529 129 65.4118C128.613 66.5707 127.322 67.0857 126.16 67.7296C125.515 67.9871 124.482 68.5021 124.353 68.8884C124.224 69.146 124.869 70.1761 125.257 70.8199C126.031 71.9788 126.806 73.1376 126.548 74.2965C126.289 75.4554 125.128 76.228 124.095 77.0005C123.579 77.3868 122.546 78.0306 122.417 78.4169C122.417 78.8032 123.191 79.7046 123.579 80.0909C124.482 81.121 125.386 82.1511 125.257 83.31C125.128 84.4688 124.095 85.3702 123.191 86.2715C122.675 86.7866 121.772 87.5592 121.772 87.8167C121.772 88.203 122.675 88.9756 123.191 89.3618C124.224 90.2632 125.257 91.1645 125.257 92.3234C125.386 93.4823 124.482 94.6412 123.579 95.5425C123.191 96.0575 122.417 96.9589 122.417 97.2164C122.417 97.6027 123.45 98.2465 124.095 98.6328C125.257 99.4054 126.289 100.049 126.548 101.337C126.806 102.496 126.031 103.655 125.257 104.813C124.869 105.329 124.224 106.359 124.353 106.745C124.482 107.131 125.515 107.646 126.16 107.904C127.322 108.419 128.613 109.063 129 110.222C129.387 111.38 128.871 112.539 128.226 113.827C127.967 114.471 127.451 115.501 127.58 115.758C127.709 116.016 128.871 116.402 129.516 116.66C130.807 117.046 132.098 117.432 132.614 118.591C133.131 119.621 132.743 120.909 132.356 122.197C132.098 122.84 131.84 123.999 131.969 124.257C132.098 124.514 133.389 124.772 134.034 124.901C135.325 125.158 136.745 125.416 137.39 126.317C138.036 127.347 137.907 128.635 137.648 129.922C137.519 130.566 137.39 131.725 137.519 131.983C137.778 132.24 138.939 132.24 139.585 132.369C140.875 132.369 142.295 132.498 143.07 133.399C143.844 134.3 143.844 135.588 143.844 137.004C143.844 137.648 143.844 138.936 143.973 139.065C144.232 139.322 145.393 139.193 146.039 139.065C147.33 138.936 148.749 138.807 149.653 139.58C150.557 140.352 150.686 141.64 150.815 143.056C150.944 143.7 151.073 144.859 151.331 145.116C151.589 145.245 152.751 144.988 153.396 144.859C154.687 144.601 155.978 144.215 157.011 144.859C158.043 145.503 158.43 146.79 158.689 148.078C158.818 148.722 159.076 149.881 159.463 150.01C159.721 150.138 160.883 149.752 161.528 149.494C162.819 148.979 164.11 148.464 165.143 148.979C166.304 149.494 166.692 150.782 167.208 151.941C167.466 152.585 167.853 153.744 168.241 153.744C168.499 153.872 169.66 153.229 170.177 152.971C171.339 152.327 172.5 151.683 173.662 151.941C174.824 152.327 175.469 153.486 176.115 154.645C176.502 155.16 177.018 156.319 177.405 156.319C177.663 156.448 178.696 155.675 179.212 155.289C180.374 154.516 181.407 153.744 182.569 153.744Z" fill="black"/>
<path d="M188.377 149.366C186.183 149.237 183.988 148.979 181.923 148.722L182.181 146.79C184.247 147.177 186.312 147.305 188.506 147.434L188.377 149.366ZM196.251 149.366L196.122 147.434C198.187 147.305 200.382 147.048 202.447 146.662L202.834 148.593C200.64 148.851 198.445 149.237 196.251 149.366ZM174.307 146.919C172.242 146.275 170.177 145.503 168.111 144.73L168.886 142.927C170.822 143.7 172.887 144.473 174.824 144.988L174.307 146.919ZM210.321 146.662L209.805 144.859C211.87 144.215 213.806 143.443 215.742 142.67L216.517 144.473C214.581 145.245 212.515 146.018 210.321 146.662ZM161.012 141.254C159.076 140.223 157.269 138.936 155.462 137.648L156.623 136.103C158.301 137.391 160.108 138.549 161.916 139.58L161.012 141.254ZM223.487 140.867L222.454 139.193C224.262 138.163 226.069 137.004 227.747 135.717L228.909 137.262C227.23 138.549 225.423 139.708 223.487 140.867ZM149.524 132.755C147.975 131.21 146.426 129.665 145.006 127.991L146.426 126.703C147.846 128.248 149.266 129.794 150.815 131.21L149.524 132.755ZM234.975 132.111L233.684 130.695C235.233 129.279 236.653 127.733 238.073 126.059L239.622 127.347C237.944 129.021 236.524 130.695 234.975 132.111ZM140.23 121.681C139.068 119.879 137.907 117.947 136.874 116.016L138.552 115.115C139.585 116.917 140.617 118.849 141.779 120.523L140.23 121.681ZM244.011 121.038L242.333 120.008C243.495 118.205 244.527 116.402 245.431 114.471L247.109 115.372C246.334 117.303 245.173 119.235 244.011 121.038ZM133.776 108.934C133.002 106.874 132.356 104.813 131.84 102.753L133.776 102.238C134.292 104.298 134.938 106.359 135.583 108.29L133.776 108.934ZM250.336 108.161L248.529 107.517C249.174 105.586 249.82 103.526 250.336 101.466L252.272 101.852C251.756 104.041 251.11 106.101 250.336 108.161ZM130.42 95.0274C130.162 92.8384 130.033 90.6494 130.033 88.4604H131.969C131.969 90.5206 132.098 92.7096 132.356 94.7699L130.42 95.0274ZM253.563 94.2548L251.627 93.9973C251.885 91.937 252.014 89.7481 252.014 87.6878V87.4303H253.95V87.6878C253.821 89.8768 253.692 92.0658 253.563 94.2548ZM132.356 80.8634L130.42 80.6058C130.678 78.4169 131.065 76.2279 131.453 74.1677L133.389 74.554C132.872 76.7429 132.614 78.8032 132.356 80.8634ZM251.369 79.8333C251.11 77.773 250.723 75.7128 250.207 73.6526L252.143 73.1376C252.659 75.1978 253.047 77.3868 253.305 79.5757L251.369 79.8333ZM135.454 67.3432L133.647 66.6994C134.421 64.6392 135.196 62.5789 136.229 60.6475L138.036 61.5488C137.003 63.4803 136.229 65.4117 135.454 67.3432ZM248.012 66.4418C247.238 64.5104 246.463 62.5789 245.431 60.6475L247.109 59.7461C248.142 61.6776 249.045 63.7378 249.82 65.6693L248.012 66.4418ZM141.65 54.9819L139.972 53.9518C141.134 52.1491 142.424 50.3464 143.844 48.6725L145.393 49.9601C144.102 51.5053 142.812 53.1792 141.65 54.9819ZM241.558 54.0805C240.397 52.2778 239.106 50.6039 237.686 49.0588L239.235 47.7711C240.655 49.445 241.946 51.119 243.236 52.9217L241.558 54.0805ZM150.686 44.2945L149.395 42.8781C150.944 41.3329 152.622 39.9165 154.429 38.6289L155.591 40.1741C153.784 41.4617 152.235 42.8781 150.686 44.2945ZM232.523 43.5219C230.974 42.1055 229.296 40.6891 227.618 39.5302L228.779 37.9851C230.587 39.2727 232.265 40.6891 233.814 42.1055L232.523 43.5219ZM161.787 35.9249L160.754 34.2509C162.69 33.2208 164.626 32.1907 166.563 31.2894L167.337 33.0921C165.53 33.8646 163.594 34.8947 161.787 35.9249ZM221.164 35.4098C219.357 34.3797 217.42 33.4783 215.484 32.577L216.259 30.7743C218.195 31.6757 220.26 32.577 222.196 33.6071L221.164 35.4098ZM174.566 30.388L174.049 28.5853C176.114 27.9415 178.309 27.4265 180.374 27.0402L180.761 28.9716C178.567 29.2291 176.502 29.7442 174.566 30.388ZM208.385 30.1305C206.319 29.6154 204.254 29.1004 202.189 28.7141L202.576 26.7826C204.77 27.1689 206.836 27.684 208.901 28.199L208.385 30.1305ZM188.248 27.9415L188.119 26.0101C190.313 25.8813 192.508 25.8813 194.702 26.0101L194.573 27.9415C192.508 27.8127 190.313 27.8127 188.248 27.9415Z" fill="black"/>
<path d="M162.303 113.698L190.055 52.9218C190.313 52.4068 191.088 51.8917 191.604 51.8917H192.508C193.024 51.8917 193.798 52.4068 194.057 52.9218L221.68 113.698C222.196 114.857 221.551 116.016 220.131 116.016H214.451C213.419 116.016 212.773 115.501 212.386 114.6L206.707 102.238H177.147C175.34 106.359 173.404 110.479 171.597 114.6C171.338 115.243 170.564 116.016 169.531 116.016H163.852C162.432 116.016 161.657 114.857 162.303 113.698ZM203.221 94.5125L192.12 69.7899H191.604L180.503 94.5125H203.221Z" fill="black"/>
<path d="M0.110924 266.965L24.53 214.314C24.7843 213.806 25.1659 213.426 25.8018 213.426H26.6921C27.4552 213.426 27.8367 213.806 27.9639 214.314L52.1286 266.965C52.6373 267.98 52.0014 268.995 50.8567 268.995H43.9889C42.8442 268.995 42.2083 268.487 41.6996 267.472L37.8841 258.972H14.4825L10.6671 267.472C10.4127 268.234 9.64961 268.995 8.37778 268.995H1.50993C0.365289 268.995 -0.270623 267.98 0.110924 266.965ZM34.0686 250.345L26.1833 233.091H25.929L18.298 250.345H34.0686Z" fill="black"/>
<path d="M69.6797 215.709C69.6797 214.948 70.3156 214.187 71.2059 214.187H93.59C103.001 214.187 110.632 221.672 110.632 230.934C110.632 238.165 105.8 244.001 99.0588 246.792L109.869 266.711C110.378 267.726 109.869 268.995 108.598 268.995H100.331C99.6948 268.995 99.186 268.614 99.0588 268.234L88.6299 247.554H79.8543V267.472C79.8543 268.234 79.2184 268.995 78.3281 268.995H71.2059C70.3156 268.995 69.6797 268.234 69.6797 267.472V215.709ZM92.8269 239.18C97.0239 239.18 100.585 235.628 100.585 231.187C100.585 227.001 97.0239 223.575 92.8269 223.575H80.1087V239.18H92.8269Z" fill="black"/>
<path d="M132.381 216.09C132.381 215.075 133.144 214.187 134.288 214.187H141.156C142.174 214.187 143.064 215.075 143.064 216.09V237.15L162.777 214.948C163.032 214.567 163.54 214.187 164.304 214.187H172.189C173.715 214.187 174.478 215.836 173.461 216.978L152.984 239.941L174.987 266.077C175.75 267.092 175.114 268.868 173.588 268.868H165.067C164.304 268.868 163.795 268.614 163.668 268.36L143.191 243.113V266.965C143.191 267.98 142.301 268.868 141.283 268.868H134.416C133.271 268.868 132.508 267.98 132.508 266.965L132.381 216.09Z" fill="black"/>
<path d="M195.336 215.709C195.336 214.948 196.099 214.187 196.862 214.187H204.112C204.875 214.187 205.638 214.821 205.638 215.709V267.472C205.638 268.234 204.875 268.995 204.112 268.995H196.862C196.099 268.995 195.336 268.234 195.336 267.472V215.709Z" fill="black"/>
<path d="M225.733 216.344C225.224 215.329 225.86 214.314 227.004 214.314H235.017C235.78 214.314 236.162 214.821 236.289 215.202L251.296 248.822H251.805L266.813 215.202C266.94 214.821 267.448 214.314 268.084 214.314H276.097C277.242 214.314 277.877 215.329 277.369 216.344L253.077 268.995C252.822 269.502 252.441 269.883 251.805 269.883H251.042C250.406 269.883 249.897 269.502 249.77 268.995L225.733 216.344Z" fill="black"/>
<path d="M296.7 215.709C296.7 214.948 297.336 214.187 298.227 214.187H330.149C331.04 214.187 331.676 214.821 331.676 215.709V222.053C331.676 222.814 331.04 223.575 330.149 223.575H307.002V236.389H326.334C327.097 236.389 327.86 237.023 327.86 237.912V244.382C327.86 245.27 327.224 245.904 326.334 245.904H307.002V259.606H330.149C331.04 259.606 331.676 260.241 331.676 261.129V267.599C331.676 268.36 331.04 269.122 330.149 269.122H298.227C297.336 269.122 296.7 268.36 296.7 267.599V215.709Z" fill="black"/>
<path d="M363.217 223.702H351.262C350.371 223.702 349.736 222.941 349.736 222.18V215.709C349.736 214.948 350.371 214.187 351.262 214.187H385.474C386.364 214.187 387 214.821 387 215.709V222.18C387 222.941 386.364 223.702 385.474 223.702H373.519V267.599C373.519 268.36 372.883 269.122 371.992 269.122H364.743C363.98 269.122 363.217 268.36 363.217 267.599V223.702Z" fill="black"/>
<path d="M81.7621 315.43L82.0165 315.176C82.1437 315.049 82.398 314.922 82.5252 315.049C82.7796 315.303 84.4329 316.825 86.8494 316.825C89.0115 316.825 90.7921 315.43 90.7921 313.653C90.7921 311.623 89.1387 310.608 86.2135 309.72C83.5427 308.705 81.7621 307.817 81.7621 305.153C81.7621 303.377 83.1611 300.966 86.8494 300.966C89.1387 300.966 90.9192 302.108 90.9192 302.108C91.0464 302.108 91.1736 302.362 91.0464 302.616C90.9192 302.743 90.9192 302.869 90.9192 302.869C90.7921 302.996 90.6649 303.123 90.4105 302.996C90.4105 302.996 88.7571 301.854 86.9766 301.854C84.0514 301.854 83.0339 303.631 83.0339 305.026C83.0339 307.056 84.5601 307.817 86.9766 308.705C90.1562 309.847 92.1911 310.989 92.1911 313.653C92.1911 315.937 89.7746 317.84 87.1038 317.84C84.3058 317.84 82.398 316.191 82.1437 315.937C81.6349 315.81 81.5077 315.683 81.7621 315.43Z" fill="black" stroke="black" stroke-width="0.1" stroke-miterlimit="10"/>
<path d="M101.348 301.601C101.348 301.474 101.475 301.347 101.603 301.347H111.014C111.141 301.347 111.268 301.474 111.268 301.601V301.981C111.268 302.108 111.141 302.235 111.014 302.235H102.493V308.705H109.869C109.997 308.705 110.124 308.832 110.124 308.959V309.34C110.124 309.467 109.997 309.594 109.869 309.594H102.493V316.571H111.014C111.141 316.571 111.268 316.698 111.268 316.825V317.206C111.268 317.333 111.141 317.46 111.014 317.46H101.603C101.475 317.46 101.348 317.333 101.348 317.206V301.601Z" fill="black" stroke="black" stroke-width="0.1" stroke-miterlimit="10"/>
<path d="M128.438 300.966C130.855 300.966 132.635 301.728 134.161 303.123C134.288 303.25 134.288 303.377 134.161 303.504L133.78 303.884C133.653 304.011 133.525 304.011 133.398 303.884C132.126 302.742 130.346 301.981 128.438 301.981C124.368 301.981 121.061 305.28 121.061 309.34C121.061 313.4 124.241 316.698 128.438 316.698C130.473 316.698 131.999 315.937 133.398 314.795C133.525 314.668 133.653 314.668 133.78 314.795L134.161 315.176C134.288 315.303 134.288 315.43 134.161 315.556C132.635 317.079 130.473 317.84 128.438 317.84C123.732 317.84 119.917 314.161 119.917 309.467C119.917 304.772 123.732 300.966 128.438 300.966Z" fill="black" stroke="black" stroke-width="0.1" stroke-miterlimit="10"/>
<path d="M150.949 300.966C155.655 300.966 159.343 304.772 159.343 309.34C159.343 314.034 155.528 317.713 150.949 317.713C146.244 317.713 142.555 314.034 142.555 309.34C142.428 304.772 146.244 300.966 150.949 300.966ZM150.949 316.825C155.019 316.825 158.326 313.526 158.326 309.467C158.326 305.407 155.019 302.108 150.949 302.108C146.88 302.108 143.573 305.407 143.573 309.467C143.573 313.526 146.88 316.825 150.949 316.825Z" fill="black" stroke="black" stroke-width="0.1" stroke-miterlimit="10"/>
<path d="M169.009 301.347C169.009 301.22 169.136 301.093 169.391 301.093H169.772L180.964 315.683V301.601C180.964 301.474 181.092 301.347 181.219 301.347H181.728C181.855 301.347 181.982 301.474 181.982 301.601V317.586C181.982 317.84 181.855 317.84 181.6 317.84H181.346C181.346 317.84 181.092 317.84 170.027 303.123V317.333C170.027 317.459 169.9 317.586 169.772 317.586H169.264C169.136 317.586 169.009 317.459 169.009 317.333V301.347Z" fill="black" stroke="black" stroke-width="0.1" stroke-miterlimit="10"/>
<path d="M192.92 301.601C192.92 301.474 193.047 301.347 193.174 301.347H198.134C202.713 301.347 206.401 305.026 206.401 309.467C206.401 314.034 202.713 317.713 198.134 317.713H193.174C193.047 317.713 192.92 317.586 192.92 317.46V301.601ZM198.007 316.571C202.077 316.571 205.256 313.4 205.256 309.34C205.256 305.28 202.077 302.235 198.007 302.235H194.064V316.571H198.007Z" fill="black" stroke="black" stroke-width="0.1" stroke-miterlimit="10"/>
<path d="M227.005 301.601C227.005 301.474 227.132 301.347 227.259 301.347H227.768C227.895 301.347 228.022 301.474 228.022 301.601V308.705H238.578V301.601C238.578 301.474 238.705 301.347 238.832 301.347H239.341C239.468 301.347 239.596 301.474 239.596 301.601V317.333C239.596 317.46 239.468 317.586 239.341 317.586H238.832C238.705 317.586 238.578 317.46 238.578 317.333V309.72H228.022V317.333C228.022 317.46 227.895 317.586 227.768 317.586H227.259C227.132 317.586 227.005 317.46 227.005 317.333V301.601Z" fill="black" stroke="black" stroke-width="0.1" stroke-miterlimit="10"/>
<path d="M248.117 317.333L255.366 301.093C255.366 300.966 255.493 300.966 255.621 300.966H255.748C255.875 300.966 256.002 300.966 256.002 301.093L263.251 317.333C263.251 317.459 263.251 317.586 262.997 317.586H262.361C262.234 317.586 262.107 317.459 261.98 317.333L260.072 313.019H251.169L249.261 317.333C249.261 317.459 249.134 317.586 248.88 317.586H248.244C248.117 317.586 248.117 317.459 248.117 317.333ZM259.69 312.131L255.748 302.742L251.678 312.131H259.69Z" fill="black" stroke="black" stroke-width="0.1" stroke-miterlimit="10"/>
<path d="M271.646 301.347C271.646 301.22 271.773 301.093 272.027 301.093H272.409L283.601 315.683V301.601C283.601 301.474 283.728 301.347 283.855 301.347H284.364C284.491 301.347 284.618 301.474 284.618 301.601V317.586C284.618 317.84 284.491 317.84 284.237 317.84H283.982C283.982 317.84 283.728 317.84 272.663 303.123V317.333C272.663 317.459 272.536 317.586 272.409 317.586H271.9C271.773 317.586 271.646 317.459 271.646 317.333V301.347Z" fill="black" stroke="black" stroke-width="0.1" stroke-miterlimit="10"/>
<path d="M295.556 301.601C295.556 301.474 295.683 301.347 295.81 301.347H300.77C305.349 301.347 309.037 305.026 309.037 309.467C309.037 314.034 305.349 317.713 300.77 317.713H295.81C295.683 317.713 295.556 317.586 295.556 317.46V301.601ZM300.643 316.571C304.713 316.571 307.892 313.4 307.892 309.34C307.892 305.28 304.713 302.235 300.643 302.235H296.7V316.571H300.643Z" fill="black" stroke="black" stroke-width="0.1" stroke-miterlimit="10"/>
</svg>
