<svg viewBox="0 0 69.48 51.8" xmlns="http://www.w3.org/2000/svg"><path d="M50.2 23.42a8.23 8.23 0 0 1-3.74-3.08l-.3-.44H15.23a.67.67 0 0 0 .06.15 7.94 7.94 0 0 0 6.94 4h30a19.76 19.76 0 0 1-2.03-.63z" fill="#fff" opacity=".5"/><path d="M45.1 15.08s0-.02 0 0zm0 0s0-.02 0 0z" fill="none"/><g fill="#fff"><path d="M45.1 15.07v.01z" opacity=".5"/><path d="M44.29 15.77H14.12a7.61 7.61 0 0 0 1.11 4.13h30.93a8.29 8.29 0 0 1-1.07-4.13z" opacity=".7"/><path d="M45.1 15.08v.34c-.01-.11 0-.23 0-.34z" opacity=".8"/><path d="M51.9 7.52H22.37a7.85 7.85 0 0 0-1.68.17 8.1 8.1 0 0 0-5.46 4 1 1 0 0 1 .7-.13h30.34a1.63 1.63 0 0 1-.11.17 9 9 0 0 1 2.69-2.83 7.86 7.86 0 0 1 3.4-1.27l.1-.06z" opacity=".7"/><path d="M45.27 11.51H15.93a1 1 0 0 0-.7.13 7.34 7.34 0 0 0-1.11 4.13h31v-.34-.34a7.71 7.71 0 0 1 .81-2.9c.06-.14.12-.27.17-.41a1.63 1.63 0 0 0 .11-.17c-.33-.12-.77-.1-.94-.1z" opacity=".5"/><path d="M53.31 19.9a4.13 4.13 0 0 1 0-8.26 2.08 2.08 0 0 0 2.08-1.77 2.1 2.1 0 0 0-1.48-2.27 5.73 5.73 0 0 0-1.6-.07l-.1.06a7.86 7.86 0 0 0-3.4 1.27 8.84 8.84 0 0 0-2.58 2.66 1.63 1.63 0 0 1-.11.17c-.05.14-.11.27-.17.41a7.71 7.71 0 0 0-.81 2.9v.69a8.29 8.29 0 0 0 1.07 4.13l.3.44a8.23 8.23 0 0 0 3.74 3.08 19.76 19.76 0 0 0 2 .6h1.05a2.07 2.07 0 1 0 0-4.13z" opacity=".9"/><path d="M6.56 49a2.92 2.92 0 0 1-1 2 3.26 3.26 0 0 1-2.22.72 3.12 3.12 0 0 1-1.7-.46A3 3 0 0 1 .54 50a4.68 4.68 0 0 1-.42-2v-.7a4.73 4.73 0 0 1 .41-2 3.09 3.09 0 0 1 1.17-1.37 3.27 3.27 0 0 1 1.75-.47 3.12 3.12 0 0 1 2.16.73 3 3 0 0 1 .95 2.05h-1.4A2 2 0 0 0 4.65 45a1.67 1.67 0 0 0-1.2-.39 1.67 1.67 0 0 0-1.45.65 3.31 3.31 0 0 0-.5 2V48a3.51 3.51 0 0 0 .5 2 1.55 1.55 0 0 0 1.37.69 1.81 1.81 0 0 0 1.25-.38A1.94 1.94 0 0 0 5.16 49zM18 48.05h-3.31v2.5h3.89v1.12h-5.29v-8.1h5.25v1.14h-3.85v2.23H18zm9.29 2.5H31v1.12h-5.12v-8.1h1.41zm15.19-2.5h-3.33v2.5H43v1.12h-5.3v-8.1H43v1.14h-3.85v2.23h3.33zm10.95.51h-1.57v3.11h-1.41v-8.1h2.85a3.32 3.32 0 0 1 2.17.63 2.25 2.25 0 0 1 .76 1.8 2.28 2.28 0 0 1-.39 1.36 2.5 2.5 0 0 1-1.1.85l1.82 3.37v.07h-1.51zm-1.57-1.14h1.45a1.61 1.61 0 0 0 1.11-.36 1.25 1.25 0 0 0 .4-1 1.34 1.34 0 0 0-.37-1 1.52 1.52 0 0 0-1.1-.36h-1.49zM66 47.41l1.86-3.84h1.54l-2.71 5.12v3h-1.42v-3l-2.72-5.12h1.57z"/></g></svg>