<?xml version="1.0" encoding="utf-8"?>
<!-- Generator: Adobe Illustrator 25.1.0, SVG Export Plug-In . SVG Version: 6.00 Build 0)  -->
<svg version="1.1" id="Layer_1" xmlns="http://www.w3.org/2000/svg" xmlns:xlink="http://www.w3.org/1999/xlink" x="0px" y="0px"
	 viewBox="0 0 165 58" style="enable-background:new 0 0 165 58;" xml:space="preserve">
<style type="text/css">
	.st0{fill-rule:evenodd;clip-rule:evenodd;fill:#FFFFFF;}
</style>
<g>
	<path class="st0" d="M9.6,28.4c0,5.4,3.9,8.6,10.3,7.2V21.2C13.5,19.3,9.7,23.2,9.6,28.4 M20.1,0.5h8.7v41.2
		c-8.4,1.4-16.4,2.2-22.1-1c-7.4-4.1-8-17.2-2.1-23c3-3,8.9-5,15.3-3.7v-13C19.9,0.8,19.9,0.6,20.1,0.5 M43,9.6h-8.7V0.5H43V9.6z"/>
	<path class="st0" d="M147.6,35.9c9.5,3.7,10.6-17,1-15.1C142.6,22,142.8,34.1,147.6,35.9 M148,13.7c7.3-0.8,12.7,2.4,14.9,7.4
		c3.7,8.4-0.2,18.1-6.2,20.9c-3.1,1.5-6.4,1.6-9.3,1.4c-9.1-0.8-14.8-10-11.6-20.3c0.5-1.6,1.1-2.6,1.4-3.1
		C139.1,16.5,142.4,14.3,148,13.7 M55,32.6c-2.4,4,3.6,5,7.6,3.9v-6C59.5,30.9,56.1,30.7,55,32.6 M70.3,42.1
		c-7.2,0.4-18.1,2.9-22.1-1.9c-2.3-2.8-2.1-8.2,0-10.8c2.7-3.4,8.5-4.2,13.8-4.6c0.5-1.2,0.2-3.1-0.4-3.9c-4.8-1.2-9.6,0.7-13,2.1
		v-6.8c5.1-2.4,17-4.8,20.5,0.6c1.9,2.8,1.2,7.8,1.2,12.2V42.1z M100.9,42.5h-8.7V31.3c0-3.7,0.6-8.4-1.4-9.9
		c-1.5-1.2-5.2-0.6-7.4,0v21.1h-8.7V15.6c8.9-2.3,25-4.8,26.2,6.4C101.5,27.5,100.5,35.8,100.9,42.5 M113.9,33.2
		c1.5,2.4,5.4,3.3,8.7,1.7c-0.2-4.5-0.2-9.2-0.2-13.9C114.9,19,110.4,27.6,113.9,33.2 M135.8,14.8c-0.8,2.3-1.9,4.3-2.9,6.4
		c-0.9,0.2-1.7-0.4-2.1,0c-0.2,9.4,2,22.2-1.7,29c-2.3,4.1-6.4,6.7-12.8,7.2c-4.6,0.3-8.2-0.4-11.6-1.7v-8.1c4,2.3,14,4.2,16.9-0.6
		c0.8-1.4,0.8-2.9,1.2-5c-1.8,0.1-3.6,0.9-5.8,1c-9.1,0.1-14.8-7.1-12.6-17.2c0.8-3.9,3.1-7,6.2-8.9
		C116.8,12.9,126.5,13.2,135.8,14.8 M43,14.2c0,6.4,0,11,0,18.8c-0.4,7.7-0.3,13.8-3.1,17.4c-0.6,0.7-1.7,1.8-2.7,2.5
		c-0.8,0.6-2.4,1.9-3.3,1.9c-0.9,0.1-3.2-1.2-4.3-1.7c-1.4-0.6-2.6-1.5-4.1-1.9c3.3-2.1,6.5-3.6,7.8-7.7c1.1-3.6,1-8.8,1-13.9
		c0-5,0-10.9,0-15.3C34.3,14.2,43,14.2,43,14.2z"/>
</g>
</svg>
