<svg xmlns="http://www.w3.org/2000/svg" viewBox="0 0 102.64 23.48"><defs><style>.cls-1{fill:#f60}&lt;\/style&gt;</style></defs><path class="cls-1" d="M49.42 4.49a3 3 0 1 1 6 0h1.47A4.49 4.49 0 1 0 52.43 9V7.51a3 3 0 0 1-3.01-3.02zM59.68.23h8.26V1.7h-8.26zm-20.43 0h5.19V1.7h-5.19zm0 3.51h5.19v1.47h-5.19zm0 3.54h5.19v1.47h-5.19zM36.22.23h1.47v8.52h-1.47zm26.86 3.03h1.47v5.48h-1.47z"/><path class="cls-1" d="M52.98 4.5l-.55.56-.25.24.25.25 1.54 1.55 1.06 1.06.74.73 1.03-1.04-.72-.72-1.06-1.06-1.56-1.57-.24-.23-.24.23zM1.11 14.47H0l4.31 8.37.09.17.55-1.07-3.81-7.41-.03-.06zm4.61 3.82l-.03.05.56 1.08 2.55-4.95H7.69l-1.97 3.82zm12.75-3.82h3.79v.94h-3.79zm-3.34 0h1v8.75h-1zm3.34 3.91h3.79v.94h-3.79zm0 3.9h3.79v.94h-3.79zm24.59-7.81h6.71v.94h-6.71zm2.86 3.28h1v5.48h-1zm10.56 1.59v-4.87h-1v5.06a3.66 3.66 0 0 0 .87 2.74 3.8 3.8 0 0 0 1.33.93l.14.06v-1.08h-.05c-1.08-.59-1.29-1.48-1.29-2.84zm4.99 0a3.69 3.69 0 0 1-.36 1.94 2.2 2.2 0 0 1-.95.88h-.05v1.07l.14-.06a3.73 3.73 0 0 0 1.35-.94 3.65 3.65 0 0 0 .87-2.73v-5.03h-1v4.87zm13.7 1.75a4.63 4.63 0 0 1-.77.17h-.12l.72 1.96h1l-.76-2.17zm-1.84-6.62h-.1v1h.23a2.13 2.13 0 0 1 1.23.27 1.45 1.45 0 0 1 .63 1.2 1.43 1.43 0 0 1-.86 1.32 2.63 2.63 0 0 1-1.11.16h-.12v1h.25a2.62 2.62 0 0 0 1.88-.5 2.5 2.5 0 0 0 .94-1.94 2.41 2.41 0 0 0-.81-1.81 2.74 2.74 0 0 0-2.16-.7zm-3.42 0h1v8.75h-1zm13.44 0h1v8.75h-1zm3.33 0h3.79v.94h-3.79zm0 7.81h3.79v.94h-3.79zm0-3.9h3.79v.94h-3.79zm15.04.41l-.09-.07-.53.87.06.06a1.52 1.52 0 0 1 .47 1.29 1.7 1.7 0 0 1-1.69 1.6h-.14a2.22 2.22 0 0 1-1.58-1.12l-.09-.12-.54.85a1.06 1.06 0 0 0 .2.3 2.77 2.77 0 0 0 1.9 1h.23a2.68 2.68 0 0 0 1.76-.65 2.73 2.73 0 0 0 .94-1.87 2.32 2.32 0 0 0-.9-2.14zm-2.82-.27h.08l.5-.83-.08-.05a1.29 1.29 0 0 1-.63-1.23 1.38 1.38 0 0 1 .47-.94 1.34 1.34 0 0 1 1-.32 1.44 1.44 0 0 1 1.26.77l.09.12.5-.79v-.12a2.37 2.37 0 1 0-3.77 2.89 1.89 1.89 0 0 0 .58.5zm-62.65 2.57l-6.42-6.55-.17-.17v1.48l7.42 7.44.17.17v-8.99h-1v6.62zm-6.59 2.14h1V19.5l-1-.88v4.61z"/></svg>