<svg width="165" height="52" xmlns="http://www.w3.org/2000/svg"><g fill="#E10098"><path d="M63.584 14.91c-.85 0-1.628.112-2.33.336a4.436 4.436 0 0 0-1.792 1.046c-.493.47-.89 1.082-1.194 1.835-.285.753-.446 1.65-.484 2.694a71.891 71.891 0 0 0 0 5.08c.038 1.054.2 1.952.484 2.695.303.752.701 1.373 1.194 1.863.511.47 1.108.819 1.792 1.046.702.208 1.48.312 2.33.312.837 0 1.614-.113 2.331-.338a5.186 5.186 0 0 0 1.849-1.07c.531-.489.95-1.11 1.254-1.864.303-.753.455-1.637.455-2.653V24.45h-4.97c-.417 0-.625-.211-.625-.634v-.397c0-.423.208-.634.626-.634h6.066c.426 0 .64.211.64.634v2.484c0 1.13-.17 2.165-.51 3.106a6.707 6.707 0 0 1-1.507 2.402c-.644.676-1.45 1.203-2.42 1.58-.958.357-2.038.536-3.24.536-1.233 0-2.313-.179-3.242-.535-.928-.377-1.714-.894-2.36-1.553a6.882 6.882 0 0 1-1.449-2.341c-.322-.921-.502-1.938-.539-3.049a59.935 59.935 0 0 1-.057-2.682c0-.95.02-1.844.057-2.681.038-1.11.228-2.117.569-3.02a6.815 6.815 0 0 1 1.449-2.372c.644-.659 1.43-1.167 2.36-1.524.928-.377 2-.565 3.213-.565 1.309 0 2.427.198 3.355.594.928.397 1.687.872 2.276 1.427.588.546 1.025 1.12 1.31 1.723.284.602.435 1.1.454 1.496a.466.466 0 0 1-.16.424.64.64 0 0 1-.455.159h-.626c-.17 0-.292-.038-.37-.112a2.115 2.115 0 0 1-.224-.452 6.118 6.118 0 0 0-.639-1.267 4.124 4.124 0 0 0-1.078-1.129 5.728 5.728 0 0 0-1.62-.817c-.626-.208-1.371-.312-2.235-.312l.062-.03zm13.427 5.615c.681-1.3 1.97-1.95 3.868-1.95h1.053c.417 0 .626.208.626.622v.397c0 .414-.209.62-.626.62H80.71c-1.137 0-2.038.33-2.701.989-.664.658-.996 1.552-.996 2.681v8.748c0 .198-.066.349-.199.452a.618.618 0 0 1-.455.17h-.455c-.417 0-.625-.208-.625-.622V19.225c0-.198.056-.349.17-.452a.571.571 0 0 1 .455-.197h.455c.2 0 .351.066.455.197.133.113.2.264.2.452v1.3h-.002zm17.563 12.736c-.417 0-.625-.207-.625-.621v-1.327a4.13 4.13 0 0 1-.683.792 4.04 4.04 0 0 1-.995.706c-.4.208-.878.376-1.437.505-.551.15-1.19.225-1.916.225a6.202 6.202 0 0 1-1.964-.312 5.838 5.838 0 0 1-1.62-.903A4.679 4.679 0 0 1 84.224 31a3.523 3.523 0 0 1-.4-1.664c0-.638.134-1.213.4-1.723.285-.507.674-.95 1.168-1.327a5.99 5.99 0 0 1 1.763-.958 10.524 10.524 0 0 1 2.305-.565l4.494-.62v-.989c0-1.016-.313-1.806-.939-2.37-.606-.565-1.582-.848-2.928-.848-1.06 0-1.885.207-2.474.621-.569.397-.928.83-1.077 1.3-.075.225-.175.385-.3.48a.683.683 0 0 1-.4.112h-.4a.686.686 0 0 1-.454-.17.671.671 0 0 1-.17-.451c0-.265.099-.594.299-.988.2-.397.502-.783.91-1.16.426-.376.976-.695 1.65-.958.663-.282 1.47-.423 2.42-.423 1.117 0 2.037.15 2.758.452.739.3 1.317.696 1.736 1.185a3.8 3.8 0 0 1 .854 1.58c.17.584.254 1.158.254 1.723v9.399c0 .414-.209.62-.626.62h-.483l-.01.004zm-5.388-1.355c.644 0 1.25-.104 1.82-.312a4.342 4.342 0 0 0 1.536-.988c.426-.423.767-.969 1.022-1.638.248-.658.371-1.43.371-2.313v-.958l-3.667.505c-3.146.423-4.72 1.42-4.72 2.992 0 .47.105.875.315 1.214.226.337.51.62.853.847.34.225.729.393 1.168.505.426.106.862.16 1.31.16l-.008-.014zm17.493 1.637c-1.194 0-2.17-.211-2.928-.634-.758-.423-1.374-.95-1.848-1.581v6.685c0 .415-.209.622-.626.622h-.483c-.417 0-.626-.207-.626-.622V19.195c0-.414.209-.62.626-.62h.483c.417 0 .626.206.626.62v1.327a5.604 5.604 0 0 1 1.848-1.58c.759-.422 1.735-.634 2.928-.634 1.1 0 2.028.199 2.784.595.779.376 1.404.884 1.877 1.524a5.915 5.915 0 0 1 1.022 2.145c.227.79.36 1.6.4 2.428.02.282.03.593.03.932 0 .336-.01.647-.03.931-.038.83-.171 1.649-.4 2.456-.21.79-.55 1.506-1.022 2.145-.474.621-1.1 1.13-1.877 1.525-.758.376-1.686.564-2.784.564v-.01zm-4.778-8.638c-.02.282-.03.649-.03 1.1 0 .45.01.817.03 1.099.02.564.12 1.139.3 1.723.2.565.484 1.073.853 1.525.379.451.858.828 1.437 1.129.569.282 1.25.423 2.046.423.836 0 1.528-.14 2.076-.423a3.66 3.66 0 0 0 1.365-1.13c.36-.489.615-1.043.766-1.663.17-.64.275-1.298.315-1.976.02-.528.02-1.055 0-1.581a9.272 9.272 0 0 0-.315-1.95 4.311 4.311 0 0 0-.766-1.637 3.54 3.54 0 0 0-1.365-1.159c-.549-.3-1.24-.451-2.076-.451-.815 0-1.507.15-2.076.451a4.507 4.507 0 0 0-1.437 1.186c-.36.47-.634.997-.823 1.58a7.675 7.675 0 0 0-.3 1.75v.004zm16.498-4.38a6.263 6.263 0 0 1 1.849-1.609c.718-.414 1.694-.62 2.927-.62.968 0 1.812.159 2.53.479.719.32 1.316.762 1.792 1.327a5.574 5.574 0 0 1 1.107 2.005c.247.773.37 1.61.37 2.511v8.016c0 .414-.208.62-.626.62h-.479c-.417 0-.625-.206-.625-.62v-7.875c0-1.505-.37-2.68-1.108-3.527-.738-.866-1.819-1.3-3.24-1.3-1.365 0-2.455.423-3.271 1.268-.815.845-1.223 2.032-1.223 3.56v7.875c0 .414-.208.621-.626.621h-.483c-.417 0-.626-.207-.626-.62v-18.82c0-.414.209-.62.626-.62h.483c.418 0 .626.206.626.62v6.686l-.003.022zm22.193-7.31c1.1 0 2.105.16 3.015.48.91.32 1.687.81 2.33 1.468.664.64 1.176 1.448 1.536 2.428.38.96.588 2.1.626 3.417.038.845.057 1.635.057 2.371 0 .733-.02 1.524-.057 2.371-.107 2.692-.799 4.668-2.076 5.928l1.82 2.526.057.112a.46.46 0 0 1 .03.197c0 .15-.057.283-.171.397a.55.55 0 0 1-.4.17h-.643a.697.697 0 0 1-.54-.253 5.937 5.937 0 0 1-.369-.397l-1.254-1.723c-1.138.546-2.465.82-3.982.82-2.37 0-4.199-.63-5.487-1.892-1.27-1.26-1.944-3.227-2.02-5.898a53.073 53.073 0 0 1-.058-2.371c0-.733.02-1.524.057-2.371.038-1.318.238-2.457.6-3.418.378-.978.89-1.787 1.535-2.427a6.284 6.284 0 0 1 2.33-1.468c.91-.32 1.925-.48 3.043-.48l.021.013zm0 1.694a6.67 6.67 0 0 0-2.234.367 4.53 4.53 0 0 0-1.792 1.1c-.511.507-.919 1.156-1.223 1.949-.284.79-.446 1.731-.483 2.823l-.057 1.185v2.116c.02.356.039.743.057 1.159.037 1.11.199 2.06.483 2.852.303.773.701 1.407 1.194 1.902a4.846 4.846 0 0 0 1.792 1.13 7.122 7.122 0 0 0 2.242.336c.816 0 1.563-.112 2.243-.337a4.584 4.584 0 0 0 1.763-1.129c.51-.507.909-1.141 1.194-1.902.304-.79.473-1.74.51-2.852.02-.414.03-.8.03-1.16v-2.114c0-.356-.01-.752-.03-1.185-.039-1.092-.208-2.033-.51-2.823-.284-.79-.682-1.44-1.194-1.95a4.525 4.525 0 0 0-1.792-1.099 6.57 6.57 0 0 0-2.235-.367h.042zm13.88 16.65h9.81c.426 0 .64.212.64.635v.423c0 .414-.214.621-.64.621h-10.974c-.417 0-.626-.207-.626-.62v-18.5c0-.415.209-.622.626-.622h.539c.417 0 .625.207.625.621V31.56zM4.225 39.52l-1.915-1.1L23.669 1.702l1.916 1.1L4.225 39.52z"/><path d="M1.874 35.474h42.719v2.2H1.874z"/><path d="M24.088 48.954L2.72 36.71l1.107-1.902L25.194 47.05l-1.106 1.904zm18.56-31.917L21.286 4.793l1.107-1.902 21.369 12.245-1.112 1.9z"/><path d="M3.832 17.03L2.724 15.13 24.11 2.897 25.217 4.8z"/><path d="M42.255 39.52L20.895 2.786l1.916-1.1 21.36 36.72-1.916 1.114zM3.568 13.669h2.21V38.16h-2.21V13.669zm37.132 0h2.215V38.16h-2.202L40.7 13.669z"/><path d="M23.71 48.024l-.967-1.664 18.569-10.65.967 1.665z"/><path d="M45.847 38.877c-1.287 2.209-4.134 2.968-6.361 1.693a4.606 4.606 0 0 1-1.707-6.314c1.285-2.21 4.135-2.968 6.362-1.694a4.65 4.65 0 0 1 2.176 2.805 4.59 4.59 0 0 1-.468 3.511M8.692 17.576c-1.287 2.21-4.134 2.968-6.361 1.694a4.608 4.608 0 0 1-1.708-6.315c1.28-2.213 4.134-2.968 6.361-1.693a4.617 4.617 0 0 1 1.708 6.315m-8.053 21.3a4.611 4.611 0 0 1 1.707-6.315c2.227-1.27 5.068-.517 6.36 1.694a4.611 4.611 0 0 1-1.705 6.314c-2.246 1.27-5.085.52-6.362-1.693m37.158-21.301a4.611 4.611 0 0 1 1.707-6.314 4.682 4.682 0 0 1 6.361 1.693 4.612 4.612 0 0 1-1.706 6.315c-2.23 1.273-5.074.515-6.362-1.694M23.241 51.84c-2.575 0-4.655-2.08-4.655-4.621 0-2.55 2.084-4.618 4.653-4.62 2.57.002 4.653 2.07 4.654 4.62-.004 2.55-2.085 4.616-4.655 4.62m0-42.602c-2.575 0-4.655-2.08-4.655-4.62C18.585 2.064 20.67-.003 23.24 0c2.57 0 4.653 2.068 4.654 4.62a4.593 4.593 0 0 1-1.363 3.268A4.678 4.678 0 0 1 23.24 9.24"/></g></svg>