<svg width="165" height="25" xmlns="http://www.w3.org/2000/svg"><g fill="none"><g fill="#333" fill-opacity=".937"><path d="M60.618.777v23.781h-6.605v-9.311H45.95v9.31h-6.605V.778h6.605v8.776h8.063V.777h6.605zm8.679 24.116a6.93 6.93 0 0 1-2.473-.436 6.52 6.52 0 0 1-1.999-1.172 5.759 5.759 0 0 1-1.287-1.808 5.35 5.35 0 0 1-.473-2.245c0-.893.192-1.708.577-2.444a5.88 5.88 0 0 1 1.593-1.91c.679-.536 1.48-.949 2.407-1.24.948-.29 1.987-.434 3.117-.434 1.447 0 2.644.223 3.592.67v-.537c0-.826-.248-1.44-.745-1.842-.473-.402-1.251-.602-2.336-.602-1.015 0-1.952.167-2.811.502-.858.314-1.76.783-2.708 1.407L63.888 8.85c2.349-1.496 5.024-2.244 8.027-2.244 2.846 0 5.037.626 6.572 1.878 1.536 1.252 2.304 3.129 2.304 5.629v3.416c0 .603.113 1.027.34 1.273.226.224.633.359 1.22.403v5.36c-.587.11-1.14.189-1.66.233-.52.069-.983.103-1.39.103-1.15 0-2.032-.2-2.641-.603-.588-.423-.972-1.037-1.154-1.843l-.136-.634c-.79 1.006-1.705 1.777-2.743 2.31a7.376 7.376 0 0 1-3.32.773l-.01-.01zm1.93-4.555c.384 0 .78-.056 1.186-.167a4.846 4.846 0 0 0 1.084-.503 2.99 2.99 0 0 0 .61-.57c.158-.223.237-.446.237-.67v-1.306a9.291 9.291 0 0 0-1.254-.334 6.387 6.387 0 0 0-1.22-.134c-.791 0-1.447.189-1.967.567-.52.378-.78.858-.78 1.439 0 .491.191.893.576 1.205.406.312.913.468 1.522.468l.006.005zm21.19 4.555a18.69 18.69 0 0 1-2.405-.167 31.672 31.672 0 0 1-2.541-.436 26.452 26.452 0 0 1-2.371-.636 12.918 12.918 0 0 1-1.996-.871l2.475-4.32c1.242.647 2.427 1.138 3.557 1.473 1.13.335 2.18.502 3.152.502 1.13 0 1.694-.279 1.694-.837 0-.29-.226-.547-.677-.77-.451-.223-1.309-.49-2.572-.802-1.263-.333-2.325-.668-3.184-1.003-.858-.333-1.546-.702-2.064-1.106-.52-.423-.893-.88-1.118-1.372-.226-.512-.34-1.104-.34-1.775 0-.893.181-1.72.543-2.478a6.11 6.11 0 0 1 1.591-1.974c.678-.558 1.48-.982 2.405-1.273.948-.312 1.976-.468 3.082-.468 1.198 0 2.474.168 3.83.504 1.377.335 2.777.827 4.2 1.474l-2.476 4.048c-1.265-.581-2.316-.995-3.15-1.24-.837-.267-1.639-.4-2.408-.4-.497 0-.903.077-1.219.233-.294.135-.44.358-.44.67 0 .18.045.336.136.471.09.111.25.223.476.335.227.111.532.234.917.368.406.112.902.235 1.49.369 1.355.335 2.495.692 3.42 1.072.927.359 1.661.761 2.203 1.208.565.425.96.917 1.186 1.474.248.537.373 1.162.373 1.875 0 1.81-.7 3.24-2.1 4.289-1.379 1.051-3.265 1.577-5.659 1.577l-.01-.014zm21.691-.335l-4.031-6.43-1.287 1.406v5.024h-6.437V.106h6.437v13.366l4.742-6.532h6.775l-6.131 7.704 6.74 9.914h-6.808z"/><path d="M129.983 24.893c-1.558 0-2.947-.234-4.166-.703-1.22-.492-2.248-1.15-3.083-1.977a8.548 8.548 0 0 1-1.863-2.847 9.013 9.013 0 0 1-.644-3.383c0-1.272.203-2.478.61-3.617a8.637 8.637 0 0 1 1.862-2.98c.836-.85 1.852-1.52 3.048-2.01 1.218-.514 2.63-.771 4.234-.771 1.581 0 2.982.257 4.202.77 1.218.492 2.234 1.162 3.048 2.01a7.795 7.795 0 0 1 1.863 2.917 9.398 9.398 0 0 1 .641 3.452c0 .335-.023.681-.068 1.038a9.412 9.412 0 0 1-.104.904h-12.497c.068.938.418 1.62 1.05 2.045a3.786 3.786 0 0 0 2.066.602c.702 0 1.358-.156 1.967-.468.632-.312 1.05-.746 1.253-1.304l5.456 1.541c-.723 1.409-1.84 2.56-3.353 3.452-1.49.894-3.331 1.34-5.522 1.34v-.01zm2.846-11.02c-.115-.848-.431-1.518-.95-2.01-.52-.49-1.186-.736-1.998-.736-.814 0-1.48.245-1.999.737-.518.491-.835 1.161-.95 2.01h5.898zM141.75.107h6.433v17.016c0 1.34.553 2.01 1.66 2.01.269 0 .563-.046.88-.135.315-.09.61-.212.881-.369l.813 5.125a11.89 11.89 0 0 1-2.61.838c-.949.2-1.852.3-2.712.3-1.717 0-3.039-.434-3.965-1.305-.926-.87-1.39-2.13-1.39-3.782V.109l.01-.002zm12.303 0h6.437v17.016c0 1.34.553 2.01 1.659 2.01.27 0 .563-.046.88-.135.316-.09.61-.212.882-.369l.813 5.125a11.89 11.89 0 0 1-2.611.838c-.948.2-1.852.3-2.711.3-1.717 0-3.038-.434-3.962-1.305-.927-.87-1.39-2.13-1.39-3.782V.109l.003-.002z"/></g><path fill="#453A62" d="M0 24.49L7.98 12.5 0 .51h5.985l7.98 11.99-7.98 11.99z"/><path fill="#5E5086" d="M7.759 24.49l8.088-11.99L7.759.51h6.066L30 24.49h-6.065l-5.055-7.494-5.056 7.494z"/><path d="M27.414 17.347l-2.69-3.878h9.414v3.878h-6.724zm-4.035-5.816l-2.69-3.878h13.449v3.878H23.379z" fill="#8F4E8B"/></g></svg>