<svg viewBox="0 0 69.48 51.8" xmlns="http://www.w3.org/2000/svg"><path d="M7.67 42.47l2.76-.46-.15 3.52 3.83-3.52 1.84.92-3.99 3.83 4.3 3.22-1.84 1.53-4.45-2.91-.15 3.07-2.76-.31zM23.74 42l-2.32.77-5.06 8.27 2.46.62 1.1-1.84 4.36-.16 1.1 1.84 2.62-.6zm-2.46 5.52l1.09-2.3 1 2.3zm12.39-5.43c-3.47-.15-4.92 1.07-4.92 1.07l-.12 7.77 2.29.67.14-3.53s2.75-.31 4.05-1.53 2.03-4.29-1.44-4.45zm-2.32 4l-.14-1.84s2-.62 2 .46-1.86 1.37-1.86 1.37z" fill="#fff"/><path d="M37.47 42.3l-.92 1.88 2.76.17-1.23 7.34h2.46l1.53-7.51h2.15l1.07-2.05zm8.78-.06l-1.99 9.5h6.59l.92-2.3-3.99.16.46-2.15h2.15l.77-1.68H48.4l.46-1.85h3.22l1.07-1.99zm7.02 9.17l2.52.43.32-5.44 4.29 5.04 1.68-.35.54-8.65-2.39-.6.09 5.28-4.42-4.88-1.95.68z" fill="#fff"/><g fill="none"><path d="M48.78 20.3h-.29zm-.47-.04h-.34zm4.58 2.44l-.11-.1-.09-.09-.12-.1-.09-.09-.11-.1-.1-.08-.27-.24-.1-.09-.12-.09-.1-.09-.11-.09-.11-.09-.21-.17-.33-.28-.71-.55a4.85 4.85 0 0 0-1.69-.42l.25.24 3.46 3.37c-.5-.12-1.2-.28-2-.44a.25.25 0 0 0 0-.07v-.06l-.16-.07a22.57 22.57 0 0 0-3.34-3.27 9.48 9.48 0 0 0-2.47-.5l3.18 3.47c-.7-.13-1.32-.24-1.76-.3-1.65-.23-8.78-.33-13-.3a32.46 32.46 0 0 1-3.83-.22.32.32 0 0 0-.35.28.31.31 0 0 0 .27.35 36.93 36.93 0 0 0 3.92.22c4.07 0 11.27.07 12.87.29.91.13 2.57.45 4.07.76l1.75.38h1.25c.25.08.62.22 1 .37a8.11 8.11 0 0 0 2.3.7.63.63 0 0 0 .35-.08.42.42 0 0 0 .21-.33.31.31 0 0 0-.57-.21 7.22 7.22 0 0 1-1.58-.47.41.41 0 0 0 0-.09.41.41 0 0 1-.05-.09l-.06-.09-.12.13-.08-.1-.07-.08-.09-.1-.08-.08-.09-.11-.08-.08-.1-.11-.09-.09-.11-.11-.32-.3-.1-.1zM51 19.93a3.35 3.35 0 0 1 .72.48V20c-.21-.2-.42-.38-.65-.56zm-3 .3h.34zm.76.06h-.27zM45 9.38V9.3a.22.22 0 0 0 0 .08zm.16-.63v-.1zm.04-.15a.88.88 0 0 0 0-.15.88.88 0 0 1 0 .15zm-.12.48v-.13zm.04-.18v-.1zm-.06.34v-.1.1zm4.63 1.91a.17.17 0 0 0 .09-.25l-.87-1.55a.17.17 0 0 1 .09-.24l1.86-.77a.18.18 0 0 0 .06-.28l-.39-.45a.18.18 0 0 0-.19-.05l-1.46.51a.17.17 0 0 1-.22-.23L49 7a.17.17 0 0 0-.12-.24l-.75-.15a.19.19 0 0 0-.19.1l-1.69 3.53a.16.16 0 0 0 .07.22l.71.4a.17.17 0 0 0 .24-.09l.34-.82a.18.18 0 0 1 .31 0l.87 1.36a.18.18 0 0 0 .2.08z"/><path d="M51 19.93a3.35 3.35 0 0 1 .72.48V20c-.21-.2-.42-.38-.65-.56zM50.49 22l1.73 1.68c-.5-.12-1.2-.28-2-.44a2 2 0 0 0-.17-.27c-.13.26-.26.52-.41.78 1.36.29 2.58.57 3 .69s.62.22 1 .37a8.11 8.11 0 0 0 2.3.7.63.63 0 0 0 .35-.08.42.42 0 0 0 .21-.33.31.31 0 0 0-.57-.21 7.22 7.22 0 0 1-1.58-.47 17 17 0 0 0-3.56-3.46 8.27 8.27 0 0 1-.3 1.04z"/></g><path d="M45 9.63a1.08 1.08 0 0 0 0 .18 1.08 1.08 0 0 1 0-.18z"/><path d="M45 9.63a1.08 1.08 0 0 0 0 .18 1.08 1.08 0 0 1 0-.18z" fill="#fff" opacity=".6"/><path d="M45.05 9.3a.13.13 0 0 1 0-.06.13.13 0 0 0 0 .06z"/><path d="M45.05 9.3a.13.13 0 0 1 0-.06.13.13 0 0 0 0 .06z" fill="#fff" opacity=".6"/><path d="M45 10.06V10v.06z"/><path d="M45 10.06V10v.06z" fill="#fff" opacity=".6"/><path d="M48.49 20.27h.27zM45 9.93v.09a2.65 2.65 0 0 0 1.78 2.25 3.23 3.23 0 0 0 2.68-.18c.14-.07.27-.15.4-.23l.09-.06.1-.07a3.27 3.27 0 0 0 .35-.3l.08-.07.07-.07c.08-.08.15-.17.22-.25l.06-.08.17-.06a.35.35 0 0 0 0-.1.56.56 0 0 1 .05-.08l.12-.19v-.28a1.42 1.42 0 0 0 .08-.18v-.35c.39-1.56.39-3.12-1.56-3.89a4.07 4.07 0 0 0-4.87 2.92.88.88 0 0 1 0 .15V9.05 8.8v.49a.13.13 0 0 0 0 .06.22.22 0 0 0 0 .08v.25a1.08 1.08 0 0 0 0 .18v.12zm-5.23 5.21c7-.12 10.15 1.78 11.39 2.87l.17.15.1.11h.06V18a1 1 0 0 0-.07-.15.61.61 0 0 1-.07-.14c0-.05 0-.1-.08-.14l-.08-.13c-2.12-3.2-9.59-3.72-10.15-3.76h-.07c-15.18-.08-22.22 9.57-22.86 10.48a.3.3 0 0 0-.05.16v1.1h.06C24.65 19 30.39 15.3 39.77 15.14z" fill="none"/><path d="M52.89 22.7l-.11-.1-.09-.09-.12-.1-.09-.09-.11-.1-.1-.08-.27-.24-.1-.09-.12-.09-.1-.09-.11-.09-.11-.09-.21-.17-.33-.28-.71-.55a4.85 4.85 0 0 0-1.69-.42l.25.24 3.46 3.37c-.5-.12-1.2-.28-2-.44a.25.25 0 0 0 0-.07v-.06l-.16-.07a22.57 22.57 0 0 0-3.34-3.27 9.48 9.48 0 0 0-2.47-.5l3.18 3.47c-.7-.13-1.32-.24-1.76-.3-1.65-.23-8.78-.33-13-.3a32.46 32.46 0 0 1-3.83-.22.32.32 0 0 0-.35.28.31.31 0 0 0 .27.35 36.93 36.93 0 0 0 3.92.22c4.07 0 11.27.07 12.87.29.91.13 2.57.45 4.07.76l1.75.38h1.25c.25.08.62.22 1 .37a8.11 8.11 0 0 0 2.3.7.63.63 0 0 0 .35-.08.42.42 0 0 0 .21-.33.31.31 0 0 0-.57-.21 7.22 7.22 0 0 1-1.58-.47.41.41 0 0 0 0-.09.41.41 0 0 1-.05-.09l-.06-.09-.12.13-.08-.1-.07-.08-.09-.1-.08-.08-.09-.11-.08-.08-.1-.11-.09-.09-.11-.11-.32-.3-.1-.1zm-1.15-2.3a3.8 3.8 0 0 0-.71-.47 3.8 3.8 0 0 1 .71.47z" fill="none"/><path d="M51 19.93a3.8 3.8 0 0 1 .71.47V20l-.15-.14-.13-.12-.15-.13-.17-.13-.06.48z" fill="none"/><path d="M51.59 19.87l.15.14zm-.5-.42l.17.13zm.34.27l.13.12zm-.17-.14l.15.13z"/><path d="M48 20.23h.34zm-8.23-5.09c8.89-.15 11.61 3 12 3.52h.06V18c-1.51-3.75-9.89-4.34-10.48-4.38h-.07c-15.18-.08-22.22 9.57-22.86 10.48a.3.3 0 0 0-.05.16v1.1h.06C24.65 19 30.39 15.3 39.77 15.14zm11.73 9h-.09zm.09.02h-.08zm.1.02h-.08z" fill="none"/><path d="M50.2 23.15a.25.25 0 0 1 0 .07.25.25 0 0 0 0-.07zm-.54.58l1.75.38zm.41-.78v.01zm6.18 1.78l.27.35a.31.31 0 0 0-.27-.35zm-4.41-6.09V18a3.89 3.89 0 0 0-.77-1.17c0 .4.08.81.09 1.22a4.4 4.4 0 0 1 .62.65l.06-.06zM45 9.93v.09a2.65 2.65 0 0 0 1.78 2.25 3.23 3.23 0 0 0 2.68-.18c.14-.07.27-.15.4-.23l.09-.06.1-.07a3.27 3.27 0 0 0 .35-.3l.08-.07.07-.07c.08-.08.15-.17.22-.25l.06-.08.17-.06a.35.35 0 0 0 0-.1.56.56 0 0 1 .05-.08l.12-.19v-.28a1.42 1.42 0 0 0 .08-.18v-.35c.39-1.56.39-3.12-1.56-3.89a4.07 4.07 0 0 0-4.87 2.92.88.88 0 0 1 0 .15V9.05 8.8v.49a.13.13 0 0 0 0 .06.22.22 0 0 0 0 .08v.25a1.08 1.08 0 0 0 0 .18v.12zm6 10a3.35 3.35 0 0 1 .72.48V20c-.21-.2-.42-.38-.65-.56z" fill="none"/><path d="M53.73 23.55l.08.08zm.59.76a.41.41 0 0 1 0 .09.41.41 0 0 0 0-.09zm-1.04-1.23l.09.09z"/><path d="M53.28 23.08l.09.09z" fill="#fff" opacity=".7"/><path d="M54 23.88l.08.1zm-.38-.46l.09.11zm.57.68l.06.09zm-1.05-1.16l.11.11zm.38.38l.08.08zm-.52-.48l.11.09zM54.11 24l.06.08zm-.28-.34l.09.1zm.43.54a.41.41 0 0 0 .05.09.41.41 0 0 1-.05-.09zm-.33-.42l.07.08zm-2.32-2.2l.1.09z"/><path d="M51.61 21.58l.1.09z" fill="#fff" opacity=".7"/><path d="M52 21.9l.12.09z"/><path d="M52 21.9l.12.09z" fill="#fff" opacity=".7"/><path d="M50.17 23.09v.06z"/><path d="M50.17 23.09v.06z" fill="#fff" opacity=".7"/><path d="M51.47 21.47l.11.09z"/><path d="M51.47 21.47l.11.09z" fill="#fff" opacity=".7"/><path d="M51.72 21.68l.12.09z"/><path d="M51.72 21.68l.12.09z" fill="#fff" opacity=".7"/><path d="M51.36 21.38l.11.09z"/><path d="M51.36 21.38l.11.09z" fill="#fff" opacity=".7"/><path d="M50.92 21l.19.16z"/><path d="M50.92 21l.19.16z" fill="#fff" opacity=".7"/><path d="M51.13 21.19l.21.17z"/><path d="M51.13 21.19l.21.17z" fill="#fff" opacity=".7"/><path d="M51.86 21.79l.1.09z"/><path d="M51.86 21.79l.1.09z" fill="#fff" opacity=".7"/><path d="M52.65 22.48l.09.09zm-.53-.48l.1.08z"/><path d="M52.12 22l.1.08z" fill="#fff" opacity=".7"/><path d="M53 22.81l-.1-.1zm-.22-.21l.11.1zm-.53-.48l.11.1z"/><path d="M52.25 22.12l.11.1z" fill="#fff" opacity=".7"/><path d="M52.51 22.36l.12.1zm-.12-.12l.09.09z"/><path d="M52.39 22.24l.09.09z" fill="#fff" opacity=".7"/><path d="M50.07 23l.09.13z"/><path d="M50.07 23l.09.13z" fill="#fff" opacity=".7"/><g opacity=".8"><path d="M48.78 20.3h-.29zm-.47-.04h-.34z" fill="none"/><g fill="#fff"><path d="M37.7 28.84a27.55 27.55 0 0 1-10.28 1.81c-3 0-6.23-.24-7.69-1.83l-.13.12-.57.54a3.32 3.32 0 0 0 .73 1.67l.07.09a2.28 2.28 0 0 0 .22.22c1.93 1.68 8.62 2 14.1.91a24.49 24.49 0 0 0 4.5-1.47c.74-.33 1.44-.67 2.11-1a20 20 0 0 0 6.67-5.66c-.7-.1-1.43-.19-2.19-.26a22.52 22.52 0 0 1-7.54 4.86z" opacity=".6"/><path d="M26.9 23.24v.05s7.39 2.36 10 3.3c1.51.56 5.42 2.38 5.42 2.38a19.66 19.66 0 0 0 5.2-4.75C46 24 45.8 24 44.08 23.88c-5.58-.33-14.54-.38-17.18-.64z" opacity=".3"/></g></g><path d="M52.89 22.7l-.11-.1-.09-.09-.12-.1-.09-.09-.11-.1-.1-.08-.27-.24-.1-.09-.12-.09-.1-.09-.11-.09-.11-.09-.21-.17-.33-.28-.71-.55a4.85 4.85 0 0 0-1.69-.42l.25.24 3.46 3.37c-.5-.12-1.2-.28-2-.44a.25.25 0 0 0 0-.07v-.06l-.16-.07a22.57 22.57 0 0 0-3.34-3.27 9.48 9.48 0 0 0-2.47-.5l3.18 3.47c-.7-.13-1.32-.24-1.76-.3-1.65-.23-8.78-.33-13-.3a32.46 32.46 0 0 1-3.83-.22.32.32 0 0 0-.35.28.31.31 0 0 0 .27.35 36.93 36.93 0 0 0 3.92.22c4.07 0 11.27.07 12.87.29.91.13 2.57.45 4.07.76l1.75.38h1.25c.25.08.62.22 1 .37a8.11 8.11 0 0 0 2.3.7.63.63 0 0 0 .35-.08.42.42 0 0 0 .21-.33.31.31 0 0 0-.57-.21 7.22 7.22 0 0 1-1.58-.47.41.41 0 0 0 0-.09.41.41 0 0 1-.05-.09l-.06-.09-.12.13-.08-.1-.07-.08-.09-.1-.08-.08-.09-.11-.08-.08-.1-.11-.09-.09-.11-.11-.32-.3-.1-.1z" fill="#fff" opacity=".6"/><path d="M50.53 7.61a.18.18 0 0 0-.19-.05l-1.46.51a.17.17 0 0 1-.22-.23L49 7a.17.17 0 0 0-.12-.24l-.75-.15a.19.19 0 0 0-.19.1l-1.69 3.53a.16.16 0 0 0 .07.22l.71.4a.17.17 0 0 0 .24-.09l.34-.82a.18.18 0 0 1 .31 0l.87 1.36a.18.18 0 0 0 .2.08l.68-.25a.17.17 0 0 0 .09-.25l-.87-1.55a.17.17 0 0 1 .11-.23l1.86-.77a.18.18 0 0 0 .06-.28z" fill="#fff"/><path d="M49 19.11a10.33 10.33 0 0 1 2.08.82 3.8 3.8 0 0 1 .71.47V20l-.15-.14-.13-.12-.15-.13-.17-.13a10.33 10.33 0 0 0-1.9-1.17 20.63 20.63 0 0 0-8-1.78 30.52 30.52 0 0 0-22.79 9.86v.05a6.17 6.17 0 0 0 .08 1 .08.08 0 0 0 .13.05c5.76-5.46 12.3-9.38 21-9.38a33 33 0 0 1 9.29 1z" fill="none"/><path d="M39.77 15.14c7-.12 10.15 1.78 11.39 2.87l.17.15.1.11h.06V18a1 1 0 0 0-.07-.15.61.61 0 0 1-.07-.14c0-.05 0-.1-.08-.14l-.08-.13c-2.12-3.2-9.59-3.72-10.15-3.76h-.07c-15.18-.08-22.22 9.57-22.86 10.48a.3.3 0 0 0-.05.16v1.1h.06C24.65 19 30.39 15.3 39.77 15.14z" fill="none"/><path d="M43.81 23.87h-4.73c-4.74-.16-9.89-.23-12-.41h-.2v.05a42.85 42.85 0 0 0-7.19 5.52l-.13.12-.57.54a3.32 3.32 0 0 0 .73 1.67l.07.09a2.28 2.28 0 0 0 .22.22c1.93 1.68 8.62 2 14.1.91a24.49 24.49 0 0 0 4.5-1.47c.74-.33 1.44-.67 2.11-1A24 24 0 0 0 43 28.47 15.7 15.7 0 0 0 44.85 27a16.81 16.81 0 0 0 2.44-2.64l.14-.16c-1.43-.2-1.63-.2-3.35-.32zm2.53-13.37l.71.4a.17.17 0 0 0 .24-.09l.34-.82a.18.18 0 0 1 .31 0l.87 1.36a.18.18 0 0 0 .2.08l.68-.25a.17.17 0 0 0 .09-.25l-.87-1.55a.17.17 0 0 1 .09-.27l1.86-.77a.18.18 0 0 0 .06-.28l-.39-.45a.18.18 0 0 0-.19-.05l-1.46.51a.17.17 0 0 1-.22-.23L49 7a.17.17 0 0 0-.12-.24l-.75-.15a.19.19 0 0 0-.19.1l-1.69 3.53a.16.16 0 0 0 .09.26z" fill="none"/><path d="M52.89 22.7l-.11-.1-.09-.09-.12-.1-.09-.09-.11-.1-.1-.08-.27-.24-.1-.09-.12-.09-.1-.09-.11-.09-.11-.09-.21-.17-.33-.28-.71-.55a4.85 4.85 0 0 0-1.69-.42l.25.24 3.46 3.37c-.5-.12-1.2-.28-2-.44a.25.25 0 0 0 0-.07v-.06l-.16-.07a22.57 22.57 0 0 0-3.34-3.27 9.48 9.48 0 0 0-2.47-.5l3.18 3.47c-.7-.13-1.32-.24-1.76-.3-1.65-.23-8.78-.33-13-.3a32.46 32.46 0 0 1-3.83-.22.32.32 0 0 0-.35.28.31.31 0 0 0 .27.35 36.93 36.93 0 0 0 3.92.22c4.07 0 11.27.07 12.87.29.91.13 2.57.45 4.07.76l1.75.38h1.25c.25.08.62.22 1 .37a8.11 8.11 0 0 0 2.3.7.63.63 0 0 0 .35-.08.42.42 0 0 0 .21-.33.31.31 0 0 0-.57-.21 7.22 7.22 0 0 1-1.58-.47.41.41 0 0 0 0-.09.41.41 0 0 1-.05-.09l-.06-.09-.12.13-.08-.1-.07-.08-.09-.1-.08-.08-.09-.11-.08-.08-.1-.11-.09-.09-.11-.11-.32-.3-.1-.1z" fill="none"/><path d="M45.51 1.32c-11.4-.19-17.75 8.71-18.59 10a.36.36 0 0 1-.28.16 10.58 10.58 0 0 0-6.83 3.11c-.78.77-2.72 4.08-2.92 4.28a12.34 12.34 0 0 1-2.14 1 4.5 4.5 0 0 0-2 1.17 4.43 4.43 0 0 0-.49 4.44c.65 1.69 3.24 4.07 3.87 4.13h.25a5.78 5.78 0 0 0 1 2.49c2 2.77 14.44 3.17 20.94.36 5.57-2.41 9-5.11 10.85-7.87a40.16 40.16 0 0 1 6.4 1.7s1.76.39 1.95-.78S53 21.16 53 21.16l-.12-.1v-.25a.21.21 0 0 1 .21-.21c2.75 0 4-2.78 4.35-3.76a2 2 0 0 0 .13-.63l.18-3.05V13c.03-.41-.14-11.49-12.24-11.68zM45 9.63V9.3a.13.13 0 0 1 0-.06V8.6a.88.88 0 0 0 0-.15 4.07 4.07 0 0 1 4.87-2.92c2 .77 2 2.33 1.56 3.89V9.77a1.42 1.42 0 0 1-.08.18v.28l-.12.19a.56.56 0 0 0-.05.08.35.35 0 0 1-.05.08l-.23.42-.06.08c-.07.08-.14.17-.22.25l-.07.07-.08.07a3.27 3.27 0 0 1-.35.3l-.1.07-.09.06c-.13.08-.26.16-.4.23a3.23 3.23 0 0 1-2.68.18A2.65 2.65 0 0 1 45 10.09V10zM18.38 25.32v-1.1a.3.3 0 0 1 .05-.16c.64-.91 7.68-10.56 22.86-10.48h.07c.56 0 8 .56 10.15 3.76l.08.13s0 .09.08.14a.61.61 0 0 0 .07.14 1 1 0 0 1 .07.15v.67h-.06l-.1-.11-.49-.46c-1.24-1.09-4.42-3-11.39-2.87-9.38.16-15.12 3.81-21.33 10.2l-.06-.01zm.12 2.07a6.17 6.17 0 0 1-.08-1v-.05a30.52 30.52 0 0 1 22.81-9.84 20.63 20.63 0 0 1 8 1.78 10.33 10.33 0 0 1 1.9 1.17l.17.13.15.13.13.12.15.14v.4a3.8 3.8 0 0 0-.71-.47 10.33 10.33 0 0 0-2.02-.79 33 33 0 0 0-9.28-1.05c-8.74 0-15.28 3.92-21 9.38a.08.08 0 0 1-.22-.05zm28.79-3A16.81 16.81 0 0 1 44.85 27 15.7 15.7 0 0 1 43 28.47a24 24 0 0 1-2.27 1.42c-.67.34-1.37.68-2.11 1a24.49 24.49 0 0 1-4.5 1.47c-5.48 1.11-12.17.77-14.1-.91a2.28 2.28 0 0 1-.22-.22l-.07-.09a3.32 3.32 0 0 1-.73-1.66l.57-.54.13-.12a42.85 42.85 0 0 1 7.19-5.52v-.05h.2c2.09.18 7.24.25 12 .41h5c1.72.11 1.87.16 3.35.34zM53 22.81l.11.09.11.11.09.09.1.11.08.08.09.11.08.08.09.1.07.08.08.1.06.08.06.09a.41.41 0 0 0 .05.09.41.41 0 0 1 0 .09 7.22 7.22 0 0 0 1.58.47.31.31 0 0 1 .57.21.42.42 0 0 1-.21.33.63.63 0 0 1-.35.08 8.11 8.11 0 0 1-2.3-.7c-.4-.15-.77-.29-1-.37H51.11l-1.75-.38c-1.5-.31-3.16-.63-4.07-.76-1.6-.22-8.8-.32-12.87-.29a36.93 36.93 0 0 1-3.92-.22.31.31 0 0 1-.27-.35.32.32 0 0 1 .35-.28 32.46 32.46 0 0 0 3.83.22c4.19 0 11.32.07 13 .3.44.06 1.06.17 1.76.3l-3.18-3.47a9.48 9.48 0 0 1 2.47.5 22.57 22.57 0 0 1 3.61 3.3l.09.13v.06a.25.25 0 0 1 0 .07c.78.16 1.48.32 2 .44l-3.46-3.37-.25-.24a4.85 4.85 0 0 1 1.69.42l.71.55.19.16.21.17.11.09.11.09.1.09.12.09.1.09.12.09.1.08.11.1.09.09.12.1.09.09.11.1z" fill="#fff"/></svg>