<svg width="341" height="44" viewBox="0 0 341 44" fill="none" xmlns="http://www.w3.org/2000/svg">
<path d="M329.514 1.06738V1.92184L332.209 3.42116C332.889 3.81131 332.554 4.54324 331.898 5.68466L319.902 25.8014L307.909 5.68466C307.25 4.54324 306.918 3.81131 307.594 3.42116L310.289 1.92184V1.06738H294.856V1.92184L297.09 3.42116C298.055 4.09505 299.119 4.856 299.636 5.72013L314.131 30.0737V37.8379C314.131 39.0019 313.746 39.3792 312.364 40.1369L309.623 41.6362V42.4907H326.216V41.6362L323.475 40.1369C322.089 39.3792 321.708 39.0019 321.708 37.8379V30.0704L336.2 5.72335C336.717 4.85922 337.781 4.09828 338.746 3.42439L340.976 1.92506V1.06738H329.521H329.514Z" fill="#1D1D1B"/>
<path d="M210.103 28.9742L219.921 4.22403L229.739 28.9742H210.1H210.103ZM243.571 40.1337C242.557 39.5823 241.665 38.9987 241.205 37.8347L228.456 5.704C228.002 4.54324 228.062 3.41471 229.003 2.76339L230.213 1.91861V1.06738H213.305V1.92184L214.515 2.76662C215.453 3.41794 215.516 4.54646 215.068 5.70723L202.32 37.8379C201.856 39.0051 200.971 39.5791 199.947 40.1337L197.209 41.633V42.4874H209.874V41.633L207.18 40.1337C206.483 39.7467 206.129 39.0019 206.583 37.8444L208.837 32.1663H231.012L233.266 37.8444C233.72 39.0019 233.366 39.7467 232.669 40.1337L229.971 41.633V42.4874H246.313V41.633L243.575 40.1337H243.571Z" fill="#1D1D1B"/>
<path d="M247.997 1.06738V11.9689H248.898L252.027 6.71645C252.584 5.69756 253.791 4.25949 255.799 4.25949H264.348V37.8347C264.348 38.9987 263.963 39.3759 262.581 40.1337L259.84 41.633V42.4874H276.433V41.633L273.692 40.1337C272.306 39.3759 271.925 38.9987 271.925 37.8347V4.25949H280.606C282.615 4.25949 283.822 5.69756 284.379 6.71645L287.508 11.9689H288.409V1.06738H248H247.997Z" fill="#1D1D1B"/>
<path d="M22.3894 40.3592C9.22017 40.3592 8.9782 32.3532 8.9782 21.7773C8.9782 11.2014 9.22017 3.19533 22.3894 3.19533C35.5586 3.19533 35.8006 11.2014 35.8006 21.7773C35.8006 32.3532 35.5586 40.3592 22.3894 40.3592ZM22.3894 0C2.40187 0 0.976562 10.1793 0.976562 21.7773C0.976562 33.3753 2.40519 43.5546 22.3894 43.5546C42.3736 43.5546 43.8022 33.3753 43.8022 21.7773C43.8022 10.1793 42.3769 0 22.3894 0Z" fill="#1D1D1B"/>
<path d="M115.376 28.9742L125.197 4.22403L135.019 28.9742H115.379H115.376ZM148.844 40.1369C147.83 39.5855 146.938 39.0019 146.481 37.8379L133.733 5.70723C133.279 4.54646 133.338 3.41794 134.28 2.76662L135.486 1.92184V1.06738H118.578V1.92184L119.788 2.76662C120.726 3.41794 120.786 4.54646 120.341 5.70723L107.593 37.8379C107.129 39.0051 106.244 39.5758 105.22 40.1337L102.482 41.633V42.4874H115.147V41.633L112.452 40.1337C111.753 39.7467 111.402 39.0019 111.856 37.8444L114.11 32.1663H136.285L138.539 37.8444C138.993 39.0019 138.638 39.7467 137.942 40.1337L135.248 41.633V42.4874H151.589V41.633L148.851 40.1337L148.844 40.1369Z" fill="#1D1D1B"/>
<path d="M79.2658 39.2953H66.4712V22.7415H79.2658C84.5561 22.7415 87.1747 23.4444 87.1747 30.4735C87.1747 35.5873 87.0752 39.2953 79.2658 39.2953ZM66.4712 4.25949H79.2658C83.4755 4.25949 86.336 4.71735 86.336 11.9012C86.336 19.0851 83.4755 19.5429 79.2658 19.5429H66.4712V4.25949ZM84.4401 21.1422C89.6673 21.1422 93.7742 17.6599 93.7742 11.9044C93.7742 6.61005 92.4715 1.06738 80.5188 1.06738H54.3892V1.92184L57.1304 3.42116C58.5126 4.17888 58.8971 4.55613 58.8971 5.72013V37.8347C58.8971 38.9987 58.5126 39.3759 57.1304 40.1337L54.3892 41.633V42.4874H80.5188C92.3555 42.4874 95.3752 37.8476 95.3752 30.4703C95.3752 22.4674 88.6364 21.1422 84.4401 21.1422Z" fill="#1D1D1B"/>
<path d="M185.995 1.06738V1.92184L188.69 3.42116C189.37 3.81131 189.035 4.54324 188.379 5.68466L176.386 25.8014L164.394 5.68466C163.734 4.54324 163.402 3.81131 164.079 3.42116L166.773 1.92184V1.06738H151.34V1.92184L153.571 3.42116C154.536 4.09505 155.6 4.856 156.117 5.72013L170.612 30.0704V37.8347C170.612 38.9987 170.227 39.3759 168.845 40.1337L166.104 41.633V42.4874H182.697V41.633L179.956 40.1337C178.57 39.3759 178.189 38.9987 178.189 37.8347V30.0704L192.681 5.72013C193.198 4.856 194.262 4.09505 195.227 3.42116L197.457 1.92184V1.06738H186.002H185.995Z" fill="#1D1D1B"/>
</svg>
