<?xml version="1.0" encoding="utf-8"?>
<!-- Generator: Adobe Illustrator 25.1.0, SVG Export Plug-In . SVG Version: 6.00 Build 0)  -->
<svg version="1.1" id="Layer_1" xmlns="http://www.w3.org/2000/svg" xmlns:xlink="http://www.w3.org/1999/xlink" x="0px" y="0px"
	 viewBox="0 0 1390 200" style="enable-background:new 0 0 1390 200;" xml:space="preserve">
<path d="M10.1,42.6L79.4,2.7c6.2-3.6,13.7-3.6,20-0.1l0.2,0.1l69.3,39.9c6.2,3.5,10,10.1,10.1,17.2v80.1c0,7.1-3.8,13.7-9.9,17.3
	l-0.2,0.1l-69.3,39.9c-6.2,3.6-13.7,3.6-20,0.1l-0.2-0.1l-69.3-39.9c-6.2-3.6-10-10.1-10.1-17.2V60.1C0,53,3.8,46.4,9.9,42.7
	L10.1,42.6L79.4,2.7L10.1,42.6z M89.5,33.5L31.8,66.8v66.4l57.7,33.2V100l57.7-33.2L89.5,33.5L89.5,33.5z"/>
<path d="M925.8,77.2h-21.3c-0.9-13.5-13.7-21.9-27.4-21.1l-1.8,0.1c-14.2,0.8-22.8,8.9-22.3,18.1c0.5,8.9,6.1,13.2,16.8,14.7
	l19.4,2.6c21.5,3.1,34.9,13.5,36,33.7c1.2,21.4-15.5,37.8-44.8,39.5c-32.1,1.8-52.6-16.1-53.5-42.8h21.3
	c0.5,14.4,13.7,24.8,32.3,23.7l1.8-0.1c14.7-0.8,22.1-8.9,21.6-17.9c-0.5-8.3-5.2-13-17.2-14.9l-21.3-3.1
	c-21.5-3.2-32.7-14.7-33.7-33.7c-1.1-19,15-37.5,43.9-39.1C904.6,35.5,925.5,53.4,925.8,77.2L925.8,77.2z M1388.5,102.4h-20.4
	c-0.9-7.6-6.6-13.8-15.8-13.7l-2.1,0.1c-7.8,0.4-13.3,4.4-13,10.6c0.2,5.3,4.5,8,12.5,9.4l12.9,2.4c15.6,2.8,25.2,10.2,25.9,25.1
	c0.7,15.4-11.9,27.6-34.4,28.6c-23.8,1.1-39.8-11.9-39.8-30.3h20.8c0.3,9.2,8.9,14.6,18.3,14.2l1.4-0.1c8.2-0.4,13.8-4.5,13.6-10.6
	c-0.2-5-3.2-8-10.2-9.3l-13.1-2.2l-1.8-0.4c-15.8-3.3-25.5-10.4-26.2-24.6c-0.8-16.7,13.3-28,33.5-28.9
	C1373.5,71.5,1388.5,84.4,1388.5,102.4z M613.4,102.4H593c-0.9-7.6-6.6-13.8-15.8-13.7l-2.1,0.1c-7.8,0.4-13.3,4.4-13,10.6
	c0.2,5.3,4.5,8,12.5,9.4l12.9,2.4c15.6,2.8,25.2,10.2,25.9,25.1c0.7,15.4-11.9,27.6-34.4,28.6c-23.8,1.1-39.8-11.9-39.8-30.3h20.8
	c0.3,9.2,8.9,14.6,18.3,14.2l1.4-0.1c8.2-0.4,13.8-4.5,13.6-10.6c-0.2-5.1-3.4-8.2-10.9-9.4l-12.4-2.1c-16.9-3.1-27.3-10.3-28-25
	c-0.8-16.7,13.3-28,33.5-28.9C598.4,71.5,613.4,84.4,613.4,102.4L613.4,102.4z M394.1,72.5c25.2,0,39.4,17.9,39.4,42.4
	c0,3-0.2,6-0.4,9h-60.9c1.1,15.6,12.1,24.2,22.2,24.2h1.4c8.7,0,15.3-5,17.1-12.4h20.2c-3.7,17.8-18.3,29.1-38.7,29.1
	c-22.2,0-42.1-16.2-42.1-46.2C352.3,90.3,369.9,72.5,394.1,72.5L394.1,72.5z M482.1,72.5c14.6,0,23.1,6.7,27.4,14.2V74.3h20.4v88.8
	h-20.4v-12.4c-4.4,7.4-12.8,14.2-27.4,14.2c-19.7,0-38.6-15.8-38.6-46.2S461.5,72.5,482.1,72.5L482.1,72.5z M666.6,72.5
	c25.6,0,43.7,19.2,43.7,46.1c0,27-18.1,46.2-43.7,46.2c-25.4,0-43.5-19.2-43.5-46.2C623,91.7,641.2,72.5,666.6,72.5z M1171,38.8
	v124.3h-20.4v-11.9c-3.9,6.9-14.8,13.7-27.2,13.7c-24.1,0-38.9-19.9-38.9-46.2c0-26.3,15.5-46.1,39.8-46.1
	c12.4,0,22.4,6.7,26.3,13.7V38.8L1171,38.8L1171,38.8z M1262.4,72.5c25.6,0,43.7,19.2,43.7,46.1c0,27-18.1,46.2-43.7,46.2
	c-25.4,0-43.5-19.2-43.5-46.2C1218.9,91.7,1237,72.5,1262.4,72.5z M1015,74.3v54.5c0,12.8,5.3,19.4,15.3,19.4h1.4
	c10.7,0,20.1-10.5,20.1-25V74.3h20.4v88.8h-20.4v-14.6c-4.4,9.2-14,16.3-27,16.3c-20.4,0-30.2-13.9-30.2-33V74.3L1015,74.3
	L1015,74.3z M1207.1,74.3v88.8h-20.4V74.3H1207.1z M768.3,72.5c21,0,31.4,13.5,31.4,32.6v57.9h-20.4v-54.8c0-11.9-5.3-19-15.8-19
	h-1.4c-11.4,0-21.3,9.9-21.3,24.3v49.5h-20.4V74.3h20.4v12.8C746.1,78.6,755.7,72.5,768.3,72.5L768.3,72.5z M964.2,38.8v35.5h20.4
	v16.9h-20.4v45.6c0,6.9,1.8,8.7,8.7,8.7h14.4v17.6h-22c-13.9,0-21.5-7.6-21.5-21.5V91.2H933V74.3h10.7V38.8H964.2z M303,38.8
	c22,0,38.6,14.2,38.6,33.7c0,15.8-7.8,26.8-20.8,31.4c13.7,0,19,5.9,19,17.6v41.5h-21.3v-36.2c0-9.2-2.7-11.9-11.9-11.9h-38.2v48.1
	H247V38.8L303,38.8z M487.3,89.2h-1.6c-11.9,0-21.7,11.2-21.7,29.3c0,18.3,9.8,29.6,21.7,29.6h1.6c11.7,0,22.2-10.5,22.2-29.5
	C509.5,99.7,499,89.2,487.3,89.2z M667.3,89.2h-1.4c-13.2,0-22.4,10.8-22.4,29.5c0,18.6,9.2,29.5,22.4,29.5h1.4
	c13.3,0,22.4-10.8,22.4-29.5C689.7,100.1,680.6,89.2,667.3,89.2z M1128.4,89.2h-1.4c-12.4,0-22,10.7-22,29.3
	c0,18.8,9.6,29.6,22,29.6h1.4c11.5,0,22.2-10.7,22.2-29.5C1150.6,99.9,1139.9,89.2,1128.4,89.2L1128.4,89.2z M1263.1,89.2h-1.4
	c-13.2,0-22.4,10.8-22.4,29.5c0,18.6,9.2,29.5,22.4,29.5h1.4c13.3,0,22.4-10.8,22.4-29.5C1285.5,100.1,1276.4,89.2,1263.1,89.2z
	 M394.4,89.2H393c-9.6,0-18.7,6-20.3,19h40.7C412.7,95.4,404.2,89.2,394.4,89.2L394.4,89.2z M297.6,57.8h-29.3v38.3h29.3
	c14.8,0,22.6-8,22.6-19.9C320.2,64,312.4,57.8,297.6,57.8L297.6,57.8z M1197.2,38.8c6.9,0,12.4,5.4,12.4,12.4
	c0,6.9-5.4,12.4-12.4,12.4s-12.4-5.4-12.4-12.4C1184.8,44.2,1190.2,38.8,1197.2,38.8z"/>
</svg>
