<svg xmlns:xlink="http://www.w3.org/1999/xlink" viewBox="0 0 124 26" fill="none" xmlns="http://www.w3.org/2000/svg" width="165"  height="35" ><path d="M28.7972 8.69287L23.1425 24.5005H17.8248L14.5726 15.182L11.3351 24.5005H6.00269L0.333374 8.69287H5.47531L8.69818 17.9973L11.9504 8.69287H17.2095L20.4324 17.9973L23.6699 8.69287H28.7972Z" fill="#1D1D1D"></path><path d="M41.3663 22.4873C40.6338 24.0216 38.9785 24.9647 36.9275 24.9647C32.0932 24.9647 28.7532 21.4456 28.7532 16.5612C28.7532 11.8456 31.8881 8.22803 36.7664 8.22803C39.6963 8.22803 41.0001 9.77641 41.337 10.5225V8.70662H46.2006V21.699C46.2006 23.1629 46.2885 24.1764 46.3325 24.5142H41.4982C41.4249 24.1483 41.3663 23.3037 41.3663 22.6421V22.4873ZM37.5868 20.784C39.5937 20.784 41.3224 19.2497 41.3224 16.5893C41.3224 13.8585 39.6377 12.4368 37.5868 12.4368C35.448 12.4368 33.8072 13.8867 33.8072 16.5893C33.8072 19.1934 35.5065 20.784 37.5868 20.784Z" fill="#1D1D1D"></path><path d="M77.8727 19.2921C77.946 20.376 78.737 21.4176 80.451 21.4176C81.7548 21.4176 82.3701 20.7561 82.3701 20.0663C82.3701 19.4892 81.9746 19.0106 80.7587 18.7572L78.8835 18.349C75.3677 17.603 73.976 15.7027 73.976 13.4927C73.976 10.6071 76.6275 8.25635 80.2899 8.25635C85.0656 8.25635 86.721 11.1279 86.8675 12.9719L82.6924 13.6898C82.5605 12.6481 81.8574 11.7613 80.3485 11.7613C79.3816 11.7613 78.5612 12.2962 78.5612 13.1408C78.5612 13.8024 79.1326 14.1824 79.865 14.3091L82.0478 14.7173C85.4465 15.393 87.1018 17.3637 87.1018 19.6863C87.1018 22.3748 84.9337 25.0352 80.5389 25.0352C75.3677 25.0352 73.7123 21.8258 73.5804 20.0663L77.8727 19.2921Z" fill="#1D1D1D"></path><path d="M89.5775 24.5142V8.70654H94.3679V10.5083C95.2029 9.11475 97.2978 8.21387 99.0996 8.21387C101.444 8.21387 103.143 9.12882 103.963 10.6913C105.238 8.9036 106.835 8.21387 109.061 8.21387C112.182 8.21387 115.155 9.95932 115.155 14.2667V24.5142H110.292V15.3505C110.292 13.8584 109.471 12.676 107.684 12.676C105.897 12.676 104.93 13.9711 104.93 15.3646V24.486H99.9493V15.3224C99.9493 13.8303 99.1143 12.6479 97.2978 12.6479C95.5252 12.6479 94.5876 13.9429 94.5876 15.3787V24.486H89.5775V24.5142Z" fill="#1D1D1D"></path><path d="M54.5948 1.66846H49.5554V24.5283H54.5948V1.66846Z" fill="#1D1D1D"></path><path d="M62.9596 1.66846H57.9202V24.5283H62.9596V1.66846Z" fill="#1D1D1D"></path><path d="M71.3537 8.69287H66.3143V24.5005H71.3537V8.69287Z" fill="#1D1D1D"></path><path d="M68.834 7.2147C70.6301 7.2147 72.0861 5.81562 72.0861 4.08977C72.0861 2.36392 70.6301 0.964844 68.834 0.964844C67.0378 0.964844 65.5818 2.36392 65.5818 4.08977C65.5818 5.81562 67.0378 7.2147 68.834 7.2147Z" fill="#1D1D1D"></path><path d="M120.415 24.7958C122.211 24.7958 123.667 23.3967 123.667 21.6708C123.667 19.945 122.211 18.5459 120.415 18.5459C118.618 18.5459 117.162 19.945 117.162 21.6708C117.162 23.3967 118.618 24.7958 120.415 24.7958Z" fill="#1D1D1D"></path></svg>