<svg width="196" height="124" viewBox="0 0 196 124" fill="none" xmlns="http://www.w3.org/2000/svg">
<g clip-path="url(#clip0_3639_57925)">
<path d="M164.735 68.5532C163.562 68.5532 163.123 68.704 163.071 69.8639V73.2978H166.609V70.3554C166.609 68.9268 166.301 68.5729 164.735 68.5729" fill="black"/>
<path d="M175.056 16.8482C175.527 16.8482 175.989 16.7083 176.381 16.4462C176.773 16.1841 177.079 15.8116 177.259 15.3757C177.44 14.9398 177.487 14.4602 177.395 13.9975C177.303 13.5348 177.076 13.1097 176.742 12.7761C176.409 12.4425 175.984 12.2154 175.521 12.1233C175.058 12.0313 174.579 12.0785 174.143 12.2591C173.707 12.4396 173.334 12.7453 173.072 13.1376C172.81 13.5299 172.67 13.9911 172.67 14.4629C172.672 15.095 172.924 15.7007 173.371 16.1477C173.818 16.5946 174.424 16.8465 175.056 16.8482ZM173.745 12.8114H175.423C176.196 12.8114 176.733 12.9556 176.733 13.8403C176.733 14.4563 176.419 14.7053 175.822 14.7512L176.635 16.1601H175.809L175.056 14.8167H174.433V16.1863H173.745V12.8114Z" fill="black"/>
<path d="M172.088 68.2977C170.476 68.2977 170.24 68.7695 170.24 70.0998V73.265H174.067V70.1785C174.067 68.8678 173.68 68.2977 172.101 68.2977" fill="black"/>
<path d="M175.999 13.7617C175.999 13.3685 175.58 13.3685 175.252 13.3685H174.446V14.2663H175.429C175.803 14.2663 176.006 14.1811 176.006 13.7617" fill="black"/>
<path d="M8.46037 115.553H186.996V8.44707H8.46037V115.553ZM178.333 77.3279H158.791V69.3003C158.791 66.253 159.519 64.4574 163.798 64.4574C166.275 64.4574 167.894 64.8441 168.3 66.869H168.503C168.687 64.6016 170.436 64.2084 172.894 64.2084C177.678 64.2084 178.333 65.9712 178.333 69.2216V77.3279ZM178.333 58.3629H171.478L158.791 63.7955V59.1428L166.327 56.4035V56.2593L158.791 53.4349V48.6969L171.478 54.2999H178.333V58.3629ZM175.056 11.3436C175.668 11.3449 176.265 11.5274 176.773 11.8681C177.281 12.2087 177.676 12.6923 177.909 13.2576C178.142 13.8229 178.203 14.4446 178.083 15.0442C177.963 15.6437 177.667 16.1943 177.235 16.6262C176.802 17.0581 176.251 17.352 175.651 17.4709C175.051 17.5897 174.429 17.528 173.865 17.2937C173.3 17.0594 172.817 16.663 172.477 16.1545C172.138 15.646 171.957 15.0482 171.957 14.4367C171.957 14.03 172.037 13.6272 172.193 13.2515C172.349 12.8758 172.577 12.5345 172.865 12.2472C173.153 11.9599 173.495 11.7322 173.871 11.5772C174.247 11.4221 174.65 11.3427 175.056 11.3436ZM164.866 19.0043V23.1525C162.9 23.2311 162.9 24.5614 162.9 25.7738C162.9 28.7227 164.047 28.7948 167.199 28.8407H170.384C173.85 28.8407 174.217 27.897 174.217 25.7738C174.217 23.6505 173.621 23.1525 170.908 23.1525V25.9573H167.284V19.0043H170.698C177.297 19.0043 178.497 20.3149 178.497 25.7869C178.497 30.6101 177.455 33.061 171.118 33.061H166.052C159.591 33.061 158.627 30.2824 158.627 25.7869C158.627 21.8222 158.627 19.0043 164.853 19.0043H164.866ZM164.853 34.4896V38.664C162.887 38.7426 162.887 40.0729 162.887 41.2852C162.887 44.2276 164.034 44.3063 167.186 44.3456H170.384C173.85 44.3456 174.217 43.4085 174.217 41.2852C174.217 39.162 173.621 38.664 170.908 38.664V41.4818H167.284V34.5092H170.698C177.297 34.5092 178.497 35.8199 178.497 41.3049C178.497 46.1281 177.455 48.579 171.118 48.579H166.052C159.591 48.579 158.627 45.7939 158.627 41.3049C158.627 37.3337 158.627 34.5092 164.853 34.5092V34.4896ZM115.212 103.541H117.781V102.46H115.212V100.113H117.781V99.0322H115.212V96.6861H117.781V95.5983H115.212V93.2588H117.781V92.1448H115.212V89.7987H120.743V88.7174H115.212V86.3714H117.781V85.2836H115.212V82.9703H117.781V81.9217H115.212V79.5626H117.781V78.4813H115.212V76.1353H117.781V75.054H115.212V72.7407H120.743V71.6266H115.212V69.274H117.781V68.1928H115.212V65.8533H117.781V64.772H115.212V62.4194H117.781V61.3446H115.212V58.9789H117.781V57.9108H115.212V55.5647H120.743V54.4769H115.212V52.1308H117.781V51.0495H115.212V48.71H117.781V47.6222H115.212V45.2762H117.781V44.1883H115.212V41.8488H117.781V40.7675H115.212V38.4084H120.743V37.3533H115.212V34.9876H117.781V33.9063H115.212V31.5603H117.781V30.4724H115.212V28.1264H117.781V27.0451H115.212V24.7056H117.781V23.5916H115.212V21.2717H120.743V20.1839H115.212V18.4276H142.696V82.4919H178.176V106.162H177.304V103.587H176.21V106.162H173.87V103.587H172.782V106.162H170.469V103.587H169.381V106.162H166.996V100.664H165.882V106.195H163.536V103.619H162.474V106.195H160.128V103.619H159.04V106.195H156.707V103.619H155.626V106.195H153.273V103.619H152.186V106.195H149.833V100.664H148.778V106.195H146.425V103.619H145.344V106.195H142.946V103.619H141.864V106.195H139.538V103.619H138.45V106.195H136.104V103.619H134.996V106.195H132.631V100.664H131.556V106.195H129.184V103.619H128.096V106.195H125.75V103.619H124.655V106.195H122.309V103.619H121.215V106.195H118.862V103.619H117.775V106.195H115.153L115.212 103.541ZM16.5405 18.5063H46.8426L62.4982 39.719L78.3308 18.4735H108.443L77.5051 60.034L111.582 106.188H81.437L62.3409 80.349L43.14 106.149H12.91L47.3144 60.034L16.5405 18.5063Z" fill="black"/>
<path d="M0 124H195.456V0H0V124ZM186.996 115.553H8.4602V8.4471H186.996V115.553Z" fill="#D7BE7D"/>
<path d="M43.153 106.162L62.354 80.3621L81.4697 106.162H111.608L77.505 60.0078L108.443 18.4407L78.3307 18.4735L62.4981 39.6994L46.8425 18.5063H46.8163H16.5404L47.3143 60.0537L12.9099 106.162H43.153Z" fill="#D7BE7D"/>
<path d="M117.807 103.587H118.895V106.162H121.248V103.587H122.335V106.162H124.681V103.587H125.769V106.162H128.115V103.587H129.203V106.162H131.556V100.631H132.637V106.162H134.99V103.587H136.077V106.162H138.424V103.587H139.511V106.162H141.864V103.587H142.945V106.162H145.298V103.587H146.379V106.162H148.732V100.631H149.82V106.162H152.172V103.587H153.253V106.162H155.606V103.587H156.687V106.162H159.04V103.587H160.128V106.162H162.474V103.587H163.562V106.162H165.908V100.631H166.996V106.162H169.348V103.587H170.436V106.162H172.782V103.587H173.87V106.162H176.216V103.587H177.304V106.162H178.182V82.4919H142.703V18.4277H115.212V20.1839H120.749V21.2652H115.212V23.6178H117.794V24.7056H115.212V27.0451H117.794V28.1264H115.212V30.4725H117.794V31.5603H115.212V33.9064H117.794V34.9876H115.212V37.3337H120.749V38.415H115.212V40.761H117.794V41.8489H115.212V44.1884H117.794V45.2696H115.212V47.6222H117.794V48.7101H115.212V51.0496H117.794V52.1309H115.212V54.4769H120.749V55.5647H115.212V57.9108H117.794V58.9921H115.212V61.3316H117.794V62.4194H115.212V64.7655H117.794V65.8533H115.212V68.1928H117.794V69.2741H115.212V71.6267H120.749V72.708H115.212V75.054H117.794V76.1353H115.212V78.4813H117.794V79.5626H115.212V81.9152H117.794V82.99H115.212V85.336H117.794V86.4238H115.212V88.7699H120.749V89.8512H115.212V92.1972H117.794V93.2785H115.212V95.6246H117.794V96.7124H115.212V99.0585H117.794V100.14H115.212V102.486H117.794V103.567H115.212V106.162H117.807V103.587Z" fill="#D7BE7D"/>
<path d="M175.056 17.5561C175.668 17.5548 176.265 17.3723 176.773 17.0317C177.281 16.691 177.676 16.2075 177.909 15.6422C178.142 15.0769 178.203 14.4551 178.083 13.8556C177.963 13.256 177.667 12.7055 177.235 12.2735C176.802 11.8416 176.251 11.5477 175.651 11.4289C175.051 11.31 174.429 11.3717 173.865 11.606C173.3 11.8403 172.817 12.2367 172.477 12.7453C172.138 13.2538 171.957 13.8515 171.957 14.463C171.957 14.8698 172.037 15.2725 172.193 15.6482C172.349 16.0239 172.577 16.3652 172.865 16.6525C173.153 16.9398 173.495 17.1675 173.871 17.3226C174.247 17.4776 174.65 17.557 175.056 17.5561ZM175.056 12.0776C175.528 12.0776 175.989 12.2175 176.382 12.4797C176.774 12.7418 177.08 13.1143 177.26 13.5502C177.441 13.986 177.488 14.4657 177.396 14.9284C177.304 15.3911 177.077 15.8161 176.743 16.1497C176.409 16.4833 175.984 16.7105 175.522 16.8026C175.059 16.8946 174.579 16.8474 174.143 16.6668C173.708 16.4863 173.335 16.1805 173.073 15.7883C172.811 15.396 172.671 14.9348 172.671 14.463C172.673 13.8309 172.925 13.2252 173.371 12.7782C173.818 12.3312 174.424 12.0794 175.056 12.0776Z" fill="#D7BE7D"/>
<path d="M174.447 14.8169H175.056L175.803 16.1865H176.603L175.79 14.7776C176.387 14.7317 176.701 14.4827 176.701 13.8667C176.701 12.982 176.17 12.8378 175.391 12.8378H173.746V16.1865H174.46L174.447 14.8169ZM174.447 13.3817H175.259C175.587 13.3817 176.007 13.3817 176.007 13.7749C176.007 14.1681 175.803 14.2861 175.43 14.2795H174.447V13.3817Z" fill="#D7BE7D"/>
<path d="M172.901 64.2216C170.443 64.2216 168.693 64.6148 168.51 66.8822H168.3C167.887 64.8573 166.269 64.4706 163.792 64.4706C159.519 64.4706 158.785 66.2662 158.785 69.3135V77.328H178.333V69.2086C178.333 65.932 177.678 64.1954 172.894 64.1954L172.901 64.2216ZM166.596 73.2519H163.064V69.8639C163.117 68.7237 163.556 68.5533 164.722 68.5533C166.288 68.5533 166.596 68.9072 166.596 70.3358V73.2519ZM174.06 73.2519H170.233V70.1064C170.233 68.7958 170.463 68.3043 172.081 68.3043C173.7 68.3043 174.047 68.8547 174.047 70.185L174.06 73.2519Z" fill="#D7BE7D"/>
<path d="M158.791 48.6968V53.4348L166.327 56.2593V56.4034L158.791 59.1427V63.8217L171.484 58.3891H178.346V54.2999H171.484L158.791 48.6968Z" fill="#D7BE7D"/>
<path d="M166.065 48.5789H171.124C177.461 48.5789 178.503 46.128 178.503 41.3049C178.503 35.8264 177.304 34.5092 170.705 34.5092H167.29V41.4818H170.914V38.6639C173.627 38.6639 174.224 39.2209 174.224 41.2852C174.224 43.3495 173.85 44.3652 170.384 44.3652H167.192C164.047 44.3259 162.9 44.2473 162.9 41.3049C162.9 40.0729 162.9 38.7426 164.866 38.6836V34.5092C158.66 34.5092 158.64 37.3336 158.64 41.3049C158.64 45.7938 159.603 48.5789 166.065 48.5789Z" fill="#D7BE7D"/>
<path d="M166.065 33.0807H171.125C177.462 33.0807 178.503 30.6298 178.503 25.8066C178.503 20.3346 177.304 19.024 170.705 19.024H167.291V25.9901H170.915V23.1722C173.628 23.1722 174.224 23.7227 174.224 25.7935C174.224 27.8643 173.857 28.8604 170.391 28.8604H167.193C164.041 28.8145 162.894 28.7359 162.894 25.7935C162.894 24.568 162.894 23.2377 164.86 23.1722V19.0043C158.654 19.0043 158.634 21.8222 158.634 25.7869C158.634 30.2824 159.597 33.061 166.059 33.061" fill="#D7BE7D"/>
</g>
<defs>
<clipPath id="clip0_3639_57925">
<rect width="195.463" height="124" fill="white"/>
</clipPath>
</defs>
</svg>
