<svg id="Lager_1" data-name="Lager 1" xmlns="http://www.w3.org/2000/svg" viewBox="0 0 257.79 63.64"><title>bolist</title><path d="M59.21,36.13,52,23,42.29,5.36,39.34,0,33.52,17.44H27L21.14,0l-7,12.76L3,33.07,0,38.43a38.32,38.32,0,0,1,8,2.72,24.57,24.57,0,0,1,6.34,4.65,27.47,27.47,0,0,1,2.95,3.59L24.07,62.1a38.19,38.19,0,0,0,5.14,1.48,8.66,8.66,0,0,0,3.91-.45c1.1-.32,2.2-.68,3.29-1L43.14,49.4a25.29,25.29,0,0,1,12.51-9.62c1.58-.54,3.21-.93,4.82-1.35Zm-5.56,0a29.17,29.17,0,0,0-11.82,8.26,31.48,31.48,0,0,0-2.17,2.85c-2,3.81-4,7.64-6.08,11.46-1,.28-1.92.58-2.9.82h-.21l-.23-.06-.23.06H29.8c-1-.23-1.94-.53-2.9-.82q-3-5.73-6.08-11.47A29.42,29.42,0,0,0,9.6,37.36a30.35,30.35,0,0,0-3.54-1.47L20.22,10.14,24,21.54H36.45l3.8-11.39L54.41,35.89Z" fill="#fff"/><path d="M19.61,34c-1.24.57-.89,2-.25,2.87a6.82,6.82,0,0,0,3.84,2.52c1.15.25,3,.12,2.91-1.49C25.9,35.51,21.86,33,19.61,34Z" fill="#fff"/><path d="M38.69,33.89a6.87,6.87,0,0,0-3.92,2.42c-.66.86-1.16,2.29,0,2.94s2.86,0,3.92-.6,2.85-2,2.75-3.51S39.73,33.68,38.69,33.89Z" fill="#fff"/><path d="M101.68,39.68V38.56l-.05-.35-.06-.35-.07-.34-.08-.33-.1-.32-.11-.32-.12-.31-.13-.3-.14-.3-.15-.29-.17-.28-.18-.27-.19-.26-.2-.26L99.64,34l-.22-.24-.23-.23-.19-.2-.25-.22-.26-.21-.28-.2-.28-.19-.29-.19-.31-.18L97,32l.31-.2.31-.21.29-.21.28-.22.27-.23.26-.23.25-.24.24-.25.22-.25.21-.26.2-.26.19-.27.18-.28.17-.28.16-.29.14-.3.14-.3.12-.31.11-.32.1-.32.09-.33.08-.33.07-.34.06-.35V21.77l-.06-.3-.06-.3-.07-.29-.08-.29-.09-.28L101,20l-.11-.27-.11-.27-.12-.27-.13-.26-.14-.26-.15-.25-.15-.24-.17-.24-.17-.23-.18-.23-.19-.22L99.14,17l-.2-.21-.21-.2-.22-.2-.22-.19-.24-.2-.24-.18-.25-.17-.25-.17h0l-.2-.12-.21-.12-.21-.11-.22-.1-.22-.1-.23-.1-.24-.09-.24-.09-.25-.08H95l-.26-.07-.26-.07-.27-.06L94,14.28l-.28-.06-.29-.05H69.18V50.32H91.44l.69-.06.66-.08.64-.1.62-.12.59-.14.57-.16.55-.18.52-.2.5-.22.48-.24.46-.26.43-.28.41-.31.39-.33.36-.35.34-.37.31-.4.29-.42.26-.44.23-.46.21-.48.18-.5.16-.52.13-.54.11-.56.08-.58.06-.6V39.68ZM77.79,35.74H90.21l.2.06.19.06.18.07L91,36l.15.08.15.09.14.09.13.1.12.1.11.11.1.12.09.13L92,37l.08.14.07.15.07.16.06.17,0,.18v1.34h0v1.33l0,.18L92.2,41l-.07.16-.07.15-.08.14-.09.13-.09.12-.1.12-.11.11-.12.1-.12.1-.14.09-.14.08-.15.08-.17.07-.18.07-.19.06-.2.06H77.75Zm0-14.38h12.3l.2.06.19.06.18.07.17.07.15.08.14.08.14.09.13.1.12.1.11.11.1.11.09.12.09.13.08.14L92,23l.07.16.06.17.05.18v2.57l-.05.18-.06.17L92,26.6l-.07.15-.08.14V27l-.09.12-.1.11-.11.11-.12.1-.13.1-.14.09-.14.08-.15.08-.17.07-.18.07-.19.06-.2.06H77.79Z" fill="#fff"/><path d="M141.29,30.87l0-1.13-.08-1.09L141,27.58l-.15-1-.19-1-.22-1-.26-.91-.29-.87-.33-.84-.37-.8-.4-.76-.44-.73L137.9,19l-.52-.65-.55-.61-.59-.58-.63-.54-.66-.5-.7-.46-.74-.42-.77-.39-.81-.34-.84-.31-.88-.27-.91-.23-1-.19-1-.16-1-.12-1.06-.09-1.09-.05H122l-1.08.05-1,.09-1,.12-1,.16-.94.19-.91.23-.87.27-.84.3-.81.34-.77.38-.74.42-.7.45-.67.5-.63.53-.59.57-.56.61-.52.64-.49.68-.45.72-.41.75-.37.78-.33.82-.3.86-.26.89-.23.93-.19,1-.15,1-.12,1L105,29.44l0,1.11V34l.08,1.12.11,1.08.15,1,.18,1,.22,1,.25.93.29.89.33.86.36.82.4.78.44.74.47.7.51.67.55.63.58.59.63.55.66.51.7.47.73.43.77.39.81.35.85.31.88.28.92.24,1,.2,1,.16,1,.13,1.07.09h4.46l1.06-.09,1-.12,1-.16,1-.2.91-.24.88-.27.84-.31.81-.35.77-.39.73-.42.7-.46.66-.5.63-.54.59-.58.55-.62.52-.65.48-.69.44-.73.4-.77.37-.81.33-.84.29-.88.26-.91.22-1,.19-1,.15-1,.12-1.06.08-1.09.05-1.13V32ZM116,40.56l-.24-.4-.23-.42-.21-.45-.19-.48-.18-.5-.16-.53-.14-.56-.12-.59-.11-.61-.09-.64-.07-.67-.06-.7V29.62l.06-.65.08-.63.1-.6.12-.58.13-.55.15-.53.17-.5.18-.48.2-.45.22-.43.23-.41.25-.38.26-.36.28-.33.3-.31.32-.29.33-.27.35-.25.37-.23.39-.21.4-.18.42-.16.44-.14.46-.12.49-.1.5-.08h3.33l.51.08.49.1.47.12.45.14.43.17.41.18.39.21.37.23.35.25.33.27.31.29.3.32.28.34.26.36.24.39.23.42.21.44.2.46.18.49.16.52.15.54.13.57.11.6.1.62.08.65.06.68v4.37l-.06.67-.08.65-.1.62-.11.6-.13.57-.15.54-.16.52-.18.49-.2.47-.21.44-.23.42-.24.39-.26.37-.28.34-.3.32-.31.29-.33.27-.35.25-.37.23-.39.21-.41.19-.43.17-.45.14-.47.12-.49.1-.51.08h-3.38l-.52-.08-.5-.1-.47-.12-.45-.15L119,43l-.41-.19-.39-.21-.37-.23-.35-.25-.33-.28-.31-.3-.29-.32-.28-.35Z" fill="#fff"/><polygon points="170.8 43.27 162.03 43.27 162.03 43.27 161.75 43.27 161.47 43.27 161.19 43.26 160.92 43.25 160.66 43.23 160.41 43.22 160.16 43.2 159.92 43.17 159.68 43.15 159.45 43.11 159.23 43.08 159.01 43.04 158.79 42.99 158.59 42.95 158.39 42.9 158.19 42.84 158 42.78 157.82 42.71 157.64 42.64 157.46 42.56 157.29 42.48 157.12 42.39 156.96 42.3 156.8 42.2 156.65 42.09 156.49 41.98 156.34 41.87 156.19 41.74 156.05 41.61 155.91 41.47 155.77 41.32 155.64 41.17 155.66 41.19 155.64 41.17 155.64 41.17 155.64 41.17 155.54 41.05 155.46 40.94 155.38 40.83 155.3 40.7 155.24 40.57 155.17 40.44 155.1 40.31 155.05 40.16 154.99 40.02 154.94 39.87 154.9 39.71 154.85 39.55 154.81 39.38 154.78 39.2 154.75 39.02 154.72 38.84 154.69 38.65 154.66 38.45 154.64 38.25 154.63 38.05 154.61 37.84 154.6 37.62 154.58 37.4 154.58 37.17 154.57 36.94 154.56 36.7 154.56 36.46 154.55 36.21 154.55 35.95 154.55 35.7 154.55 35.43 154.55 35.16 154.55 33.78 154.55 33.78 154.55 14.4 154.55 13.81 153.96 13.81 146.52 13.81 145.92 13.81 145.92 14.4 145.92 35.41 145.93 35.84 145.93 36.27 145.94 36.69 145.95 37.1 145.97 37.51 145.99 37.91 146.01 38.3 146.05 38.69 146.08 39.06 146.13 39.44 146.17 39.8 146.23 40.16 146.29 40.52 146.36 40.87 146.44 41.21 146.53 41.55 146.63 41.89 146.73 42.22 146.84 42.54 146.97 42.87 147.1 43.18 147.24 43.49 147.39 43.81 147.56 44.11 147.73 44.41 147.92 44.71 148.12 45.01 148.33 45.3 148.55 45.59 148.78 45.88 149.03 46.16 149.29 46.44 149.6 46.76 149.91 47.06 150.22 47.34 150.54 47.61 150.86 47.87 151.19 48.1 151.51 48.33 151.85 48.53 152.18 48.73 152.53 48.9 152.87 49.07 153.22 49.22 153.57 49.36 153.93 49.49 154.3 49.6 154.66 49.71 155.04 49.8 155.41 49.89 155.8 49.96 156.19 50.03 156.58 50.08 156.99 50.13 157.39 50.17 157.81 50.21 158.23 50.24 158.66 50.27 159.09 50.28 159.54 50.3 159.99 50.31 160.45 50.31 160.92 50.32 161.39 50.32 170.8 50.32 171.4 50.32 171.4 49.73 171.4 43.86 171.4 43.27 170.8 43.27" fill="#fff"/><polygon points="184.12 13.81 176.34 13.81 175.74 13.81 175.74 14.4 175.74 49.73 175.74 50.32 176.34 50.32 184.12 50.32 184.71 50.32 184.71 49.73 184.71 14.4 184.71 13.81 184.12 13.81" fill="#fff"/><polygon points="223.76 38.44 223.73 37.77 223.67 37.12 223.6 36.5 223.5 35.91 223.39 35.34 223.25 34.79 223.08 34.26 222.89 33.76 222.68 33.28 222.44 32.83 222.18 32.4 221.89 31.99 221.58 31.61 221.24 31.25 220.87 30.91 220.49 30.6 220.08 30.32 219.64 30.05 219.18 29.81 218.7 29.6 218.2 29.4 217.67 29.23 217.12 29.08 216.55 28.95 215.96 28.84 215.34 28.74 214.7 28.67 214.03 28.61 213.34 28.57 212.63 28.55 211.89 28.54 211.89 28.54 202.04 28.54 202.04 28.54 201.77 28.54 201.51 28.52 201.26 28.51 201.02 28.48 200.79 28.45 200.57 28.42 200.36 28.37 200.16 28.32 199.97 28.27 199.79 28.2 199.62 28.14 199.46 28.06 199.31 27.98 199.17 27.9 199.04 27.81 198.91 27.72 198.8 27.62 198.69 27.51 198.59 27.4 198.5 27.29 198.42 27.17 198.34 27.04 198.27 26.9 198.21 26.76 198.15 26.61 198.1 26.45 198.06 26.28 198.02 26.11 197.99 25.92 197.97 25.73 197.96 25.52 197.96 25.31 197.96 25.04 197.97 24.77 198 24.52 198.03 24.28 198.08 24.06 198.13 23.84 198.19 23.64 198.26 23.45 198.34 23.27 198.42 23.1 198.52 22.94 198.62 22.79 198.73 22.65 198.85 22.51 198.99 22.39 199.13 22.27 199.28 22.16 199.44 22.05 199.62 21.95 199.81 21.86 200.01 21.77 200.22 21.69 200.45 21.62 200.68 21.55 200.94 21.5 201.2 21.45 201.48 21.4 201.77 21.37 202.08 21.34 202.4 21.32 202.73 21.31 203.08 21.31 203.08 21.31 221.45 21.31 222.04 21.31 222.04 20.71 222.04 14.4 222.04 13.81 221.45 13.81 201.99 13.81 201.2 13.82 200.44 13.85 199.69 13.9 198.97 13.96 198.28 14.05 197.61 14.16 196.97 14.29 196.35 14.44 195.75 14.62 195.18 14.81 194.63 15.03 194.1 15.27 193.6 15.54 193.12 15.83 192.67 16.15 192.24 16.49 191.84 16.85 191.46 17.24 191.12 17.66 190.79 18.1 190.5 18.56 190.23 19.05 189.99 19.56 189.77 20.09 189.59 20.65 189.42 21.23 189.29 21.84 189.18 22.46 189.09 23.12 189.03 23.79 189 24.49 188.98 25.22 188.99 25.89 189.03 26.54 189.08 27.16 189.16 27.77 189.27 28.36 189.39 28.92 189.55 29.46 189.72 29.98 189.92 30.49 190.15 30.97 190.4 31.42 190.68 31.86 190.99 32.28 191.31 32.67 191.67 33.04 192.05 33.38 192.45 33.7 192.88 34 193.34 34.28 193.81 34.53 194.31 34.77 194.83 34.97 195.38 35.16 195.95 35.33 196.54 35.47 197.16 35.59 197.8 35.7 198.46 35.79 199.15 35.85 199.85 35.9 200.59 35.92 201.35 35.94 201.35 35.93 210.12 35.93 210.12 35.94 210.44 35.94 210.75 35.94 211.05 35.96 211.33 35.98 211.6 36 211.86 36.04 212.11 36.07 212.34 36.12 212.56 36.17 212.77 36.22 212.96 36.28 213.15 36.35 213.32 36.43 213.47 36.51 213.62 36.59 213.75 36.68 213.88 36.78 214 36.88 214.1 36.99 214.2 37.11 214.29 37.24 214.38 37.38 214.45 37.52 214.52 37.68 214.58 37.85 214.64 38.03 214.68 38.23 214.72 38.44 214.75 38.67 214.78 38.91 214.79 39.16 214.8 39.43 214.79 39.43 214.79 39.69 214.78 39.93 214.75 40.16 214.72 40.37 214.68 40.57 214.63 40.76 214.57 40.94 214.5 41.1 214.43 41.25 214.34 41.39 214.25 41.52 214.16 41.65 214.05 41.76 213.93 41.87 213.8 41.97 213.66 42.07 213.51 42.16 213.35 42.25 213.17 42.33 212.98 42.4 212.78 42.47 212.56 42.53 212.33 42.59 212.08 42.64 211.82 42.68 211.55 42.72 211.26 42.75 210.96 42.78 210.65 42.8 210.32 42.81 209.98 42.82 209.63 42.82 191.01 42.82 190.41 42.82 190.41 43.42 190.41 49.73 190.41 50.32 191.01 50.32 210.81 50.32 211.59 50.31 212.36 50.28 213.1 50.23 213.81 50.17 214.5 50.08 215.17 49.97 215.81 49.84 216.43 49.69 217.02 49.52 217.59 49.33 218.14 49.11 218.66 48.87 219.16 48.61 219.64 48.32 220.09 48.01 220.51 47.67 220.91 47.31 221.29 46.93 221.64 46.52 221.96 46.09 222.25 45.64 222.52 45.16 222.76 44.66 222.97 44.14 223.16 43.59 223.32 43.02 223.46 42.43 223.57 41.82 223.66 41.18 223.72 40.52 223.75 39.84 223.77 39.14 223.76 38.44" fill="#fff"/><polygon points="257.19 13.81 226.6 13.81 226 13.81 226 14.4 226 20.56 226 21.16 226.6 21.16 237.44 21.16 237.44 49.73 237.44 50.32 238.03 50.32 245.71 50.32 246.31 50.32 246.31 49.73 246.31 21.16 257.19 21.16 257.79 21.16 257.79 20.56 257.79 14.4 257.79 13.81 257.19 13.81" fill="#fff"/></svg>