<svg id="Lager_1" data-name="Lager 1" xmlns="http://www.w3.org/2000/svg" viewBox="0 0 43.2 23.4"><title>DN-logo</title><path fill="#fff" d="M33.6,0H23.4V.4H24c.6,0,1.1.2,1.1,2.3V20.3c0,2.1-.5,2.3-1.1,2.3h-.6v.5H33.6c5.6,0,9.5-4.4,9.5-11.6S39.2,0,33.6,0m1.7,20.3c0,1.4-.6,2.1-1.7,2.1H32.1V.8h1.5c1.1,0,1.7.6,1.7,2.1Z" transform="translate(-23.4)"/><path fill="#fff" d="M61.6.5V0H57.1V.5h.4c1,0,1.4.9,1.4,2.4V15.2L50.9,0H42.8V.5h.7c.8,0,1.1.3,1.1,1.7V20.3c0,1.5-.5,2.4-1.4,2.4h-.4v.5h4.5v-.5h-.4c-1,0-1.4-.9-1.4-2.4V5.3l9.4,17.9h4.9V2.8c0-1.5.5-2.4,1.4-2.4h.4Z" transform="translate(-23.4)"/><path fill="#fff" d="M63.8,17A2.91,2.91,0,0,0,61,20.2c0,2.1,1.2,3.2,2.8,3.2a2.91,2.91,0,0,0,2.8-3.2c0-2.1-1.2-3.2-2.8-3.2" transform="translate(-23.4)"/></svg>
