<svg id="Lager_1" data-name="Lager 1" xmlns="http://www.w3.org/2000/svg" viewBox="0 0 102.64 23.44"><title>eqtventures</title><path d="M49.42,4.49a3,3,0,0,1,6,0h1.47A4.49,4.49,0,1,0,52.42,9h0V7.51a3,3,0,0,1-3-3Z" transform="translate(0 -0.02)" fill="#fff"/><rect x="59.68" y="0.21" width="8.26" height="1.47" fill="#fff"/><rect x="39.25" y="0.21" width="5.19" height="1.47" fill="#fff"/><rect x="39.25" y="3.72" width="5.19" height="1.47" fill="#fff"/><rect x="39.25" y="7.26" width="5.19" height="1.47" fill="#fff"/><rect x="36.22" y="0.21" width="1.47" height="8.52" fill="#fff"/><rect x="63.08" y="3.24" width="1.47" height="5.48" fill="#fff"/><polygon points="52.98 4.48 52.43 5.04 52.18 5.28 52.43 5.53 53.97 7.08 55.03 8.14 55.77 8.87 56.8 7.83 56.08 7.11 55.02 6.05 53.46 4.48 53.22 4.25 52.98 4.48" fill="#fff"/><polygon points="1.11 14.45 0 14.45 4.31 22.82 4.4 22.99 4.95 21.92 1.14 14.51 1.11 14.45" fill="#fff"/><polygon points="5.72 18.27 5.69 18.32 6.25 19.4 8.8 14.45 7.69 14.45 5.72 18.27" fill="#fff"/><rect x="18.47" y="14.45" width="3.79" height="0.94" fill="#fff"/><rect x="15.13" y="14.45" width="1" height="8.75" fill="#fff"/><rect x="18.47" y="18.36" width="3.79" height="0.94" fill="#fff"/><rect x="18.47" y="22.26" width="3.79" height="0.94" fill="#fff"/><rect x="43.06" y="14.45" width="6.71" height="0.94" fill="#fff"/><rect x="45.92" y="17.73" width="1" height="5.48" fill="#fff"/><path d="M56.48,19.34V14.47h-1v5.06a3.66,3.66,0,0,0,.87,2.74,3.77,3.77,0,0,0,1.33.93l.14.06V22.18h0C56.69,21.59,56.48,20.7,56.48,19.34Z" transform="translate(0 -0.02)" fill="#fff"/><path d="M61.47,19.34a3.7,3.7,0,0,1-.36,1.94,2.18,2.18,0,0,1-1,.88h0v1.07l.14-.06a3.74,3.74,0,0,0,1.35-.94,3.66,3.66,0,0,0,.87-2.73v-5h-1Z" transform="translate(0 -0.02)" fill="#fff"/><path d="M75.17,21.09a4.08,4.08,0,0,1-.77.17h-.12l.72,2h1l-.76-2.17Z" transform="translate(0 -0.02)" fill="#fff"/><path d="M73.33,14.47h-.1v1h.23a2.1,2.1,0,0,1,1.23.27,1.45,1.45,0,0,1-.23,2.52,2.61,2.61,0,0,1-1.11.16h-.12v1h.25a2.63,2.63,0,0,0,1.88-.5A2.48,2.48,0,0,0,76.3,17a2.41,2.41,0,0,0-.81-1.81A2.75,2.75,0,0,0,73.33,14.47Z" transform="translate(0 -0.02)" fill="#fff"/><rect x="69.91" y="14.45" width="1" height="8.75" fill="#fff"/><rect x="83.35" y="14.45" width="1" height="8.75" fill="#fff"/><rect x="86.68" y="14.45" width="3.79" height="0.94" fill="#fff"/><rect x="86.68" y="22.26" width="3.79" height="0.94" fill="#fff"/><rect x="86.68" y="18.36" width="3.79" height="0.94" fill="#fff"/><path d="M101.72,18.79l-.09-.07-.53.87.06.06a1.52,1.52,0,0,1,.47,1.29,1.69,1.69,0,0,1-1.69,1.6H99.8a2.21,2.21,0,0,1-1.58-1.12l-.09-.12-.54.85h0a1.21,1.21,0,0,0,.2.3,2.73,2.73,0,0,0,1.9,1h.23a2.71,2.71,0,0,0,2.7-2.52A2.33,2.33,0,0,0,101.72,18.79Z" transform="translate(0 -0.02)" fill="#fff"/><path d="M98.9,18.52H99l.5-.83-.08-.05a1.28,1.28,0,0,1-.63-1.23,1.42,1.42,0,0,1,.47-.94,1.36,1.36,0,0,1,1-.32,1.45,1.45,0,0,1,1.26.77l.09.12.5-.79v-.12A2.38,2.38,0,0,0,98.32,18,2,2,0,0,0,98.9,18.52Z" transform="translate(0 -0.02)" fill="#fff"/><polygon points="36.25 21.07 29.83 14.52 29.66 14.35 29.66 15.83 37.08 23.27 37.25 23.44 37.25 14.45 36.25 14.45 36.25 21.07" fill="#fff"/><polygon points="29.66 23.21 30.66 23.21 30.66 19.48 29.66 18.6 29.66 23.21" fill="#fff"/></svg>