<svg id="Layer_1" data-name="Layer 1" xmlns="http://www.w3.org/2000/svg" viewBox="0 0 371.92 57.67"><title>mojang</title><path d="M45.42.32H16.52A16.52,16.52,0,0,0,0,16.83V57.67H40.84A16.51,16.51,0,0,0,57.35,41.15V.32ZM40.68,6.51c1.35,0,2.45,6,2.45,7.34a2.45,2.45,0,1,1-4.89,0C38.24,12.5,39.33,6.51,40.68,6.51ZM48,43.21s0,4.89-4.89,4.89H13.77c-4.89,0-4.89-4.89-4.89-4.89V18.75c0-4.9,4.89-4.9,4.89-4.9h9.79c4.89,0,9.78,4.9,9.78,4.9,0-14.26,4.51,5.28,9.79,0C46.59,15.29,48,35.87,48,35.87l-4.89-2.44s0-4.9-7.34-9.79c-9.1-6.07-19.57-2.07-19.57,7.34C16.22,50.17,48,43.21,48,43.21Z" fill="#fff"/><polygon points="105.71 56.67 105.71 21.38 93.34 39.77 87.85 39.77 75.48 21.38 75.48 56.67 65.63 56.67 65.63 1 73.53 1 90.64 26.18 107.75 1 115.49 1 115.49 56.67 105.71 56.67" fill="#fff"/><path d="M149.73,57.67a28,28,0,0,1-20.27-8.51,28.94,28.94,0,0,1,0-40.65,28.48,28.48,0,0,1,40.6,0,28.95,28.95,0,0,1,0,40.66A28.38,28.38,0,0,1,149.73,57.67Zm0-47.66a18.2,18.2,0,0,0-13.09,5.57,18.71,18.71,0,0,0,0,26.5,18.22,18.22,0,0,0,13.11,5.59A18.8,18.8,0,0,0,168.4,28.84,18.78,18.78,0,0,0,149.73,10Z" fill="#fff"/><path d="M180.21,56.67V47.28h1.07c16.25,0,19.52-5.68,19.52-14.85V10.24H180.21V1.07h30.44V32.43c0,17-8.79,24.24-29.37,24.24Z" fill="#fff"/><path d="M253.24,56.67l-5.13-13.54H227.85l-5.2,13.54H212L234.35.31h7.11L263.8,56.67Zm-8.76-22.93L238,16.68,231.5,33.74Z" fill="#fff"/><polygon points="301.56 56.67 277.33 21.61 277.33 56.67 267.47 56.67 267.47 1 275.06 1 299.53 36.37 299.53 1 309.31 1 309.31 56.67 301.56 56.67" fill="#fff"/><path d="M343.23,57.67A28,28,0,0,1,323,49.17a29,29,0,0,1,0-40.66,28.49,28.49,0,0,1,40.61,0,29.88,29.88,0,0,1,4.89,6.67l.84,1.57H357.52l-.5-.56a7.55,7.55,0,0,0-.54-.59A18.65,18.65,0,0,0,343.23,10a18.19,18.19,0,0,0-13.08,5.57,18.71,18.71,0,0,0,0,26.5,18.22,18.22,0,0,0,13.11,5.59A18.79,18.79,0,0,0,361.33,33.5h-21v-10h31.1l.14.9a28.81,28.81,0,0,1,.35,4.45,29.11,29.11,0,0,1-8.33,20.32A28.39,28.39,0,0,1,343.23,57.67Z" fill="#fff"/></svg>