<svg id="Layer_1" data-name="Layer 1" xmlns="http://www.w3.org/2000/svg" viewBox="0 0 579.77 87.72"><title>toborrow</title><path d="M111.47,87.67a30.46,30.46,0,0,1-5.45-.51,30.07,30.07,0,1,1,22.5-4.85A29.55,29.55,0,0,1,111.47,87.67Zm-.09-46.31a16.22,16.22,0,0,0-2.91,32.17,16,16,0,0,0,12.15-2.64,16.21,16.21,0,0,0-6.28-29.3A21.67,21.67,0,0,0,111.38,41.36Z" transform="translate(0 -0.42)" fill="#fff"/><path d="M192,28A29.67,29.67,0,0,0,175.34,33V7H161.48V88.13h13.86V83.05A30.07,30.07,0,1,0,192,28Zm0,46.31a16.23,16.23,0,1,1,16.23-16.22A16.22,16.22,0,0,1,192,74.27Z" transform="translate(0 -0.42)" fill="#fff"/><path d="M268.42,87.76H268a30.1,30.1,0,0,1-20.56-51.67,29.64,29.64,0,0,1,21.39-8.5,30.12,30.12,0,0,1,29.67,30.5,30,30,0,0,1-30.08,29.67Zm-.05-46.31a16.24,16.24,0,1,0,16.22,16.46A16.33,16.33,0,0,0,280,46.35a16.12,16.12,0,0,0-11.42-4.9Z" transform="translate(0 -0.42)" fill="#fff"/><path d="M451.2,87.67a30,30,0,1,1,21.95-9.47,29.85,29.85,0,0,1-21.95,9.47Zm0-46.31h-.56a16.22,16.22,0,0,0-10.58,28.06,16.23,16.23,0,0,0,27.31-12.34A16.25,16.25,0,0,0,451.2,41.36Z" transform="translate(0 -0.42)" fill="#fff"/><path d="M565.21,28.1l-10,35.58L543.86,28.1h-15l-10,35.58L507.53,28.1H493l19.13,59.8h14.56l10.17-36.23L548.43,87.9H563l16.78-59.8Z" transform="translate(0 -0.42)" fill="#fff"/><path d="M53,87.62C42.61,85,33.6,82.77,29.3,73.62c-3.37-7.12-3.23-16.91-3-36.37.14-9.61.33-21.54.1-36.65L40.3.42c.18,15.25.05,27.31-.09,37C40,53.66,39.84,63.5,41.82,67.71c1.21,2.58,4.07,3.83,14.56,6.47Z" transform="translate(0 -0.42)" fill="#fff"/><path d="M0,27.22H67.2V41.09H0Z" transform="translate(0 -0.42)" fill="#fff"/><path d="M353.64,31a28.72,28.72,0,0,0-23,4.71V28.33H316.76V87.9h13.86V54.72a17.32,17.32,0,0,1,20.52-12.43c.14,0,.28,0,.42.09l2.77-11.23C354.15,31.1,353.92,31.06,353.64,31Z" transform="translate(0 -0.42)" fill="#fff"/><path d="M413.12,31a28.72,28.72,0,0,0-23,4.71V28.33H376.24V87.9H390.1V54.72a17.32,17.32,0,0,1,20.52-12.43c.14,0,.28,0,.42.09l2.77-11.23Z" transform="translate(0 -0.42)" fill="#fff"/></svg>