<?xml version="1.0" encoding="iso-8859-1"?>
<!-- Generator: Adobe Illustrator 16.0.0, SVG Export Plug-In . SVG Version: 6.00 Build 0)  -->
<!DOCTYPE svg PUBLIC "-//W3C//DTD SVG 1.1//EN" "http://www.w3.org/Graphics/SVG/1.1/DTD/svg11.dtd">
<svg version="1.1" id="Layer_1" xmlns="http://www.w3.org/2000/svg" xmlns:xlink="http://www.w3.org/1999/xlink" x="0px" y="0px"
	 width="451.964px" height="138.716px" viewBox="0 0 451.964 138.716" style="enable-background:new 0 0 451.964 138.716;"
	 xml:space="preserve" fill="white" stroke="white">
<g>
	<path d="M221.956,87.027c-1.3-1.448-2.833-2.173-4.608-2.173h-27.905c-1.775,0-3.458,0.725-5.049,2.173
		c-1.598,1.448-2.485,3.057-2.659,4.829l-4.076,38.119c-0.174,1.774,0.383,3.383,1.683,4.832c1.299,1.448,2.836,2.172,4.604,2.172
		h27.913c1.768,0,3.451-0.724,5.049-2.172c1.594-1.449,2.478-3.058,2.655-4.832l4.075-38.119
		C223.816,90.083,223.255,88.475,221.956,87.027z M201.137,122.924h-3.458l2.482-24.132h3.455L201.137,122.924z"/>
	<path d="M267.736,87.027c-1.299-1.448-2.836-2.173-4.607-2.173h-27.904c-1.775,0-3.459,0.725-5.053,2.173s-2.482,3.057-2.658,4.829
		l-4.783,45.123h19.225l3.984-38.187h3.457l-3.986,38.187h19.225l4.785-45.123C269.597,90.083,269.037,88.475,267.736,87.027z"/>
	<path d="M312.743,112.778l2.889-27.924H296.45l-2.918,27.877h-3.504l2.922-27.877h-19.225l-5.494,52.125h19.227l1.064-10.192h3.451
		l-1.016,10.192h19.207l1.037-10.196c0.178-1.832-0.369-3.458-1.641-4.874c-1.271-1.417-2.818-2.127-4.65-2.127
		c1.838,0,3.557-0.71,5.162-2.127C311.672,116.235,312.565,114.613,312.743,112.778z"/>
	<polygon points="359.932,98.792 361.438,84.854 319.53,84.854 314.038,136.979 355.942,136.979 357.448,122.924 334.768,122.924 
		335.301,117.886 350.979,117.886 352.399,103.831 336.717,103.831 337.247,98.792 	"/>
	<path d="M387.852,84.854l-2.662,25.533h-3.459l2.699-25.533h-19.223l-2.926,27.905c-0.176,1.835,0.369,3.458,1.641,4.874
		c1.271,1.417,2.82,2.127,4.65,2.127h15.594l-0.266,3.281h-15.682l-1.506,13.938h27.908c1.828,0,3.529-0.71,5.096-2.126
		c1.564-1.42,2.436-3.046,2.613-4.878l4.785-45.121H387.852z"/>
	<path d="M450.872,101.37l1.061-9.5c0.178-1.775-0.383-3.391-1.682-4.84c-1.301-1.447-2.838-2.176-4.609-2.176h-27.908
		c-1.768,0-3.455,0.725-5.049,2.173c-1.598,1.444-2.482,3.054-2.658,4.821l-2.035,19.044c-0.178,1.828,0.365,3.45,1.637,4.867
		c1.268,1.417,2.818,2.127,4.65,2.127h15.682l-0.531,5.038h-3.455l0.266-2.461h-19.225l-1.061,9.501
		c-0.178,1.774,0.383,3.391,1.682,4.839c1.301,1.448,2.834,2.176,4.609,2.176h27.904c1.771,0,3.455-0.728,5.049-2.176
		c1.594-1.452,2.482-3.067,2.662-4.846l2.035-19.108c0.178-1.835-0.369-3.465-1.641-4.885c-1.268-1.424-2.818-2.134-4.65-2.134
		h-15.682l0.533-5.038h3.453l-0.266,2.577H450.872z"/>
	<path d="M12.039,110.892c-0.176,1.828,0.367,3.45,1.637,4.867c1.271,1.417,2.82,2.127,4.654,2.127h15.678l-0.529,5.038H10.8
		l-1.507,14.055h34.904c1.775,0,3.458-0.728,5.052-2.176c1.594-1.452,2.481-3.067,2.659-4.846l2.038-19.108
		c0.174-1.835-0.37-3.465-1.641-4.885c-1.271-1.424-2.819-2.134-4.651-2.134H31.97l0.533-5.038h22.683l1.509-13.938H14.785
		L12.039,110.892z"/>
	<path d="M171.923,84.854h-50.766c-1.771,0-3.455,0.725-5.052,2.173c-1.594,1.448-2.478,3.057-2.656,4.829l-4.786,45.123h19.229
		l3.987-38.187h3.543l-4.033,38.187h19.21l4.019-38.187h3.664l-4.076,38.187h19.222l4.786-45.123
		c0.177-1.829-0.369-3.455-1.64-4.871C175.303,85.564,173.755,84.854,171.923,84.854z"/>
	<path d="M212.586,63.518l-0.445-1.161l-0.873-1.154l-0.084-0.685l-0.586-0.692l-0.711-1.466l-1.395-1.61l-3.486-1.237l-5.979-0.996
		l-1.033,0.261l-0.621-0.119l-1.559,0.314l-2.943-0.414l-1.711,0.56l-1.762,0.257l-0.852,0.389l-0.754,0.057l-1.66,0.868
		l-6.541,2.192l-0.408,0.383l-3.279,1.603l-2.305,0.815l-2.982,1.109l-4.285,2.242l-1.639,1.023l-1.34,0.312l-2.834-0.523
		l-1.734-0.763l-3.209-1.662l-1.557-0.636l-1.469-0.678l-6.504-2.116l-1.613-0.211l-8.826-1.008l-0.674-0.649l-2.426-1.082
		l-0.721,0.721l-0.797,0.266l-1.254,1.253l-0.465-0.881l0.209,0.209l0.07-0.139h0.139l0.977-1.116l0.418-0.141l1.535-1.256
		l0.631,0.35l1.115-0.838l1.115-2.302l0.143-3l0.557-0.071v-0.557l-1.467-3.209l-0.209-1.117l-0.139-0.209l-0.281-0.836l0.139-1.328
		l0.49-0.628l0.348-2.162l-0.418-1.674l0.209-0.421v-1.743l-1.186-2.023l-2.371-3.769l-0.977-0.558l-2.096,0.139l-0.838,0.28
		l-2.648,0.348l-0.699-0.348h-0.557l-1.328-0.628l-3.068-0.628h-0.627l-0.838,0.838l-1.467,0.558l-2.652,2.512h-0.348l-0.695-0.419
		l-2.096,0.071l-1.256,1.186l-0.697,1.604l-0.488,2.303l0.209,1.816l0.279,0.557l0.35,1.186l-0.629,0.209l-0.561-0.292
		c0.018-0.043,0.033-0.086,0.049-0.13l-0.439-0.075l-0.234-0.123v0.083l-1.676-0.285l-3.152,0.323l-0.85,0.391L92.6,39.392
		l-1.598-0.329l-6.838-0.14l-1.608,0.16l-1.681,0.089l-3.577,0.517l-1.889,0.153l-2.847-0.435l-8.984,5.684l0.026-0.286
		l-0.157-1.952l0.264-2.114l-0.054-2.258l-0.22-2.361l0.336-2.423l0.092-1.163l-0.269-1.195l0.091-1.229l-0.032-1.205l-1.473-1.098
		l-0.263-1.025l0.294-0.998l-0.585-0.673l-1.215-4.545l-0.31-0.682c-0.016-0.286-0.056-0.572-0.131-0.851
		c-0.566-2.089-0.237-4.252-0.237-4.252s-0.871,0.225-1.422,1.285l-2.712-3.638l-3.377-3.426l-3.812-3.095L44.875,3.73l-4.907-1.682
		l-5.32-1.198l-1.029,0.081C31.566,0.828,29.958,0,29.958,0s-0.12,0.552,0.074,1.214l-3.654,0.288l-7.219,2.327l-6.179,4.048
		l-4.681,5.686l-3.889,6.25l-0.443,1.176c-0.314,0.371-0.584,0.803-0.748,1.309c-0.726,2.248-2.344,3.732-2.344,3.732
		s0.429,0.277,1.061,0.351l-0.097,0.258l-0.271,1.474c-0.575,1.331-1.295,2.193-1.295,2.193s0.347,0.166,0.853,0.207l-0.561,3.044
		L0,40.156l0.964,3.497l0.939,3.049l1.492,2.5l1.446,2.354l1.979,1.693l2.251,0.985l1.924,1.167l1.951,0.602l0.394,0.1
		c1.294,0.735,2.089,1.581,2.089,1.581s0.245-0.39,0.329-0.969l0.562,0.142l3.605-0.516l3.619-1.179l3.728-1.594l2.984-3.015
		l2.884-3.27l-1.191,0.03l1.818-4.5l0.143-4.752l-0.095-4.165l-1.262-3.478l-1.904-2.709l-2.599-1.617l-2.998-0.475l-3.363,0.599
		l-3.403,2.345c-1.132,0.599-2.089,0.878-2.089,0.878s0.327,0.386,0.984,0.61l-0.521,0.705l-0.602,1.01l-0.057,0.089
		c-0.967,0.817-1.829,1.29-1.829,1.29s0.271,0.205,0.741,0.324l-0.09,0.576l-0.016,0.45l-0.266,0.087l0.128,0.206L14.387,35.2
		l-0.025,0.651l0.117,0.739l0.278,0.698l-0.011,0.827l0.762,0.276l0.782,0.23l1.06-0.085l1.03-0.136l0.593-0.854l0.449-0.768
		c0.393,0.298,0.75,0.417,0.75,0.417s0.114-1.061,0.663-2.359l0.063-0.06l0.133-0.377c0.214-0.441,0.475-0.898,0.806-1.344
		c0.189-0.255,0.333-0.523,0.445-0.796l0.479-0.635l1.125-0.608l1.09-0.595l1.192,0.136l1.062,0.552l1.116,0.904l0.42,1.787
		l0.597,2.28l0.166,2.667l-0.16,2.435l-0.622,2.174l-0.877,1.938l-0.981,2.165l-0.386-0.466c0,0-0.512,0.903-0.974,1.605
		c-0.154,0.234-1.837,1.341-1.837,1.341l-3.345,0.865l-3.375,0.735l-3.287-0.925l-3.085-1.335l-2.469-2.468l-1.655-3.444
		l-1.29-4.377l0.291-5.101l1.308-5.655l2.319-5.768l3.198-5.522l3.797-4.209c0.114,0.441,0.299,0.69,0.299,0.69
		s0.521-1.046,1.423-2.157l3.894-2.929l6.443-1.699l7.43-0.45l4.942,1.312l4.284,2.194l2.707,2.717l3.483,2.896l2.437,3.745
		L55.417,23l1.214,4.206l1.245,3.987c-0.547-0.202-0.944-0.145-0.944-0.145s0.58,0.88,1.076,2.11l0.059,1.041l0.103,1.936
		c-0.518-0.351-0.951-0.389-0.951-0.389s0.664,1.726,0.739,3.658l0.196,2.34l-0.265,2.148l0.173,1.877l-0.106,1.192l-1.153,0.396
		l-2.856,1.399l-2.176,1.109l-3.421,1.278l-0.561,0.039l-6.092,3.234l-1.771,0.609l-0.558,0.504L38.5,55.883l-1.395,1.102
		l-1.587,0.855l-1.726,2.418l-1.301,0.919l-0.339,0.531l-0.902,0.57l-3.389,5.024l-1.5,3.385l0.206,2.121l0.577,1.521l0.099,0.901
		l0.442,0.529l0.232,1.431l0.542,1.12l0.816,0.714l1.507,0.735l0.282,0.37l0.499,0.245l1.09-0.164l0.746-0.568l1.87-0.64
		l0.367-0.749l0.057-0.756l-0.063-0.182l-0.661,0.066l0.003-0.156l-1.188,0.04l-0.483-1.4l-0.602-1.461l-0.412-0.589l-0.102-0.75
		l0.89-1.815l1.051-1.196l1.415-2.104l0.128-0.092l0.178,2.336l0.447,1.621l0.561,0.274l1.062-0.413l0.27-1.502l0.327-1.47
		l0.334-1.626l0.849-2.377l0.669-1.846l0.777-0.633l0.586-1.037l3.886-1.592l2.18-0.488l3.983-1.158l1.212-0.106l1.31-0.29
		l3.183-0.309l0.46-0.056l0.154,2.257l0.484,2.803c-0.631,0.059-1.09,0.31-1.09,0.31s1.426,1.675,1.795,4.118
		c0.062,0.409,0.194,0.775,0.363,1.107l0.262,1.224l0.561,1.393l0.696,2.512l1.257,2.652l0.767,0.838l0.49,1.046l1.396,1.116v0.35
		l0.628,1.605l0.834,1.326l0.77,0.557l1.672,1.117h0.28l0.419,0.42l2.162,0.975l1.257,0.422l1.885,0.416l2.229-0.348l1.676-0.49
		h1.047l-0.628,0.631l-0.419,1.184l0.281,0.281l0.348,0.209v0.207l-0.838,1.814l-0.557,0.838l0.138,0.141v0.141l-0.348,0.557
		l-0.49,1.814l-0.557,1.047l-0.139,0.838l-1.534,4.605l-0.209,0.838l-0.213,0.209l-0.767,1.465l-1.672,2.793l-1.257,1.326
		l-0.767,1.045l-0.071,1.744l-0.558,0.909l-0.419,2.512v1.604l-0.628,3.91l-0.486,0.07l-2.442,1.395l-1.047,0.277l-1.257,0.84
		l-0.558,0.139l-0.628,0.699l-1.256,2.58l-0.277,1.467l-0.628,2.301l-0.767,1.467v1.186l0.625,0.629l0.561,0.068l0.419-0.418h0.277
		l1.186-1.186l1.118-1.955l0.419-1.047l0.767-0.768l0.209,0.35l0.209,2.93l-0.352,1.047l-1.324,3.35l-0.977,1.258l-1.047,0.768
		H60.96l-1.672,0.975l-0.281-0.277l-0.419,0.35l0.281,1.395l0.625,0.697h2.023l0.49,0.348l1.047,0.211l0.628-0.348h0.558v0.137
		h1.395l0.838-0.137l0.419-0.42l1.044-0.279l0.909-0.768l3.071-5.441l0.976-3.141l0.209,0.209v0.068l0.209,0.768l-0.209,0.211
		l-0.557,1.115l0.767,0.838h0.696l0.352-0.209l2.162-0.07l0.419-0.348l0.486-0.629l0.7-0.279l0.767-0.629l0.209-0.627l1.328-1.814
		l0.557-1.812l-0.419-2.652l0.696-0.281l5.375-3.068l2.3-1.117l2.443-0.906l1.257-0.561l1.395-0.35l0.697-0.416l1.328-0.35
		l1.324-0.629l0.975-0.209l0.629-0.418l1.119-0.279l0.209-0.211l2.652-2.512l0.418-2.232l0.625-3.559l0.629-5.164l-0.277-5.791
		v-1.188l-0.557-2.932l-1.258-3.137l0.139-0.141l0.486-0.281l0.072-0.348l-0.559-2.303l-0.486-0.838l-0.908-2.721l-0.139-4.536
		l0.348-1.048l0.209-1.045l1.049-1.047l3.486-3.279h0.699l2.58-0.557h0.629l1.676-0.212l0.486-0.208h0.561l1.254-0.628l1.256-0.209
		l1.605-0.7h0.699l16.936,3.256l4.074,1.936l0.324-0.338l2.66,0.614l2.191,0.472l0.105-0.337l0.387-0.538l0.066,0.021l3.785,0.527
		l3.729,1.17l3.998,1.473l0.346-0.4l3.662,1.146l1.902,0.229l2.59,0.377l2.248-0.174l3.682-1.48l1.09-0.68l2.643-1.438l0.756-1.009
		l1.18-0.726l1.285-1.06l2.414-2.098l1.107-0.749l0.916-0.808l3.578-2.097l1.854-1.245l3.83-1.725l1.154,0.288l0.994-0.128
		l1.797,0.785l2.314,1.017l1.406,0.879l1.291,0.774l1.279,0.838l1.025-0.487l0.189-0.598l-0.867-1.441l-1.572-1.736l0.152-0.027
		l2.5,0.421l1.59,0.059l1.932,0.605l0.475,0.589l0.143,0.703l0.646,1.445l0.682,1.312l-0.846,0.833l0.117,0.105l-0.504,0.431
		l0.096,0.174l0.582,0.476l0.797,0.252l1.754-0.917l0.922-0.151l0.867-0.674l0.17-0.531l-0.078-0.463l0.504-1.6L212.586,63.518z
		 M76.869,61.122l-2.024,1.604l-1.047,0.488l-1.743,0.348l-1.257,0.697l-0.767,0.767h-0.977l-1.676-0.767l-1.534-1.674l-1.676-2.931
		c0,0-0.36-1.146-0.506-2.68c-0.02-0.208-0.038-0.464-0.055-0.755l0.979-0.317l1.326-2.136l3.445,1.969l1.754-3.325l1.505-2.135
		l-0.023-0.607l3.837,0.117l0.194,0.492l4.264-0.078l3.902,0.121l3.749,0.746h0.071l0.053,0.18l-0.63,0.315l-2.933,1.676
		l-3.905,3.139L76.869,61.122z M90.544,106.407v0.42l-0.209,0.209l-1.396-0.35l-1.881,0.627l-3.142,1.606l-4.186,2.723l-0.348-1.256
		l0.138-2.862l1.115-2.373l3.98-4.885l1.396-1.467l2.3-2.861l0.209,4.047l0.209,0.49v0.139l0.142,0.07l0.277-0.209l0.348-0.279
		l0.071,3.629l0.977,0.559l-0.209,1.467L90.544,106.407z"/>
</g>
</svg>
