<svg width="92" height="80" xmlns="http://www.w3.org/2000/svg"><g fill="none"><g transform="translate(0 59)" fill="#000"><path d="M6.391 6.804C3.24 6.804 0 9.38 0 13.886c0 4.12 2.85 7.031 6.392 7.031 2.925 0 4.228-2.001 4.228-2.001v.872c0 .412.383.872.856.872h2.114V7.112h-2.97v1.72S9.305 6.804 6.391 6.804zm.53 2.77c2.594 0 3.955 2.327 3.955 4.311 0 2.21-1.616 4.31-3.95 4.31-1.951 0-3.906-1.612-3.906-4.339 0-2.462 1.682-4.281 3.9-4.281zM17.715 20.66a.84.84 0 0 1-.855-.872V7.112h2.97V8.79c.672-1.031 1.987-1.989 4.005-1.989 3.298 0 5.055 2.681 5.055 5.188v8.672h-2.064c-.541 0-.906-.461-.906-.923v-7.082c0-1.39-.835-3.077-2.766-3.077-2.084 0-3.324 2.008-3.324 3.898v7.184h-2.115zM37.548 6.804c-3.152 0-6.392 2.575-6.392 7.082 0 4.12 2.849 7.031 6.392 7.031 2.925 0 4.228-2.001 4.228-2.001v.872c0 .412.382.872.856.872h2.114V.338h-2.97v8.494s-1.314-2.028-4.228-2.028zm.529 2.77c2.594 0 3.955 2.327 3.955 4.311 0 2.21-1.615 4.31-3.95 4.31-1.95 0-3.905-1.612-3.905-4.339 0-2.462 1.682-4.281 3.9-4.281zM48.873 20.66a.84.84 0 0 1-.856-.872V7.112h2.97V9.37c.511-1.265 1.614-2.412 3.574-2.412.546 0 1.057.103 1.057.103v3.13s-.638-.256-1.41-.256c-2.083 0-3.22 2.008-3.22 3.898v6.827h-2.115zm24.764 0a.84.84 0 0 1-.855-.872V7.112h2.97V20.66h-2.115zM84.46 6.804c-3.152 0-6.392 2.575-6.392 7.082 0 4.12 2.849 7.031 6.392 7.031 2.925 0 4.228-2.001 4.228-2.001v.872c0 .412.382.872.856.872h2.114V.338h-2.97v8.494s-1.314-2.028-4.228-2.028zm.529 2.77c2.594 0 3.955 2.327 3.955 4.311 0 2.21-1.615 4.31-3.95 4.31-1.95 0-3.905-1.612-3.905-4.339 0-2.462 1.682-4.281 3.9-4.281z"/><ellipse cx="74.243" cy="2.188" rx="1.964" ry="2.003"/><path d="M63.45 6.8c-3.301 0-6.927 2.512-6.927 7.062 0 4.147 3.088 7.056 6.92 7.056 4.72 0 7.026-3.87 7.026-7.03 0-3.876-2.969-7.088-7.02-7.088zm.01 2.828c2.283 0 3.985 1.875 3.985 4.243 0 2.409-1.807 4.268-3.978 4.268-2.015 0-3.974-1.673-3.974-4.228 0-2.597 1.863-4.283 3.967-4.283z"/></g><path d="M67.7 15.367l7.549-13.07a1.532 1.532 0 0 0-.555-2.089 1.514 1.514 0 0 0-2.08.555L64.966 14C59.131 11.337 52.563 9.852 45.5 9.852c-7.063 0-13.631 1.485-19.466 4.148L18.386.763a1.525 1.525 0 0 0-2.09-.555 1.524 1.524 0 0 0-.555 2.09l7.549 13.069C10.273 22.417 1.456 35.584 0 51h91c-1.456-15.416-10.273-28.584-23.3-35.633zm-43.093 22.86a3.815 3.815 0 0 1-3.814-3.811 3.815 3.815 0 0 1 7.628 0c.01 2.099-1.703 3.812-3.814 3.812zm41.776 0a3.815 3.815 0 0 1-3.814-3.811 3.815 3.815 0 0 1 7.628 0c.01 2.099-1.704 3.812-3.814 3.812z" fill="#32DE84"/></g></svg>