<svg xmlns="http://www.w3.org/2000/svg" viewBox="0 0 69.48 53.8"><title>ansible</title><g id="ansible"><polygon points="32.68 16.86 39.67 22.36 35.04 10.93 32.68 16.86" fill="#fff"/><path d="M52.64,17.9a17.9,17.9,0,1,0-17.9,17.9,17.89,17.89,0,0,0,17.9-17.9ZM42.08,26.8a1.49,1.49,0,0,1-1-.43L31.86,18.9l-3.1,7.76H26.09L33.91,7.85A1.18,1.18,0,0,1,35,7.1a1.15,1.15,0,0,1,1.11.75L43.27,25h0a1.61,1.61,0,0,1,.12.53A1.27,1.27,0,0,1,42.08,26.8Z" fill="#fff"/><path d="M20.18,53.51a.61.61,0,0,1-.52-.24l-5.93-7.8v8H12.37v-9.8a.7.7,0,0,1,.69-.7.61.61,0,0,1,.54.25L19.52,51V43h1.35v9.78a.68.68,0,0,1-.67.69h0M28,53.6a11.72,11.72,0,0,1-4.09-.78l.32-1.12a12.43,12.43,0,0,0,3.77.67c1.7,0,2.6-.61,2.6-1.47s-.7-1.17-3.08-2.29-3.32-1.84-3.32-3.25c0-1.76,1.35-2.48,3.91-2.48a15.06,15.06,0,0,1,3.62.5l-.21,1.16a14.82,14.82,0,0,0-3.38-.42c-1.8,0-2.54.34-2.54,1.2s.54,1.2,3.06,2.37S32,49.55,32,50.83c0,1.86-1.75,2.78-4,2.78m7-10.59h1.4V53.41h-1.4Zm10.74,5.56H42.32v3.53h3.47a1.77,1.77,0,1,0,0-3.53m-.67-4.49h-2.8v3.32h2.8a1.76,1.76,0,0,0,1.93-1.71c0-1-.7-1.61-1.93-1.61m.69,9.21H41.63a.71.71,0,0,1-.71-.71v-9a.72.72,0,0,1,.71-.71h3.46c2.12,0,3.38,1.05,3.38,2.69a2.62,2.62,0,0,1-1.33,2.2,2.66,2.66,0,0,1,2,2.53,3.09,3.09,0,0,1-3.32,3m7.4-.12a.71.71,0,0,1-.7-.7v-9.7h1.4v9.13h5.58v1.26ZM66,53.24c-2.86,0-4.58-1.06-4.58-3.2A2.6,2.6,0,0,1,63.1,47.6a2.59,2.59,0,0,1-1.35-2.23c0-1.93,1.49-2.85,4.3-2.85a15.79,15.79,0,0,1,3.36.36L69.26,44a20.67,20.67,0,0,0-3.32-.3c-1.82,0-2.78.5-2.78,1.7a1.88,1.88,0,0,0,2.07,1.7h2.4a.6.6,0,0,1,.6.59h0a.6.6,0,0,1-.6.61H65.05c-1.36,0-2.22.67-2.22,1.7,0,1.51,1.4,2,3.15,2a15.45,15.45,0,0,0,3.3-.37l.2,1.14a13.4,13.4,0,0,1-3.45.46M4.72,45.08l2.45,6.13-3.7-3Zm4.35,7.55L5.31,43.42a.64.64,0,0,0-1.19,0L0,53.8l1.4-.28L3,49.36l4.88,4a.82.82,0,0,0,.53.24.69.69,0,0,0,.69-.67v0a.89.89,0,0,0-.07-.28Z" fill="#fff"/></g></svg>