<svg viewBox="0 0 69.48 51.8" xmlns="http://www.w3.org/2000/svg"><g fill="#fff"><path d="m10.72 45.52.42.16a2.89 2.89 0 0 1 1.58 1.32 2.65 2.65 0 0 1 .29.93 3.19 3.19 0 0 1 -.32 1.94 3 3 0 0 1 -1.33 1.2 5.15 5.15 0 0 1 -1.83.5 34.39 34.39 0 0 1 -3.93.11h-1.17c-.14 0-.17 0-.17-.18v-11.45c0-.2 0-.2.2-.2h3.29c.64 0 1.28 0 1.92.12a4 4 0 0 1 1.91.7 2.61 2.61 0 0 1 1 1.45 2.91 2.91 0 0 1 -.09 1.93 2.25 2.25 0 0 1 -1 1.13c-.2.11-.41.19-.61.28zm-3.86 2.64v1.34c0 .11 0 .14.14.14h1.09a6.73 6.73 0 0 0 1.09-.12 1.26 1.26 0 0 0 1.13-1.12 1.34 1.34 0 0 0 -.72-1.4 2.28 2.28 0 0 0 -.92-.24c-.55 0-1.1 0-1.65 0-.12 0-.16 0-.16.16.01.36 0 .8 0 1.24zm0-4.89v1.3c0 .07 0 .12.1.12a9.19 9.19 0 0 0 2-.11 1.21 1.21 0 0 0 .89-.69 1.58 1.58 0 0 0 .09-1 1.1 1.1 0 0 0 -.69-.85 2.2 2.2 0 0 0 -.71-.19c-.51 0-1 0-1.55 0-.12 0-.16 0-.16.16.04.41.03.84.03 1.26z"/><path d="m23.4 47.81v-3.66c0-.14 0-.21.18-.24.67-.13 1.34-.31 2-.41a9.6 9.6 0 0 1 2.73-.07 3.4 3.4 0 0 1 1.54.55 2.13 2.13 0 0 1 .92 1.49 12.08 12.08 0 0 1 .1 1.35v4.66c0 .19 0 .19-.19.19h-2.15c-.14 0-.18 0-.18-.17 0-1.53 0-3.06 0-4.58a3.16 3.16 0 0 0 -.08-.76.85.85 0 0 0 -.89-.69 4.48 4.48 0 0 0 -1.32.11c-.1 0-.11.09-.11.18v5.74c0 .13 0 .18-.17.17h-2.21c-.15 0-.18-.05-.18-.18.01-1.23.01-2.49.01-3.68z"/><path d="m41.49 47.8c0-1.22 0-2.44 0-3.66 0-.14 0-.21.19-.23.67-.13 1.34-.31 2-.41a9.53 9.53 0 0 1 2.72-.07 3.29 3.29 0 0 1 1.6.57 2.12 2.12 0 0 1 .93 1.49 10.84 10.84 0 0 1 .07 1.25v4.75c0 .18 0 .18-.2.18h-2.16c-.19 0-.19 0-.19-.18 0-1.53 0-3.07 0-4.6a2.89 2.89 0 0 0 -.11-.84.9.9 0 0 0 -.88-.59 5.16 5.16 0 0 0 -1.3.12c-.12 0-.12.1-.12.19v4.5 1.24c0 .12 0 .17-.16.16h-2.22c-.14 0-.17 0-.17-.17.01-1.23 0-2.5 0-3.7z"/><path d="m15.13 46.07c0-.06 0-.11 0-.15v-1.64a.18.18 0 0 1 .13-.2 7.66 7.66 0 0 1 3.59-.7 3.44 3.44 0 0 1 1.54.38 1.61 1.61 0 0 1 .83 1.24 12.77 12.77 0 0 1 .08 1.38v4.91c0 .22 0 .22-.21.24l-1.57.2a4 4 0 0 1 -.49 0h-1.72a4.51 4.51 0 0 1 -1.41-.26 1.89 1.89 0 0 1 -1.28-1.7 2.82 2.82 0 0 1 .14-1.38 2.25 2.25 0 0 1 1.24-1.22 6.17 6.17 0 0 1 1.75-.5c.36-.06.73-.1 1.1-.15.1 0 .14-.05.14-.15s0-.36 0-.54a.46.46 0 0 0 -.41-.48 5 5 0 0 0 -.95 0 6.49 6.49 0 0 0 -2.39.72zm3.87 2.93v-.7c0-.12 0-.16-.15-.14-.31 0-.62.07-.92.14a3 3 0 0 0 -.75.28.71.71 0 0 0 -.34.82.64.64 0 0 0 .57.51 4.26 4.26 0 0 0 1.59-.05s.08-.08.08-.13c-.03-.24-.08-.47-.08-.73z"/><path d="m33.22 46.07v-.16c0-.54 0-1.09 0-1.63a.18.18 0 0 1 .12-.19 7.53 7.53 0 0 1 3.66-.71 3.35 3.35 0 0 1 1.51.38 1.55 1.55 0 0 1 .8 1.24 12.42 12.42 0 0 1 .09 1.36v4.93c0 .21 0 .21-.21.23l-1.54.19h-.33c-.64 0-1.28 0-1.92 0a4 4 0 0 1 -1.4-.26 1.9 1.9 0 0 1 -1.28-1.69 2.8 2.8 0 0 1 .15-1.38 2.21 2.21 0 0 1 1.23-1.21 6 6 0 0 1 1.75-.5l1.1-.15c.1 0 .14 0 .13-.14v-.38a.55.55 0 0 0 -.6-.64 6.4 6.4 0 0 0 -1.16.06 6.65 6.65 0 0 0 -2 .67zm3.92 3v-.77c0-.1 0-.14-.14-.12s-.46 0-.68.09a2.67 2.67 0 0 0 -1 .32.75.75 0 0 0 -.34.83.63.63 0 0 0 .56.51 4.31 4.31 0 0 0 1.52-.07s.07-.08.08-.13z"/><path d="m51.32 46.07c0-.06 0-.1 0-.14v-1.66a.19.19 0 0 1 .12-.19 7.75 7.75 0 0 1 3.61-.7 3.43 3.43 0 0 1 1.53.38 1.61 1.61 0 0 1 .83 1.24 10.64 10.64 0 0 1 .08 1.38v4.91c0 .22 0 .22-.22.24l-1.55.2h-.46-1.76a4.51 4.51 0 0 1 -1.41-.26 1.91 1.91 0 0 1 -1.28-1.7 2.94 2.94 0 0 1 .19-1.39 2.25 2.25 0 0 1 1.23-1.21 6.36 6.36 0 0 1 1.75-.5c.37-.06.73-.1 1.1-.14.11 0 .15-.06.14-.16s0-.36 0-.54a.46.46 0 0 0 -.4-.48 5.14 5.14 0 0 0 -1 0 6.55 6.55 0 0 0 -2.39.72zm3.92 3c0-.24 0-.47 0-.7s0-.17-.16-.15a9.28 9.28 0 0 0 -.92.15 3.44 3.44 0 0 0 -.76.27.73.73 0 0 0 -.33.83.65.65 0 0 0 .56.5 4.5 4.5 0 0 0 1.51-.06c.09 0 .1-.07.1-.14z"/><path d="m65.09 45.83-.53-.23a3.78 3.78 0 0 0 -2.1-.26 1.75 1.75 0 0 0 -.32.12.41.41 0 0 0 -.09.71 3 3 0 0 0 .58.33c.55.28 1.11.54 1.65.84a2.09 2.09 0 0 1 1 1.06 2.57 2.57 0 0 1 .13 1.13 2.37 2.37 0 0 1 -.46 1.27 2.4 2.4 0 0 1 -1.28.81 6 6 0 0 1 -2.85.12c-.42-.07-.82-.22-1.23-.33-.08 0-.15-.07-.15-.17 0-.61 0-1.22 0-1.83 0 0 0-.06 0-.11h.15a5.31 5.31 0 0 0 1.43.51 3.77 3.77 0 0 0 1.42 0h.14a.46.46 0 0 0 .33-.39.44.44 0 0 0 -.22-.43c-.3-.16-.61-.31-.92-.45a8.38 8.38 0 0 1 -1.41-.77 2.11 2.11 0 0 1 -.82-1 2.6 2.6 0 0 1 -.05-1.33 2.37 2.37 0 0 1 1.79-1.81 5.29 5.29 0 0 1 2.2-.18 5.94 5.94 0 0 1 1.44.35.25.25 0 0 1 .19.27v1.59z"/><path d="m23.7 23.27h.09a38.78 38.78 0 0 0 9.15-3.64c3.44-2 5.81-4.35 7-7.06l.59-1.29-1.05 1a19.57 19.57 0 0 1 -8.43 4.22 41.62 41.62 0 0 1 -10.2 1.15h-.85-.61a1.08 1.08 0 0 0 -1.08.73l-.24.7a1.06 1.06 0 0 0 .3 1.16l.54.48a15 15 0 0 0 4.72 2.62z"/><path d="m47.5 6.66a6.27 6.27 0 0 0 -2.58-.56h-.18c-.11-.41-.7-2.85-1.12-4.56a1.08 1.08 0 0 0 -1.75-.54l-1.95 1.58a1.26 1.26 0 0 0 -.25 1.7 24.35 24.35 0 0 1 2.83 5.28 11.57 11.57 0 0 1 .39 5.63 18.42 18.42 0 0 1 -4.79 9.16 36.7 36.7 0 0 1 -4.82 4.5c-.87.69-1.76 1.33-2.68 1.94-.1.06-1.19.7-2 1.1a1.08 1.08 0 0 0 -.57 1.16l.09.51a1.09 1.09 0 0 0 1 .9 27 27 0 0 0 7.3-.46 17.47 17.47 0 0 0 5.4-2.26 20.51 20.51 0 0 0 8.68-9.87 16.05 16.05 0 0 0 1.13-7 14.72 14.72 0 0 0 -1.24-5.18 5.73 5.73 0 0 0 -2.89-3.03z"/><path d="m21.91 27.86a10.64 10.64 0 0 0 2.2 1 17.61 17.61 0 0 0 5.05.82h.09l.08-.05c1.26-.85 2.45-1.73 3.55-2.62a35.84 35.84 0 0 0 3.66-3.41 24 24 0 0 0 2.61-3.34 16.5 16.5 0 0 0 1.63-3.26 11 11 0 0 0 .45-1.68c.11-.59.16-1.17.24-1.76 0-.12 0-.23 0-.35l-.73 1.24a19.06 19.06 0 0 1 -7.45 6.77 37.57 37.57 0 0 1 -7 3 26.67 26.67 0 0 1 -4 1 1.09 1.09 0 0 0 -.93 1.08v.69a1.12 1.12 0 0 0 .55.87z"/></g></svg>