<svg height="32" viewBox="0 0 257.785 63.677" width="129" xmlns="http://www.w3.org/2000/svg"><g fill="#fff"><path d="M59.209 36.13L41.585 4.087 39.337 0 37.86 4.431l-4.337 13.012h-6.571L22.614 4.431 21.137 0l-2.248 4.087L1.265 36.13 0 38.431l2.552.656.589.161.573.173.572.176.564.188.556.2.54.211.539.223.531.235.523.239.506.259.506.261.498.274.49.286.481.297.473.31.465.312.457.332.448.336.44.348.44.368.423.371.423.383.415.395.398.398.398.419.397.429.382.442.374.445.373.465.357.477.356.48.291.417 6.346 11.973.39.735.785.256.264.083.249.081.25.077.243.082.228.071.229.068.223.065.215.07.208.06.202.058.194.062.188.051.188.048.174.054.175.041.168.048.153.036.162.041.147.03.148.036.141.024.135.029.135.026.137.024.129.013.131.018.14.015.149.005h.142l.137-.001.137.001h.142l.149-.005.14-.015.131-.018.129-.013.137-.024.135-.026.135-.029.141-.024.148-.036.147-.03.162-.041.153-.036.168-.048.175-.041.173-.054.189-.048.188-.051.195-.062.201-.058.208-.06.215-.07.222-.065.229-.068.228-.071.243-.082.25-.077.249-.081.264-.083.786-.256.39-.735 6.347-11.974.29-.417.357-.48.356-.477.374-.465.374-.445.381-.442.398-.429.398-.419.398-.398.416-.395.423-.383.423-.371.44-.368.44-.348.448-.336.457-.332.465-.312.473-.31.481-.297.489-.286.499-.274.506-.261.506-.259.523-.239.531-.235.54-.223.54-.211.556-.2.564-.188.572-.176.573-.173.589-.161 2.552-.657zm-5.564.034l-.636.243-.62.255-.611.267-.603.287-.603.29-.586.31-.578.322-.57.333-.561.345-.553.357-.544.377-.537.38-.528.4-.52.412-.503.416-.503.435-.487.447-.479.459-.479.478-.462.482-.446.494-.446.506-.437.525-.421.529-.42.541-.405.56-.396.564-.062.092-.058.108-6.02 11.356-.171.05-.228.07-.213.068-.206.065-.199.055-.193.061-.185.057-.179.046-.171.051-.157.047-.158.038-.143.042-.136.031-.137.036-.114.025-.115.029-.1.021-.093.024-.086.014-.071.01-.05.008-.227-.056-.228.056-.049-.008-.072-.01-.086-.014-.093-.024-.1-.021-.116-.029-.114-.025-.137-.036-.136-.031-.143-.042-.158-.038-.157-.047-.172-.051-.178-.046-.186-.057-.192-.061-.2-.055-.206-.065-.213-.068-.229-.07-.171-.051-6.019-11.356-.058-.109-.062-.091-.396-.564-.404-.56-.42-.541-.421-.529-.437-.525-.446-.506-.446-.494-.462-.482-.479-.478-.479-.459-.487-.447-.503-.435-.503-.416-.52-.412-.528-.4-.537-.38-.545-.376-.553-.357-.561-.345-.57-.333-.578-.322-.586-.31-.603-.29-.603-.287-.611-.267-.619-.255-.637-.243-.635-.232-.133-.045 14.16-25.746 3.329 9.988.469 1.407h12.434l.469-1.407 3.329-9.988 14.161 25.746-.133.045z"/><path d="M26.115 37.904l-.014-.13-.024-.13-.032-.132-.041-.133-.047-.131-.057-.134-.063-.132-.071-.134-.078-.132-.084-.133-.093-.132-.098-.132-.105-.132-.113-.13-.117-.129-.123-.128-.13-.127-.136-.125-.141-.123-.147-.12-.152-.12-.158-.116-.163-.112-.168-.111-.172-.108-.176-.102-.176-.097-.175-.091-.177-.085-.175-.079-.176-.074-.174-.067-.174-.062-.172-.056-.171-.049-.169-.044-.167-.038-.165-.032-.162-.026-.16-.019-.157-.013-.154-.006-.149-.001-.147.005-.144.012-.139.02-.135.027-.131.032-.127.042-.121.048-.116.055-.109.065-.104.072-.097.081-.088.089-.08.097-.07.106-.06.112-.048.115-.037.12-.026.125-.016.124-.005.127.005.129.014.129.023.13.033.132.04.132.048.132.056.133.064.133.07.134.078.133.086.132.092.132.098.133.105.131.113.13.117.129.123.128.13.126.136.125.141.123.147.121.152.12.158.116.163.113.168.11.172.108.175.102.177.097.176.09.176.086.175.079.176.074.174.067.174.063.172.055.172.05.168.044.167.037.165.032.163.025.159.019.157.014.154.006.149.001.148-.006.142-.012.14-.02.135-.026.131-.032.127-.042.121-.048.116-.056.109-.064.103-.073.097-.08.089-.089.079-.098.07-.105.06-.111.048-.116.038-.12.026-.123.016-.126.004-.127zm15.329-2.76l-.016-.126-.027-.123-.037-.12-.048-.116-.06-.112-.071-.105-.081-.097-.088-.089-.097-.081-.104-.072-.11-.065-.116-.055-.121-.049-.127-.041-.131-.032-.136-.027-.14-.02-.143-.012-.148-.005-.15.001-.154.006-.158.013-.16.019-.162.026-.167.032-.167.038-.169.044-.172.049-.172.056-.174.061-.175.068-.176.074-.177.078-.176.085-.177.092-.176.097-.175.102-.173.108-.169.11-.163.113-.159.116-.152.118-.148.122-.142.123-.135.125-.131.127-.124.128-.117.129-.112.13-.106.132-.098.132-.092.132-.086.132-.078.133-.071.134-.064.132-.057.134-.047.131-.04.133-.033.132-.023.13-.014.13-.004.128.004.127.016.126.027.123.037.12.049.116.059.111.071.105.081.098.089.089.096.08.104.074.111.063.115.056.121.049.127.041.132.032.135.026.14.02.144.012.148.006.149-.001.155-.006.157-.014.161-.019.162-.025.166-.032.168-.037.169-.044.172-.05.172-.055.174-.062.175-.068.175-.074.178-.079.176-.084.177-.092.176-.097.175-.102.174-.108.168-.11.163-.113.159-.116.152-.119.148-.122.141-.122.135-.125.132-.127.123-.128.118-.129.111-.13.106-.131.099-.133.092-.132.086-.132.078-.133.071-.134.063-.133.057-.133.047-.132.041-.132.032-.132.023-.13.014-.131.004-.127zm60.232 4.54l-.016-.377-.028-.371-.037-.366-.051-.354-.06-.349-.072-.341-.083-.334-.096-.324-.106-.32-.119-.309-.129-.304-.143-.296-.153-.288-.166-.279-.176-.272-.187-.264-.2-.258-.21-.248-.221-.241-.231-.232-.242-.226-.255-.216-.263-.209-.276-.201-.284-.195-.295-.188-.305-.179-.272-.147.313-.2.306-.206.292-.214.282-.218.271-.227.258-.231.25-.236.237-.246.225-.25.213-.258.203-.262.191-.272.182-.276.168-.284.157-.291.145-.296.136-.302.122-.311.111-.315.101-.322.09-.329.079-.333.066-.341.058-.346.046-.353.036-.361.024-.367.014-.373.007-.377-.006-.322-.013-.319-.021-.314-.031-.311-.04-.309-.047-.303-.058-.301-.063-.295-.074-.292-.084-.288-.089-.282-.1-.279-.107-.275-.115-.268-.125-.266-.13-.258-.141-.256-.149-.249-.155-.244-.165-.239-.172-.233-.179-.228-.188-.22-.193-.215-.203-.209-.21-.204-.216-.199-.224-.19-.233-.185-.237-.179-.246-.17-.25-.167.002.002-.202-.125-.209-.117-.212-.113-.221-.105-.225-.101-.229-.097-.238-.092-.242-.086-.249-.081-.252-.075-.262-.073-.265-.067-.272-.063-.278-.059-.282-.055-.289-.052-.296-.048-.302-.042-.306-.041-.315-.035-.319-.032-.326-.033-.333-.025-.336-.023-.345-.02-.349-.017-.356-.014-.363-.011-.369-.009-.375-.005-.382-.004-.386-.003v.002H69.161V50.32H89.21l.755-.011.73-.027.708-.043.687-.064.662-.082.64-.1.616-.12.594-.141.572-.157.548-.181.524-.201.505-.221.479-.242.458-.265.434-.285.41-.309.385-.332.361-.35.337-.375.31-.396.287-.418.258-.438.233-.461.208-.479.182-.5.157-.518.134-.541.106-.559.084-.58.059-.599.034-.619.014-.639zm-23.885-3.945h10.391l.29.001.28.011.266.019.255.024.246.03.233.037.221.043.211.053.199.058.187.063.177.069.167.075.154.084.146.086.135.094.126.099.116.104.109.113.102.119.094.127.087.134.08.142.073.153.068.164.059.171.054.184.044.194.037.205.028.216.021.229.014.238.002.253h.002l-.004.253-.014.238-.021.228-.028.215-.037.203-.044.191-.054.182-.059.172-.065.16-.073.149-.08.141-.087.132-.092.123-.101.116-.109.11-.117.103-.125.098-.136.09-.145.084-.155.081-.165.073-.177.067-.189.064-.199.055-.211.048-.224.043-.232.038-.246.029-.255.023-.268.018-.28.01-.29.001H77.791zm0-14.383h10.288l.291.001.28.011.268.018.256.023.246.031.234.038.221.043.211.049.199.056.189.062.177.07.167.073.155.081.145.085.135.09.126.099.118.103.109.108.102.115.092.124.087.127.08.138.073.147.065.156.058.165.051.176.044.188.038.196.027.206.021.219.014.229.004.24-.004.241-.014.229-.021.22-.027.205-.038.196-.044.188-.051.176-.058.165-.065.156-.073.147-.08.138-.087.129-.092.121-.102.115-.109.108-.118.103-.126.099-.135.091-.145.084-.155.082-.167.073-.177.07-.189.062-.199.057-.211.048-.221.044-.234.038-.246.031-.256.023-.268.018-.28.011-.291.001H77.791zm63.5 9.513l-.05-1.133-.084-1.095-.118-1.061-.152-1.02-.188-.987-.224-.948-.258-.911-.293-.875-.332-.839-.368-.802-.404-.765-.441-.727-.478-.69-.516-.653-.553-.615-.59-.575-.626-.539-.664-.5-.699-.461-.737-.42-.771-.385-.807-.344-.843-.309-.877-.271-.914-.234-.948-.195-.985-.161-1.017-.124-1.057-.089-1.089-.052-1.126-.017-1.114.017-1.079.052-1.047.088-1.011.123-.976.16-.943.195-.912.232-.875.269-.839.304-.806.344-.771.379-.736.419-.701.454-.666.495-.631.529-.591.568-.557.606-.52.644-.485.68-.446.715-.409.751-.372.785-.335.824-.299.857-.264.894-.226.928-.193.964-.155.999-.121 1.033-.087 1.07-.051 1.106-.019 1.139.019 1.201.048 1.161.083 1.123.113 1.084.152 1.047.184 1.007.218.968.254.934.29.892.326.858.36.819.4.78.437.742.474.704.512.665.549.625.585.587.625.548.662.508.701.469.734.43.773.391.808.352.846.312.883.275.918.236.954.198.99.163 1.028.125 1.066.089 1.1.052 1.14.021v-.003l1.126-.018 1.089-.052 1.057-.089 1.02-.125.982-.162.948-.196.914-.235.88-.273.84-.311.807-.346.773-.387.734-.425.699-.464.664-.5.628-.542.59-.58.553-.618.516-.655.479-.692.438-.73.404-.767.368-.805.331-.839.293-.876.258-.912.224-.95.188-.987.152-1.021.118-1.062.084-1.094.05-1.134.02-1.17zm-25.243 9.69l-.242-.397-.226-.425-.21-.447-.192-.479-.176-.502-.16-.532-.142-.56-.125-.586-.11-.614-.093-.642-.075-.669-.057-.697-.042-.727-.025-.754-.006-.783.007-.727.027-.701.045-.677.062-.651.08-.628.096-.602.117-.579.131-.552.149-.529.167-.502.182-.478.2-.453.216-.429.233-.406.25-.38.265-.359.28-.335.298-.312.315-.291.332-.267.35-.249.367-.225.386-.207.402-.183.424-.164.445-.143.462-.12.486-.099.502-.08.526-.054.546-.035.568-.01.58.01.559.035.535.054.514.08.491.099.471.123.448.141.429.166.406.185.389.207.367.23.351.25.333.271.312.293.297.317.281.342.264.364.245.389.231.415.214.44.198.464.181.49.165.519.147.541.129.571.113.596.096.621.078.648.06.676.044.701.027.728.007.754-.007.754-.027.729-.044.702-.06.675-.078.649-.096.621-.113.595-.129.572-.147.543-.165.517-.181.489-.198.465-.214.44-.231.416-.245.389-.264.365-.281.342-.297.317-.312.293-.333.272-.351.252-.367.228-.389.207-.408.185-.427.165-.448.142-.471.123-.491.099-.514.08-.535.054-.559.036-.58.009-.592-.009-.565-.036-.541-.054-.519-.08-.495-.1-.471-.121-.451-.146-.429-.165-.406-.187-.386-.209-.367-.231-.347-.253-.327-.276-.311-.298-.292-.321-.276-.346zm54.756 2.708h-8.771v.003l-.288-.001-.28-.004-.276-.008-.265-.01-.262-.014-.255-.017-.249-.018-.241-.025-.235-.027-.231-.032-.225-.035-.218-.04-.213-.044-.206-.047-.2-.052-.197-.057-.191-.063-.185-.066-.18-.072-.176-.076-.171-.082-.168-.087-.163-.093-.158-.099-.155-.106-.155-.11-.147-.118-.148-.125-.142-.133-.14-.138-.14-.149-.13-.149.017.021-.022-.026.005.005-.007-.007-.092-.111-.084-.114-.079-.116-.077-.123-.069-.128-.068-.13-.062-.136-.057-.144-.054-.144-.051-.153-.047-.159-.042-.163-.042-.167-.034-.174-.032-.179-.03-.184-.028-.192-.023-.194-.022-.202-.016-.205-.017-.213-.013-.217-.013-.222-.008-.228-.009-.232-.005-.238-.005-.242-.003-.249-.002-.253-.002-.259-.001-.264.003-.27v-1.378h-.003V13.809h-8.627v21.596l.004.436.005.429.008.422.012.412.017.408.02.398.026.39.033.385.036.38.042.371.049.366.057.362.063.353.07.349.08.347.086.338.095.335.103.331.114.325.124.324.133.316.142.313.153.311.165.305.174.302.185.298.199.296.211.293.221.289.234.286.246.285.257.281.31.319.312.3.314.285.319.269.321.253.324.237.329.221.332.207.337.194.342.178.344.165.352.153.353.139.359.127.363.117.367.104.372.095.379.083.384.073.389.066.395.058.402.05.406.041.416.037.419.029.43.024.435.018.445.014.451.01.461.007.468.003.478.004h10.005v-7.054zm13.315-29.458h-8.377v36.512h8.971V13.809zm39.637 24.633l-.03-.672-.054-.646-.073-.621-.096-.597-.117-.57-.141-.549-.163-.525-.191-.502-.213-.477-.239-.454-.263-.432-.287-.406-.313-.384-.337-.361-.365-.335-.386-.31-.412-.285-.435-.263-.459-.239-.48-.216-.504-.194-.527-.173-.548-.151-.571-.131-.595-.112-.619-.093-.641-.075-.664-.059-.691-.039-.714-.024-.737-.009v.002h-9.85v-.002l-.272-.002-.261-.011-.25-.019-.24-.024-.229-.03-.221-.036-.209-.044-.2-.049-.192-.057-.18-.064-.168-.066-.16-.072-.151-.079-.141-.085-.129-.087-.124-.095-.115-.099-.107-.105-.099-.11-.092-.115-.082-.121-.078-.13-.071-.136-.064-.142-.058-.15-.048-.161-.044-.167-.035-.176-.03-.184-.019-.195-.014-.202-.001-.213.002-.275.016-.264.025-.251.033-.239.044-.225.052-.214.059-.203.07-.191.078-.181.087-.168.094-.162.105-.15.112-.142.12-.133.132-.129.14-.118.153-.112.163-.108.176-.097.189-.094.2-.086.212-.078.227-.073.238-.065.254-.058.264-.049.281-.043.291-.035.307-.026.319-.02.33-.013.348-.001v-.003h18.966v-7.497h-20.052l-.79.012-.766.028-.744.047-.718.068-.692.088-.669.11-.646.13-.621.151-.598.173-.573.196-.55.219-.527.243-.502.267-.476.29-.452.315-.427.342-.402.364-.376.389-.348.414-.323.441-.295.463-.268.487-.24.511-.216.535-.186.557-.164.582-.137.605-.11.629-.085.651-.061.676-.035.702-.014.723.013.67.033.651.056.627.08.605.105.586.126.564.152.543.176.522.202.502.228.479.25.458.279.436.304.416.329.391.354.369.379.344.405.324.428.299.455.276.476.254.499.232.524.209.545.187.569.166.594.143.616.125.639.106.661.085.687.066.71.045.735.027.759.011v-.002h8.771v.002l.322.001.308.008.298.014.284.021.27.025.26.032.246.038.233.043.22.05.206.056.196.061.183.07.17.072.156.08.15.085.132.093.125.096.117.104.106.11.099.118.09.127.084.137.078.146.067.159.064.17.053.184.047.197.041.209.029.226.023.239.015.253.004.271h-.002l-.002.259-.017.243-.023.228-.032.214-.044.2-.051.189-.056.173-.068.164-.074.151-.083.139-.09.133-.097.123-.108.115-.119.111-.128.101-.139.099-.151.089-.163.086-.179.081-.19.074-.202.068-.22.063-.23.056-.245.05-.259.042-.274.038-.286.033-.3.025-.314.02-.327.015-.34.008h-19.569v7.501h20.396l.785-.012.764-.028.737-.047.714-.067.69-.088.666-.11.642-.129.617-.15.596-.171.572-.194.547-.217.523-.24.5-.261.474-.287.451-.311.425-.336.402-.359.375-.383.347-.408.321-.429.294-.455.268-.477.239-.501.216-.524.189-.547.16-.569.136-.589.111-.615.088-.636.06-.658.034-.683.015-.703zm33.434-24.63h-31.189v7.343h11.435v29.166h8.87V21.155h11.479v-7.343z"/></g></svg>