<svg viewBox="0 0 280 378.65" xmlns="http://www.w3.org/2000/svg"><g fill="#FFE072"><path d="M133.46 228.65a5.12 5.12 0 0 0-3.11-3.43c-2.4-.95-4.9-.83-7.46-.79v54.54c1.33-.07 2.51-.13 3.69-.21 3.55-.21 6-2 6.92-5.41a44.91 44.91 0 0 0 1.62-8.64 172.36 172.36 0 0 0 0-27.92 47.64 47.64 0 0 0-1.66-8.14z"/><path d="M163.61 172.84a125.3 125.3 0 0 1-31.43-7.19c-10.07-3.54-18.76-.82-24.93 8a41.37 41.37 0 0 0-5.39 9.78c-3.57 10-10.68 15.74-20.2 18.77v109.07h127.47V164.76c-14.28 7.51-29.65 9.38-45.52 8.08zm3.77 37.22c2.63-1 10.29-1.06 12.92 0a8.51 8.51 0 0 1 5.54 8.19 8.37 8.37 0 0 1-5.59 8.36 48.22 48.22 0 0 1-6.48 1.55 53.32 53.32 0 0 1-6.42-1.56 8.32 8.32 0 0 1-5.6-8.33 8.48 8.48 0 0 1 5.63-8.21zm-11.88 61.72a45.56 45.56 0 0 1-3.23 8.31A18.59 18.59 0 0 1 138 290.38a96.5 96.5 0 0 1-12.9 1.38c-8.72.22-17.45.05-26.17.12-1.26 0-1.53-.37-1.5-1.54.07-3.43 0-6.85 0-10.28 0-1 .29-1.26 1.22-1.2s2.07 0 3.11 0c.68 0 .94-.25.88-.91v-.84-52.66h-4c-.84 0-1.21-.17-1.2-1.11v-10.88c0-.81.23-1.12 1.08-1.12 11.23.06 22.46 0 33.69.17a24.81 24.81 0 0 1 13.26 3.82c4.78 3.05 7.37 7.7 9.14 12.89a66.61 66.61 0 0 1 3.1 20.21c.17 7.88-.09 15.73-2.21 23.35zm32.25 20c-.43 0-.82.05-1.21.05-7.84 0-15.69 0-23.53.06-1 0-1.38-.24-1.36-1.32.07-3.82 0-7.64 0-11.6l3.1-.13v-32.9a14.94 14.94 0 0 1-2.22 0c-.3 0-.79-.44-.79-.69-.05-4 0-8 0-12h22.84v45.71h3.18z"/><path d="M280 138.34c-1.55 4.33-4.9 7.3-8 10.43-7.37 7.4-14.54 15-22.19 22.08-9.43 8.73-20.85 14-33.16 17.41a17.74 17.74 0 0 1-3.16.26 23.06 23.06 0 0 1 .59-2.75c1.81-5.16 3.58-10.34 5.56-15.44a3.77 3.77 0 0 1 2.49-2c2.62-.36 5.27-1.44 7.89.75 1.57 1.31 3.21.12 4.34-1.5a52 52 0 0 1 3.55-4.42c5-5.74 10.14-11.45 15.21-17.19.13-.15.12-.44.27-1.05-4.74 1.64-9.21 3.21-13.7 4.75-5.17 1.77-10.34 3.55-15.53 5.26a14.51 14.51 0 0 1-4.8 1.12c-4.54-.16-8.27 1.7-12.16 3.75-14.29 7.53-29.68 9.41-45.57 8.1a124.94 124.94 0 0 1-31.44-7.15c-10.06-3.54-18.75-.81-24.93 7.95a41.69 41.69 0 0 0-5.38 9.78c-3.88 10.77-11.79 16.54-22.42 19.38-6.38 1.7-12.74 3.47-19.1 5.23-1.33.37-2.65.83-4 1.31-7.58 2.8-12.57 7.71-13.73 16.09-.49 3.6-1.71 7.1-2.47 10.66a12.85 12.85 0 0 1-4.69 7.6c-9.25 7.38-19.8 12.13-31.12 15.32-2.19.61-2.85-.13-2.11-2.23 1.94-5.41 3.86-10.82 5.91-16.19a3.19 3.19 0 0 1 2.15-1.69c2.73-.32 5.43-1.39 8.18.75 1.78 1.38 3.71-.08 4.09-2.52a4.84 4.84 0 0 1 .56-2c5.62-7.84 7.63-17.25 11.37-25.91 1.17-2.71 2.26-5.46 3.58-8.09a9.52 9.52 0 0 1 7.28-5.28 33.27 33.27 0 0 0 9.38-2.74 11.33 11.33 0 0 0 6.39-10.52c0-6.86.22-13.73.42-20.59.11-3.72.38-7.43.58-11.38a26.34 26.34 0 0 1-5 1.69c-1.49.21-3.56.23-4.5-.63-1.51-1.39-.66-3.42.48-5 3.18-4.35 7.7-6.89 12.43-9.2a12 12 0 0 0 4.34-3.38c5.32-7.25 13.12-10.7 21.05-13.81 12.57-4.91 25.71-5.85 39-5 9.39.62 18.78 1.42 28-1.29a80.07 80.07 0 0 0 11.85-4.61c9.55-4.6 14-12.57 14.57-23a47.38 47.38 0 0 0-3.42-20.8 45.4 45.4 0 0 1-3.12-16.3c0-.85-.07-1.69-.13-2.93-9.57 2.52-17.76-.54-25.9-5.83 8.75-3.79 16.71-9.08 26.7-6.49.6.16 1.35-.29 2-.46a6.63 6.63 0 0 0-1-1.85 39.13 39.13 0 0 0-23.26-9.47 156.42 156.42 0 0 0-16.91.1c-8.87.3-17.66 0-25.62-4.43-2.73-1.52-5-3.89-7.3-6.12a8 8 0 0 1-1.73-3.72c-.6-2.53.83-3.74 3.21-2.75a10.45 10.45 0 0 1 3.49 2.2c4.64 4.78 10.58 6.33 16.9 6.05 8.5-.37 17-1 25.45-2.07a51.74 51.74 0 0 1 36.9 8.81 3.8 3.8 0 0 0 2.5.83c9.06-2.17 18.27-2.25 27.49-2.16 7.66.07 15.3.32 23 .51a18.31 18.31 0 0 1 2.34.2c6.79.91 6.56 5.26 4.66 9.88a12.44 12.44 0 0 0-1.13 3.84c-.09 1.7-.73 2.54-2.38 2.83a18.55 18.55 0 0 0-12.83 8.42c-1.85 2.73-5.44 4.48-8.53 6.16-6.37 3.47-8.37 8.69-5.12 15.17 1.79 3.57 4 6.93 6 10.39a78.65 78.65 0 0 1 9.65 54.26 9 9 0 0 0 0 1.32c4 0 8 .09 12 0 7.74-.21 15.47-.43 23.2-.83 4.86-.24 8.73 1 10.66 5.87zM70.66 359.17h-8.37V347.8h23.27v29.76H73.33v-7.33a37.1 37.1 0 0 1-2.8 3.61A16 16 0 0 1 59 378.65a27.9 27.9 0 0 1-12.7-2.44 20.84 20.84 0 0 1-11-12.07c-3.57-9.73-3.95-19.62-.33-29.39 3.43-9.22 10.38-14.31 20.06-15.71a34.22 34.22 0 0 1 13.22.59c6.87 1.71 11.41 6.12 14.17 12.48.74 1.72 1.3 3.51 2 5.38l-14.44 4c-.3-.82-.53-1.58-.86-2.29a27.46 27.46 0 0 0-1.47-3 9.61 9.61 0 0 0-14.49-2.33 12.44 12.44 0 0 0-4 7.24 32.58 32.58 0 0 0 .6 16.69c1.07 3.45 3.05 6.25 6.6 7.56 4.56 1.69 11 .81 13.94-5.36.13-.22.21-.45.36-.83zM91 342.04a23.9 23.9 0 0 1 6.24-4.17 35.46 35.46 0 0 1 18.22-3 23.17 23.17 0 0 1 6.21 1.37c4.61 1.73 6.91 5.45 7.77 10.12a32.84 32.84 0 0 1 .52 5.51c.07 5.91 0 11.83.07 17.75a23.24 23.24 0 0 0 1.13 8H116.5c-.55 0-.83-.12-.92-.7-.28-1.67-.59-3.33-.9-5-.55.58-1.1 1.22-1.72 1.79a16.18 16.18 0 0 1-15.78 4.08c-5-1.24-8-5.47-8.21-10.67-.19-6.61 3.32-10.66 9-13.26a38.91 38.91 0 0 1 12.19-3c1.53-.16 3.06-.27 4.58-.4.53-2.05-.76-3.79-3.08-4a17.89 17.89 0 0 0-10 2c-1.47.72-2.86 1.61-4.38 2.48zm23.86 16.38a19.66 19.66 0 0 0-7.73 1.36 6.7 6.7 0 0 0-1.78 1.15 3.63 3.63 0 0 0-1.08 3.8 2.51 2.51 0 0 0 2.3 1.89 10.5 10.5 0 0 0 7.88-2 1 1 0 0 0 .39-.6c.06-1.83.05-3.67.05-5.6zm72.4 2.6c.41 4.32 2.76 6.56 7 6.84a20.54 20.54 0 0 0 9.61-1.94c1.27-.55 2.5-1.2 3.8-1.83 1.84 3.11 3.68 6.21 5.63 9.52-1.86.87-3.62 1.88-5.5 2.56a36.05 36.05 0 0 1-22.46 1.09c-7.53-2.11-11.77-7.3-13.12-14.91a28.5 28.5 0 0 1 .38-12.53 19 19 0 0 1 10.75-12.73 25 25 0 0 1 17.07-1.58c6.52 1.64 10.36 6.05 12.25 12.33a40.71 40.71 0 0 1 1.33 13.18zm13-8.85c-.06-4.1-2.5-6.59-6.39-6.62a6.62 6.62 0 0 0-6.35 6.62z"/><path d="M170.63 340.44l-5.67 8.5c-2.54-1.08-5-2.22-7.44-3.14a12.63 12.63 0 0 0-6.61-.81 6 6 0 0 0-1.39.4 2.22 2.22 0 0 0-1.39 2.08 1.91 1.91 0 0 0 1.27 1.95 44.06 44.06 0 0 0 4.51 1.2c3.11.66 6.23 1.24 9.34 1.9a9.78 9.78 0 0 1 2 .77c5.46 2.56 7.14 6.72 6.54 12.16-.74 6.63-4.91 10.22-11 12a34.34 34.34 0 0 1-12.69.85 33 33 0 0 1-13.17-3.82c-1.09-.6-2.12-1.3-3.21-2l5.76-8.78a23.44 23.44 0 0 0 6.71 3.56 22.73 22.73 0 0 0 9.79 1.45 7 7 0 0 0 2.05-.55 2.22 2.22 0 0 0 1.51-2.08 2.18 2.18 0 0 0-1.41-2.23 22.36 22.36 0 0 0-3.92-1.09 54.66 54.66 0 0 1-9.82-2.09c-3.37-1.24-6.24-3.11-7.63-6.6-2.18-5.46-1.23-14.05 7.28-17.66a25.22 25.22 0 0 1 11.3-1.65 30.5 30.5 0 0 1 12.52 2.89c1.61.85 3.14 1.84 4.77 2.79zm62.28 37.21h-15.38v-57.87h15.38zm21.53 0h-15.39v-57.88h15.39z"/></g></svg>