<svg width="165" height="58" xmlns="http://www.w3.org/2000/svg"><g fill-rule="evenodd"><path d="M9.628 28.384c-.029 5.403 3.938 8.624 10.27 7.16v-14.32c-6.412-1.95-10.244 1.995-10.27 7.16M20.09.52h8.72v41.215c-8.359 1.365-16.363 2.23-22.09-.967-7.373-4.117-7.966-17.2-2.131-23.027 2.958-2.954 8.913-5.033 15.307-3.676V1.1c-.016-.275-.032-.549.194-.581"/><path d="M42.9552031 9.61431068L34.2357774 9.61431068 34.2357774 0.519884318 42.9552031 0.519884318 42.9552031 9.61431068z"/><path d="M147.588 35.93c9.506 3.689 10.558-16.99.97-15.093-5.955 1.179-5.764 13.233-.97 15.093m.388-22.252c7.259-.775 12.735 2.424 14.92 7.353 3.728 8.41-.205 18.06-6.2 20.898-3.108 1.47-6.362 1.61-9.301 1.354-9.086-.791-14.817-10.038-11.626-20.317.5-1.61 1.06-2.593 1.356-3.096 1.975-3.354 5.31-5.6 10.851-6.192M54.969 32.64c-2.412 4.047 3.648 5.017 7.556 3.87v-5.999c-3.003.419-6.422.224-7.556 2.129m15.307 9.481c-7.203.414-18.149 2.864-22.09-1.935-2.314-2.82-2.065-8.197 0-10.836 2.67-3.409 8.499-4.152 13.758-4.644.478-1.174.156-3.084-.387-3.87-4.811-1.224-9.59.672-12.982 2.128v-6.772c5.122-2.35 16.988-4.825 20.539.58 1.864 2.84 1.162 7.792 1.162 12.191v13.158zm30.615.387h-8.72V31.286c0-3.695.6-8.38-1.356-9.868-1.531-1.166-5.164-.581-7.363 0v21.091h-8.72V15.613c8.914-2.312 25.004-4.791 26.16 6.385.569 5.51-.423 13.778 0 20.511m12.981-9.288c1.468 2.37 5.44 3.26 8.72 1.742-.18-4.529-.243-9.174-.194-13.932-7.536-1.988-12.026 6.535-8.526 12.19M135.77 14.84c-.776 2.321-1.912 4.282-2.907 6.386-.898.2-1.677-.357-2.131 0-.199 9.432 2.011 22.218-1.744 29.024-2.261 4.098-6.424 6.726-12.789 7.16-4.636.315-8.234-.441-11.625-1.742V47.54c3.977 2.32 14.028 4.21 16.857-.58.833-1.41.78-2.867 1.163-5.031-1.822.095-3.59.938-5.813.967-9.138.121-14.792-7.145-12.595-17.221.85-3.898 3.137-7.036 6.2-8.901 6.364-3.873 16.146-3.58 25.384-1.935m-92.814-.62c-.01 6.412-.008 11.02-.009 18.81-.37 7.655-.284 13.75-3.09 17.413-.554.723-1.73 1.776-2.714 2.516-.826.621-2.4 1.88-3.294 1.935-.9.055-3.215-1.249-4.263-1.741-1.375-.647-2.647-1.507-4.069-1.935 3.317-2.053 6.465-3.592 7.75-7.74 1.119-3.608.97-8.837.97-13.932 0-5.032.022-10.881.022-15.323l8.697-.003z"/></g></svg>