<svg height="37" width="166" xmlns="http://www.w3.org/2000/svg"><g fill="none" fill-rule="evenodd" transform="translate(1 1)"><g stroke-linecap="round" stroke-linejoin="round" stroke-width="2"><path d="m6.785 0c3.747 0 6.784 3.06 6.784 6.836 0 3.775-3.037 6.836-6.784 6.836-3.748 0-6.785-3.06-6.785-6.836s3.037-6.836 6.785-6.836zm9.77 13.672c2.547 0 4.613 2.081 4.613 4.648 0 2.568-2.066 4.649-4.614 4.649s-4.613-2.081-4.613-4.649c0-2.567 2.065-4.648 4.613-4.648zm0 12.031c2.547 0 4.613 2.081 4.613 4.649 0 2.567-2.066 4.648-4.614 4.648s-4.613-2.081-4.613-4.648c0-2.568 2.065-4.649 4.613-4.649z" stroke="#2088ff"/><path d="m30.123 25.703c2.548 0 4.614 2.081 4.614 4.649 0 2.567-2.066 4.648-4.614 4.648s-4.613-2.081-4.613-4.648c0-2.568 2.065-4.649 4.613-4.649z" stroke="#79b8ff"/><path d="m17.9111842 17.5-2.1919542 2.1875-1.0646247-1.0601" stroke="#2088ff"/><path d="m30.123 13.672c2.548 0 4.614 2.081 4.614 4.648 0 2.568-2.066 4.649-4.614 4.649s-4.613-2.081-4.613-4.649c0-2.567 2.065-4.648 4.613-4.648z" stroke="#2088ff"/><path d="m32.0230263 17.5-2.1919542 2.1875-1.0646247-1.0601" stroke="#2088ff"/><path d="m4.885 4.546c0-.564.661-.907 1.17-.606l3.901 2.308a.694.694 0 0 1 -.004 1.215l-3.902 2.272c-.508.296-1.165-.047-1.165-.609zm1.628 9.126v11.558c0 2.979 2.371 5.394 5.224 5.394h.747" stroke="#2088ff"/></g><path d="m12.263 19.14a.775.775 0 0 0 .763-.785.775.775 0 0 0 -.763-.785zm-6.835-5.468c0 3.02 2.381 5.469 5.32 5.469v-1.57c-2.095 0-3.793-1.746-3.793-3.9h-1.527zm5.32 5.469h1.515v-1.57h-1.516v1.57z" fill="#2088ff" fill-rule="nonzero"/><path d="m21.168 18.047h4.342" stroke="#2088ff" stroke-linecap="round" stroke-linejoin="round" stroke-width="2"/><path d="m14.926 29.531c.45 0 .814.368.814.82 0 .454-.365.82-.814.82a.817.817 0 0 1 -.814-.82c0-.452.365-.82.814-.82zm3.257 0c.449 0 .814.368.814.82 0 .454-.365.82-.814.82a.817.817 0 0 1 -.815-.82c0-.452.365-.82.815-.82z" fill="#79b8ff"/><path d="m25.51 30.607-1.086.036" stroke="#79b8ff" stroke-linecap="round" stroke-width="2"/><path d="m53.326 24.857c2.51 0 4.3-1.692 4.3-3.922v-2.401h-4.426v1.299h2.985v1.128c0 1.512-1.153 2.555-2.849 2.555-2.06 0-3.163-1.436-3.163-3.965v-1.726c0-2.384 1.153-3.786 3.12-3.786 1.603 0 2.655.923 2.842 2.461h1.465c-.153-2.264-1.84-3.802-4.308-3.802-2.875 0-4.597 1.948-4.597 5.127v1.726c0 3.384 1.62 5.306 4.63 5.306zm7.71-10.459a.935.935 0 1 0 0-1.871.928.928 0 0 0 -.933.94c0 .521.415.931.932.931zm.729 10.211v-8.98h-1.459v8.98zm6.148.077c.306 0 .611-.034.738-.06v-1.179c-.119.017-.229.017-.373.017-1.094 0-1.45-.273-1.45-1.35v-5.254h1.764v-1.23h-1.764v-2.24h-1.45v2.24h-1.205v1.23h1.196v5.238c0 1.769.433 2.59 2.544 2.59zm4.699-.077v-5.374h5.826v5.374h1.484v-11.663h-1.484v4.964h-5.826v-4.964h-1.484v11.663zm13.374.146c1.425 0 2.264-.616 2.578-1.325h.06v1.18h1.45v-8.981h-1.468v5.562c0 1.427-.899 2.24-2.18 2.24-1.17 0-2.128-.54-2.128-2.214v-5.588h-1.467v6.007c0 2.06 1.315 3.119 3.155 3.119zm11.177 0c2.146 0 3.554-1.607 3.554-4.204v-.872c0-2.7-1.459-4.187-3.537-4.187-1.128 0-2.162.59-2.62 1.367h-.043v-4.529h-1.457v12.28h1.4v-1.35h.041c.526.922 1.391 1.495 2.663 1.495zm-.178-1.282c-1.56 0-2.485-1.068-2.485-3.016v-.693c0-1.948.933-2.99 2.485-2.99 1.332 0 2.265 1.05 2.265 2.99v.71c0 1.922-.925 2.999-2.265 2.999zm10.635 1.136 1.17-3.503h4.309l1.17 3.503h1.56l-4.121-11.663h-1.51l-4.121 11.663zm5.08-4.708h-3.51l1.738-5.195h.042zm8.345 4.854c2.044 0 3.163-1.077 3.46-2.615h-1.433c-.161.718-.814 1.316-1.925 1.316-1.425 0-2.34-1.162-2.34-2.923v-.837c0-1.811.856-2.914 2.331-2.914.967 0 1.671.692 1.866 1.453h1.433c-.076-1.376-1.331-2.752-3.392-2.752-2.323 0-3.697 1.735-3.697 4.153v.889c0 2.392 1.331 4.23 3.697 4.23zm9.193-.069c.306 0 .61-.034.738-.06v-1.179c-.119.017-.229.017-.373.017-1.094 0-1.45-.273-1.45-1.35v-5.254h1.764v-1.23h-1.764v-2.24h-1.45v2.24h-1.205v1.23h1.196v5.238c0 1.769.433 2.59 2.544 2.59zm4.097-10.288a.935.935 0 1 0 0-1.871.928.928 0 0 0 -.933.94c0 .521.415.931.933.931zm.729 10.211v-8.98h-1.459v8.98zm6.53.146c2.502 0 3.816-1.812 3.816-4.247v-.803c0-2.402-1.323-4.222-3.816-4.222s-3.833 1.82-3.833 4.222v.803c0 2.435 1.331 4.247 3.833 4.247zm0-1.274c-1.535 0-2.375-1.196-2.375-3.024v-.701c0-1.837.84-3.016 2.375-3.016 1.527 0 2.358 1.179 2.358 3.016v.7c0 1.838-.831 3.025-2.358 3.025zm7.887 1.128v-5.468c0-1.23.662-2.325 2.197-2.325 1.297 0 2.18.77 2.18 2.282v5.511h1.458v-5.759c0-2.187-1.366-3.367-3.197-3.367-1.45 0-2.273.76-2.604 1.333h-.042v-1.186h-1.45v8.98h1.458zm11.466.146c2.095 0 3.528-1.009 3.528-2.795 0-1.751-1.408-2.204-3.078-2.503-1.018-.188-2.197-.402-2.197-1.41 0-.889.763-1.359 1.823-1.359 1.391 0 1.815.803 1.866 1.487h1.357c0-1.487-1.077-2.692-3.172-2.692-1.713 0-3.299.82-3.299 2.718 0 1.623 1.366 2.136 3.028 2.478 1.247.248 2.239.444 2.239 1.46 0 .761-.62 1.41-1.985 1.41-1.187 0-1.882-.538-2.01-1.358h-1.424c0 1.615 1.365 2.564 3.324 2.564z" fill="#6a737d" fill-rule="nonzero"/></g></svg>