<svg xmlns="http://www.w3.org/2000/svg" viewBox="0 0 109.7 24"><path d="M106.9 5.3h2.8v1.4h-2.8v9.4c0 1.1.2 1.7 1.4 1.8.5 0 1 0 1.5-.1v1.5h-1.5c-2.3 0-3-.8-3-3.1V6.7h-2.4V5.3h2.4V1.2h1.7l-.1 4.1m-15.5 7c0 3 1.6 5.9 4.9 5.9s4.9-3 4.9-5.9-1.6-5.9-4.9-5.9-4.9 2.9-4.9 5.9m11.4 0c0 4-2.3 7.3-6.6 7.3s-6.6-3.4-6.6-7.3S91.9 5 96.2 5s6.6 3.3 6.6 7.3zM86.5 9.7c-.2-2-1.9-3.4-3.9-3.3-3.2 0-4.9 3-4.9 5.9s1.6 5.9 4.9 5.9c2.2-.1 3.9-1.8 4-4h1.7c-.5 3.3-2.6 5.4-5.7 5.4-4.3 0-6.6-3.4-6.6-7.3S78.3 5 82.6 5c3 0 5.2 1.6 5.6 4.8l-1.7-.1M72.5 0h1.7v2.7h-1.7V0zm0 5.3h1.7v13.9h-1.7V5.3zm-8.5 0h1.6v3.3h.1c.8-2.2 2.9-3.6 5.2-3.4v1.7c-2.6-.2-5 1.8-5.2 4.4v8H64v-14m-4.8 0H62v1.4h-2.8v9.4c0 1.1.2 1.7 1.4 1.8.5 0 1 0 1.5-.1v1.5h-1.5c-2.3 0-3-.8-3-3.1V6.7h-2.4V5.3h2.4V1.2h1.7l-.1 4.1m-10 7.7c-.7.3-1.4.5-2.1.7-1.2.3-1.8.6-1.8 1.5.1.8.8 1.4 1.6 1.3 1.2.1 2.1-.8 2.2-2v-.2l.1-1.3m5 3.1c-.1 1.1.1 2.2.6 3.1h-5.4c-.1-.4-.2-.9-.2-1.3h-.1c-1.2 1.2-2.8 1.8-4.4 1.6-2.7 0-4.9-1.3-4.9-4.2 0-4.4 5.1-4.2 7.8-4.7.7-.1 1.4-.3 1.4-1.2s-.9-1.3-1.7-1.3c-1.6 0-1.9.8-2 1.4h-4.9c.4-3.8 4.1-4.5 7.3-4.5 6.6 0 6.5 2.7 6.5 5.4v5.7zM24.3 5.4h5.1v1.8h.1c1-1.4 2.7-2.2 4.5-2.1 2.5-.2 4.6 1.7 4.7 4.1v10h-5.3V12c0-1.6-.2-2.7-1.7-2.7-.9 0-2.1.5-2.1 2.7v7.3h-5.3V5.4M17 .2h5.3v3.7H17V.2zm0 5.2h5.3v13.8H17V5.4zM7.6 15c1.9 0 2.2-1.9 2.2-3.4s-.7-2.7-2.3-2.7-2.3 1.3-2.3 2.7.5 3.4 2.4 3.4m7.3 2.4c0 2.7-.7 6.6-7.2 6.6-3.3 0-6.7-.9-7.2-4.6h5.2c.1.2.2.3.3.5.3.6.9.9 1.5 1 1.7 0 2.1-2 2.1-3.2v-1.2c-.8 1.2-2.2 2-3.7 2-4.1 0-5.9-3.1-5.9-6.8S2 5 6 5c1.5-.1 2.9.7 3.6 2V5.4h5.3v12z"/></svg>