<?xml version="1.0" encoding="utf-8"?>
<!-- Generator: Adobe Illustrator 25.1.0, SVG Export Plug-In . SVG Version: 6.00 Build 0)  -->
<svg version="1.1" id="Layer_1" focusable="false" xmlns="http://www.w3.org/2000/svg" xmlns:xlink="http://www.w3.org/1999/xlink"
	 x="0px" y="0px" viewBox="0 0 109.7 24" style="enable-background:new 0 0 109.7 24;" xml:space="preserve">
<path d="M106.9,5.3h2.8v1.4h-2.8v9.4c0,1.1,0.2,1.7,1.4,1.8c0.5,0,1,0,1.5-0.1v1.5c-0.5,0-1,0-1.5,0c-2.3,0-3-0.8-3-3.1V6.7h-2.4
	V5.3h2.4V1.2h1.7L106.9,5.3"/>
<path d="M91.4,12.3c0,3,1.6,5.9,4.9,5.9s4.9-3,4.9-5.9s-1.6-5.9-4.9-5.9S91.4,9.3,91.4,12.3 M102.8,12.3c0,4-2.3,7.3-6.6,7.3
	s-6.6-3.4-6.6-7.3s2.3-7.3,6.6-7.3S102.8,8.3,102.8,12.3z"/>
<path d="M86.5,9.7c-0.2-2-1.9-3.4-3.9-3.3c-3.2,0-4.9,3-4.9,5.9s1.6,5.9,4.9,5.9c2.2-0.1,3.9-1.8,4-4h1.7c-0.5,3.3-2.6,5.4-5.7,5.4
	c-4.3,0-6.6-3.4-6.6-7.3s2.3-7.3,6.6-7.3c3,0,5.2,1.6,5.6,4.8L86.5,9.7"/>
<path d="M72.5,0h1.7v2.7h-1.7V0z M72.5,5.3h1.7v13.9h-1.7V5.3z"/>
<path d="M64,5.3h1.6v3.3h0.1c0.8-2.2,2.9-3.6,5.2-3.4v1.7c-2.6-0.2-5,1.8-5.2,4.4c0,0,0,0,0,0c0,0.2,0,0.4,0,0.6v7.4H64V5.3"/>
<path d="M59.2,5.3h2.8v1.4h-2.8v9.4c0,1.1,0.2,1.7,1.4,1.8c0.5,0,1,0,1.5-0.1v1.5c-0.5,0-1,0-1.5,0c-2.3,0-3-0.8-3-3.1V6.7h-2.4V5.3
	h2.4V1.2h1.7L59.2,5.3"/>
<path d="M49.2,13c-0.7,0.3-1.4,0.5-2.1,0.7c-1.2,0.3-1.8,0.6-1.8,1.5c0.1,0.8,0.8,1.4,1.6,1.3c1.2,0.1,2.1-0.8,2.2-2
	c0-0.1,0-0.1,0-0.2L49.2,13 M54.2,16.1c-0.1,1.1,0.1,2.2,0.6,3.1h-5.4c-0.1-0.4-0.2-0.9-0.2-1.3h-0.1c-1.2,1.2-2.8,1.8-4.4,1.6
	c-2.7,0-4.9-1.3-4.9-4.2c0-4.4,5.1-4.2,7.8-4.7c0.7-0.1,1.4-0.3,1.4-1.2s-0.9-1.3-1.7-1.3c-1.6,0-1.9,0.8-2,1.4h-4.9
	C40.8,5.7,44.5,5,47.7,5c6.6,0,6.5,2.7,6.5,5.4L54.2,16.1z"/>
<path d="M24.3,5.4h5.1v1.8h0.1c1-1.4,2.7-2.2,4.5-2.1c2.5-0.2,4.6,1.7,4.7,4.1c0,0.2,0,0.4,0,0.5v9.5h-5.3V12c0-1.6-0.2-2.7-1.7-2.7
	c-0.9,0-2.1,0.5-2.1,2.7v7.3h-5.3V5.4"/>
<path d="M17,0.2h5.3v3.7H17V0.2z M17,5.4h5.3v13.8H17V5.4z"/>
<path d="M7.6,15c1.9,0,2.2-1.9,2.2-3.4S9.1,8.9,7.5,8.9s-2.3,1.3-2.3,2.7S5.7,15,7.6,15 M14.9,17.4c0,2.7-0.7,6.6-7.2,6.6
	c-3.3,0-6.7-0.9-7.2-4.6h5.2c0.1,0.2,0.2,0.3,0.3,0.5c0.3,0.6,0.9,0.9,1.5,1c1.7,0,2.1-2,2.1-3.2v-1.2H9.6c-0.8,1.2-2.2,2-3.7,2
	c-4.1,0-5.9-3.1-5.9-6.8S2,5,6,5c1.5-0.1,2.9,0.7,3.6,2h0V5.4h5.3L14.9,17.4z"/>
</svg>
