<svg viewBox="0 0 463.3 164" xmlns="http://www.w3.org/2000/svg"><g fill="#fff"><circle cx="19" cy="19" r="19"/><path d="M192.8 104.5c0-16.6 13.1-30 29.2-30 7.3 0 13.9 2.7 19 7.2l21.7 4.4 7.9-13.2c-10.2-16.5-28.1-27.4-48.6-27.4-31.8 0-57.5 26.4-57.5 59 0 12.7 3.9 24.5 10.6 34.2l4.4-20.8 16.7.7c-2.2-4.2-3.4-9-3.4-14.1z"/><path d="M175.4 139.9l-.7-1c-7-10.1-10.7-22-10.7-34.5 0-32.8 26-59.5 58-59.5 20 0 38.3 10.3 49 27.7l.2.3-8.2 13.8-22.1-4.5-.1-.1c-5.2-4.6-11.9-7.1-18.7-7.1-15.8 0-28.7 13.2-28.7 29.5 0 4.8 1.2 9.6 3.3 13.8l.4.8-17.1-.7zM222 46c-31.4 0-57 26.2-57 58.5 0 11.8 3.4 23.2 9.9 32.9l4.2-20 16.2.6c-2-4.2-3.1-8.8-3.1-13.5 0-16.8 13.3-30.5 29.7-30.5 7.1 0 13.9 2.6 19.3 7.3l21.2 4.3 7.5-12.7C259.4 56.1 241.5 46 222 46z"/><path d="M266 98.9l-16.4-4.4c1.1 3.1 1.7 6.5 1.7 10 0 16.6-13.1 30-29.2 30-6.3 0-12.2-2.1-17-5.6h-18.3l-3.9 18.7c10.3 9.8 24.1 15.9 39.2 15.9 31.8 0 57.5-26.4 57.5-59 0-7.6-1.4-14.9-4-21.6z"/><path d="M222 164c-14.7 0-28.8-5.7-39.6-16l-.2-.2 4.1-19.4h18.9l.1.1c4.9 3.6 10.6 5.5 16.7 5.5 15.8 0 28.7-13.2 28.7-29.5 0-3.4-.6-6.7-1.6-9.8l-.3-.9 16.9 4.6 9.9-16.6.4 1c2.7 7 4 14.3 4 21.8 0 32.7-26 59.4-58 59.4zm-38.7-16.5c10.6 10 24.3 15.5 38.7 15.5 31.4 0 57-26.2 57-58.5 0-7-1.2-13.9-3.6-20.5l-9.2 15.5-15.9-4.3c.9 3 1.4 6.1 1.4 9.3 0 16.8-13.3 30.5-29.7 30.5-6.2 0-12.1-1.9-17.1-5.6h-17.8zm-59.4-55.8c0-.1-34.4-.2-34.4-.2-3.4-.3-6-3.1-6-6.5s2.6-6.2 6-6.5h34.4l11.6-13-16.4-16H89c-19.6 0-35.5 15.9-35.5 35.5 0 18.6 14.3 33.9 32.5 35.4l34.5.1c3.3 0 6 2.7 6 6s-2.7 6-6 6l-34.4.2h-6.8l-14.8 14.8 14.4 14h41.6c19.3 0 35-15.7 35-35 0-18.2-13.9-33.1-31.6-34.8z"/><path d="M120.5 162H78.7l-14.9-14.5L79 132.2h7v.1c1.2-.1 6.8-.2 34.4-.3 3 0 5.5-2.5 5.5-5.5s-2.5-5.5-5.5-5.5c-27.9-.1-33.3-.1-34.5-.2v.1c-18.5-1.5-33-17.3-33-35.9 0-19.9 16.1-36 36-36h30.3l16.9 16.5-12 13.5H89.5c-3.1.2-5.5 2.9-5.5 6s2.4 5.7 5.5 6h.3c27.5.1 32.9.1 34 .2v-.1c18.3 1.7 32.1 16.9 32.1 35.3.1 19.7-15.8 35.6-35.4 35.6zm-41.4-1h41.4c19 0 34.5-15.5 34.5-34.5 0-17.9-13.4-32.6-31.2-34.3-1 0-22.8-.1-34.3-.2H89v-.1c-3.4-.5-6-3.4-6-6.9s2.6-6.4 6-6.9V78h34.7l11.1-12.5L118.9 50H89c-19.3 0-35 15.7-35 35 0 18.1 14.1 33.4 32.1 34.9.9 0 22.8.1 34.4.1 3.6 0 6.5 2.9 6.5 6.5s-2.9 6.5-6.5 6.5c-11.1.1-31.9.2-34.2.2h-6.9l-14.2 14.2zM295.5 48.5h7l10 13s15.3-12 28-12h10l13 14-8 14H346c-5.5 0-20.5 7-20.5 17v67h-30z"/><path d="M326 162h-31V48h7.8l9.8 12.8c2.5-1.9 16.2-11.8 27.9-11.8h10.2l13.4 14.4-8.3 14.6H346c-5 0-20 6.7-20 16.5zm-30-1h29V94.5c0-4.5 3-9 8.4-12.7 4.7-3.2 9.9-4.8 12.6-4.8h9.2l7.7-13.4L350.3 50h-9.8c-12.4 0-27.5 11.8-27.7 11.9l-.4.3L302.3 49H296zM406.5 10.5l-15 21v17h-27l15 15L366 77h24.5v42.5c0 11 15 41 42.8 42h8.9l20.2-11.6-21.9-17.4s-20-3-20-16v-39h27l13-10-19-19h-21.3v-21z"/><path d="M442.4 162h-9.1c-15.5-.6-26.1-9.8-32.2-17.4-7.3-9.1-11.1-19.5-11.1-25.1v-42h-25.2l14-14L363.3 48H391V31.3l.1-.1 15.4-21.5 14.3 17.6V48h21l19.5 19.5L447.7 78H421v38.5c0 12.4 19.4 15.5 19.6 15.5h.1l22.6 17.9zm-75.2-85.5H391v43c0 10.3 14.6 40.5 42.4 41.5h8.8l19.4-11.2-21.3-16.8c-.8-.1-5.4-1-10-3.1-6.7-3.2-10.3-7.8-10.3-13.3V77h27.3l12.4-9.5L441.3 49h-21.6V27.7l-13.2-16.4L392 31.7V49h-26.3l14.5 14.5zM3.5 49.5h31v112h-31z"/><path d="M35 162H3V49h32zm-31-1h30V50H4z"/></g></svg>