<svg enable-background="new 0 0 923.1 143.1" viewBox="0 0 923.1 143.1" xmlns="http://www.w3.org/2000/svg"><path d="m142.4.8h-101.4c-22.6 0-41 18.4-41 41v101.4h101.4c22.6 0 41-18.4 41-41v-83.9z" fill="#db1f29"/><g fill="#fff"><path d="m34.2 119.4c-12.2 0-12.2-12.2-12.2-12.2v-60.7c0-12.1 12.1-12.1 12.1-12.1h24.3c12.1 0 24.3 12.1 24.3 12.1s12.1 0 0 0c0-35.4 11.2 13.1 24.3 0 8.6-8.6 12.1 42.5 12.1 42.5l-12.1-6s0-12.1-18.2-24.3c-22.6-15.1-48.6-5.1-48.6 18.2 0 47.6 78.9 30.4 78.9 30.4s0 12.1-12.1 12.1z"/><path d="m94.9 34.4c0-3.4 2.7-18.2 6.1-18.2s6.1 14.9 6.1 18.2c0 3.4-2.7 6.1-6.1 6.1s-6.1-2.8-6.1-6.1z"/><path d="m231.7 98.7h-13.7l-30.7-45.6v87.6h-24.4v-138.2h19.6l42.5 62.5 42.5-62.5h19.2v138.2h-24.3v-87.6zm139.9 44.4c-19.2 0-37.1-7.5-50.3-21.1-13.3-13.8-20.7-31.7-20.7-50.4 0-18.8 7.3-36.7 20.7-50.4 13.2-13.5 31.6-21.2 50.3-21.2 19 0 36.9 7.5 50.5 21.1 13.4 13.8 20.7 31.7 20.7 50.5s-7.3 36.7-20.7 50.4c-13.4 13.6-31.3 21.1-50.5 21.1zm0-118.3c-12.2 0-23.7 4.9-32.5 13.8-8.8 8.6-13.7 20.3-13.7 32.9s4.8 24.2 13.6 32.9c8.8 9 20.3 13.9 32.5 13.9 12.3 0 24.3-5 32.9-13.8 8.7-8.7 13.5-20.4 13.5-32.9s-4.8-24.2-13.5-32.9c-8.5-8.8-20.5-13.9-32.8-13.9zm75.7 115.9v-23.3h2.6c40.3 0 48.4-14.1 48.4-36.9v-55.1h-51.1v-22.7h75.5v77.8c0 42.2-21.8 60.2-72.9 60.2zm181.2 0-12.7-33.6h-50.3l-12.9 33.6h-26.4l55.5-139.9h17.6l55.4 139.9zm-21.7-56.9-16.1-42.4-16.1 42.4zm81.5 56.9h-24.5v-138.2h18.8l60.7 87.8v-87.8h24.3v138.2h-19.2l-60.2-87zm163.6 2.4c-19.2 0-37.1-7.5-50.3-21.1-13.3-13.8-20.7-31.7-20.7-50.4 0-18.8 7.3-36.7 20.7-50.4 13.2-13.5 31.5-21.2 50.3-21.2 18.9 0 36.9 7.5 50.5 21.1 4.8 4.9 8.9 10.5 12.1 16.6l2.1 3.9h-29.2l-1.2-1.4c-.4-.5-.9-1-1.3-1.5-8.6-8.8-20.6-13.8-32.9-13.8-12.2 0-23.7 4.9-32.5 13.8-8.8 8.6-13.7 20.3-13.7 32.9s4.8 24.2 13.6 32.9c8.8 9 20.3 13.9 32.5 13.9 12.3 0 24.3-5 32.9-13.8 5.9-5.9 10-13.3 12-21.3h-52.1v-25h77.2l.3 2.2c.6 3.6.9 7.4.9 11 0 18.8-7.3 36.7-20.7 50.4s-31.4 21.2-50.5 21.2z"/></g></svg>