<svg data-name="Lager 1" xmlns="http://www.w3.org/2000/svg" viewBox="0 0 592.02 230.45"><defs><radialGradient id="a" cx="77.95" cy="-105.11" r="221.51" gradientTransform="matrix(.41 0 0 .41 490.37 111.94)" gradientUnits="userSpaceOnUse"><stop offset=".19" stop-color="#f7ba00"/><stop offset=".29" stop-color="#f2a109"/><stop offset=".54" stop-color="#e7661f"/><stop offset=".66" stop-color="#e34f27"/></radialGradient></defs><path d="M522.56 0A69.46 69.46 0 1 0 592 69.46 69.45 69.45 0 0 0 522.56 0z" fill="url(#a)"/><path d="M522.56 88.35a18.9 18.9 0 1 1 18.89-18.89 18.92 18.92 0 0 1-18.89 18.89zm0-37.29A18.4 18.4 0 1 0 541 69.46a18.42 18.42 0 0 0-18.4-18.4z" fill="#f9d37e"/><path d="M522.56 137a67.57 67.57 0 1 1 67.56-67.56A67.64 67.64 0 0 1 522.56 137zm0-134.63a67.07 67.07 0 1 0 67.07 67.07 67.14 67.14 0 0 0-67.07-67.05z" fill="#f9d37e"/><path d="M522.56 112.81a43.36 43.36 0 1 1 43.35-43.35 43.4 43.4 0 0 1-43.35 43.35zm0-86.21a42.86 42.86 0 1 0 42.86 42.86 42.91 42.91 0 0 0-42.86-42.86z" fill="#f9d37e"/><path d="M522.56 77.32a7.87 7.87 0 1 1 7.86-7.86 7.87 7.87 0 0 1-7.86 7.86zm0-15a7.13 7.13 0 1 0 7.13 7.13 7.13 7.13 0 0 0-7.13-7.13z" fill="#f9d37e"/><path d="M522.56 73.74a4.28 4.28 0 1 1 4.28-4.28 4.28 4.28 0 0 1-4.28 4.28zm0-8.07a3.79 3.79 0 1 0 3.79 3.79 3.79 3.79 0 0 0-3.79-3.79z" fill="#f9d37e"/><path d="M522.56 92.32a22.87 22.87 0 1 1 22.87-22.86 22.89 22.89 0 0 1-22.87 22.86zm0-44.75a21.89 21.89 0 1 0 21.88 21.89 21.91 21.91 0 0 0-21.88-21.89z" fill="#f9d37e"/><path d="M522.56 128.13a58.68 58.68 0 1 1 58.68-58.67 58.74 58.74 0 0 1-58.68 58.67zm0-116.36a57.69 57.69 0 1 0 57.69 57.69 57.76 57.76 0 0 0-57.69-57.69z" fill="#f9d37e"/><path d="M522.56 99.63a30.18 30.18 0 1 1 30.18-30.17 30.21 30.21 0 0 1-30.18 30.17zm0-59.37a29.2 29.2 0 1 0 29.19 29.2 29.23 29.23 0 0 0-29.19-29.2z" fill="#f9d37e"/><path d="M522.56 118.66a49.2 49.2 0 1 1 49.2-49.2 49.26 49.26 0 0 1-49.2 49.2zm0-97.42a48.22 48.22 0 1 0 48.22 48.22 48.27 48.27 0 0 0-48.22-48.22z" fill="#f9d37e"/><path d="M522.56 132.49a63 63 0 1 1 63-63 63.11 63.11 0 0 1-63 63zm0-125.08a62 62 0 1 0 62.05 62.05 62.12 62.12 0 0 0-62.05-62z" fill="#f9d37e"/><path d="M522.56 109.6a40.14 40.14 0 1 1 40.14-40.14 40.19 40.19 0 0 1-40.14 40.14zm0-79.3a39.16 39.16 0 1 0 39.16 39.16 39.2 39.2 0 0 0-39.16-39.16z" fill="#f9d37e"/><path d="M231.66 163.48h-20.75c-2.37 0-3.87.18-4.2 2.13a1.7 1.7 0 0 0 1.29 2.14 10.46 10.46 0 0 0 2.08.53c.82.15 1.7.27 2.56.42l15.36 2.83c8.67 1.64 10.9 8.21 9.6 15.94-2 12.05-10.68 19.12-22.32 19.12h-21.39c-3.24 0-5.58-1.59-5-5.13.56-3.35 3.16-4.84 6.38-4.84H216c7.63 0 10.79-4.61 11.47-8.71.64-3.83-.19-6.42-5-7.24L206.92 178c-8.12-1.35-12-5.58-10.95-11.59 1.42-8.49 8.53-12.94 16.43-12.94H233c3.12 0 5.59 1.57 5 5.12-.56 3.37-3.27 4.85-6.37 4.85zm-159.83-4.67c3.14-4.22 7.52-5.91 13-5.91 3.46 0 6.06 1.16 5.42 4.92-.54 3.23-2.45 5.05-6.1 5.05-7.11 0-13.6 3.88-14.83 11.25l-4.49 26.81c-.54 3.24-2.23 6-6.16 6-4.15 0-4.93-3-4.4-6.23l6.89-41.19c.54-3.24 2.24-6 6.16-6 3.74 0 4.75 2.46 4.52 5.3zm56.87 38.41c3 0 5.3 1.47 4.74 4.82-.53 3.16-3 4.55-6 4.55H108c-13.88 0-24-9.16-21-27.49a30.75 30.75 0 0 1 30.8-26.2c13 0 22 9.21 19.78 22.53-.75 4.49-1.26 6.06-6.68 6.06H97.78c-2.15 10.73 4 15.73 11.69 15.73zm-28.8-24.28h27.44c.36-6.19-3.51-10.67-10.93-10.67a17.16 17.16 0 0 0-16.51 10.67zm81.16-9.46h-20.74c-2.37 0-3.88.18-4.2 2.13a1.7 1.7 0 0 0 1.29 2.14 10.17 10.17 0 0 0 2.07.53c.83.15 1.71.27 2.57.42l15.31 2.83c8.67 1.64 10.9 8.21 9.61 15.94-2 12.05-10.69 19.12-22.33 19.12h-21.35c-3.23 0-5.58-1.59-5-5.13.56-3.35 3.17-4.84 6.38-4.84h20.74c7.64 0 10.79-4.61 11.48-8.71.64-3.83-.2-6.42-5-7.24L156.33 178c-8.12-1.35-12-5.58-11-11.59 1.42-8.49 8.54-12.94 16.44-12.94h20.64c3.12 0 5.58 1.57 5 5.12-.56 3.37-3.28 4.85-6.38 4.85zm178.86-4.67c3.14-4.22 7.52-5.91 13-5.91 3.46 0 6 1.16 5.42 4.92-.54 3.23-2.45 5.05-6.1 5.05-7.11 0-13.6 3.88-14.83 11.25l-4.49 26.81c-.54 3.24-2.23 6-6.16 6-4.14 0-4.93-3-4.4-6.23l6.89-41.19c.54-3.24 2.24-6 6.16-6 3.74 0 4.75 2.46 4.52 5.3zm27.84-5.3h18.72c14.24 0 15.08 10.12 13.56 19.19l-4.69 28c-.57 3.46-2.43 5.86-5.83 5.86-2.94 0-4.23-1.79-4.26-4.36-5.19 3.35-8.85 5-15.38 5-11.46 0-19.43-5.89-17.69-16.26 1.54-9.21 7.92-14.1 15.44-16.76a57.87 57.87 0 0 1 11.75-2.63c3.67-.47 7.25-.7 10.4-.9l.4-2.38c.59-3.54-.39-4.79-6.41-4.79h-17.4c-3.24 0-5.58-1.58-5-5.12.56-3.36 3.17-4.85 6.38-4.85zm4.69 45.13c8.11 0 13.14-2.95 14.53-11.24l1.38-8.23c-11.59.17-24.13 3.17-25.55 11.64-.88 5.27 2.22 7.83 9.64 7.83zm7.88-59.94a3.81 3.81 0 0 0 3.79 4.69 6.11 6.11 0 0 0 5.69-5 3.81 3.81 0 0 0-3.79-4.69 6.11 6.11 0 0 0-5.69 5zm6.47-11.3a9.35 9.35 0 0 1 9.52 11.3 13.53 13.53 0 0 1-13 11 9.35 9.35 0 0 1-9.52-11.3 13.53 13.53 0 0 1 13-11zm31.26 31.13l-.33 1.95c3.88-5.55 10.11-7.58 16.37-7.58 12.5 0 18.5 8.41 16.58 19.9L466 200.93c-.54 3.24-2.23 6-6.15 6-4.15 0-4.94-3-4.4-6.23l4.09-24.49c1.48-8.83-.52-13.3-8.32-13.3-7.33 0-13.84 5.93-15.14 13.67L432 200.93c-.55 3.24-2.24 6-6.16 6-4.15 0-4.94-3-4.4-6.23l7.09-42.4a5.42 5.42 0 0 1 5.45-4.75c3 0 4.58 2.14 4.1 5zM251.5 199.27l-.09.41c-.12.64-.27 1.52-.41 2.49-.3 2.15-2.82 3.8-5.48 3.8a4.28 4.28 0 0 1-4.33-5l9.81-69.68a5.89 5.89 0 0 1 5.64-4.94 4.28 4.28 0 0 1 4.33 5l-3.82 27.21a16 16 0 0 0-.2 2l.88-.62c.71-.51 1.67-1.21 2.72-2a30.55 30.55 0 0 1 4.45-1.84 25.4 25.4 0 0 1 9.84-1.52c13.14 1 21.39 10.49 20.41 26.34-.85 13.54-12.21 26.31-27.75 26.31-6.53 0-12.9-2.86-16-8zm21-35.34c-9.88 0-17.06 7.09-18.46 17s3.77 16.94 13.61 16.94 17.06-7.1 18.46-17-3.77-16.93-13.61-16.93zM16.93 123.76l14.48.09c22.3-1 29.82 9.14 26.88 26-3.22 18.42-14.53 25.25-41.65 23.15l-4.9 27.05c-.57 4-3 7.36-6.92 7.24s-5.26-3.67-4.69-7.69l10.25-70.1c.5-3.53 2.11-5.88 6.55-5.74zm12.38 38a32.69 32.69 0 0 0 8.7-.94c4.74-1.37 7.63-4.56 9.09-11.74 1.42-6.93-1.3-13.65-8.12-13.86l-17.69-.11-3.62 26.33c4.42.15 8.29.33 11.64.32z" fill="#0e88c6"/><path d="M301.19 173.67l-3.7-13.48c-.07-.25-.12-.49-.17-.73a6.3 6.3 0 0 1-.17-.69 4.08 4.08 0 0 1-.09-.69 4 4 0 0 1 2.63-4.8c4.55-1.94 6.22 2.49 7 5.23l9.65 34c.48-1 1-2.14 1.57-3.19l11.82-23.56 4-8.11c1.44-2.68 3.76-5.55 7.47-3.64 3.21 1.66 2.44 4.59 1.14 7.24l-25.41 50.87a62.91 62.91 0 0 1-5.54 8.51c-4.4 5.59-11.28 8.88-19 9.71-.22 0-.61 0-1 .06a5.61 5.61 0 0 1-1.16 0c-2.13-.43-3-1.89-3.12-4.27-.1-3.28 2.76-4.33 5-4.8a31.46 31.46 0 0 0 4-1.09c15.43-5.51 11.9-20.52 11.89-20.55v-.32a27.29 27.29 0 0 0-.74-3l-6.13-22.69z" fill="#0e88c6"/></svg>