<svg id="prettier" xmlns="http://www.w3.org/2000/svg" viewBox="0 0 69.48 51.8"><title>ansible-ar21</title><path d="M28.17,1.85H18.55a3.21,3.21,0,0,1-.76,0A.82.82,0,0,1,17.11,1a.81.81,0,0,1,.68-.77,3.21,3.21,0,0,1,.76,0H37.78a3.87,3.87,0,0,1,.68,0,.83.83,0,0,1,.76.88.82.82,0,0,1-.76.78,3.83,3.83,0,0,1-.68,0Z" fill="#fff"/><path d="M35,3.55c2.69,0,5.38,0,8.08,0,.65,0,1.28.1,1.25.89s-.63.82-1.25.82H26.91c-.66,0-1.29-.1-1.26-.9s.63-.82,1.25-.81C29.59,3.56,32.28,3.55,35,3.55Z" fill="#fff"/><path d="M30.66,25.7h-7a5.76,5.76,0,0,1-.59,0c-.52-.05-.88-.32-.87-.85a.82.82,0,0,1,.9-.83c1,0,2,0,3,0H38.18c.59,0,1,.24,1,.87s-.48.83-1.06.83Z" fill="#fff"/><path d="M44.31,29.11c-2.38,0-4.76,0-7.15,0-.66,0-1.29-.13-1.28-.88s.6-.84,1.23-.84q7.24,0,14.48,0c.63,0,1.23.15,1.24.83s-.62.89-1.28.89C49.14,29.1,46.73,29.11,44.31,29.11Z" fill="#fff" opacity="0.5"/><path d="M38.3,18.89c-2.1,0-4.2,0-6.29,0-.62,0-1.23-.09-1.25-.82s.61-.89,1.26-.89q6.38,0,12.75,0c.62,0,1.23.09,1.25.82s-.61.89-1.26.89C42.61,18.88,40.45,18.89,38.3,18.89Z" fill="#fff"/><path d="M23.9,7h5.61c.64,0,1.2.16,1.17.89s-.56.82-1.16.82H18.3c-.64,0-1.2-.17-1.17-.9S17.69,7,18.29,7C20.16,7,22,7,23.9,7Z" fill="#fff"/><path d="M46.91,1.85c-1.56,0-3.12,0-4.68,0C41.59,1.86,41,1.7,41,1s.55-.89,1.19-.88h9.45c.65,0,1.22.18,1.2.87s-.6.85-1.24.84C50,1.83,48.47,1.85,46.91,1.85Z" fill="#fff" opacity="0.5"/><path d="M35,34.22c1.53,0,3.07,0,4.6,0,.66,0,1.29.12,1.28.87s-.6.85-1.24.84H30.3c-.63,0-1.23-.15-1.24-.83s.62-.89,1.28-.88C31.9,34.24,33.46,34.22,35,34.22Z" fill="#fff" opacity="0.5"/><path d="M47.81,34.22h3.91c.62,0,1.12.24,1.11.88s-.48.83-1.07.83h-8c-.6,0-1.07-.25-1.07-.84s.49-.88,1.12-.87Z" fill="#fff" opacity="0.5"/><path d="M42.62,12.07H38.71c-.61,0-1.13-.16-1.14-.84s.51-.87,1.12-.87h7.9c.61,0,1.13.17,1.14.85s-.51.87-1.12.86Z" fill="#fff"/><path d="M22.16,15.48H18.33c-.64,0-1.21-.15-1.2-.87s.54-.84,1.15-.84h7.84c.61,0,1.15.17,1.15.84s-.56.88-1.19.87Z" fill="#fff"/><path d="M22.24,27.41c1.28,0,2.56,0,3.84,0,.63,0,1.2.15,1.19.88s-.54.84-1.15.83H18.28c-.61,0-1.14-.16-1.15-.83s.56-.88,1.2-.88C19.63,27.42,20.94,27.41,22.24,27.41Z" fill="#fff"/><path d="M42.74,13.77h3.82c.6,0,1.14.14,1.17.82s-.54.89-1.18.89H38.74c-.6,0-1.14-.14-1.17-.82s.54-.89,1.18-.89Z" fill="#fff"/><path d="M22.11,35.93H18.29c-.6,0-1.14-.14-1.17-.82s.54-.89,1.18-.89h7.81c.6,0,1.15.14,1.17.82s-.54.89-1.17.89Z" fill="#fff"/><path d="M36.73,7c1,0,2,0,3,0,.63,0,1.21.15,1.2.88s-.55.84-1.16.84H33.62c-.61,0-1.15-.17-1.16-.84S33,7,33.66,7C34.68,7,35.7,7,36.73,7Z" fill="#fff"/><path d="M33.24,32.52c-1,0-2,0-3.06,0-.62,0-1.13-.23-1.12-.87s.53-.84,1.15-.84q3.06,0,6.12,0c.62,0,1.16.2,1.17.83s-.55.89-1.2.88C35.28,32.5,34.26,32.52,33.24,32.52Z" fill="#fff" opacity="0.5"/><path d="M31.61,22.29H28.38c-.58,0-1-.23-1-.85s.46-.85,1-.85h6.37c.59,0,1,.23,1,.86s-.46.85-1,.84Z" fill="#fff"/><path d="M21.44,20.59c1,0,2,0,3,0,.58,0,1.06.19,1.08.81s-.46.9-1.08.9c-2.09,0-4.19,0-6.28,0-.58,0-1.06-.2-1.09-.82s.47-.89,1.09-.89C19.29,20.6,20.36,20.59,21.44,20.59Z" fill="#fff"/><path d="M48.64,32.52c-1,0-2.1,0-3.15,0-.62,0-1.12-.25-1.1-.89s.5-.82,1.09-.82q3.15,0,6.29,0c.6,0,1.06.26,1.07.85s-.45.86-1.05.86C50.74,32.51,49.69,32.52,48.64,32.52Z" fill="#fff" opacity="0.5"/><path d="M32.38,12.07H30.17c-.62,0-1.12-.23-1.11-.87s.47-.84,1.07-.84h4.59c.59,0,1.07.25,1.08.84s-.5.88-1.12.87Z" fill="#fff" opacity="0.5"/><path d="M25.58,18.89H23.21c-.56,0-1-.26-1-.83s.39-.86.95-.86q2.41,0,4.83,0c.55,0,1,.26,1,.83s-.44.87-1,.87Z" fill="#fff"/><path d="M40.88,22.29h-2.3c-.56,0-1-.25-1-.81s.42-.89,1-.89h4.68c.59,0,1,.24,1,.86s-.47.85-1.06.84Z" fill="#fff"/><path d="M49.46,22.29h-2.3c-.59,0-1.06-.26-1.07-.84s.45-.87,1-.87h4.68c.6,0,1,.29,1,.88a.87.87,0,0,1-1,.82Z" fill="#fff" opacity="0.5"/><path d="M32.38,15.48H30.17c-.62,0-1.12-.24-1.11-.87s.48-.84,1.07-.84h4.59c.6,0,1.07.25,1.08.84s-.5.88-1.12.87Z" fill="#fff" opacity="0.5"/><path d="M20.5,5.25H18.12c-.59,0-1-.26-1-.89s.45-.81,1-.81h4.75c.59,0,1,.27,1,.89s-.44.81-1,.81Z" fill="#fff"/><path d="M49.46,5.25h-2.3c-.59,0-1.06-.26-1.07-.85s.45-.86,1-.86h4.67c.6,0,1,.3,1,.88a.87.87,0,0,1-1,.82Z" fill="#fff" opacity="0.5"/><path d="M19.56,32.51c-.51,0-1,0-1.52,0s-.94-.31-.92-.88a.83.83,0,0,1,.91-.81c1.08,0,2.15,0,3.22,0a.85.85,0,1,1,0,1.69C20.69,32.53,20.13,32.51,19.56,32.51Z" fill="#fff"/><path d="M31.55,29.11c-.54,0-1.08,0-1.62,0a.84.84,0,1,1,0-1.68c1.08,0,2.16,0,3.23,0a.86.86,0,0,1,.93.81c0,.55-.39.86-.94.88S32.09,29.11,31.55,29.11Z" fill="#fff" opacity="0.5"/><path d="M50.36,25.7H48.83c-.59,0-1-.28-1-.87s.42-.83,1-.83h3.06c.56,0,1,.29,1,.83s-.44.87-1,.87Z" fill="#fff" opacity="0.5"/><path d="M43.46,25.7c-.51,0-1,0-1.53,0s-1-.32-1-.87a.83.83,0,0,1,.9-.82C43,24,44,24,45.11,24a.84.84,0,0,1,.91.82c0,.55-.39.85-.94.87S44,25.7,43.46,25.7Z" fill="#fff" opacity="0.5"/><path d="M19.69,12.07c-.56,0-1.13,0-1.69,0a.81.81,0,0,1-.88-.84.8.8,0,0,1,.87-.84c1.1,0,2.2,0,3.3,0a.84.84,0,1,1,0,1.68C20.77,12.09,20.23,12.07,19.69,12.07Z" fill="#fff"/><path d="M50.36,8.66H48.83c-.59,0-1-.28-1-.87s.42-.83,1-.83h3.06c.56,0,1,.29,1,.83s-.44.87-1,.87Z" fill="#fff" opacity="0.5"/><path d="M50.3,18.88c-.53,0-1.07,0-1.61,0a.86.86,0,0,1-.9-.84.83.83,0,0,1,.88-.85c1.08,0,2.16,0,3.23,0a.85.85,0,0,1,.94.88.86.86,0,0,1-.92.81C51.38,18.9,50.84,18.88,50.3,18.88Z" fill="#fff" opacity="0.5"/><path d="M40.89,32.52c-1.09,0-1.73-.33-1.62-.89.17-.91.92-.83,1.61-.82h.76c.56,0,1,.3,1,.84s-.41.84-1,.86Z" fill="#fff" opacity="0.5"/><path d="M25.63,32.51c-.28,0-.56,0-.84,0-.52,0-.87-.33-.86-.86a.83.83,0,0,1,.89-.83,14.4,14.4,0,0,1,1.61,0,.82.82,0,0,1,.86.85.84.84,0,0,1-.9.83C26.14,32.53,25.89,32.51,25.63,32.51Z" fill="#fff"/><path d="M18.82,25.69a5.87,5.87,0,0,1-.94,0,.81.81,0,0,1-.76-.87.79.79,0,0,1,.76-.79,13.76,13.76,0,0,1,1.7,0,.82.82,0,0,1,.89.84c0,.53-.37.8-.89.84-.25,0-.51,0-.76,0Z" fill="#fff"/><path d="M44.35,7a8,8,0,0,1,.85,0,.82.82,0,0,1,.83.88.81.81,0,0,1-.83.8c-.53,0-1.07,0-1.6,0s-.94-.31-.92-.88.39-.78.91-.81h.76Z" fill="#fff"/><path d="M18.76,18.87a5.89,5.89,0,0,1-.84,0,.82.82,0,0,1-.81-.82.79.79,0,0,1,.78-.84,11.75,11.75,0,0,1,1.78,0,.79.79,0,0,1,.8.82.81.81,0,0,1-.78.85A7.21,7.21,0,0,1,18.76,18.87Z" fill="#fff"/><path d="M25.58,12.06a5.87,5.87,0,0,1-.84,0,.81.81,0,0,1-.81-.82.79.79,0,0,1,.78-.84,11.62,11.62,0,0,1,1.77,0,.83.83,0,0,1,0,1.66A7.22,7.22,0,0,1,25.58,12.06Z" fill="#fff"/><path d="M51.18,15.47a8,8,0,0,1-.85,0,.87.87,0,0,1-.84-.81.84.84,0,0,1,.86-.87,13,13,0,0,1,1.53,0c.56,0,1,.31,1,.86s-.42.83-1,.84h-.68Z" fill="#fff" opacity="0.5"/><path d="M51.18,12.07a7.85,7.85,0,0,1-.84,0,.87.87,0,0,1-.85-.81.84.84,0,0,1,.86-.87,13,13,0,0,1,1.53,0,.86.86,0,0,1,1,.85c0,.55-.42.84-1,.85Z" fill="#fff" opacity="0.5"/><path d="M37.56,47.16c0-.73,0-1.47,0-2.2,0-.26-.07-.36-.34-.35-.5,0-1,0-1.49,0s-.26-.4-.3-.63-.08-.49.32-.46.92,0,1.38,0,.46-.06.43-.41,0-.79,0-1.18.1-.39.4-.39c1,0,1,0,1,1s0,1,1,1c.59,0,1.19,0,1.79,0,.4,0,.35.25.32.47s.2.63-.33.62H39.36c-.3,0-.42.06-.41.39,0,1.33,0,2.66,0,4s.58,1.75,1.84,1.63a5.51,5.51,0,0,0,.71-.09c.64-.11.81,0,.8.71,0,.22-.14.25-.28.29a5,5,0,0,1-2.52.24,2.32,2.32,0,0,1-1.93-2.41c0-.73,0-1.47,0-2.2Z" fill="#fff"/><path d="M29.36,47.21c0-.75,0-1.5,0-2.25,0-.26-.07-.36-.35-.35-.47,0-1,0-1.43,0-.24,0-.36,0-.37-.33,0-.77,0-.75.74-.77.46,0,1,.2,1.33-.09s.1-.85.06-1.28.15-.67.62-.59a2.36,2.36,0,0,0,.46,0c.26,0,.32.09.31.33,0,.41,0,.82,0,1.22s.12.43.44.42c.77,0,1.54,0,2.3,0,.44,0,.37.25.35.49s.19.62-.34.61c-.77,0-1.54,0-2.31,0-.32,0-.44.06-.44.42,0,1.29,0,2.59,0,3.89s.58,1.82,1.94,1.69c.22,0,.44,0,.66-.08.57-.11.85.16.77.75,0,.18-.15.21-.28.25a4.9,4.9,0,0,1-2.86.16,2.3,2.3,0,0,1-1.58-2.22c0-.75,0-1.51,0-2.26Z" fill="#fff"/><path d="M48.23,47c0,1,0,2,0,3,0,.4.12.49.49.47.58,0,1.17,0,1.74,0,.38,0,.49.12.44.46a.57.57,0,0,0,0,.26c.06.39-.08.52-.5.51-1.89,0-3.78,0-5.68,0-.49,0-.61-.12-.62-.61s.16-.66.65-.62,1.13,0,1.69,0c.31,0,.45-.05.45-.41,0-1.66,0-3.31,0-5,0-.29-.09-.38-.37-.37-.67,0-1.33,0-2,0-.32,0-.4-.09-.4-.4,0-.83,0-.83.84-.83s1.84,0,2.76,0c.48,0,.56.15.54.57C48.21,45.05,48.23,46,48.23,47Z" fill="#fff"/><path d="M13.61,44.8a3.55,3.55,0,0,1,3.64-1.36c.32,0,.54.1.47.57-.15.89-.11.89-1,.79A2.65,2.65,0,0,0,13.81,46a1.55,1.55,0,0,0-.22.82c0,1.48,0,3,0,4.45,0,.36-.1.45-.46.45-1,0-1,0-1-.93,0-2.25,0-4.5,0-6.75,0-.4.09-.52.5-.51.81,0,.81,0,.88.83C13.57,44.46,13.59,44.57,13.61,44.8Z" fill="#fff"/><path d="M62.87,44.8a3.54,3.54,0,0,1,3.56-1.38c.43,0,.68.18.54.66a1.09,1.09,0,0,0,0,.31c0,.39-.12.6-.61.47a4.15,4.15,0,0,0-1.72,0A2.31,2.31,0,0,0,62.84,47q0,2.15,0,4.29c0,.34-.09.43-.42.43-1,0-1,0-1-1,0-2.23,0-4.47,0-6.7,0-.42.1-.55.53-.54.8,0,.8,0,.86.8C62.85,44.43,62.85,44.53,62.87,44.8Z" fill="#fff"/><path d="M47.53,40.56a.78.78,0,0,1,.8.86.83.83,0,0,1-1.65,0A.78.78,0,0,1,47.53,40.56Z" fill="#fff"/><path d="M7,40.76c-1.19-.08-2.39,0-3.58,0-.37,0-.44.12-.44.46,0,1.67,0,3.34,0,5v4.55c0,1,0,1,1,1,.38,0,.45-.14.44-.48q0-1.09,0-2.19c0-.56-.09-1.28.22-1.56s.94-.18,1.49-.19c.14,0,.78,0,1.16-.07A3.24,3.24,0,0,0,7,40.76Zm-.2,5.33c-.69.06-1.39,0-2.09,0-.29,0-.34-.12-.33-.37,0-.59,0-1.19,0-1.78s0-1.16,0-1.74c0-.27,0-.41.35-.39.66,0,1.33,0,2,0a2,2,0,0,1,2,2.08A2,2,0,0,1,6.76,46.09Z" fill="#fff"/><path d="M53.66,48c.8,0,1.6,0,2.4,0H58c1.08,0,1.08,0,1-1.1a3.44,3.44,0,0,0-2.64-3.46,3.62,3.62,0,0,0-4,1.92,5.05,5.05,0,0,0-.4,3.54,3.45,3.45,0,0,0,2.64,2.77,3.91,3.91,0,0,0,4-1.09c.09-.1.29-.24.18-.37a2.5,2.5,0,0,0-.68-.53c-.22-.12-.3.16-.43.27a2.73,2.73,0,0,1-2.72.61,2.56,2.56,0,0,1-1.7-2C53.19,48.24,53.14,48,53.66,48Zm-.39-1.35a2.55,2.55,0,0,1,1.59-2,2.08,2.08,0,0,1,2.71,1.95c0,.3-.15.29-.34.29H53.56C53.42,46.86,53.25,46.93,53.27,46.65Z" fill="#fff"/><path d="M20.7,48c.84,0,1.68,0,2.51,0H25c1.24,0,1.24,0,1.14-1.26a3.39,3.39,0,0,0-2.69-3.31,3.61,3.61,0,0,0-3.85,1.81A5,5,0,0,0,19,48.67a3.5,3.5,0,0,0,2.66,3,3.88,3.88,0,0,0,4.11-1.13c.08-.08.23-.22.16-.29a3,3,0,0,0-.71-.57c-.19-.1-.28.15-.39.25a2.69,2.69,0,0,1-2.81.61,2.58,2.58,0,0,1-1.67-2.15C20.32,48.11,20.39,48,20.7,48Zm-.25-1.48a2.32,2.32,0,0,1,2.18-2,2.06,2.06,0,0,1,2.08,1.92c.07.37-.05.43-.38.42-.6,0-1.19,0-1.79,0H20.76C20.5,46.88,20.4,46.82,20.45,46.53Z" fill="#fff"/></svg>