<svg xmlns="http://www.w3.org/2000/svg" viewBox="0 0 69.48 51.8"><path d="M28.17 1.85h-9.62a3.21 3.21 0 0 1-.76 0 .82.82 0 0 1-.68-.85.81.81 0 0 1 .68-.77 3.21 3.21 0 0 1 .76 0h19.23a3.87 3.87 0 0 1 .68 0 .83.83 0 0 1 .76.88.82.82 0 0 1-.76.78 3.83 3.83 0 0 1-.68 0zM35 3.55h8.08c.65 0 1.28.1 1.25.89s-.63.82-1.25.82H26.91c-.66 0-1.29-.1-1.26-.9s.63-.82 1.25-.81c2.69.01 5.38 0 8.1 0zM30.66 25.7h-7a5.76 5.76 0 0 1-.59 0c-.52-.05-.88-.32-.87-.85a.82.82 0 0 1 .9-.83h15.08c.59 0 1 .24 1 .87s-.48.83-1.06.83z" fill="#fff"/><path d="M44.31 29.11h-7.15c-.66 0-1.29-.13-1.28-.88s.6-.84 1.23-.84h14.48c.63 0 1.23.15 1.24.83s-.62.89-1.28.89c-2.41-.01-4.82 0-7.24 0z" fill="#fff" opacity=".5"/><path d="M38.3 18.89h-6.29c-.62 0-1.23-.09-1.25-.82s.61-.89 1.26-.89h12.75c.62 0 1.23.09 1.25.82s-.61.89-1.26.89c-2.15-.01-4.31 0-6.46 0zM23.9 7h5.61c.64 0 1.2.16 1.17.89s-.56.82-1.16.82H18.3c-.64 0-1.2-.17-1.17-.9S17.69 7 18.29 7h5.61z" fill="#fff"/><path d="M46.91 1.85h-4.68C41.59 1.86 41 1.7 41 1s.55-.89 1.19-.88h9.45c.65 0 1.22.18 1.2.87s-.6.85-1.24.84c-1.6 0-3.13.02-4.69.02zM35 34.22h4.6c.66 0 1.29.12 1.28.87s-.6.85-1.24.84H30.3c-.63 0-1.23-.15-1.24-.83s.62-.89 1.28-.88c1.56.02 3.12 0 4.66 0zm12.81 0h3.91c.62 0 1.12.24 1.11.88s-.48.83-1.07.83h-8c-.6 0-1.07-.25-1.07-.84s.49-.88 1.12-.87z" fill="#fff" opacity=".5"/><path d="M42.62 12.07h-3.91c-.61 0-1.13-.16-1.14-.84s.51-.87 1.12-.87h7.9c.61 0 1.13.17 1.14.85s-.51.87-1.12.86zm-20.46 3.41h-3.83c-.64 0-1.21-.15-1.2-.87s.54-.84 1.15-.84h7.84c.61 0 1.15.17 1.15.84s-.56.88-1.19.87zm.08 11.93h3.84c.63 0 1.2.15 1.19.88s-.54.84-1.15.83h-7.84c-.61 0-1.14-.16-1.15-.83s.56-.88 1.2-.88c1.3.01 2.61 0 3.91 0zm20.5-13.64h3.82c.6 0 1.14.14 1.17.82s-.54.89-1.18.89h-7.81c-.6 0-1.14-.14-1.17-.82s.54-.89 1.18-.89zM22.11 35.93h-3.82c-.6 0-1.14-.14-1.17-.82s.54-.89 1.18-.89h7.81c.6 0 1.15.14 1.17.82s-.54.89-1.17.89zM36.73 7h3c.63 0 1.21.15 1.2.88s-.55.84-1.16.84h-6.15c-.61 0-1.15-.17-1.16-.84S33 7 33.66 7h3.07z" fill="#fff"/><path d="M33.24 32.52h-3.06c-.62 0-1.13-.23-1.12-.87s.53-.84 1.15-.84h6.12c.62 0 1.16.2 1.17.83s-.55.89-1.2.88c-1.02-.02-2.04 0-3.06 0z" fill="#fff" opacity=".5"/><path d="M31.61 22.29h-3.23c-.58 0-1-.23-1-.85s.46-.85 1-.85h6.37c.59 0 1 .23 1 .86s-.46.85-1 .84zm-10.17-1.7h3c.58 0 1.06.19 1.08.81s-.46.9-1.08.9h-6.28c-.58 0-1.06-.2-1.09-.82s.47-.89 1.09-.89c1.13.01 2.2 0 3.28 0z" fill="#fff"/><path d="M48.64 32.52h-3.15c-.62 0-1.12-.25-1.1-.89s.5-.82 1.09-.82h6.29c.6 0 1.06.26 1.07.85s-.45.86-1.05.86c-1.05-.01-2.1 0-3.15 0zM32.38 12.07h-2.21c-.62 0-1.12-.23-1.11-.87s.47-.84 1.07-.84h4.59c.59 0 1.07.25 1.08.84s-.5.88-1.12.87z" fill="#fff" opacity=".5"/><path d="M25.58 18.89h-2.37c-.56 0-1-.26-1-.83s.39-.86.95-.86h4.83c.55 0 1 .26 1 .83s-.44.87-1 .87zm15.3 3.4h-2.3c-.56 0-1-.25-1-.81s.42-.89 1-.89h4.68c.59 0 1 .24 1 .86s-.47.85-1.06.84z" fill="#fff"/><path d="M49.46 22.29h-2.3c-.59 0-1.06-.26-1.07-.84s.45-.87 1-.87h4.68c.6 0 1 .29 1 .88a.87.87 0 0 1-1 .82zm-17.08-6.81h-2.21c-.62 0-1.12-.24-1.11-.87s.48-.84 1.07-.84h4.59c.6 0 1.07.25 1.08.84s-.5.88-1.12.87z" fill="#fff" opacity=".5"/><path d="M20.5 5.25h-2.38c-.59 0-1-.26-1-.89s.45-.81 1-.81h4.75c.59 0 1 .27 1 .89s-.44.81-1 .81z" fill="#fff"/><path d="M49.46 5.25h-2.3c-.59 0-1.06-.26-1.07-.85s.45-.86 1-.86h4.67c.6 0 1 .3 1 .88a.87.87 0 0 1-1 .82z" fill="#fff" opacity=".5"/><path d="M19.56 32.51h-1.52c-.52 0-.94-.31-.92-.88a.83.83 0 0 1 .91-.81h3.22a.85.85 0 1 1 0 1.69c-.56.02-1.12 0-1.69 0z" fill="#fff"/><path d="M31.55 29.11h-1.62a.84.84 0 1 1 0-1.68h3.23a.86.86 0 0 1 .93.81c0 .55-.39.86-.94.88s-1.06-.01-1.6-.01zm18.81-3.41h-1.53c-.59 0-1-.28-1-.87s.42-.83 1-.83h3.06c.56 0 1 .29 1 .83s-.44.87-1 .87zm-6.9 0h-1.53c-.53 0-1-.32-1-.87a.83.83 0 0 1 .9-.82C43 24 44 24 45.11 24a.84.84 0 0 1 .91.82c0 .55-.39.85-.94.87s-1.08.01-1.62.01z" fill="#fff" opacity=".5"/><path d="M19.69 12.07H18a.81.81 0 0 1-.88-.84.8.8 0 0 1 .87-.84h3.3a.84.84 0 1 1 0 1.68c-.52.02-1.06 0-1.6 0z" fill="#fff"/><path d="M50.36 8.66h-1.53c-.59 0-1-.28-1-.87s.42-.83 1-.83h3.06c.56 0 1 .29 1 .83s-.44.87-1 .87zm-.06 10.22h-1.61a.86.86 0 0 1-.9-.84.83.83 0 0 1 .88-.85h3.23a.85.85 0 0 1 .94.88.86.86 0 0 1-.92.81c-.54.02-1.08 0-1.62 0zm-9.41 13.64c-1.09 0-1.73-.33-1.62-.89.17-.91.92-.83 1.61-.82h.76c.56 0 1 .3 1 .84s-.41.84-1 .86z" fill="#fff" opacity=".5"/><path d="M25.63 32.51h-.84c-.52 0-.87-.33-.86-.86a.83.83 0 0 1 .89-.83 14.4 14.4 0 0 1 1.61 0 .82.82 0 0 1 .86.85.84.84 0 0 1-.9.83c-.25.03-.5.01-.76.01zm-6.81-6.82a5.87 5.87 0 0 1-.94 0 .81.81 0 0 1-.76-.87.79.79 0 0 1 .76-.79 13.76 13.76 0 0 1 1.7 0 .82.82 0 0 1 .89.84c0 .53-.37.8-.89.84h-.76zM44.35 7a8 8 0 0 1 .85 0 .82.82 0 0 1 .83.88.81.81 0 0 1-.83.8h-1.6c-.53 0-.94-.31-.92-.88s.39-.78.91-.81h.76zM18.76 18.87a5.89 5.89 0 0 1-.84 0 .82.82 0 0 1-.81-.82.79.79 0 0 1 .78-.84 11.75 11.75 0 0 1 1.78 0 .79.79 0 0 1 .8.82.81.81 0 0 1-.78.85 7.21 7.21 0 0 1-.93-.01zm6.82-6.81a5.87 5.87 0 0 1-.84 0 .81.81 0 0 1-.81-.82.79.79 0 0 1 .78-.84 11.62 11.62 0 0 1 1.77 0 .83.83 0 0 1 0 1.66 7.22 7.22 0 0 1-.9 0z" fill="#fff"/><path d="M51.18 15.47a8 8 0 0 1-.85 0 .87.87 0 0 1-.84-.81.84.84 0 0 1 .86-.87 13 13 0 0 1 1.53 0c.56 0 1 .31 1 .86s-.42.83-1 .84h-.68zm0-3.4a7.85 7.85 0 0 1-.84 0 .87.87 0 0 1-.85-.81.84.84 0 0 1 .86-.87 13 13 0 0 1 1.53 0 .86.86 0 0 1 1 .85c0 .55-.42.84-1 .85z" fill="#fff" opacity=".5"/><path d="M37.56 47.16v-2.2c0-.26-.07-.36-.34-.35h-1.49c-.49 0-.26-.4-.3-.63s-.08-.49.32-.46.92 0 1.38 0 .46-.06.43-.41 0-.79 0-1.18.1-.39.4-.39c1 0 1 0 1 1s0 1 1 1h1.79c.4 0 .35.25.32.47s.2.63-.33.62h-2.38c-.3 0-.42.06-.41.39v4c0 1.34.58 1.75 1.84 1.63a5.51 5.51 0 0 0 .71-.09c.64-.11.81 0 .8.71 0 .22-.14.25-.28.29a5 5 0 0 1-2.52.24 2.32 2.32 0 0 1-1.93-2.41v-2.2zm-8.2.05v-2.25c0-.26-.07-.36-.35-.35h-1.43c-.24 0-.36 0-.37-.33 0-.77 0-.75.74-.77.46 0 1 .2 1.33-.09s.1-.85.06-1.28.15-.67.62-.59a2.36 2.36 0 0 0 .46 0c.26 0 .32.09.31.33v1.22c0 .4.12.43.44.42h2.3c.44 0 .37.25.35.49s.19.62-.34.61h-2.31c-.32 0-.44.06-.44.42v3.89c0 1.3.58 1.82 1.94 1.69.22 0 .44 0 .66-.08.57-.11.85.16.77.75 0 .18-.15.21-.28.25a4.9 4.9 0 0 1-2.86.16 2.3 2.3 0 0 1-1.58-2.22v-2.26zM48.23 47v3c0 .4.12.49.49.47h1.74c.38 0 .49.12.44.46a.57.57 0 0 0 0 .26c.06.39-.08.52-.5.51h-5.68c-.49 0-.61-.12-.62-.61s.16-.66.65-.62 1.13 0 1.69 0c.31 0 .45-.05.45-.41v-5c0-.29-.09-.38-.37-.37h-2c-.32 0-.4-.09-.4-.4 0-.83 0-.83.84-.83h2.76c.48 0 .56.15.54.57-.05 1.02-.03 1.97-.03 2.97zm-34.62-2.2a3.55 3.55 0 0 1 3.64-1.36c.32 0 .54.1.47.57-.15.89-.11.89-1 .79a2.65 2.65 0 0 0-2.91 1.2 1.55 1.55 0 0 0-.22.82v4.45c0 .36-.1.45-.46.45-1 0-1 0-1-.93v-6.75c0-.4.09-.52.5-.51.81 0 .81 0 .88.83.06.1.08.21.1.44zm49.26 0a3.54 3.54 0 0 1 3.56-1.38c.43 0 .68.18.54.66a1.09 1.09 0 0 0 0 .31c0 .39-.12.6-.61.47a4.15 4.15 0 0 0-1.72 0 2.31 2.31 0 0 0-1.8 2.14v4.29c0 .34-.09.43-.42.43-1 0-1 0-1-1v-6.7c0-.42.1-.55.53-.54.8 0 .8 0 .86.8.04.15.04.25.06.52zm-15.34-4.24a.78.78 0 0 1 .8.86.83.83 0 0 1-1.65 0 .78.78 0 0 1 .85-.86zM7 40.76c-1.19-.08-2.39 0-3.58 0-.37 0-.44.12-.44.46v9.55c0 1 0 1 1 1 .38 0 .45-.14.44-.48V49.1c0-.56-.09-1.28.22-1.56s.94-.18 1.49-.19c.14 0 .78 0 1.16-.07A3.24 3.24 0 0 0 7 40.76zm-.2 5.33c-.69.06-1.39 0-2.09 0-.29 0-.34-.12-.33-.37v-1.78-1.74c0-.27 0-.41.35-.39h2a2 2 0 0 1 2 2.08 2 2 0 0 1-1.97 2.2zM53.66 48H58c1.08 0 1.08 0 1-1.1a3.44 3.44 0 0 0-2.64-3.46 3.62 3.62 0 0 0-4 1.92 5.05 5.05 0 0 0-.4 3.54 3.45 3.45 0 0 0 2.64 2.77 3.91 3.91 0 0 0 4-1.09c.09-.1.29-.24.18-.37a2.5 2.5 0 0 0-.68-.53c-.22-.12-.3.16-.43.27a2.73 2.73 0 0 1-2.72.61 2.56 2.56 0 0 1-1.7-2c-.06-.32-.11-.56.41-.56zm-.39-1.35a2.55 2.55 0 0 1 1.59-2 2.08 2.08 0 0 1 2.71 1.95c0 .3-.15.29-.34.29h-3.67c-.14-.03-.31.04-.29-.24zM20.7 48H25c1.24 0 1.24 0 1.14-1.26a3.39 3.39 0 0 0-2.69-3.31 3.61 3.61 0 0 0-3.85 1.81 5 5 0 0 0-.6 3.43 3.5 3.5 0 0 0 2.66 3 3.88 3.88 0 0 0 4.11-1.13c.08-.08.23-.22.16-.29a3 3 0 0 0-.71-.57c-.19-.1-.28.15-.39.25a2.69 2.69 0 0 1-2.81.61 2.58 2.58 0 0 1-1.67-2.15c-.03-.28.04-.39.35-.39zm-.25-1.48a2.32 2.32 0 0 1 2.18-2 2.06 2.06 0 0 1 2.08 1.92c.07.37-.05.43-.38.42H20.76c-.26.02-.36-.04-.31-.33z" fill="#fff"/></svg>