<svg width="165" height="39" xmlns="http://www.w3.org/2000/svg"><defs><linearGradient x1="0%" y1="2.395%" x2="74.521%" y2="63.435%" id="a"><stop stop-color="#5A9FD4" offset="0%"/><stop stop-color="#306998" offset="100%"/></linearGradient><linearGradient x1="50%" y1="80.73%" x2="23.443%" y2="45.158%" id="b"><stop stop-color="#FFD43B" offset="0%"/><stop stop-color="#FFE873" offset="100%"/></linearGradient></defs><g fill="none"><path d="M61.966 19.624c0-4.93-1.468-7.462-4.406-7.6a8.611 8.611 0 0 0-3.42.537c-.886.304-1.482.604-1.796.908v11.769c1.879 1.128 3.548 1.653 5.002 1.57 3.08-.194 4.62-2.587 4.62-7.184zm3.624.204c0 2.505-.614 4.585-1.848 6.238-1.376 1.871-3.282 2.835-5.72 2.888-1.837.056-3.73-.495-5.678-1.65V38l-3.151-1.076V13.182c.517-.608 1.182-1.13 1.989-1.571 1.875-1.047 4.154-1.585 6.837-1.611l.045.043c2.451-.03 4.34.934 5.668 2.888 1.237 1.792 1.858 4.089 1.858 6.897zm19.472 7.07c0 3.37-.341 5.703-1.024 7-.686 1.298-1.99 2.334-3.918 3.106-1.563.609-3.253.94-5.067.996l-.505-1.907c1.844-.248 3.142-.496 3.895-.744 1.483-.497 2.5-1.258 3.059-2.278.448-.83.669-2.416.669-4.763v-.788a15.86 15.86 0 0 1-6.575 1.407c-1.506 0-2.835-.467-3.98-1.407-1.284-1.023-1.927-2.32-1.927-3.892V11.036L72.748 10v12.674c0 1.354.442 2.397 1.325 3.128.883.732 2.028 1.083 3.43 1.056 1.402-.03 2.904-.566 4.5-1.615V10.457h3.06v16.441zm11.273 2.06c-.348.03-.667.042-.961.042-1.652 0-2.94-.398-3.86-1.197-.917-.799-1.377-1.902-1.377-3.309V12.85h-2v-1.86h2V6.051L93.054 5v5.99h3.281v1.86h-3.281v11.563c0 1.11.294 1.896.882 2.355.505.379 1.307.595 2.4.65v1.54zm19.472.042h-3.153V17.268c0-1.193-.29-2.221-.866-3.079-.665-.97-1.59-1.456-2.777-1.456-1.445 0-3.253.734-5.423 2.204V29h-3.153V.958L103.588 0v12.773c2.015-1.414 4.216-2.122 6.606-2.122 1.67 0 3.023.542 4.058 1.623 1.038 1.08 1.555 2.427 1.555 4.037V29zm15.998-9.81c0-1.903-.379-3.474-1.132-4.718-.895-1.515-2.287-2.314-4.169-2.397-3.478.193-5.214 2.573-5.214 7.135 0 2.092.361 3.839 1.09 5.241.93 1.787 2.326 2.67 4.187 2.64 3.492-.027 5.238-2.66 5.238-7.901zm3.475.02c0 2.709-.726 4.963-2.174 6.763-1.593 2.016-3.794 3.027-6.602 3.027-2.784 0-4.953-1.011-6.519-3.027-1.42-1.8-2.128-4.054-2.128-6.763 0-2.546.767-4.688 2.302-6.432 1.62-1.85 3.752-2.778 6.387-2.778 2.634 0 4.78.928 6.432 2.778 1.534 1.744 2.302 3.886 2.302 6.432zM152.702 29h-3.18V16.392c0-1.383-.428-2.462-1.283-3.24-.856-.774-1.997-1.15-3.42-1.12-1.51.028-2.947.508-4.31 1.438V29h-3.18V13.088c1.83-1.296 3.514-2.141 5.051-2.537 1.451-.368 2.731-.551 3.834-.551.755 0 1.465.071 2.132.213 1.25.28 2.265.802 3.048 1.566.873.845 1.308 1.86 1.308 3.047V29z" fill="#646464"/><path d="M19.15 1a27.602 27.602 0 0 0-4.468.369c-3.956.675-4.674 2.09-4.674 4.696V9.51h9.35v1.147H6.497c-2.716 0-5.096 1.579-5.84 4.581-.858 3.441-.896 5.589 0 9.182C1.323 27.094 2.91 29 5.628 29h3.214v-4.128c0-2.982 2.67-5.612 5.84-5.612h9.339c2.6 0 4.675-2.069 4.675-4.592V6.065c0-2.448-2.138-4.287-4.675-4.696A30.155 30.155 0 0 0 19.15 1zm-5.056 2.77c.966 0 1.754.774 1.754 1.727 0 .949-.788 1.716-1.754 1.716-.97 0-1.754-.767-1.754-1.716 0-.953.785-1.727 1.754-1.727z" fill="url(#a)"/><path d="M30.062 11v3.981c0 3.087-2.723 5.685-5.829 5.685h-9.32c-2.552 0-4.665 2.1-4.665 4.556v8.538c0 2.43 2.2 3.86 4.666 4.556 2.953.835 5.785.986 9.32 0 2.348-.653 4.664-1.968 4.664-4.556v-3.417h-9.32v-1.14h13.986c2.711 0 3.722-1.817 4.665-4.545.974-2.808.933-5.51 0-9.112-.67-2.594-1.95-4.546-4.665-4.546h-3.502zM24.82 32.621c.968 0 1.751.762 1.751 1.703 0 .946-.783 1.714-1.75 1.714-.964 0-1.751-.768-1.751-1.714 0-.941.787-1.703 1.75-1.703z" fill="url(#b)"/><path d="M159.119 8h.545V4.426h1.293V4h-3.13v.426h1.292V8m2.321 0h.467V4.736L162.918 8h.52l1.053-3.253V8H165V4h-.673l-1.152 3.427L162.193 4h-.753v4" fill="#646464"/></g></svg>