<svg width="165" height="25" xmlns="http://www.w3.org/2000/svg"><g fill="none"><path d="M21.996 10.217c.646 0 1.17.516 1.174 1.153v12.062a1.16 1.16 0 0 1-1.168 1.154H1.17A1.161 1.161 0 0 1 0 23.432V1.557C0 .923.52.404 1.17.404h2.532a1.16 1.16 0 0 1 1.167 1.153v7.575a1.175 1.175 0 0 0 1.026 1.085h1.894c.574-.052 1.052-.513 1.084-1.085V1.556c0-.634.52-1.153 1.168-1.153h2.532a1.16 1.16 0 0 1 1.169 1.153v7.496c0 .593.44 1.096 1.02 1.164h7.235v.001zm-3.334 8.273v-2.36a1.16 1.16 0 0 0-1.168-1.154h-2.533c-.642 0-1.168.514-1.168 1.154v2.359c0 .634.52 1.152 1.168 1.152h2.532a1.16 1.16 0 0 0 1.168-1.152h.001zm21.37 6.118l-1.21-5.579a20.513 20.513 0 0 0-.574-2.212 4.811 4.811 0 0 0-.865-1.625c-.372-.44-.855-.77-1.456-1.001-.599-.225-1.384-.341-2.356-.341h-2.544v10.757h-2.77V.446h6.062c1.004 0 1.975.104 2.92.309.94.205 1.774.545 2.496 1.017a5.338 5.338 0 0 1 1.74 1.882c.441.781.66 1.74.66 2.883 0 .876-.106 1.652-.314 2.317a4.807 4.807 0 0 1-.935 1.725c-.413.482-.934.89-1.55 1.221-.615.33-1.343.598-2.17.802v.069c.806.204 1.453.466 1.937.775.483.315.87.687 1.163 1.123.287.434.51.932.668 1.493.16.561.308 1.206.457 1.925l1.412 6.62h-2.77zm-.674-17.783c0-1-.18-1.782-.537-2.333a3.245 3.245 0 0 0-1.417-1.22c-.59-.263-1.258-.42-2.007-.472a33.031 33.031 0 0 0-2.304-.08h-2.06v8.86h1.523c.833 0 1.65-.057 2.468-.178a6.687 6.687 0 0 0 2.183-.693 4.112 4.112 0 0 0 1.56-1.446c.388-.624.59-1.436.59-2.438h.001zm16.209 17.783V22.4h-.069a3.78 3.78 0 0 1-.935 1.138 5.87 5.87 0 0 1-1.29.813c-.47.215-.964.378-1.47.487-.487.106-.984.16-1.482.162-.727 0-1.375-.11-1.938-.335a3.773 3.773 0 0 1-1.417-.938 4.063 4.063 0 0 1-.876-1.474 5.777 5.777 0 0 1-.303-1.923c0-.64.127-1.206.382-1.71.255-.502.59-.943 1.015-1.326.44-.394.932-.726 1.465-.985a9.86 9.86 0 0 1 1.725-.667 13.02 13.02 0 0 1 3.472-.498c.288 0 .568-.005.834-.01.265-.005.541-.037.834-.094v-.356c0-.614-.01-1.227-.027-1.84a4.843 4.843 0 0 0-.313-1.652 2.55 2.55 0 0 0-.935-1.184c-.43-.3-1.072-.451-1.91-.451-.5 0-.946.047-1.344.136-.37.077-.72.226-1.03.44a2.314 2.314 0 0 0-.701.818c-.18.341-.302.76-.372 1.258h-2.686c.01-.845.192-1.557.546-2.143a4.42 4.42 0 0 1 1.376-1.437 6.064 6.064 0 0 1 1.933-.813 9.424 9.424 0 0 1 2.208-.256c1.917 0 3.34.43 4.268 1.284.93.854 1.397 2.212 1.397 4.068v11.695H55.567zm-1.491-7.56a9.6 9.6 0 0 0-1.775.178 6.86 6.86 0 0 0-1.794.593 4.246 4.246 0 0 0-1.396 1.085c-.377.45-.563 1.006-.563 1.667 0 .707.218 1.29.648 1.745.436.456 1.009.682 1.725.682.425 0 .839-.063 1.231-.2.39-.128.76-.31 1.1-.539.345-.232.657-.51.929-.823a4.28 4.28 0 0 0 .675-1.045c.137-.308.249-.591.34-.843a5.412 5.412 0 0 0 .286-1.567c.01-.273.016-.587.016-.938h-1.423v.005zm22.096-.598c0 1.096-.111 2.156-.34 3.182-.228 1.028-.605 1.94-1.136 2.737a5.917 5.917 0 0 1-2.087 1.913c-.86.477-1.932.718-3.212.718-1.189 0-2.187-.183-2.994-.545-.807-.366-1.46-.87-1.949-1.52-.487-.65-.843-1.415-1.056-2.301a12.311 12.311 0 0 1-.318-2.884V.446h2.404v10.258h.086c.14-.48.368-.931.673-1.33a4.573 4.573 0 0 1 1.058-.986c.41-.27.859-.477 1.332-.613.49-.144.998-.216 1.508-.216.807 0 1.519.126 2.128.383.611.257 1.142.607 1.583 1.054.446.446.817.958 1.115 1.547a9.23 9.23 0 0 1 .712 1.87c.175.661.297 1.337.371 2.03.085.686.122 1.357.122 2.007zm-2.771-.062a17.247 17.247 0 0 0-.058-1.306 15.06 15.06 0 0 0-.208-1.484 9.508 9.508 0 0 0-.409-1.483 5.14 5.14 0 0 0-.674-1.29 3.31 3.31 0 0 0-1.003-.911c-.393-.237-.85-.352-1.37-.352-.553 0-1.046.126-1.471.377-.431.257-.808.594-1.109.991a5.745 5.745 0 0 0-.78 1.4 10.766 10.766 0 0 0-.494 1.604 13.6 13.6 0 0 0-.26 1.604c-.05.465-.077.932-.08 1.4 0 .64.047 1.31.138 2.012.09.709.276 1.364.546 1.967a3.875 3.875 0 0 0 1.164 1.494c.504.393 1.167.587 2 .587.553 0 1.042-.105 1.466-.31a3.414 3.414 0 0 0 1.083-.828c.303-.345.547-.75.743-1.206.197-.455.351-.927.468-1.414.116-.488.196-.98.244-1.469.042-.487.064-.95.064-1.383zm19.83.062c0 1.096-.112 2.156-.34 3.182-.228 1.028-.605 1.94-1.135 2.737a5.917 5.917 0 0 1-2.087 1.913c-.861.477-1.933.718-3.213.718-1.19 0-2.188-.183-2.995-.545-.806-.366-1.46-.87-1.948-1.52-.489-.65-.844-1.415-1.056-2.301a12.311 12.311 0 0 1-.318-2.884V.446h2.404v10.258h.086c.14-.48.368-.931.673-1.33a4.573 4.573 0 0 1 1.058-.986c.41-.27.859-.477 1.332-.613.49-.144.997-.216 1.508-.216.807 0 1.517.126 2.128.383.61.257 1.142.607 1.582 1.054.447.446.818.958 1.116 1.547a9.23 9.23 0 0 1 .712 1.87c.175.661.296 1.337.37 2.03.086.686.123 1.357.123 2.007zm-2.772-.062a17.247 17.247 0 0 0-.057-1.306 15.06 15.06 0 0 0-.208-1.484 9.508 9.508 0 0 0-.409-1.483 5.14 5.14 0 0 0-.674-1.29 3.31 3.31 0 0 0-1.003-.911c-.394-.237-.85-.352-1.37-.352-.553 0-1.046.126-1.471.377a3.886 3.886 0 0 0-1.11.991 5.775 5.775 0 0 0-.78 1.4 10.766 10.766 0 0 0-.494 1.604 13.6 13.6 0 0 0-.26 1.604c-.05.465-.076.932-.08 1.4 0 .64.048 1.31.138 2.012.09.709.277 1.364.547 1.967a3.875 3.875 0 0 0 1.163 1.494c.504.393 1.168.587 2 .587.554 0 1.043-.105 1.467-.31a3.414 3.414 0 0 0 1.083-.828c.303-.345.547-.75.743-1.206a8.75 8.75 0 0 0 .467-1.414c.117-.488.197-.98.245-1.469.042-.487.063-.95.063-1.383zM97.49 3.59V.445h3.185V3.59H97.49v.001zm.383 21.016V7.937h2.404v16.67h-2.404zm11.913-14.672v10.258c0 .892.218 1.578.659 2.07.44.494 1.141.735 2.102.735.285.005.57-.022.85-.08a6.7 6.7 0 0 0 .801-.246v2.14c-.355.057-.711.104-1.067.136-.35.037-.706.052-1.068.052-.796 0-1.486-.073-2.07-.22-.584-.146-1.073-.388-1.465-.728-.394-.336-.685-.776-.875-1.327-.193-.55-.288-1.226-.288-2.033V9.935h-2.755V7.93h2.755V4.053l2.404-1.504v5.383h4.556v2.003h-4.54z" fill="#F60"/><path d="M138.158 24.59V3.29h-.067l-7.215 21.293h-2.738L120.94 3.29h-.085v21.293h-2.477V.381h4.162l6.953 20.594h.07l6.97-20.594h4.108v24.208h-2.483zm16.145.007c-1.143 0-2.158-.169-3.035-.504a7.415 7.415 0 0 1-2.307-1.387 8.227 8.227 0 0 1-1.664-2.065c-.457-.8-.822-1.646-1.09-2.525a16.525 16.525 0 0 1-.6-2.795c-.121-.951-.181-1.91-.181-2.868 0-1.003.053-2.006.164-3.004.106-.976.29-1.942.553-2.89.26-.928.611-1.785 1.048-2.588a7.692 7.692 0 0 1 1.664-2.08c.669-.589 1.466-1.051 2.381-1.387.92-.336 1.994-.504 3.217-.504 1.19 0 2.232.173 3.13.52a7.147 7.147 0 0 1 2.307 1.423 7.676 7.676 0 0 1 1.595 2.117 12.7 12.7 0 0 1 1 2.595c.244.919.414 1.874.51 2.867.096.993.15 1.97.15 2.931a27.767 27.767 0 0 1-.235 3.477 20.24 20.24 0 0 1-.362 1.97 11.674 11.674 0 0 1-.6 1.87 8.205 8.205 0 0 1-.877 1.592 4.09 4.09 0 0 1-1.185 1.129l.068.068 5.046-.31v2.348h-10.697zm5.826-12.18c0-.63-.02-1.319-.058-2.064a18.946 18.946 0 0 0-.26-2.243 13.508 13.508 0 0 0-.58-2.175 6.832 6.832 0 0 0-1.015-1.87 4.863 4.863 0 0 0-1.553-1.303c-.611-.325-1.35-.488-2.205-.488-.905 0-1.675.157-2.319.473a4.945 4.945 0 0 0-1.63 1.265 6.621 6.621 0 0 0-1.08 1.834 12.618 12.618 0 0 0-.627 2.168c-.145.758-.24 1.514-.288 2.27-.048.761-.069 1.47-.069 2.133 0 .63.026 1.308.085 2.037.058.731.16 1.46.314 2.196.148.73.361 1.44.633 2.121.254.656.609 1.27 1.052 1.818.43.525.952.946 1.563 1.26.612.316 1.339.473 2.169.473.936 0 1.733-.146 2.387-.446a4.765 4.765 0 0 0 1.631-1.197 5.76 5.76 0 0 0 1.027-1.74c.25-.656.435-1.354.558-2.09a17.49 17.49 0 0 0 .223-2.242 62.57 62.57 0 0 0 .042-2.19z" fill="#B8B8B8"/></g></svg>