<svg xmlns="http://www.w3.org/2000/svg" width="1390" height="200"><path d="M10.105 42.617l69.29-39.915a20.245 20.245 0 0 1 19.962-.14l.248.14 69.285 39.915A20.168 20.168 0 0 1 179 59.825v80.093a20.168 20.168 0 0 1-9.888 17.335l-.222.13-69.285 39.915a20.245 20.245 0 0 1-19.962.14l-.248-.14-69.29-39.915A20.17 20.17 0 0 1 0 140.175V60.082c0-7.12 3.76-13.703 9.883-17.335l.222-.13 69.29-39.915-69.29 39.915zm79.393-9.07L31.827 66.776v66.448l57.671 33.227v-66.448l57.677-33.227-57.677-33.227z"/><path aria-label="Reason Studios" data-name="Reason Studios" d="M925.844 77.158h-21.326c-.892-13.486-13.724-21.864-27.382-21.106l-1.77.093c-14.191.798-22.818 8.924-22.298 18.14.492 8.857 6.07 13.166 16.84 14.709l19.368 2.646c21.512 3.06 34.917 13.512 36.049 33.714 1.198 21.438-15.495 37.85-44.768 39.485-32.122 1.795-52.622-16.145-53.501-42.77h21.326c.532 14.376 13.724 24.763 32.348 23.726l1.784-.093c14.71-.825 22.098-8.884 21.592-17.914-.466-8.326-5.192-13.047-17.213-14.856l-21.339-3.085c-21.539-3.232-32.68-14.696-33.746-33.66-1.065-18.965 14.99-37.464 43.903-39.086 28.914-1.61 49.774 16.278 50.133 40.057zm462.665 25.21h-20.42c-.87-7.612-6.637-13.795-15.808-13.668l-2.137.076c-7.8.372-13.312 4.375-13.006 10.573.24 5.32 4.46 7.966 12.527 9.362l12.926 2.407c15.601 2.82 25.2 10.188 25.905 25.083.732 15.427-11.861 27.569-34.398 28.633-23.789 1.117-39.843-11.876-39.843-30.336h20.793c.346 9.217 8.88 14.643 18.29 14.19l1.412-.066c8.16-.372 13.831-4.548 13.565-10.573-.245-4.975-3.213-8-10.217-9.312l-13.106-2.218-1.847-.363c-15.782-3.289-25.521-10.436-26.188-24.613-.785-16.664 13.259-27.995 33.507-28.939 23.056-1.09 38.045 11.823 38.045 29.764zm-775.096 0H592.98c-.87-7.612-6.637-13.795-15.808-13.668l-2.137.076c-7.8.372-13.312 4.375-13.006 10.573.24 5.32 4.46 7.966 12.527 9.362l12.926 2.407c15.601 2.82 25.2 10.188 25.905 25.083.732 15.427-11.861 27.569-34.398 28.633-23.775 1.117-39.843-11.876-39.843-30.336h20.793c.346 9.217 8.88 14.643 18.29 14.19l1.412-.066c8.16-.372 13.844-4.548 13.552-10.573-.24-5.147-3.408-8.205-10.943-9.442l-12.367-2.088c-16.866-3.112-27.342-10.254-28.035-24.976-.785-16.664 13.272-27.995 33.493-28.939 23.083-1.09 38.072 11.823 38.072 29.764zm-219.34-29.825c25.227 0 39.444 17.927 39.444 42.424 0 3.006-.173 6.038-.36 9.044h-60.942c1.065 15.626 12.087 24.15 22.218 24.15h1.424c8.706 0 15.269-4.973 17.053-12.434h20.247c-3.727 17.755-18.304 29.125-38.724 29.125-22.218 0-42.106-16.158-42.106-46.161 0-28.394 17.585-46.148 41.746-46.148zm88.026-.001c14.563 0 23.096 6.742 27.356 14.203V74.31h20.434v88.759h-20.434v-12.421c-4.446 7.447-12.793 14.203-27.356 14.203-19.729 0-38.565-15.813-38.565-46.161s17.945-46.148 38.565-46.148zm184.463 0c25.585 0 43.703 19.177 43.703 46.148 0 26.984-18.118 46.161-43.703 46.161-25.4 0-43.517-19.177-43.517-46.161 0-26.971 18.117-46.148 43.517-46.148zm504.485-33.727v124.254h-20.42v-11.89c-3.915 6.916-14.75 13.672-27.197 13.672-24.148 0-38.911-19.882-38.911-46.161 0-26.253 15.455-46.148 39.803-46.148 12.433 0 22.39 6.742 26.304 13.671V38.815h20.42zm91.347 33.727c25.599 0 43.717 19.177 43.717 46.148 0 26.984-18.118 46.161-43.717 46.161-25.4 0-43.517-19.177-43.517-46.161 0-26.971 18.118-46.148 43.517-46.148zm-247.438 1.775v54.487c0 12.78 5.338 19.363 15.295 19.363h1.411c10.663 0 20.075-10.48 20.075-25.029V74.317h20.434v88.759h-20.434v-14.563c-4.433 9.23-14.03 16.331-26.997 16.331-20.447 0-30.205-13.857-30.205-33.008V74.317h20.42zm192.165-.001v88.758h-20.434V74.316h20.434zm-438.779-1.77c20.953 0 31.443 13.485 31.443 32.649v57.878h-20.434v-54.846c0-11.903-5.338-19.004-15.814-19.004h-1.425c-11.368 0-21.312 9.947-21.312 24.324v49.526h-20.434V74.314H740.8v12.78c5.325-8.524 14.922-14.548 27.542-14.548zm195.823-33.732v35.495h20.42v16.877h-20.42v45.616c0 6.915 1.77 8.697 8.693 8.697h14.404v17.569H965.23c-13.857 0-21.498-7.634-21.498-21.479V91.186h-10.743V74.309h10.743V38.814h20.433zm-661.188-.002c22.031 0 38.551 14.204 38.551 33.74 0 15.786-7.827 26.798-20.793 31.413 13.685 0 19.023 5.851 19.023 17.568v41.533h-21.326v-36.2c0-9.243-2.676-11.903-11.914-11.903h-38.192v48.103H247V38.812h55.977zM487.25 89.22h-1.598c-11.914 0-21.685 11.198-21.685 29.298 0 18.286 9.77 29.644 21.685 29.644h1.598c11.727 0 22.204-10.467 22.204-29.471 0-18.992-10.477-29.471-22.204-29.471zm180.03 0h-1.425c-13.152 0-22.39 10.839-22.39 29.47 0 18.646 9.238 29.472 22.39 29.472h1.424c13.326 0 22.391-10.826 22.391-29.471 0-18.632-9.065-29.471-22.39-29.471zm461.127 0h-1.41c-12.447 0-22.045 10.666-22.045 29.298 0 18.818 9.598 29.644 22.044 29.644h1.411c11.542 0 22.218-10.653 22.218-29.471 0-18.805-10.676-29.471-22.218-29.471zm134.705 0h-1.411c-13.152 0-22.391 10.839-22.391 29.47 0 18.646 9.239 29.472 22.39 29.472h1.412c13.325 0 22.39-10.826 22.39-29.471 0-18.632-9.065-29.471-22.39-29.471zm-868.68.001h-1.425c-9.598 0-18.663 6.038-20.26 19.005h40.694c-.719-12.781-9.238-19.005-19.01-19.005zm-96.794-31.403h-29.313v38.341h29.313c14.75 0 22.564-8.006 22.564-19.882 0-12.249-7.815-18.46-22.564-18.46zm899.525-18.998c6.936 0 12.38 5.426 12.38 12.381 0 6.93-5.444 12.355-12.38 12.355s-12.393-5.426-12.393-12.355c0-6.955 5.458-12.381 12.393-12.381z"/></svg>