<svg xmlns="http://www.w3.org/2000/svg" viewBox="0 0 69.48 51.8"><g data-name="Layer 5"><path d="M31.86 4.67c.37.37.76.72 1.13 1.1A18.79 18.79 0 0 1 35.5 9a10.19 10.19 0 0 1 .43 1 .4.4 0 0 0 .24.18c.08 0 .24 0 .26-.08a8.22 8.22 0 0 1 1.5-2c.74-.87 1.49-1.74 2.24-2.6a3.88 3.88 0 0 1 .69-.65c0 .05 0 .11-.07.15-.55.64-1.1 1.29-1.66 1.93s-1.39 1.55-2.06 2.35a4.29 4.29 0 0 0-.49.76c0 .05-.07.17 0 .2l.86.83a.19.19 0 0 0 .08 0 19.45 19.45 0 0 1 2.1.51A10.73 10.73 0 0 1 43 13a40 40 0 0 1 3.59 2.46c1.32.91 2.63 1.82 3.93 2.75 1.11.79 2.24 1.57 3.29 2.43a7.49 7.49 0 0 1 2 2.62 5.77 5.77 0 0 1 .32.91 1.47 1.47 0 0 1-.4 1.41A4.08 4.08 0 0 1 53.24 27a2.89 2.89 0 0 1-2.08-.17 3.43 3.43 0 0 0-1-.1c-.2 0-.39-.07-.59-.09a4.31 4.31 0 0 0-.8-.06 3.25 3.25 0 0 0-.61.17 2.22 2.22 0 0 1-1.09.05 2.66 2.66 0 0 0-1 .15.66.66 0 0 1-.53 0c-.31-.2-.83.27-.8.74s.08.66.12 1c.23 2.06.47 4.12.7 6.19a2.18 2.18 0 0 1-.06.61 2.82 2.82 0 0 1-1-1.88 10.35 10.35 0 0 0-.34-2 1.47 1.47 0 0 0-.7-.82c-.37-.27-.71-.57-1.06-.86 0 0-.06 0-.06-.06-.2-.65-.76-.64-1.25-.62a1.63 1.63 0 0 1-1-.27 1.46 1.46 0 0 0-1.22-.13c-.55.16-.81 0-1.06-.5a1.17 1.17 0 0 0-.19-.35 1 1 0 0 0-.49-.26c-.16 0-.25-.06-.28-.22a1.57 1.57 0 0 1-.05-.37c0-.92.1-1.83.15-2.74 0-.32-.06-.38-.38-.4a2.62 2.62 0 0 1-.8-.15 1.36 1.36 0 0 1-.71-.85 1.16 1.16 0 0 0-.2-.25h-.08c0 .35.09.72.16 1.07.18.94.4 1.87.53 2.82a5.43 5.43 0 0 1 0 1.33c0 .22-.19.3-.4.29a1.07 1.07 0 0 0-.88.38c-.16.18-.32.37-.5.54a.79.79 0 0 1-1 .2 1.66 1.66 0 0 0-1.33 0h-.05c-.17.38-.42.19-.67.1a1.25 1.25 0 0 0-1.51.77 1.18 1.18 0 0 1-.29.41c-.41.36-.84.67-1.24 1a1.58 1.58 0 0 0-.44 1.47 10.41 10.41 0 0 1 .2 1.09 1.62 1.62 0 0 1-1.08 1.51c-.27.09-.37 0-.33-.32.09-.69.19-1.39.3-2.08.22-1.51.45-3 .69-4.54a4.72 4.72 0 0 1 .15-.65 2.42 2.42 0 0 0-.21-1.54c0-.11-.29-.2-.46-.21a2.16 2.16 0 0 0-.54.11 2 2 0 0 1-.42 0c-.74-.11-1.47-.27-2.2-.33l-1.09-.08a1.52 1.52 0 0 0-.69.16.72.72 0 0 1-.67 0 1.89 1.89 0 0 0-1.61-.11.33.33 0 0 1-.17 0 5.92 5.92 0 0 1-2.03-.28 9.62 9.62 0 0 1-1.37-1 .9.9 0 0 1-.15-.18 1.71 1.71 0 0 1-.28-2.2 19.33 19.33 0 0 1 1.22-1.78 8.39 8.39 0 0 1 2.25-1.94c.86-.56 1.7-1.18 2.56-1.74s1.47-.88 2.21-1.32c1.08-.65 2.17-1.27 3.24-1.93a17.28 17.28 0 0 1 5.68-2.4 17.42 17.42 0 0 1 1.77-.2.23.23 0 0 1 .14 0 .55.55 0 0 0 .77-.32 1.6 1.6 0 0 1 .58-.51.32.32 0 0 0 .18-.45 8.23 8.23 0 0 0-.56-1.11 22.9 22.9 0 0 0-2.79-3.42c-.16-.16-.35-.3-.53-.45s-.09-.11-.14-.16zM19 47.43h-2.87v4.15h-.85v-9.95h3.23a3.73 3.73 0 0 1 2.49.77 2.93 2.93 0 0 1 .34 3.84 2.92 2.92 0 0 1-1.51 1l2.49 4.23v.09h-.89zm-2.89-.71h2.59a2.41 2.41 0 0 0 1.71-.6 2 2 0 0 0 .64-1.56 2.06 2.06 0 0 0-.67-1.64 2.77 2.77 0 0 0-1.88-.58h-2.37zm13.57.09H25v4.06h5.35v.71h-6.16v-9.95h6.16v.71H25v3.76h4.65zm8.1 2.33a1.59 1.59 0 0 0-.58-1.31 5.87 5.87 0 0 0-2.12-.92 7.24 7.24 0 0 1-2.26-.91 2.23 2.23 0 0 1-1-1.9 2.2 2.2 0 0 1 .94-1.85 3.85 3.85 0 0 1 2.4-.72 4 4 0 0 1 1.78.39 2.91 2.91 0 0 1 1.21 1.06 2.81 2.81 0 0 1 .43 1.53h-.85a2.11 2.11 0 0 0-.73-1.69 2.75 2.75 0 0 0-1.88-.62 3 3 0 0 0-1.82.51 1.6 1.6 0 0 0-.67 1.34 1.48 1.48 0 0 0 .61 1.23 5.47 5.47 0 0 0 1.94.85 8.91 8.91 0 0 1 2 .76 2.81 2.81 0 0 1 1 .94 2.43 2.43 0 0 1-.49 3.17 4 4 0 0 1-2.48.71 4.89 4.89 0 0 1-1.93-.38A3 3 0 0 1 32 50.29a2.74 2.74 0 0 1-.46-1.55h.85a2 2 0 0 0 .78 1.66 3.31 3.31 0 0 0 2.09.61 3.12 3.12 0 0 0 1.87-.51 1.61 1.61 0 0 0 .65-1.36zm3.5-1.61v4h-.84v-9.9h3.39a3.54 3.54 0 0 1 2.45.79 2.76 2.76 0 0 1 .9 2.18 2.73 2.73 0 0 1-.86 2.17 3.68 3.68 0 0 1-2.51.76zm0-.71h2.55a2.74 2.74 0 0 0 1.87-.58 2.08 2.08 0 0 0 .64-1.63A2.15 2.15 0 0 0 45.7 43a2.55 2.55 0 0 0-1.81-.63h-2.61zm10.6-.98l2.8-4.21h1l-3.3 4.91 3.4 5h-1l-2.9-4.34L49 51.58h-1l3.4-5-3.3-4.91h1z" fill="#fff"/></g></svg>