<svg width="165" height="50" xmlns="http://www.w3.org/2000/svg"><g fill="none"><path d="M51.035 13.708a66.638 66.638 0 0 0-.022-1.493c-.03-1.084-.096-2.178-.295-3.25a10.732 10.732 0 0 0-1.05-3.091 10.406 10.406 0 0 0-1.972-2.632 10.702 10.702 0 0 0-2.714-1.912A11.561 11.561 0 0 0 41.796.312C40.689.119 39.56.055 38.442.026a75.96 75.96 0 0 0-1.54-.023C36.292 0 35.682 0 35.074 0H15.966c-.61 0-1.22 0-1.829.003a75.86 75.86 0 0 0-1.54.023c-.28.007-.56.017-.84.03a19.94 19.94 0 0 0-2.513.256c-.842.147-1.64.363-2.416.674a10.734 10.734 0 0 0-3.484 2.256 10.403 10.403 0 0 0-1.972 2.631c-.52.99-.849 2.002-1.05 3.091-.2 1.073-.265 2.167-.295 3.25-.014.5-.02.997-.024 1.494C0 14.3 0 14.891 0 15.482V34.01c0 .592 0 1.183.003 1.774.004.498.01.995.024 1.493.03 1.085.096 2.179.294 3.25a10.74 10.74 0 0 0 1.05 3.092 10.39 10.39 0 0 0 1.972 2.631 10.699 10.699 0 0 0 2.715 1.913c1.019.503 2.063.822 3.186 1.018 1.106.193 2.235.257 3.353.286a79.08 79.08 0 0 0 1.54.022c.61.004 1.219.003 1.829.003h19.108c.609 0 1.219.001 1.828-.003a75.96 75.96 0 0 0 1.54-.022c1.12-.03 2.247-.093 3.354-.286a11.56 11.56 0 0 0 3.186-1.018 10.702 10.702 0 0 0 2.714-1.913c.795-.77 1.461-1.66 1.971-2.631.52-.99.85-2.003 1.05-3.091.2-1.072.266-2.166.296-3.251.014-.498.02-.995.022-1.493.004-.591.004-1.182.004-1.774V15.482c0-.591 0-1.182-.004-1.774z" fill="#F05138"/><path d="M40.443 30.55c-.002 0-.003-.002-.004-.003.057-.187.115-.372.164-.563 2.119-8.184-3.051-17.86-11.8-22.954 3.834 5.04 5.529 11.144 4.023 16.482-.135.477-.296.934-.475 1.378a11.793 11.793 0 0 0-.765-.439s-8.703-5.21-18.135-14.427c-.248-.242 5.03 7.314 11.018 13.45-2.821-1.535-10.685-7.084-15.663-11.502a21.91 21.91 0 0 0 2.139 2.859c4.157 5.112 9.578 11.42 16.074 16.264-4.564 2.708-11.012 2.919-17.433.003a26.522 26.522 0 0 1-4.463-2.582c2.718 4.215 6.904 7.852 11.998 9.976 6.076 2.531 12.117 2.36 16.617.041l-.004.005c.02-.013.047-.026.068-.04.185-.095.368-.194.548-.297 2.162-1.088 6.432-2.192 8.724 2.132.561 1.059 1.754-4.55-2.631-9.782z" fill="#FFF"/><path d="M70.41 32.119c.398 3.433 3.775 5.684 8.465 5.684 4.456 0 7.67-2.25 7.67-5.366 0-2.683-1.947-4.321-6.427-5.412l-4.338-1.07c-6.239-1.5-9.053-4.23-9.053-8.732 0-5.549 4.995-9.392 12.102-9.392 6.894 0 11.796 3.866 11.96 9.438h-4.573c-.352-3.411-3.213-5.504-7.505-5.504-4.245 0-7.2 2.115-7.2 5.207 0 2.41 1.83 3.844 6.333 4.958l3.611.91c6.989 1.66 9.85 4.298 9.85 9.051 0 6.05-4.949 9.848-12.829 9.848-7.316 0-12.312-3.776-12.687-9.62h4.62zm49.944 9.073h-4.597l-5.37-18.147h-.094l-5.347 18.147h-4.596l-6.801-23.765h4.455l4.738 19.08h.094l5.347-19.08h4.315l5.394 19.08h.094l4.737-19.08h4.409l-6.778 23.765zm9.746-30.155c0-1.432 1.22-2.592 2.697-2.592 1.501 0 2.72 1.16 2.72 2.592 0 1.433-1.219 2.615-2.72 2.615-1.477 0-2.697-1.182-2.697-2.615zm.47 6.39h4.479v23.765h-4.48V17.427zm33.73 3.503v-3.503h-4.737v-5.685h-4.456v5.685h-8.563v-2.092c.023-2.115.868-3.002 2.885-3.002.656 0 1.313.069 1.853.16V9.08a16.113 16.113 0 0 0-2.369-.182c-4.784 0-6.801 1.934-6.801 6.368v2.16h-3.424v3.503h3.424v20.262h4.455V20.93h8.54v14.03c0 4.594 1.806 6.367 6.496 6.367 1.008 0 2.158-.068 2.674-.181v-3.548c-.305.046-1.197.114-1.69.114-2.086 0-3.024-.955-3.024-3.093V20.93h4.737z" fill="#000"/></g></svg>