<svg width="165" height="43" xmlns="http://www.w3.org/2000/svg"><g fill="none"><path d="M0 31.175h43.421v7.793c0 2.227-1.824 4.032-4.07 4.032H4.07C1.821 43 0 41.198 0 38.968v-7.793zm0 0h43.421v8.063H0v-8.063z" fill="#1BB91F"/><path d="M22.525 18.813V0h-1.629v39.237h1.629V20.425H43.42v-1.613H22.525zM0 4.033C0 1.806 1.824 0 4.07 0h35.28c2.249 0 4.071 1.807 4.071 4.033v35.204H0V4.033z" fill="#3C3C3C"/><path d="M65.613 39.73c-2.963 0-5.193-.77-6.69-2.311-1.496-1.542-2.244-3.824-2.244-6.847V16.656H51.29v-4.002h5.388V3.763h4.49v8.891h9.876v4.002h-9.877v13.96c0 1.749.434 3.03 1.302 3.846.868.815 2.005 1.223 3.412 1.223.659 0 1.392-.074 2.2-.223a16.14 16.14 0 0 0 2.47-.667l.897 3.913a18.143 18.143 0 0 1-2.985.778 17.24 17.24 0 0 1-2.851.245zm14.364-.4h-4.49V12.654h4.49V17.1s2.73-2.667 4.063-3.556c1.332-.89 2.896-1.334 4.691-1.334 1.587 0 2.941.437 4.063 1.311 1.123.875 1.923 2.068 2.402 3.58 0 0 3.023-2.668 4.4-3.557 1.377-.89 3.008-1.334 4.894-1.334 2.095 0 3.77.763 5.028 2.29 1.257 1.526 1.885 3.579 1.885 6.157V39.33h-4.49V21.37c0-1.779-.343-3.046-1.032-3.802-.688-.756-1.676-1.133-2.963-1.133-1.287 0-2.566.385-3.838 1.156-1.272.77-2.402 1.793-3.39 3.067V39.33H91.2V21.37c0-1.779-.344-3.046-1.032-3.802-.688-.756-1.676-1.133-2.963-1.133-1.287 0-2.567.385-3.839 1.156-1.272.77-2.401 1.793-3.39 3.067V39.33zm39.146-2.045c-1.586-1.66-2.38-3.868-2.38-6.624V12.654h4.49v17.118c0 1.896.45 3.334 1.347 4.312.898.978 2.215 1.467 3.95 1.467 1.378 0 2.747-.392 4.109-1.178 1.362-.785 2.716-1.949 4.063-3.49V12.654h4.49V39.33h-4.49v-4.446s-3.046 2.668-4.467 3.557c-1.422.89-3.016 1.334-4.782 1.334-2.634 0-4.744-.83-6.33-2.49zm40.628 2.045l-6.555-10.048-6.15 10.048h-4.984l8.98-13.382-8.666-13.294h5.029l6.24 9.604 6.33-9.604h4.984l-9.07 13.027 8.89 13.65h-5.028z" fill="#1BB91F"/></g></svg>