<svg xmlns="http://www.w3.org/2000/svg" height="88" width="580"><g fill="none"><g fill="#f2f2f2"><path d="M111.47 87.67c-1.801 0-3.65-.185-5.452-.508C89.704 84.204 78.843 68.49 81.8 52.177c1.432-7.903 5.87-14.789 12.478-19.364 6.609-4.576 14.604-6.286 22.507-4.853 7.902 1.433 14.789 5.87 19.364 12.478 4.575 6.609 6.285 14.604 4.852 22.507-1.432 7.903-5.869 14.789-12.478 19.364-5.083 3.559-10.999 5.361-17.053 5.361zm-.092-46.307c-7.671 0-14.511 5.5-15.944 13.31-1.617 8.78 4.252 17.284 13.033 18.855a16.002 16.002 0 0 0 12.155-2.634c3.558-2.45 5.961-6.193 6.747-10.445 1.617-8.78-4.252-17.284-13.033-18.855-1.016-.139-1.987-.231-2.958-.231zm80.646-13.403c-6.147 0-11.924 1.849-16.684 5.084V6.978h-13.864v81.154h13.864V83.05a29.991 29.991 0 0 0 16.684 5.083c16.591 0 30.086-13.495 30.086-30.086S208.615 27.96 192.024 27.96zm0 46.308c-8.966 0-16.222-7.256-16.222-16.222 0-8.966 7.256-16.221 16.222-16.221s16.221 7.255 16.221 16.221c0 8.966-7.255 16.222-16.221 16.222zm76.394 13.495h-.416c-8.042-.093-15.529-3.328-21.167-9.105-5.638-5.777-8.642-13.356-8.504-21.397.093-8.042 3.328-15.529 9.105-21.167 5.777-5.638 13.356-8.642 21.397-8.504 16.592.232 29.902 13.911 29.67 30.502-.092 8.042-3.327 15.529-9.104 21.167-5.684 5.5-13.125 8.504-20.981 8.504zm-.047-46.308c-4.251 0-8.272 1.618-11.322 4.575-3.097 3.004-4.853 7.071-4.9 11.415s1.572 8.412 4.576 11.554a16.063 16.063 0 0 0 11.415 4.899c4.344.046 8.411-1.571 11.554-4.575 3.096-3.004 4.853-7.071 4.899-11.415s-1.571-8.412-4.575-11.554a16.063 16.063 0 0 0-11.416-4.899h-.23zM451.198 87.67c-7.394 0-14.788-2.68-20.565-8.134-5.87-5.5-9.243-12.94-9.474-20.981-.232-8.042 2.634-15.667 8.133-21.537 5.5-5.869 12.94-9.243 20.982-9.474 8.042-.277 15.667 2.634 21.536 8.134 5.87 5.5 9.243 12.94 9.474 20.982.278 8.041-2.634 15.667-8.133 21.536-5.916 6.285-13.911 9.474-21.953 9.474zm0-46.307h-.554c-4.344.138-8.365 1.94-11.323 5.13a16.136 16.136 0 0 0-4.39 11.6c.138 4.297 1.94 8.364 5.13 11.322 6.516 6.1 16.822 5.777 22.922-.74a16.136 16.136 0 0 0 4.39-11.6c-.138-4.297-1.94-8.364-5.13-11.322-2.957-2.82-6.885-4.39-11.045-4.39zm114.013-13.264l-9.982 35.585-11.37-35.585H528.887l-9.982 35.585-11.37-35.585h-14.557L512.11 87.9h14.558l10.167-36.232 11.6 36.232h14.558L579.769 28.1zM53.01 87.624C42.61 85.036 33.599 82.77 29.3 73.62c-3.373-7.117-3.235-16.915-2.957-36.372.138-9.612.323-21.536.092-36.648L40.3.416c.184 15.25.046 27.313-.093 37.018-.23 16.222-.37 26.066 1.618 30.271 1.201 2.588 4.067 3.836 14.557 6.47z"/></g><path d="M0 27.22h67.197v13.865H0z" fill="#fff"/><path d="M353.638 31.01a28.785 28.785 0 0 0-6.285-.693 28.683 28.683 0 0 0-16.73 5.407V28.33H316.76V87.9h13.864V54.72c2.034-7.487 8.966-12.848 16.73-12.848 1.248 0 2.542.139 3.79.416.138.046.277.046.416.092l2.772-11.23a9.109 9.109 0 0 0-.693-.139zm59.48 0a28.785 28.785 0 0 0-6.286-.693 28.683 28.683 0 0 0-16.73 5.407V28.33h-13.865V87.9h13.865V54.72c2.033-7.487 8.966-12.848 16.73-12.848 1.248 0 2.542.139 3.79.416.138.046.277.046.415.092l2.773-11.23-.693-.139z" fill="#f2f2f2"/></g></svg>