<?xml version="1.0" standalone="no"?>
<!DOCTYPE svg PUBLIC "-//W3C//DTD SVG 20010904//EN"
 "http://www.w3.org/TR/2001/REC-SVG-20010904/DTD/svg10.dtd">
<svg version="1.0" xmlns="http://www.w3.org/2000/svg"
 width="856.000000pt" height="856.000000pt" viewBox="0 0 856.000000 856.000000"
 preserveAspectRatio="xMidYMid meet">
<metadata>
Created by potrace 1.11, written by Peter Selinger 2001-2013
</metadata>
<g transform="translate(0.000000,856.000000) scale(0.100000,-0.100000)"
fill="#000000" stroke="none">
<path d="M1220 7021 c0 -17 -10 -20 -67 -26 -38 -4 -133 -27 -213 -52 -131
-40 -157 -53 -275 -129 -122 -78 -136 -90 -225 -200 -110 -136 -208 -290 -275
-430 -26 -54 -58 -113 -71 -131 -28 -37 -30 -53 -8 -53 22 0 11 -61 -22 -117
-28 -49 -29 -53 -8 -53 10 0 14 -6 10 -17 -11 -40 -26 -144 -36 -252 l-11
-114 37 -126 c43 -149 130 -310 198 -366 49 -40 203 -122 266 -141 25 -7 61
-25 80 -39 38 -28 50 -31 50 -11 0 9 22 15 76 20 83 8 178 35 305 87 76 32 88
42 195 153 63 66 114 123 114 128 0 4 -7 8 -15 8 -21 0 -19 9 17 97 31 75 32
84 36 247 4 163 3 172 -24 250 -69 207 -213 305 -389 265 -38 -8 -88 -32 -149
-71 -50 -32 -101 -61 -113 -65 -25 -6 -28 -14 -12 -30 16 -16 -12 -64 -58
-101 -25 -21 -34 -34 -26 -39 8 -6 8 -18 -3 -48 -11 -32 -12 -50 -2 -92 10
-46 15 -54 43 -63 52 -17 112 -3 133 32 11 19 23 27 34 25 12 -4 19 4 23 27 4
17 26 66 49 110 35 68 47 81 88 102 62 31 96 30 145 -5 36 -26 41 -35 62 -121
28 -111 31 -241 7 -322 -24 -84 -86 -208 -100 -202 -7 3 -17 -6 -24 -20 -25
-56 -97 -91 -260 -126 -95 -20 -102 -21 -163 -5 -219 57 -314 154 -384 394
-25 86 -27 103 -20 195 14 213 93 458 212 663 69 120 194 269 222 266 9 -1 26
14 38 37 14 23 55 61 105 98 74 52 97 63 203 92 95 25 152 34 273 42 148 9
155 8 249 -17 151 -41 262 -102 363 -199 47 -45 102 -94 122 -110 39 -29 122
-153 178 -266 25 -50 130 -368 130 -395 0 -2 -7 -2 -15 1 -20 8 -19 1 4 -44
10 -20 22 -64 26 -96 7 -57 7 -58 -15 -51 -20 6 -22 5 -16 -11 17 -44 25 -136
24 -275 l-1 -149 -131 -63 c-72 -35 -165 -76 -206 -91 -41 -15 -138 -58 -215
-97 -77 -38 -145 -69 -152 -69 -6 0 -35 -19 -65 -43 -29 -23 -72 -54 -94 -69
-23 -15 -51 -42 -62 -60 -12 -18 -48 -57 -81 -86 -67 -59 -178 -214 -222 -311
-32 -71 -36 -110 -15 -173 7 -24 21 -70 31 -103 10 -33 24 -72 31 -87 13 -25
113 -88 140 -88 7 0 34 11 60 25 26 14 53 25 60 25 15 0 34 31 34 54 0 9 -15
18 -41 23 -37 7 -42 12 -66 68 -46 110 -46 111 46 233 l56 74 7 -58 c11 -87
22 -108 56 -99 15 4 28 7 29 8 1 1 11 47 22 102 29 145 65 239 110 285 45 46
128 80 331 136 114 32 151 38 240 38 l105 1 6 -60 c4 -33 10 -77 14 -98 7 -34
5 -39 -14 -44 -11 -3 -21 -6 -21 -8 0 -1 13 -29 30 -61 16 -32 30 -64 30 -71
0 -23 98 -310 119 -348 31 -58 67 -106 99 -135 15 -14 34 -43 41 -65 21 -62
54 -98 129 -143 132 -78 229 -107 313 -92 136 25 133 25 124 4 -5 -10 -9 -37
-10 -59 0 -23 -12 -62 -28 -90 -28 -52 -41 -88 -109 -300 -48 -149 -106 -258
-184 -348 -42 -48 -54 -69 -54 -95 0 -18 -7 -43 -15 -55 -8 -13 -19 -70 -25
-137 -20 -207 -8 -186 -138 -252 -62 -31 -120 -62 -128 -69 -25 -21 -62 -102
-79 -174 -8 -38 -24 -88 -35 -113 -26 -58 -26 -98 0 -112 16 -9 26 -7 48 8 40
29 57 51 92 119 47 94 58 96 67 12 4 -46 -1 -69 -32 -149 -22 -59 -48 -108
-68 -128 -31 -33 -107 -75 -137 -77 -19 -1 -15 -53 6 -76 17 -19 95 -30 199
-29 76 1 136 23 172 63 33 36 129 210 148 268 10 30 21 58 26 64 13 13 11 -29
-2 -59 -20 -42 1 -56 86 -56 54 0 76 4 86 16 7 8 25 22 41 30 30 16 93 106
113 165 8 20 12 39 11 41 -2 1 -6 24 -9 49 l-6 47 142 79 c128 72 301 151 367
168 14 3 34 10 45 15 11 4 49 18 85 30 36 12 79 29 97 36 17 8 35 14 40 14 5
0 34 26 65 57 l57 58 20 115 c35 200 43 306 36 460 -7 169 -18 233 -52 314
-20 49 -23 63 -13 81 12 22 -1 96 -21 121 -28 34 -49 131 -49 223 0 140 6 154
107 252 l88 85 80 12 c159 25 200 34 287 63 l89 29 337 -66 c291 -56 349 -70
426 -104 48 -22 92 -38 96 -35 5 3 52 -4 105 -16 88 -19 97 -20 108 -5 11 14
21 15 102 2 50 -8 151 -35 225 -62 74 -26 146 -47 159 -46 13 1 54 -7 90 -17
85 -25 250 -45 299 -38 79 13 286 115 350 174 94 85 289 235 357 273 33 18 78
46 100 60 22 15 76 43 120 62 70 31 86 34 130 28 64 -8 189 -63 284 -124 64
-41 77 -46 98 -37 35 16 28 43 -24 101 l-47 52 80 -7 c111 -9 173 -30 186 -64
5 -14 20 -49 33 -76 l23 -51 -24 -29 c-25 -32 -23 -42 11 -55 26 -10 154 37
166 61 28 57 36 170 15 209 -120 225 -126 232 -224 264 -120 39 -295 65 -367
55 -33 -5 -85 -6 -117 -3 -60 6 -159 -12 -258 -48 -276 -101 -354 -131 -410
-162 -36 -19 -114 -52 -175 -74 -97 -34 -237 -101 -345 -162 -62 -36 -145 -21
-284 50 -113 59 -230 105 -386 154 -91 28 -156 40 -310 57 -114 12 -201 26
-210 34 -8 7 -35 21 -60 32 l-46 20 -31 -21 c-17 -12 -45 -31 -62 -44 -23 -18
-31 -20 -31 -9 0 20 117 120 130 112 35 -21 100 82 100 159 0 22 7 54 16 71
14 27 13 33 -15 100 -43 102 -54 192 -28 223 8 11 11 52 9 136 l-2 120 -72
113 c-39 63 -80 119 -91 125 -13 7 -43 8 -86 3 -96 -12 -203 -10 -228 3 -12 7
-54 19 -94 27 -69 15 -73 14 -93 -4 -12 -10 -32 -22 -45 -26 -13 -4 -50 -32
-83 -62 -42 -39 -64 -53 -76 -48 -32 14 -104 4 -132 -17 -46 -33 -82 -152 -68
-223 4 -22 10 -55 14 -72 7 -37 -8 -43 -49 -21 -27 14 -190 13 -218 -2 -16 -9
-61 -2 -212 32 l-192 43 -205 0 c-135 -1 -248 -7 -330 -18 -90 -12 -140 -14
-180 -8 l-54 9 -172 -109 c-94 -60 -177 -109 -182 -109 -8 0 -9 65 -5 218 3
119 5 266 4 327 -3 115 -1 110 -55 147 -5 3 -10 24 -10 45 -1 21 -4 43 -8 49
-18 27 -80 286 -85 351 -3 40 -9 73 -13 73 -4 0 -15 -9 -25 -20 -17 -19 -19
-18 -80 63 -98 128 -272 285 -412 370 -105 64 -391 151 -488 148 -23 -1 -67 6
-98 14 -74 19 -77 19 -77 -4z m1860 -1979 c8 -3 89 -7 180 -7 142 -2 244 -12
299 -31 9 -3 -17 -24 -65 -52 -111 -66 -206 -145 -298 -249 -44 -48 -91 -99
-105 -111 -46 -42 -114 -82 -138 -82 -28 0 -94 -32 -112 -54 -62 -75 -246 126
-267 290 -6 47 -4 53 15 59 12 3 31 24 44 46 12 21 26 39 30 39 5 0 36 -16 68
-35 33 -19 62 -35 64 -35 2 0 20 30 41 68 21 37 50 85 66 106 15 21 28 45 28
53 0 11 14 12 68 7 37 -3 74 -8 82 -12z m489 -1929 c1 -63 8 -83 27 -76 11 4
14 -8 14 -64 0 -56 3 -70 19 -80 14 -9 18 -24 18 -67 l0 -56 -43 2 c-51 2
-172 -53 -299 -136 -46 -30 -86 -52 -89 -49 -3 4 -6 41 -6 84 0 103 19 143
140 288 52 62 120 144 150 182 62 76 67 74 69 -28z"/>
</g>
</svg>
