<?xml version="1.0" standalone="no"?>
<!DOCTYPE svg PUBLIC "-//W3C//DTD SVG 20010904//EN"
 "http://www.w3.org/TR/2001/REC-SVG-20010904/DTD/svg10.dtd">
<svg version="1.0" xmlns="http://www.w3.org/2000/svg"
 width="856.000000pt" height="856.000000pt" viewBox="0 0 856.000000 856.000000"
 preserveAspectRatio="xMidYMid meet">
<metadata>
Created by potrace 1.11, written by Peter Selinger 2001-2013
</metadata>
<g transform="translate(0.000000,856.000000) scale(0.100000,-0.100000)"
fill="#000000" stroke="none">
<path d="M1229 7049 c0 -2 -2 -12 -4 -22 -5 -26 -3 -25 -75 -32 -59 -6 -235
-54 -334 -91 -33 -13 -101 -54 -244 -148 -18 -11 -63 -59 -101 -106 -38 -47
-78 -94 -88 -105 -10 -11 -38 -51 -62 -90 -24 -38 -47 -72 -50 -75 -14 -12
-115 -204 -126 -240 -4 -14 -25 -51 -47 -82 -35 -53 -37 -58 -18 -58 19 0 21
-4 15 -37 -3 -21 -19 -59 -35 -85 -27 -45 -28 -48 -9 -48 15 0 19 -5 15 -17
-3 -10 -8 -31 -11 -48 -2 -16 -7 -41 -10 -55 -6 -27 -13 -108 -19 -210 -3 -51
3 -87 26 -165 16 -55 31 -108 33 -118 8 -36 128 -230 159 -257 17 -16 63 -43
101 -62 39 -18 75 -38 81 -44 7 -6 34 -18 60 -28 89 -32 123 -48 128 -62 7
-19 36 -18 36 1 0 11 11 15 38 15 67 1 115 11 217 45 180 60 203 74 325 202
60 64 110 120 110 125 0 4 -8 8 -19 8 -17 0 -15 8 17 88 l36 87 1 180 c2 169
0 184 -23 250 -51 141 -140 232 -250 256 -59 13 -75 13 -137 -2 -60 -14 -92
-29 -155 -75 -26 -19 -69 -43 -95 -55 -46 -20 -47 -22 -27 -33 l22 -12 -29
-39 c-16 -22 -44 -51 -61 -64 -28 -20 -30 -25 -17 -33 14 -7 14 -13 3 -46 -14
-38 -14 -54 -1 -109 8 -35 46 -55 95 -49 14 2 33 4 42 5 9 0 25 15 35 32 12
20 24 29 35 26 13 -4 19 3 24 29 3 19 10 37 15 40 5 3 9 11 9 19 0 7 16 40 35
72 27 46 46 64 82 83 51 25 72 26 113 8 43 -21 69 -50 77 -87 9 -46 8 -39 21
-86 6 -22 12 -49 12 -60 3 -93 2 -155 -3 -180 -15 -73 -20 -87 -41 -132 -13
-26 -31 -65 -40 -85 -10 -20 -23 -35 -29 -32 -7 2 -19 -9 -28 -25 -14 -24
-109 -101 -109 -87 0 2 -24 -2 -52 -10 -81 -22 -90 -25 -128 -32 -78 -14 -157
1 -271 52 -49 21 -159 114 -159 134 0 4 -12 30 -27 57 -53 99 -78 200 -76 310
2 119 4 142 32 261 19 84 70 233 108 313 39 84 143 251 185 296 26 28 57 63
70 78 14 16 30 25 39 22 9 -3 21 7 33 30 11 19 35 47 55 62 20 15 38 29 41 32
25 28 108 71 165 86 39 10 90 24 114 32 48 15 107 21 261 28 96 3 180 -8 240
-32 8 -3 24 -8 34 -10 57 -11 194 -92 254 -151 36 -35 83 -77 105 -95 64 -51
91 -79 125 -129 18 -26 32 -49 32 -52 0 -3 13 -24 28 -48 30 -46 91 -174 96
-205 2 -10 10 -38 17 -63 7 -25 13 -47 14 -50 7 -26 39 -128 42 -137 3 -7 -2
-13 -11 -13 -20 0 -20 -1 5 -50 12 -23 22 -61 22 -92 2 -45 -1 -53 -15 -50
-21 3 -21 2 -8 -33 11 -29 22 -150 20 -210 -1 -22 -2 -77 -2 -122 0 -55 -4
-83 -12 -83 -6 0 -63 -25 -126 -56 -112 -55 -226 -102 -263 -110 -17 -3 -157
-72 -232 -114 -16 -9 -43 -20 -59 -24 -17 -4 -50 -24 -75 -45 -25 -21 -67 -52
-93 -69 -25 -18 -55 -46 -66 -64 -12 -18 -44 -53 -73 -78 -64 -56 -71 -63 -87
-86 -6 -11 -34 -51 -61 -91 -48 -69 -82 -127 -81 -138 0 -3 -7 -19 -15 -35 -8
-16 -15 -44 -14 -62 1 -37 25 -131 42 -165 5 -12 11 -33 12 -45 2 -34 27 -81
50 -93 11 -6 36 -19 55 -30 50 -27 71 -28 101 -6 14 11 42 23 62 26 29 6 37
12 42 37 8 35 8 35 -34 43 -45 8 -48 10 -56 42 -3 15 -15 45 -26 67 -25 53
-24 73 9 122 32 49 105 144 108 141 1 -1 4 -28 8 -60 8 -75 21 -101 49 -93 12
3 25 6 29 6 6 0 19 52 32 130 3 14 5 25 6 25 1 0 3 9 5 20 7 41 11 55 18 61 4
4 7 13 7 20 0 7 5 25 12 41 6 15 11 31 10 34 0 3 18 26 41 51 43 46 149 100
225 113 18 3 51 12 75 19 67 23 129 39 162 43 60 8 225 11 221 5 -2 -4 0 -34
5 -67 5 -33 12 -75 14 -92 3 -18 2 -33 -2 -33 -5 0 -14 -4 -21 -9 -11 -6 -10
-15 5 -42 23 -42 30 -59 83 -229 50 -158 94 -259 121 -278 10 -7 19 -19 19
-27 0 -7 15 -26 34 -42 28 -26 37 -41 48 -90 13 -55 172 -161 303 -203 47 -16
165 -16 193 -1 10 6 33 13 50 16 l30 5 -18 -38 c-10 -20 -15 -41 -10 -47 14
-16 12 -23 -19 -83 -16 -31 -37 -79 -46 -105 -8 -27 -22 -62 -30 -78 -9 -16
-13 -29 -10 -29 3 0 -1 -16 -9 -35 -9 -20 -15 -38 -15 -40 0 -3 -10 -37 -22
-77 -27 -88 -116 -250 -156 -283 -31 -25 -63 -81 -63 -110 0 -17 -5 -36 -11
-42 -14 -14 -15 -16 -40 -244 -10 -89 -12 -96 -37 -106 -15 -7 -43 -20 -62
-31 -62 -34 -134 -67 -144 -67 -17 0 -82 -136 -95 -200 -7 -33 -22 -81 -33
-106 -24 -57 -21 -99 9 -110 27 -10 93 44 118 98 26 55 66 116 72 110 2 -3 7
-32 9 -64 4 -52 0 -73 -33 -157 -21 -55 -50 -110 -67 -127 -28 -29 -107 -71
-136 -73 -8 -1 -15 -7 -14 -13 3 -40 5 -49 13 -62 5 -8 27 -16 48 -17 21 -2
52 -7 70 -12 17 -6 34 -8 37 -5 3 3 32 5 64 4 61 -1 134 25 159 58 37 47 134
225 149 272 20 64 23 67 33 50 5 -8 2 -25 -7 -41 -15 -27 -15 -30 2 -49 10
-11 23 -18 28 -15 5 4 36 6 69 5 45 0 63 4 76 18 10 10 28 24 40 30 18 9 93
109 98 131 1 3 5 13 9 22 11 24 12 55 3 98 -4 19 -3 40 1 45 9 13 188 115 202
115 5 0 10 4 10 8 0 12 130 70 265 117 28 10 59 21 70 25 11 5 49 18 85 30 36
12 79 27 95 35 17 7 35 14 42 16 6 2 35 26 63 53 41 38 56 61 66 99 7 28 12
53 12 56 -1 3 3 38 10 76 6 39 14 90 18 115 9 55 10 329 1 425 -6 72 -25 140
-57 207 -16 33 -16 39 -3 50 17 14 11 62 -17 123 -10 23 -22 53 -25 68 -4 15
-11 29 -15 32 -11 7 -12 203 0 250 7 31 28 58 95 124 84 82 88 84 158 98 40 7
90 15 112 16 22 2 46 6 53 11 6 4 12 5 12 2 0 -3 19 2 43 10 23 9 53 18 66 20
13 3 39 11 59 19 19 8 46 13 61 10 14 -3 41 -8 60 -11 18 -3 41 -7 50 -9 21
-5 290 -57 359 -70 15 -3 50 -10 77 -16 28 -5 65 -12 83 -15 18 -3 71 -23 118
-45 47 -22 89 -37 94 -34 5 3 28 1 52 -4 24 -6 54 -12 68 -15 14 -3 38 -9 54
-12 21 -5 31 -2 38 10 7 13 18 16 46 11 20 -4 48 -8 62 -9 54 -6 111 -19 116
-27 3 -5 14 -9 24 -9 10 0 31 -5 47 -12 15 -6 33 -12 39 -13 6 -2 27 -10 45
-18 47 -21 72 -28 122 -32 48 -4 68 -8 82 -17 13 -7 56 -16 124 -23 30 -4 63
-9 75 -12 47 -11 119 1 196 32 79 33 218 112 245 140 11 12 36 32 55 45 19 13
64 49 100 80 91 78 138 113 190 141 25 13 47 27 48 32 2 4 8 7 14 7 5 0 28 12
51 28 23 15 58 34 77 43 113 53 146 64 155 49 3 -5 16 -7 29 -4 31 5 236 -82
251 -107 4 -5 21 -16 38 -24 18 -8 39 -20 48 -27 14 -9 22 -8 43 6 31 20 28
30 -34 101 -22 25 -40 48 -40 49 0 2 21 -1 48 -6 26 -5 65 -11 87 -13 37 -3
76 -11 83 -15 1 -2 7 -3 13 -4 13 -1 17 -7 57 -97 l29 -65 -24 -30 -23 -29 21
-18 c23 -18 36 -17 99 9 77 32 84 40 98 101 17 75 11 142 -17 182 -12 17 -24
41 -26 53 -3 13 -9 24 -14 26 -6 2 -19 22 -31 46 -28 58 -56 83 -126 108 -79
28 -299 67 -344 60 -35 -6 -151 -7 -200 -3 -30 3 -222 -49 -265 -71 -16 -9
-85 -34 -152 -57 -66 -22 -154 -59 -195 -81 -40 -21 -123 -57 -183 -78 -111
-40 -275 -117 -329 -155 -22 -16 -45 -21 -85 -21 -80 0 -97 6 -244 77 -161 79
-159 78 -314 128 -132 43 -146 46 -215 54 -89 9 -143 15 -187 21 -25 3 -68 7
-95 10 -26 2 -60 12 -75 22 -36 25 -111 54 -111 43 0 -5 -8 -12 -19 -16 -10
-3 -33 -19 -51 -36 -33 -32 -46 -33 -35 -2 9 26 107 98 128 94 43 -7 98 89
101 176 1 29 7 58 14 65 16 16 16 19 -17 90 -25 55 -32 84 -45 173 -1 11 4 31
13 45 12 19 15 52 14 144 -2 109 -4 121 -27 157 -14 21 -26 43 -26 49 0 5 -4
10 -10 10 -5 0 -10 4 -10 9 0 18 -79 128 -97 136 -23 9 -69 10 -108 1 -68 -15
-81 -17 -110 -17 -16 0 -50 7 -75 16 -42 15 -115 33 -167 40 -12 2 -27 -3 -34
-11 -6 -8 -30 -23 -53 -33 -22 -11 -63 -40 -90 -65 -38 -37 -53 -45 -72 -40
-55 14 -100 7 -127 -18 -62 -60 -88 -199 -53 -283 14 -32 14 -37 0 -42 -8 -3
-28 1 -45 8 -34 14 -146 16 -194 4 -51 -13 -93 -8 -275 33 l-175 40 -210 -3
c-115 -2 -221 -6 -234 -9 -13 -3 -49 -8 -80 -11 -31 -4 -67 -8 -81 -11 -14 -2
-50 0 -79 5 -52 8 -111 -3 -111 -21 0 -4 -7 -8 -15 -8 -8 0 -15 -4 -15 -10 0
-5 -4 -10 -10 -10 -8 0 -25 -10 -100 -60 -87 -58 -170 -108 -171 -102 -10 53
-10 51 -4 237 13 396 12 407 -14 430 -49 42 -52 47 -46 77 4 16 2 34 -3 41 -9
10 -48 140 -56 182 -1 6 -5 15 -9 21 -11 18 -19 83 -21 161 l-1 72 -31 -24
-31 -23 -16 26 c-43 73 -202 237 -317 328 -79 62 -85 66 -165 112 -95 56 -355
130 -477 136 -70 4 -117 14 -135 29 -7 5 -13 8 -14 6z m1860 -2006 c3 -5 80
-9 171 -10 91 0 176 -3 190 -6 14 -3 46 -9 73 -13 26 -3 47 -10 47 -14 0 -4
-28 -22 -62 -39 -113 -60 -181 -119 -392 -342 -57 -59 -130 -109 -162 -109
-29 0 -84 -24 -109 -48 -23 -21 -44 -21 -90 -3 -74 30 -176 197 -179 293 -1
36 3 52 11 51 6 -2 24 17 40 42 15 24 32 44 36 45 5 0 36 -16 69 -36 34 -19
64 -31 68 -27 4 4 18 28 32 53 33 62 75 127 88 135 5 3 10 14 10 24 0 16 9 18
76 15 42 -1 80 -6 83 -11z m479 -1915 c3 -89 6 -100 26 -92 10 4 14 -10 15
-62 1 -50 6 -70 18 -79 12 -9 18 -29 20 -61 3 -68 0 -74 -34 -65 -43 12 -142
-27 -256 -101 -32 -21 -61 -38 -63 -38 -3 0 -20 -11 -39 -26 -42 -32 -48 -23
-47 70 1 64 28 157 51 176 3 3 19 23 36 45 16 22 32 42 35 45 4 3 33 37 65 75
32 39 62 72 65 75 3 3 24 28 45 55 22 28 45 53 50 57 6 4 10 8 10 8 0 0 1 -37
3 -82z"/>
</g>
</svg>
