<svg viewBox="0 0 257.79 63.64" xmlns="http://www.w3.org/2000/svg"><g fill="#fff"><path d="m59.21 36.13-7.21-13.13-9.71-17.64-2.95-5.36-5.82 17.44h-6.52l-5.86-17.44-7 12.76-11.14 20.31-3 5.36a38.32 38.32 0 0 1 8 2.72 24.57 24.57 0 0 1 6.34 4.65 27.47 27.47 0 0 1 2.95 3.59l6.78 12.71a38.19 38.19 0 0 0 5.14 1.48 8.66 8.66 0 0 0 3.91-.45c1.1-.32 2.2-.68 3.29-1l6.73-12.73a25.29 25.29 0 0 1 12.51-9.62c1.58-.54 3.21-.93 4.82-1.35zm-5.56 0a29.17 29.17 0 0 0 -11.82 8.26 31.48 31.48 0 0 0 -2.17 2.85c-2 3.81-4 7.64-6.08 11.46-1 .28-1.92.58-2.9.82h-.21l-.23-.06-.23.06h-.21c-1-.23-1.94-.53-2.9-.82q-3-5.73-6.08-11.47a29.42 29.42 0 0 0 -11.22-9.87 30.35 30.35 0 0 0 -3.54-1.47l14.16-25.75 3.78 11.4h12.45l3.8-11.39 14.16 25.74z"/><path d="m19.61 34c-1.24.57-.89 2-.25 2.87a6.82 6.82 0 0 0 3.84 2.52c1.15.25 3 .12 2.91-1.49-.21-2.39-4.25-4.9-6.5-3.9z"/><path d="m38.69 33.89a6.87 6.87 0 0 0 -3.92 2.42c-.66.86-1.16 2.29 0 2.94s2.86 0 3.92-.6 2.85-2 2.75-3.51-1.71-1.46-2.75-1.25z"/><path d="m101.68 39.68v-1.12l-.05-.35-.06-.35-.07-.34-.08-.33-.1-.32-.11-.32-.12-.31-.13-.3-.14-.3-.15-.29-.17-.28-.18-.27-.19-.26-.2-.26-.29-.28-.22-.24-.23-.23-.19-.2-.25-.22-.26-.21-.28-.2-.28-.19-.29-.19-.31-.18-.33-.14.31-.2.31-.21.29-.21.28-.22.27-.23.26-.23.25-.24.24-.25.22-.25.21-.26.2-.26.19-.27.18-.28.17-.28.16-.29.14-.3.14-.3.12-.31.11-.32.1-.32.09-.33.08-.33.07-.34.06-.35v-3.65l-.06-.3-.06-.3-.07-.29-.08-.29-.09-.28-.09-.31-.11-.27-.11-.27-.12-.27-.13-.26-.14-.26-.15-.25-.15-.24-.17-.24-.17-.23-.18-.23-.19-.22-.24-.26-.2-.21-.21-.2-.22-.2-.22-.19-.24-.2-.24-.18-.25-.17-.25-.17-.2-.12-.21-.12-.21-.11-.22-.1-.22-.1-.23-.1-.24-.09-.24-.09-.25-.08h-.29l-.26-.07-.26-.07-.27-.06-.21-.09-.28-.06-.29-.05h-24.25v36.15h22.26l.69-.06.66-.08.64-.1.62-.12.59-.14.57-.16.55-.18.52-.2.5-.22.48-.24.46-.26.43-.28.41-.31.39-.33.36-.35.34-.37.31-.4.29-.42.26-.44.23-.46.21-.48.18-.5.16-.52.13-.54.11-.56.08-.58.06-.6v-1.74zm-23.89-3.94h12.42l.2.06.19.06.18.07.22.07.15.08.15.09.14.09.13.1.12.1.11.11.1.12.09.13.01.18.08.14.07.15.07.16.06.17v.18 1.34 1.33.18l-.08.35-.07.16-.07.15-.08.14-.09.13-.09.12-.1.12-.11.11-.12.1-.12.1-.14.09-.14.08-.15.08-.17.07-.18.07-.19.06-.2.06h-12.43zm0-14.38h12.3l.2.06.19.06.18.07.17.07.15.08.14.08.14.09.13.1.12.1.11.11.1.11.09.12.09.13.08.14.02.32.07.16.06.17.05.18v2.57l-.05.18-.06.17-.07.17-.07.15-.08.14v.11l-.09.12-.1.11-.11.11-.12.1-.13.1-.14.09-.14.08-.15.08-.17.07-.18.07-.19.06-.2.06h-12.34z"/><path d="m141.29 30.87v-1.13l-.08-1.09-.21-1.07-.15-1-.19-1-.22-1-.26-.91-.29-.87-.33-.84-.37-.8-.4-.76-.44-.73-.45-.67-.52-.65-.55-.61-.59-.58-.63-.54-.66-.5-.7-.46-.74-.42-.77-.39-.81-.34-.84-.31-.88-.27-.91-.23-1-.19-1-.16-1-.12-1.06-.09-1.09-.05h-2.15l-1.08.05-1 .09-1 .12-1 .16-.94.19-.91.23-.87.27-.84.3-.81.34-.77.38-.74.42-.7.45-.67.5-.63.53-.59.57-.56.61-.52.64-.49.68-.45.72-.41.75-.37.78-.33.82-.3.86-.26.89-.23.93-.19 1-.15 1-.12 1-.07 1.07v1.11 3.45l.08 1.12.11 1.08.15 1 .18 1 .22 1 .25.93.29.89.33.86.36.82.4.78.44.74.47.7.51.67.55.63.58.59.63.55.66.51.7.47.73.43.77.39.81.35.85.31.88.28.92.24 1 .2 1 .16 1 .13 1.07.09h4.46l1.06-.09 1-.12 1-.16 1-.2.91-.24.88-.27.84-.31.81-.35.77-.39.73-.42.7-.46.66-.5.63-.54.59-.58.55-.62.52-.65.48-.69.44-.73.4-.77.37-.81.33-.84.29-.88.26-.91.22-1 .19-1 .15-1 .12-1.06.08-1.09.05-1.13v-1.11zm-25.29 9.69-.24-.4-.23-.42-.21-.45-.19-.48-.18-.5-.16-.53-.14-.56-.12-.59-.11-.61-.09-.64-.07-.67-.06-.7v-4.39l.06-.65.08-.63.1-.6.12-.58.13-.55.15-.53.17-.5.18-.48.2-.45.22-.43.23-.41.25-.38.26-.36.28-.33.3-.31.32-.29.33-.27.35-.25.37-.23.39-.21.4-.18.42-.16.44-.14.46-.12.49-.1.5-.08h3.33l.51.08.49.1.47.12.45.14.43.17.41.18.39.21.37.23.35.25.33.27.31.29.3.32.28.34.26.36.24.39.23.42.21.44.2.46.18.49.16.52.15.54.13.57.11.6.1.62.08.65.06.68v4.37l-.06.67-.08.65-.1.62-.11.6-.13.57-.15.54-.16.52-.18.49-.2.47-.21.44-.23.42-.24.39-.26.37-.28.34-.3.32-.31.29-.33.27-.35.25-.37.23-.39.21-.41.19-.43.17-.45.14-.47.12-.49.1-.51.08h-3.38l-.52-.08-.5-.1-.47-.12-.45-.15-.41-.22-.41-.19-.39-.21-.37-.23-.35-.25-.33-.28-.31-.3-.29-.32-.28-.35z"/><path d="m170.8 43.27h-8.77-.28-.28l-.28-.01-.27-.01-.26-.02-.25-.01-.25-.02-.24-.03-.24-.02-.23-.04-.22-.03-.22-.04-.22-.05-.2-.04-.2-.05-.2-.06-.19-.06-.18-.07-.18-.07-.18-.08-.17-.08-.17-.09-.16-.09-.16-.1-.15-.11-.16-.11-.15-.11-.15-.13-.14-.13-.14-.14-.14-.15-.13-.15.02.02-.02-.02-.1-.12-.08-.11-.08-.11-.08-.13-.06-.13-.07-.13-.07-.13-.05-.15-.06-.14-.05-.15-.04-.16-.05-.16-.04-.17-.03-.18-.03-.18-.03-.18-.03-.19-.03-.2-.02-.2-.01-.2-.02-.21-.01-.22-.02-.22v-.23l-.01-.23-.01-.24v-.24l-.01-.25v-.26-.25-.27-.27-1.38-19.38-.59h-.59-7.44-.6v.59 21.01l.01.43v.43l.01.42.01.41.02.41.02.4.02.39.04.39.03.37.05.38.04.36.06.36.06.36.07.35.08.34.09.34.1.34.1.33.11.32.13.33.13.31.14.31.15.32.17.3.17.3.19.3.2.3.21.29.22.29.23.29.25.28.26.28.31.32.31.3.31.28.32.27.32.26.33.23.32.23.34.2.33.2.35.17.34.17.35.15.35.14.36.13.37.11.36.11.38.09.37.09.39.07.39.07.39.05.41.05.4.04.42.04.42.03.43.03.43.01.45.02.45.01h.46l.47.01h.47 9.41.6v-.59-5.87-.59z"/><path d="m184.12 13.81h-7.78-.6v.59 35.33.59h.6 7.78.59v-.59-35.33-.59z"/><path d="m223.76 38.44-.03-.67-.06-.65-.07-.62-.1-.59-.11-.57-.14-.55-.17-.53-.19-.5-.21-.48-.24-.45-.26-.43-.29-.41-.31-.38-.34-.36-.37-.34-.38-.31-.41-.28-.44-.27-.46-.24-.48-.21-.5-.2-.53-.17-.55-.15-.57-.13-.59-.11-.62-.1-.64-.07-.67-.06-.69-.04-.71-.02-.74-.01h-9.85-.27l-.26-.02-.25-.01-.24-.03-.23-.03-.22-.03-.21-.05-.2-.05-.19-.05-.18-.07-.17-.06-.16-.08-.15-.08-.14-.08-.13-.09-.13-.09-.11-.1-.11-.11-.1-.11-.09-.11-.08-.12-.08-.13-.07-.14-.06-.14-.06-.15-.05-.16-.04-.17-.04-.17-.03-.19-.02-.19-.01-.21v-.21-.27l.01-.27.03-.25.03-.24.05-.22.05-.22.06-.2.07-.19.08-.18.08-.17.1-.16.1-.15.11-.14.12-.14.14-.12.14-.12.15-.11.16-.11.18-.1.19-.09.2-.09.21-.08.23-.07.23-.07.26-.05.26-.05.28-.05.29-.03.31-.03.32-.02.33-.01h.35 18.37.59v-.6-6.31-.59h-.59-19.46l-.79.01-.76.03-.75.05-.72.06-.69.09-.67.11-.64.13-.62.15-.6.18-.57.19-.55.22-.53.24-.5.27-.48.29-.45.32-.43.34-.4.36-.38.39-.34.42-.33.44-.29.46-.27.49-.24.51-.22.53-.18.56-.17.58-.13.61-.11.62-.09.66-.06.67-.03.7-.02.73.01.67.04.65.05.62.08.61.11.59.12.56.16.54.17.52.2.51.23.48.25.45.28.44.31.42.32.39.36.37.38.34.4.32.43.3.46.28.47.25.5.24.52.2.55.19.57.17.59.14.62.12.64.11.66.09.69.06.7.05.74.02.76.02v-.01h8.77v.01h.32.31l.3.02.28.02.27.02.26.04.25.03.23.05.22.05.21.05.19.06.19.07.17.08.15.08.15.08.13.09.13.1.12.1.1.11.1.12.09.13.09.14.07.14.07.16.06.17.06.18.04.2.04.21.03.23.03.24.01.25.01.27h-.01v.26l-.01.24-.03.23-.03.21-.04.2-.05.19-.06.18-.07.16-.07.15-.09.14-.09.13-.09.13-.11.11-.12.11-.13.1-.14.1-.15.09-.16.09-.18.08-.19.07-.2.07-.22.06-.23.06-.25.05-.26.04-.27.04-.29.03-.3.03-.31.02-.33.01-.34.01h-.35-18.62-.6v.6 6.31.59h.6 19.8l.78-.01.77-.03.74-.05.71-.06.69-.09.67-.11.64-.13.62-.15.59-.17.57-.19.55-.22.52-.24.5-.26.48-.29.45-.31.42-.34.4-.36.38-.38.35-.41.32-.43.29-.45.27-.48.24-.5.21-.52.19-.55.16-.57.14-.59.11-.61.09-.64.06-.66.03-.68.02-.7z"/><path d="m257.19 13.81h-30.59-.6v.59 6.16.6h.6 10.84v28.57.59h.59 7.68.6v-.59-28.57h10.88.6v-.6-6.16-.59z"/></g></svg>