<svg viewBox="0 0 102.64 23.44" xmlns="http://www.w3.org/2000/svg"><g fill="#fff"><path d="m49.42 4.49a3 3 0 0 1 6 0h1.47a4.49 4.49 0 1 0 -4.47 4.51v-1.49a3 3 0 0 1 -3-3z" transform="translate(0 -.02)"/><path d="m59.68.21h8.26v1.47h-8.26z"/><path d="m39.25.21h5.19v1.47h-5.19z"/><path d="m39.25 3.72h5.19v1.47h-5.19z"/><path d="m39.25 7.26h5.19v1.47h-5.19z"/><path d="m36.22.21h1.47v8.52h-1.47z"/><path d="m63.08 3.24h1.47v5.48h-1.47z"/><path d="m52.98 4.48-.55.56-.25.24.25.25 1.54 1.55 1.06 1.06.74.73 1.03-1.04-.72-.72-1.06-1.06-1.56-1.57-.24-.23z"/><path d="m1.11 14.45h-1.11l4.31 8.37.09.17.55-1.07-3.81-7.41z"/><path d="m5.72 18.27-.03.05.56 1.08 2.55-4.95h-1.11z"/><path d="m18.47 14.45h3.79v.94h-3.79z"/><path d="m15.13 14.45h1v8.75h-1z"/><path d="m18.47 18.36h3.79v.94h-3.79z"/><path d="m18.47 22.26h3.79v.94h-3.79z"/><path d="m43.06 14.45h6.71v.94h-6.71z"/><path d="m45.92 17.73h1v5.48h-1z"/><g transform="translate(0 -.02)"><path d="m56.48 19.34v-4.87h-1v5.06a3.66 3.66 0 0 0 .87 2.74 3.77 3.77 0 0 0 1.33.93l.14.06v-1.08c-1.13-.59-1.34-1.48-1.34-2.84z"/><path d="m61.47 19.34a3.7 3.7 0 0 1 -.36 1.94 2.18 2.18 0 0 1 -1 .88v1.07l.14-.06a3.74 3.74 0 0 0 1.35-.94 3.66 3.66 0 0 0 .87-2.73v-5h-1z"/><path d="m75.17 21.09a4.08 4.08 0 0 1 -.77.17h-.12l.72 2h1l-.76-2.17z"/><path d="m73.33 14.47h-.1v1h.23a2.1 2.1 0 0 1 1.23.27 1.45 1.45 0 0 1 -.23 2.52 2.61 2.61 0 0 1 -1.11.16h-.12v1h.25a2.63 2.63 0 0 0 1.88-.5 2.48 2.48 0 0 0 .94-1.92 2.41 2.41 0 0 0 -.81-1.81 2.75 2.75 0 0 0 -2.16-.72z"/></g><path d="m69.91 14.45h1v8.75h-1z"/><path d="m83.35 14.45h1v8.75h-1z"/><path d="m86.68 14.45h3.79v.94h-3.79z"/><path d="m86.68 22.26h3.79v.94h-3.79z"/><path d="m86.68 18.36h3.79v.94h-3.79z"/><path d="m101.72 18.79-.09-.07-.53.87.06.06a1.52 1.52 0 0 1 .47 1.29 1.69 1.69 0 0 1 -1.69 1.6h-.14a2.21 2.21 0 0 1 -1.58-1.12l-.09-.12-.54.85a1.21 1.21 0 0 0 .2.3 2.73 2.73 0 0 0 1.9 1h.23a2.71 2.71 0 0 0 2.7-2.52 2.33 2.33 0 0 0 -.9-2.14z" transform="translate(0 -.02)"/><path d="m98.9 18.52h.1l.5-.83-.08-.05a1.28 1.28 0 0 1 -.63-1.23 1.42 1.42 0 0 1 .47-.94 1.36 1.36 0 0 1 1-.32 1.45 1.45 0 0 1 1.26.77l.09.12.5-.79v-.12a2.38 2.38 0 0 0 -3.79 2.87 2 2 0 0 0 .58.52z" transform="translate(0 -.02)"/><path d="m36.25 21.07-6.42-6.55-.17-.17v1.48l7.42 7.44.17.17v-8.99h-1z"/><path d="m29.66 23.21h1v-3.73l-1-.88z"/></g></svg>