<svg xmlns="http://www.w3.org/2000/svg" viewBox="0 0 69.48 51.8"><g data-name="Layer 5"><path d="M22.91 51.72h-.85V47h-5.68v4.77h-.84v-10h.84v4.47h5.68v-4.47h.85zM32 42.48h-3.41v9.24h-.85v-9.24h-3.4v-.71H32zm8.47 0h-3.41v9.24h-.85v-9.24h-3.4v-.71h7.66zm2.44 5.19v4h-.84v-9.9h3.39a3.54 3.54 0 0 1 2.45.79 2.75 2.75 0 0 1 .9 2.18A2.7 2.7 0 0 1 48 46.9a3.68 3.68 0 0 1-2.51.77zm0-.72h2.55a2.69 2.69 0 0 0 1.87-.58 2.06 2.06 0 0 0 .67-1.62 2.17 2.17 0 0 0-.64-1.65 2.54 2.54 0 0 0-1.81-.62h-2.64zm10.6-.95l2.8-4.21h1L54 46.67l3.4 5h-1l-2.9-4.35-2.9 4.4h-1l3.4-5-3.3-4.9h1zm-18-33.33c.1-.09.1-.26.25-.26s.2.15.3.53c.08-.06.07-.15.09-.22a12.49 12.49 0 0 1 2.32-4 32.2 32.2 0 0 0 2.58-3.36 3.11 3.11 0 0 1 .23-.28c.06-.07.14-.15.23-.06s0 .15 0 .21c-.39.54-.81 1-1.24 1.56a22.07 22.07 0 0 0-3.59 5 7.72 7.72 0 0 0-.48 1.29c-.08.28 0 .41.3.44a.58.58 0 0 1 .5.83c-.08.18-.18.34.06.48 0 .28.24.45.34.68s.12.13.22.09a13.9 13.9 0 0 1 4.19-.81 38 38 0 0 1 5.19-.28c1.48 0 2.94-.17 4.42-.14a14.77 14.77 0 0 1 6.14 1.32 4.52 4.52 0 0 1 2 1.74c.1.16.21.33 0 .51s0 .16 0 .24a1.24 1.24 0 0 1-.3 1.34 2.85 2.85 0 0 0-.53.62 1.74 1.74 0 0 1-.91.64 1.55 1.55 0 0 0-.63.42 1.75 1.75 0 0 1-1.22.72.61.61 0 0 0-.35.19 3.77 3.77 0 0 1-.94.63.61.61 0 0 0-.42.48.37.37 0 0 1-.05.11 2.22 2.22 0 0 1-1.43 1.07.72.72 0 0 0-.4.28A2.55 2.55 0 0 1 51 25.73a.92.92 0 0 0-.7.44.83.83 0 0 1-.44.36.81.81 0 0 0-.52.56 3.43 3.43 0 0 1-.28.58 4.07 4.07 0 0 1-.42 1c-.25.3-.42.66-.87.75a.91.91 0 0 0-.58.56 1.65 1.65 0 0 1-1.33 1 1.06 1.06 0 0 0-.83.5 1.86 1.86 0 0 1-1.17.95 3.37 3.37 0 0 1-.84 0 .61.61 0 0 0-.56.19 1.24 1.24 0 0 1-.84.37 1.5 1.5 0 0 1-1.17-.42.53.53 0 0 0-.49-.11 1.41 1.41 0 0 1-1 0h-.09A1 1 0 0 1 38 32a1.49 1.49 0 0 0-.44-.3 2.35 2.35 0 0 1-1.19-2 4.75 4.75 0 0 1 .07-1.35c-.18 0-.36.07-.5-.08s-.1 0-.1.08c-.15.8-.64 1.48-.85 2.26a1.76 1.76 0 0 1-.31.57.58.58 0 0 1-.41.29 1.33 1.33 0 0 0-.59.3 1.07 1.07 0 0 1-.69.26c-.1 0-.2.1-.31.11a2.19 2.19 0 0 1-1-.14.52.52 0 0 0-.44 0 1.88 1.88 0 0 1-1.36.14 1 1 0 0 1-.51-.35.84.84 0 0 0-.77-.23 1.64 1.64 0 0 1-1.44-.62 2.13 2.13 0 0 0-.58-.79c-.23-.14-.5-.16-.74-.28a1.89 1.89 0 0 1-.82-.81 1.59 1.59 0 0 0-.67-.69 2 2 0 0 1-1-1 3.83 3.83 0 0 0-.27-.71c-.15-.23-.23-.5-.56-.61a2.14 2.14 0 0 1-.78-.49c-.14-.14-.19-.36-.39-.47a1 1 0 0 0-.35-.14.6.6 0 0 1-.32-.12c-.39-.3-.84-.55-1-1.05a.36.36 0 0 0-.24-.19 2.17 2.17 0 0 1-1.29-1.26.62.62 0 0 0-.3-.34 3.56 3.56 0 0 1-1-.78.33.33 0 0 0-.25-.12.8.8 0 0 1-.63-.27 1.85 1.85 0 0 0-.37-.31.81.81 0 0 1-.28-.3.41.41 0 0 0-.37-.26.54.54 0 0 1-.31-.13c-.16-.09-.16-.2 0-.29a1.28 1.28 0 0 0 .35-.45c.07-.13 0-.18-.1-.18s-.26 0-.17-.27a.42.42 0 0 0-.1-.52.38.38 0 0 1-.15-.45c0-.14 0-.17-.16-.15a2.11 2.11 0 0 0-.64.22c-.2.12-.22.08-.28-.14-.21-.77.28-1.22.76-1.65a6.34 6.34 0 0 1 2.35-1.28 15.18 15.18 0 0 1 5.09-.71c1.21 0 2.42.08 3.63.2.61.06 1.23.07 1.84.11 1.16.08 2.32.22 3.47.36.76.09 1.53.17 2.28.32a3.11 3.11 0 0 1 1.51.6c.07.06.13.07.16 0s.14-.18.2-.28a.91.91 0 0 0 .19-1 .59.59 0 0 1 .32-.73c.1-.05.26 0 .27-.18s.16-.45 0-.71a11.51 11.51 0 0 0-1-1.68c-.72-1-1.59-1.91-2.39-2.87-.48-.58-1.06-1.06-1.57-1.62a3.94 3.94 0 0 1-.36-.45c0-.08-.14-.18 0-.26s.2 0 .26.11.3.42.47.62c.64.74 1.28 1.5 1.95 2.23a17.2 17.2 0 0 1 2.69 3.95z" fill="#fff"/></g></svg>