<svg width="165" height="28" xmlns="http://www.w3.org/2000/svg"><g fill="none"><path d="M26.28 6.193c-.164-.527-.56-.955-1.053-1.219L15.182.164c-.264-.13-.56-.164-.824-.164-.263 0-.56 0-.823.066L3.49 4.908a1.77 1.77 0 0 0-.988 1.22L.032 16.964c-.099.56.033 1.12.362 1.58l6.95 8.599c.395.395.955.658 1.514.691h11.066c.593.066 1.153-.197 1.515-.691l6.95-8.598a2.25 2.25 0 0 0 .395-1.581L26.28 6.193z" fill="#326DE6"/><path d="M24.733 16.536c-.033 0-.066 0-.066-.032 0-.033-.066-.033-.132-.033-.132-.033-.263-.033-.395-.033-.066 0-.132 0-.198-.033h-.033a6.655 6.655 0 0 1-1.12-.198.398.398 0 0 1-.23-.23c.033 0 0 0 0 0l-.263-.066c.131-.956.065-1.944-.132-2.9a8.925 8.925 0 0 0-1.153-2.7l.198-.198v-.033c0-.099.033-.23.099-.296.296-.264.592-.462.922-.66l.197-.098c.132-.066.23-.132.363-.198.033-.033.065-.033.098-.066s0-.033 0-.066c.297-.23.363-.625.132-.922a.629.629 0 0 0-.461-.23.787.787 0 0 0-.461.164l-.033.033c-.033.033-.066.066-.099.066a2.124 2.124 0 0 0-.263.297c-.033.065-.1.098-.132.131a4.33 4.33 0 0 1-.823.725.468.468 0 0 1-.198.066c-.033 0-.099 0-.132-.033h-.033l-.263.165c-.264-.264-.56-.527-.823-.79-1.219-.956-2.734-1.55-4.282-1.714l-.033-.263v.033c-.099-.066-.132-.165-.164-.264 0-.362 0-.725.065-1.12v-.033c0-.066.033-.132.033-.198.033-.131.033-.263.066-.395v-.198a.652.652 0 0 0-.56-.691c-.197-.033-.395.066-.56.23a.65.65 0 0 0-.197.461v.165c0 .132.033.264.066.395a.418.418 0 0 1 .033.198v.033c.065.362.065.725.065 1.12-.032.099-.065.198-.164.264v.065l-.033.264c-.362.033-.725.099-1.12.165-1.548.33-2.964 1.153-4.05 2.306l-.198-.132h-.033c-.033 0-.066.033-.132.033s-.132-.033-.198-.066a6.073 6.073 0 0 1-.823-.758c-.033-.066-.099-.099-.132-.132-.099-.098-.164-.197-.263-.296-.033-.033-.066-.033-.099-.066l-.033-.033a.787.787 0 0 0-.461-.165c-.198 0-.362.066-.461.231a.709.709 0 0 0 .132.922c.033 0 .033.033.033.033s.065.066.098.066c.1.066.23.132.363.198l.197.099c.33.197.659.395.922.659.066.065.132.197.1.296v-.033l.197.198c-.033.066-.066.099-.099.164-1.021 1.615-1.45 3.525-1.153 5.403l-.263.066c0 .033-.033.033-.033.033-.033.098-.132.164-.23.23a6.116 6.116 0 0 1-1.12.198c-.066 0-.132 0-.198.033-.132 0-.263.033-.395.033-.033 0-.066.033-.132.033-.033 0-.033 0-.066.033a.643.643 0 0 0-.527.757.611.611 0 0 0 .659.461c.066 0 .099 0 .165-.033.033 0 .033 0 .033-.032 0-.033.098 0 .131 0 .132-.033.264-.1.363-.132a.468.468 0 0 1 .197-.066h.033a5.87 5.87 0 0 1 1.087-.297h.033c.099 0 .197.033.263.1.033 0 .033.032.033.032l.297-.033a7.95 7.95 0 0 0 2.7 3.854c.297.23.56.429.89.593l-.165.23c0 .034.033.034.033.034a.39.39 0 0 1 .033.33c-.132.329-.33.658-.527.955v.032a.578.578 0 0 1-.132.165c-.066.066-.132.198-.23.33-.033.033-.033.065-.066.098 0 0 0 .033-.033.033a.678.678 0 0 0 .263.89.61.61 0 0 0 .23.066c.264 0 .495-.165.626-.396 0 0 0-.033.033-.033 0-.033.033-.065.066-.098.033-.132.099-.231.132-.363l.066-.197c.099-.363.263-.692.428-1.022a.512.512 0 0 1 .263-.197c.033 0 .033 0 .033-.033l.132-.264a7.751 7.751 0 0 0 2.865.527c.593 0 1.186-.066 1.779-.23.362-.066.724-.198 1.054-.297l.131.23c.033 0 .033 0 .033.034a.512.512 0 0 1 .264.197c.165.33.33.66.428 1.022v.033l.066.197c.033.132.066.264.132.363.033.033.033.065.065.098 0 0 0 .033.033.033.132.23.363.396.626.396.099 0 .165-.033.264-.066a.551.551 0 0 0 .296-.363.848.848 0 0 0-.033-.494c0-.033-.033-.033-.033-.033 0-.033-.033-.066-.066-.098a1.183 1.183 0 0 0-.23-.33.578.578 0 0 0-.132-.165v-.065a3.892 3.892 0 0 1-.527-.956.39.39 0 0 1 .033-.33c0-.032.033-.032.033-.032l-.099-.264c1.68-1.02 2.964-2.602 3.557-4.48l.263.033c.033 0 .033-.033.033-.033a.374.374 0 0 1 .264-.098h.033c.362.065.724.164 1.054.296h.033a.468.468 0 0 0 .197.066c.132.066.23.132.363.165.032 0 .065.033.131.033.033 0 .033 0 .066.032a.297.297 0 0 0 .165.033c.296 0 .56-.197.659-.46a.777.777 0 0 0-.593-.693zm-9.518-1.02l-.89.428-.889-.429-.23-.955.625-.79h.989l.625.79-.23.955zm5.368-2.142c.165.692.198 1.384.132 2.075l-3.129-.889c-.296-.066-.461-.362-.395-.659a.531.531 0 0 1 .132-.23l2.47-2.24c.362.593.625 1.251.79 1.943zm-1.778-3.162l-2.701 1.91c-.23.132-.56.1-.725-.131a.3.3 0 0 1-.098-.231l-.198-3.327c1.45.165 2.734.79 3.722 1.779zm-5.962-1.68l.66-.132-.166 3.294c0 .297-.263.527-.56.527-.098 0-.164-.033-.263-.066l-2.733-1.943a6.54 6.54 0 0 1 3.062-1.68zM8.826 11.43l2.437 2.174a.53.53 0 0 1 .065.757c-.065.1-.131.132-.263.165l-3.195.922a6.936 6.936 0 0 1 .956-4.018zm-.56 5.567l3.26-.56c.264 0 .527.164.56.428a.39.39 0 0 1-.033.33l-1.251 3.03a6.48 6.48 0 0 1-2.536-3.228zm7.476 4.084a6.663 6.663 0 0 1-1.416.165c-.692 0-1.417-.132-2.075-.33l1.613-2.931a.51.51 0 0 1 .66-.132c.098.066.164.132.263.23l1.58 2.867c-.197.033-.395.065-.625.131zm4.018-2.866a6.29 6.29 0 0 1-1.976 1.977l-1.285-3.097a.536.536 0 0 1 .297-.625.951.951 0 0 1 .296-.066l3.293.56c-.164.46-.362.89-.625 1.251z" fill="#FFF"/><path d="M159.565 20.588c.461.033.955-.033 1.383-.197a.733.733 0 0 0 .395-.725c-.032-.33-.23-.626-.526-.725a7.115 7.115 0 0 0-1.614-.725 13.066 13.066 0 0 1-1.515-.658 4.49 4.49 0 0 1-1.153-.79c-.33-.33-.56-.693-.724-1.12-.198-.495-.264-1.022-.264-1.55a3.42 3.42 0 0 1 1.317-2.8c.89-.69 2.075-1.02 3.59-1.02.725 0 1.482.066 2.207.23.56.1 1.12.23 1.68.428l-.626 2.8c-.461-.164-.89-.263-1.35-.395-.528-.132-1.087-.165-1.614-.165-1.12 0-1.68.297-1.68.923 0 .132.033.263.066.395.066.132.165.23.296.33.132.098.33.197.56.329.23.132.56.263.955.395.659.23 1.318.527 1.91.857.462.23.857.527 1.186.922.296.297.494.659.626 1.087.132.461.197.922.197 1.384a3.16 3.16 0 0 1-1.416 2.833c-.922.625-2.24.955-3.952.955a9.998 9.998 0 0 1-2.8-.297 20.342 20.342 0 0 1-1.514-.46l.593-2.9c.592.231 1.218.429 1.844.56.659.033 1.284.1 1.943.1m-18.147-3.624c-.033-.989.165-1.977.494-2.9.297-.79.758-1.481 1.35-2.107.56-.56 1.186-.989 1.91-1.252a5.883 5.883 0 0 1 2.24-.428c1.779 0 3.195.56 4.216 1.647 1.02 1.087 1.548 2.7 1.548 4.81 0 .197 0 .427-.033.69 0 .264-.033.462-.033.66h-8.036c.066.691.428 1.35 1.021 1.746a4.25 4.25 0 0 0 2.437.658c.626 0 1.285-.065 1.91-.164a6.518 6.518 0 0 0 1.548-.494l.494 2.898c-.23.132-.494.198-.757.297-.363.099-.725.198-1.087.23-.395.066-.79.132-1.252.198-.428.033-.889.066-1.35.066a7.586 7.586 0 0 1-2.964-.494 5.801 5.801 0 0 1-2.075-1.35c-.56-.594-.955-1.318-1.218-2.076-.23-.89-.363-1.779-.363-2.635m8.333-1.35c0-.297-.066-.594-.165-.89-.066-.297-.23-.527-.395-.758a2.254 2.254 0 0 0-.692-.56 2.206 2.206 0 0 0-1.02-.23c-.363 0-.692.065-1.022.23-.263.132-.527.297-.724.527-.198.23-.363.494-.461.79a4.315 4.315 0 0 0-.198.89h4.677m-17.982-8.17l3.557-.56v3.69h4.28v2.965h-4.28v4.414a3.291 3.291 0 0 0 .395 1.779c.263.428.79.659 1.613.659.396 0 .79-.033 1.153-.1a6.215 6.215 0 0 0 1.12-.296l.494 2.767c-.461.198-.955.33-1.45.462a9.484 9.484 0 0 1-1.942.197 5.957 5.957 0 0 1-2.404-.395 3.887 3.887 0 0 1-1.515-1.087c-.396-.494-.66-1.087-.824-1.713a8.353 8.353 0 0 1-.197-2.207V7.445m-14.393 9.52c-.033-.989.165-1.977.494-2.9.297-.79.758-1.481 1.35-2.107.56-.56 1.186-.989 1.91-1.252a5.883 5.883 0 0 1 2.24-.428c1.779 0 3.195.56 4.216 1.647 1.02 1.087 1.548 2.7 1.548 4.81 0 .197 0 .427-.033.69-.033.264-.033.462-.033.66h-8.069c.066.691.428 1.35 1.021 1.746a4.25 4.25 0 0 0 2.437.658c.626 0 1.285-.065 1.91-.164a7.292 7.292 0 0 0 1.581-.494l.494 2.898c-.23.132-.494.198-.757.297-.362.099-.725.198-1.087.23-.395.066-.79.132-1.252.198-.428.033-.889.066-1.35.066a7.586 7.586 0 0 1-2.964-.494 5.801 5.801 0 0 1-2.075-1.35c-.56-.594-.955-1.318-1.218-2.076-.264-.89-.396-1.779-.363-2.635m8.333-1.35c0-.297-.066-.594-.165-.89-.066-.297-.23-.527-.395-.758a2.254 2.254 0 0 0-.692-.56 2.206 2.206 0 0 0-1.02-.23c-.363 0-.692.065-1.022.23a2.149 2.149 0 0 0-.691.527c-.198.23-.363.494-.461.79a4.315 4.315 0 0 0-.198.89h4.644m-21.836-4.612a26.728 26.728 0 0 1 2.339-.494 18.37 18.37 0 0 1 2.997-.23c.889-.033 1.778.131 2.634.428a3.76 3.76 0 0 1 1.68 1.153c.428.527.725 1.153.89 1.812.197.757.263 1.548.263 2.338v7.083h-3.524V16.47c0-1.153-.165-1.944-.461-2.438-.297-.461-.857-.725-1.68-.725-.263 0-.527 0-.823.033-.297 0-.527.033-.758.066v9.685h-3.557v-12.09m-2.503 2.734c-.329-.065-.691-.164-1.12-.23a6.56 6.56 0 0 0-1.383-.132c-.263 0-.527.033-.823.066-.23.033-.461.066-.692.132v9.586h-3.556V11.233a17.343 17.343 0 0 1 2.24-.626 10.84 10.84 0 0 1 2.897-.296c.23 0 .461.033.692.033.263 0 .527.032.823.098.264.033.527.066.824.132.23.033.46.099.691.198l-.593 2.964m-22.098 3.229c-.033-.989.164-1.977.494-2.9.296-.79.757-1.481 1.35-2.107.56-.56 1.186-.989 1.91-1.252a5.883 5.883 0 0 1 2.24-.428c1.778 0 3.194.56 4.215 1.647s1.548 2.7 1.548 4.776c0 .198 0 .428-.033.692-.033.263-.033.461-.033.659h-8.069c.066.692.429 1.35 1.021 1.746a4.25 4.25 0 0 0 2.437.658c.626 0 1.285-.065 1.91-.164a8.372 8.372 0 0 0 1.549-.461l.494 2.898c-.231.132-.494.198-.758.297-.362.099-.724.198-1.087.23-.395.066-.79.132-1.251.198-.428.033-.89.066-1.35.066a7.586 7.586 0 0 1-2.965-.494 5.801 5.801 0 0 1-2.074-1.35c-.56-.594-.956-1.318-1.219-2.076-.198-.89-.33-1.746-.33-2.635m8.366-1.35c0-.297-.066-.594-.165-.89-.066-.297-.23-.527-.395-.758a2.254 2.254 0 0 0-.692-.56 2.206 2.206 0 0 0-1.02-.23c-.363 0-.692.065-1.022.23-.263.132-.526.297-.724.527a2.37 2.37 0 0 0-.461.79 4.315 4.315 0 0 0-.198.89h4.677m-14.129 1.153c0-2.306-.856-3.426-2.536-3.426a4.09 4.09 0 0 0-1.087.132 2.794 2.794 0 0 0-.856.362v6.457c.165.033.395.066.659.099.263.033.56.033.889.033a2.514 2.514 0 0 0 2.207-.989 4.72 4.72 0 0 0 .724-2.668m3.623.132c0 .922-.132 1.845-.461 2.734a5.567 5.567 0 0 1-1.252 2.075 5.972 5.972 0 0 1-2.042 1.35c-.889.33-1.811.462-2.766.462-.428 0-.89-.033-1.35-.066-.461-.033-.923-.099-1.384-.132a17.513 17.513 0 0 1-1.284-.23 4.302 4.302 0 0 1-1.087-.297V5.172l3.557-.56v6.259a7.906 7.906 0 0 1 1.252-.396 6.56 6.56 0 0 1 1.383-.131c.823 0 1.614.131 2.371.494a4.787 4.787 0 0 1 1.713 1.317 5.635 5.635 0 0 1 1.053 2.076c.198.823.297 1.745.297 2.668m-15.018 5.797c-.758.198-1.548.363-2.338.462a18.37 18.37 0 0 1-2.997.23c-.923.033-1.812-.132-2.668-.428a4.342 4.342 0 0 1-1.68-1.186 4.94 4.94 0 0 1-.889-1.878c-.198-.757-.263-1.58-.263-2.371v-6.95h3.556v6.554c0 1.153.165 1.977.462 2.471.296.494.856.758 1.68.758.263 0 .526 0 .823-.033.296-.033.527-.033.757-.1v-9.65h3.557v12.121M41.364 15.12c.363-.395.692-.79 1.087-1.186.363-.428.725-.823 1.087-1.219.362-.428.692-.79.988-1.153.297-.362.593-.691.823-.955h4.216c-.856.955-1.68 1.91-2.47 2.8-.823.89-1.68 1.812-2.635 2.734.527.494 1.021.988 1.482 1.548.494.593.988 1.186 1.482 1.845.461.626.922 1.285 1.318 1.91.395.627.724 1.22.988 1.747h-4.084c-.264-.429-.56-.857-.89-1.351-.329-.494-.691-.988-1.02-1.515a16.283 16.283 0 0 0-1.186-1.45 7.829 7.829 0 0 0-1.186-1.153v5.502h-3.556V5.172l3.556-.56V15.12" fill="#000"/></g></svg>