<svg height="45" viewBox="0 0 218 45" width="218" xmlns="http://www.w3.org/2000/svg"><g fill="#fff" transform="translate(0 -.001)"><path d="m79.729 16.736c-2.3460444-.0418849-4.6124922.8506638-6.3 2.481-1.6855905 1.5179451-2.6379818 3.686775-2.615 5.955v15.526l4.023-.931v-14.285c-.0198069-1.2725064.4962255-2.4947266 1.422-3.368 1.36141-1.3906669 3.4327119-1.8115933 5.2289368-1.0626156 1.796225.7489778 2.9549096 2.5167222 2.9250632 4.4626156.0854354 1.3642646-.433084 2.69713-1.418 3.645-1.1451648.9218979-2.595102 1.3795098-4.062 1.282-.5143204.001814-1.0271041-.0562433-1.528-.173-.1358052-.0201672-.2696294-.0519504-.4-.095l-.781 3.736c1.078521.3703241 2.2055.5805588 3.345.624 2.3935835.0581305 4.7068471-.8649956 6.40279-2.5550839 1.695943-1.6900884 2.627063-4.0001459 2.57721-6.3939161.0532938-2.3573387-.8576221-4.6343528-2.5221044-6.3044979s-3.9383895-2.5887893-6.2958956-2.5435021z"/><path d="m98.742 16.736c-3.5876092.044276-6.8025446 2.2253581-8.1697473 5.5425342-1.3672027 3.317176-.6227678 7.1301467 1.8917473 9.6894658 1.6186324 1.6945637 3.8708925 2.636932 6.214 2.6 2.374878.0502912 4.663163-.8919862 6.314-2.6 2.567623-2.5360993 3.349537-6.371695 1.979556-9.7105034s-4.620611-5.5197693-8.229556-5.5214966zm3.3 12.456c-.831104.9528829-2.03561 1.4971004-3.3 1.491-1.2633925.004059-2.4684096-.5315042-3.312-1.472-.91165-.9287439-1.4136473-2.1837371-1.394-3.485-.0225635-1.3281438.4781427-2.6118771 1.394-3.574.8435943-.9462584 2.0500103-1.488816 3.3177034-1.4920601 1.2676936-.0032441 2.4768706.5331317 3.3252966 1.4750601 1.835065 1.9966217 1.827665 5.0682439-.017 7.056z"/><path d="m111.287 18.804c-1.256877 1.1987065-1.955211 2.8683988-1.926 4.605v10.85h4.025v-10.4c-.058693-.8444581.249698-1.6731976.84615-2.2738634s1.423-.9148829 2.26785-.8621366h.2l.9-3.814h-1.627c-1.75457-.0311308-3.446283.652991-4.686 1.895z"/><path d="m163.876 16.911c-1.816181.0241976-3.554023.743527-4.856 2.01-1.221442-1.2992613-2.930836-2.028129-4.714-2.01-1.804452-.0509645-3.547662.6566934-4.806 1.951-1.269522 1.267253-1.965409 2.9986615-1.926 4.792v10.594h4.026v-10.518c-.037725-.7561727.230414-1.4957181.744-2.052.535033-.5346375 1.271654-.8173663 2.027-.778.7291-.0379465 1.439582.2379479 1.952.758.504794.5539505.767572 1.2864905.73 2.035v10.567h3.989v-10.563c-.036668-.7480146.225185-1.4799796.728-2.035.522582-.5214812 1.241763-.7969431 1.979-.758.752664-.0316867 1.483712.2559387 2.013.792.51616.5503264.791191 1.2839834.764 2.038v10.526h3.991v-10.594c.038625-1.7922235-.655095-3.5227318-1.921-4.792-1.228274-1.2875239-2.94095-1.9998083-4.72-1.963z"/><path d="m181.331 16.736c-3.588586.0427107-6.805138 2.2235165-8.173187 5.5413796-1.36805 3.317863-.623381 7.131993 1.892187 9.6916204 1.617214 1.6948172 3.868695 2.6373143 6.211 2.6 2.374969.0507801 4.663442-.8915748 6.314-2.6 2.567699-2.5353604 3.350388-6.3702089 1.981598-9.7090027-1.368789-3.3387939-4.618119-5.5206547-8.226598-5.5239973zm3.3 12.456c-.831509.9523373-2.035751 1.4964357-3.3 1.491-1.263716.0055992-2.469336-.5302318-3.312-1.472-.911936-.9285571-1.413983-2.1836751-1.394-3.485-.02332-1.3282794.477494-2.6122897 1.394-3.574.843639-.9472676 2.050724-1.4904902 3.319201-1.4937349 1.268476-.0032446 2.478325.5337956 3.326799 1.4767349 1.835065 1.9966217 1.827665 5.0682439-.017 7.056z"/><path d="m140.37 18.152c-1.942521-1.3924761-4.396243-1.8672958-6.718-1.3-2.371978.4683408-4.455767 1.8713484-5.781936 3.8929566s-1.783175 4.4917808-1.268064 6.8540434c.41839 2.3190358 1.785599 4.3582505 3.772 5.626 1.969941 1.2887846 4.381263 1.7158423 6.674 1.182.486626-.0934972.962907-.2345057 1.422-.421.619245-.2780244 1.220428-.594647 1.8-.948l-.92-3.959c-.425546.3519021-.883996.6620004-1.369.926-.390753.1796393-.801709.3115884-1.224.393-1.349029.3190948-2.769653.0850249-3.945-.65-1.114405-.7020185-1.902705-1.8196044-2.190112-3.1049546-.287406-1.2853502-.050168-2.6322482.659112-3.7420454.679556-1.102037 1.793799-1.8649683 3.067-2.1 1.302918-.3235599 2.682255-.030437 3.741.795 1.142236.9541844 1.899139 2.2906686 2.13 3.761l2.085 8.921h4.148l-2.289-9.877c-.409172-2.494934-1.768542-4.7345081-3.793-6.249z"/><path d="m64.55 19.167c-.2144756-.4180211-.3853753-.8569988-.51-1.31-.1059104-.3513767-.1650859-.715171-.176-1.082-.0009294-.7048433.3585758-1.3612325.953-1.74.6932467-.4742807 1.5194609-.7155955 2.359-.689h5.946l.945-4.062h-7.739c-1.8204928-.0668978-3.597379.5665541-4.965 1.77-1.2912014 1.1535171-2.0055356 2.8194427-1.951 4.55.0001822 1.0945596.2581459 2.1736906.753 3.15l2.919 5.894c.1780809.4102099.3307037.831008.457 1.26.1144662.3453668.1817415.7046168.2 1.068.0057962.7300818-.3408449 1.4181512-.931 1.848-.6521701.5016408-1.4575596.7626859-2.28.739h-5.13l-.912 3.961h6.85c1.8301171.0725246 3.6243062-.5219848 5.049-1.673 1.2786282-1.0000176 2.0180987-2.5388556 2-4.162-.0435713-1.3059317-.3900158-2.5838735-1.012-3.733z"/><path d="m123.218 29.92c-.516938-.5259157-.793444-1.2421514-.764-1.979l.064-7.248h2.612l.85-3.775h-3.527v-4.447l-4.025.934v14.5c-.106981 1.733723.534164 3.4301686 1.761084 4.6597652 1.22692 1.2295967 2.921964 1.8744368 4.655916 1.7712348h1.673l-.836-3.663c-.879283.008757-1.73982-.2542234-2.464-.753z"/><path d="m198.746 16.912c-1.758636-.0329342-3.455125.6503537-4.7 1.893-1.247916 1.203577-1.939716 2.871504-1.91 4.605v10.85h4.02v-10.395c-.038572-.8454302.26951-1.6699916.853-2.283.608009-.5865872 1.431119-.8962937 2.275-.856h.206l.886-3.814z"/><path d="m212.345 28.991c-1.521844 1.7304789-4.006936 2.2415157-6.088129 1.2519693s-3.253485-3.2395618-2.871952-5.5122255c.381533-2.2726636 2.224311-4.0165117 4.514551-4.2721858 2.290239-.2556741 4.472212 1.0388654 5.34553 3.171442l-7.887 1.82.669 2.894 7.5-1.734 3.825-.884v-.142c.006662-4.4825077-3.321356-8.270452-7.767427-8.8408712-4.44607-.5704192-8.622529 2.2547203-9.747645 6.5937332-1.125117 4.339013 1.152271 8.8376498 5.315307 10.4995919 4.163035 1.6619421 8.912395-.0315194 11.084765-3.9524539z"/><path d="m25.351 17.993h2.411v1.419h-2.411z"/><path d="m38.119 17.993h2.411v1.419h-2.411z"/><path d="m34.068 17.993h2.411v1.419h-2.411z"/><path d="m29.694 17.993h2.411v1.419h-2.411z"/><path d="m37.452 1.169c-3.3508077.00689729-6.5785436 1.26347499-9.052 3.524l-2.352 2.353-1.974-1.951c-3.3208238-3.5008885-8.2653125-4.94975885-12.9504191-3.79482679-4.6851065 1.15493206-8.38968392 4.73589561-9.70288999 9.37912519-1.31320608 4.6432296-.03290782 9.6340241 3.35330909 13.0717016l21.243 21.256 20.658-20.66c3.9959205-3.7769583 5.2843109-9.608986 3.2514051-14.71781067-2.0329058-5.10882463-6.9759695-8.46122941-12.4744051-8.46018933zm-29.812 19.824c-.44555617-.4844852-.839044-1.0143866-1.174-1.581h1.673v-1.418h-2.361c-1.06872633-2.7686092-.7740285-5.8785399.79571391-8.3971271 1.5697424-2.51858721 4.23197099-4.15292343 7.18828609-4.4128729v1.778h1.419v-1.789c2.3023537.13439929 4.4742679 1.1131849 6.1 2.749l.783.775c2.0749439 2.640059 2.603656 6.1787432 1.391 9.31h-2.414v1.419h1.723c-1.5819871 2.7289394-4.4332944 4.4762723-7.583 4.647v-2.037h-1.419v1.993c-1.8755527-.1523351-3.6624151-.8632486-5.13-2.041zm18.377 18.4-3.66-3.655h7.3zm15.776-15.779-10.705 10.705h-10.142l-5.765-5.782v-2.186h-1.419v.767l-1.968-1.974c3.4584063.9113492 7.1439129.0742028 9.8692505-2.2417562s4.1461577-5.8181073 3.8047495-9.3782438c-.0585165-.6044982-.1665457-1.2031744-.323-1.79l.926.917 5.065-5.071c2.9173248-2.63934365 7.1696533-3.18280535 10.657-1.362zm2.108-2.107-.689.686v-15.055c2.1954575 1.68926199 3.5375255 4.2580767 3.6702022 7.0250311s-.9574474 5.4523938-2.9812022 7.3439689z"/><path d="m13.761 20.127h1.421v-.79c.581057-.0849323 1.1420346-.2739573 1.656-.558v.63h2.411v-1.415h-1.317c1.3495785-1.3114969 1.8346189-3.2769967 1.2501186-5.06578-.5845002-1.7887832-2.1365282-3.08865354-4.0001186-3.35022v-.781h-1.421v.778c-1.8652398.26006493-3.4192606 1.5602553-4.00439952 3.3503296-.5851389 1.7900743-.09910976 3.7571156 1.25239952 5.0686704h-1.268v1.419h2.411v-.6c.5013252.2691379 1.0458649.4485077 1.609.53zm-2.835-5.668c.0025915-1.6809431 1.1875719-3.1279985 2.835-3.462v.64h1.421v-.64c1.6468419.3351361 2.8300681 1.7834035 2.8300681 3.464s-1.1832262 3.1288639-2.8300681 3.464v-.636h-1.421v.636c-1.6482608-.3353603-2.8331446-1.7839694-2.835-3.466z"/><path d="m13.762 13.176h1.419v2.423h-1.419z"/></g></svg>