<svg viewBox="0 0 371.92 57.67" xmlns="http://www.w3.org/2000/svg"><g fill="#fff"><path d="m45.42.32h-28.9a16.52 16.52 0 0 0 -16.52 16.51v40.84h40.84a16.51 16.51 0 0 0 16.51-16.52v-40.83zm-4.74 6.19c1.35 0 2.45 6 2.45 7.34a2.45 2.45 0 1 1 -4.89 0c0-1.35 1.09-7.34 2.44-7.34zm7.32 36.7s0 4.89-4.89 4.89h-29.34c-4.89 0-4.89-4.89-4.89-4.89v-24.46c0-4.9 4.89-4.9 4.89-4.9h9.79c4.89 0 9.78 4.9 9.78 4.9 0-14.26 4.51 5.28 9.79 0 3.46-3.46 4.87 17.12 4.87 17.12l-4.89-2.44s0-4.9-7.34-9.79c-9.1-6.07-19.57-2.07-19.57 7.34.02 19.19 31.8 12.23 31.8 12.23z"/><path d="m105.71 56.67v-35.29l-12.37 18.39h-5.49l-12.37-18.39v35.29h-9.85v-55.67h7.9l17.11 25.18 17.11-25.18h7.74v55.67z"/><path d="m149.73 57.67a28 28 0 0 1 -20.27-8.51 28.94 28.94 0 0 1 0-40.65 28.48 28.48 0 0 1 40.6 0 28.95 28.95 0 0 1 0 40.66 28.38 28.38 0 0 1 -20.33 8.5zm0-47.66a18.2 18.2 0 0 0 -13.09 5.57 18.71 18.71 0 0 0 0 26.5 18.22 18.22 0 0 0 13.11 5.59 18.8 18.8 0 0 0 18.65-18.83 18.78 18.78 0 0 0 -18.67-18.84z"/><path d="m180.21 56.67v-9.39h1.07c16.25 0 19.52-5.68 19.52-14.85v-22.19h-20.59v-9.17h30.44v31.36c0 17-8.79 24.24-29.37 24.24z"/><path d="m253.24 56.67-5.13-13.54h-20.26l-5.2 13.54h-10.65l22.35-56.36h7.11l22.34 56.36zm-8.76-22.93-6.48-17.06-6.5 17.06z"/><path d="m301.56 56.67-24.23-35.06v35.06h-9.86v-55.67h7.59l24.47 35.37v-35.37h9.78v55.67z"/><path d="m343.23 57.67a28 28 0 0 1 -20.23-8.5 29 29 0 0 1 0-40.66 28.49 28.49 0 0 1 40.61 0 29.88 29.88 0 0 1 4.89 6.67l.84 1.57h-11.82l-.5-.56a7.55 7.55 0 0 0 -.54-.59 18.65 18.65 0 0 0 -13.25-5.6 18.19 18.19 0 0 0 -13.08 5.57 18.71 18.71 0 0 0 0 26.5 18.22 18.22 0 0 0 13.11 5.59 18.79 18.79 0 0 0 18.07-14.16h-21v-10h31.1l.14.9a28.81 28.81 0 0 1 .35 4.45 29.11 29.11 0 0 1 -8.33 20.32 28.39 28.39 0 0 1 -20.36 8.5z"/></g></svg>