<svg viewBox="0 0 573.95 106.69" xmlns="http://www.w3.org/2000/svg"><g fill="#fff" transform="translate(-17.45 -136.59)"><path d="m549.48 161.13a17.63 17.63 0 1 0 17.62 17.62 17.65 17.65 0 0 0 -17.62-17.62zm0 31.43a13.81 13.81 0 1 1 13.8-13.81 13.83 13.83 0 0 1 -13.8 13.81z"/><path d="m549.48 165.55a13.21 13.21 0 1 0 13.2 13.2 13.22 13.22 0 0 0 -13.2-13.2zm0 24.61a11.41 11.41 0 1 1 11.4-11.41 11.42 11.42 0 0 1 -11.4 11.41z"/><path d="m549.48 152.88a25.88 25.88 0 1 0 25.87 25.87 25.91 25.91 0 0 0 -25.87-25.87zm0 50.1a24.23 24.23 0 1 1 24.22-24.23 24.26 24.26 0 0 1 -24.22 24.25z"/><path d="m549.48 155.12a23.64 23.64 0 1 0 23.63 23.63 23.66 23.66 0 0 0 -23.63-23.63zm0 41.85a18.22 18.22 0 1 1 18.21-18.22 18.24 18.24 0 0 1 -18.21 18.25z"/><path d="m549.48 167.65a11.11 11.11 0 1 0 11.1 11.1 11.12 11.12 0 0 0 -11.1-11.1zm0 15.85a4.75 4.75 0 1 1 4.74-4.75 4.75 4.75 0 0 1 -4.74 4.75z"/><path d="m549.48 176.47a2.29 2.29 0 1 0 2.28 2.28 2.28 2.28 0 0 0 -2.28-2.28z"/><path d="m549.48 174.45a4.3 4.3 0 1 0 4.3 4.3 4.31 4.31 0 0 0 -4.3-4.3zm0 6.89a2.59 2.59 0 1 1 2.58-2.59 2.59 2.59 0 0 1 -2.58 2.59z"/><path d="m549.48 149.65a29.11 29.11 0 1 0 29.1 29.1 29.14 29.14 0 0 0 -29.1-29.1zm0 55.27a26.17 26.17 0 1 1 26.16-26.17 26.2 26.2 0 0 1 -26.16 26.17z"/><path d="m549.48 138.27a40.49 40.49 0 1 0 40.52 40.48 40.53 40.53 0 0 0 -40.52-40.48zm0 78.53a38 38 0 1 1 38-38.05 38.09 38.09 0 0 1 -38 38.05z"/><path d="m549.48 136.83a41.93 41.93 0 1 0 41.92 41.92 41.92 41.92 0 0 0 -41.92-41.92zm0 82.71a40.79 40.79 0 1 1 40.78-40.79 40.84 40.84 0 0 1 -40.78 40.79z"/><path d="m549.48 141.3a37.46 37.46 0 1 0 37.45 37.45 37.49 37.49 0 0 0 -37.45-37.45zm0 72.87a35.42 35.42 0 1 1 35.41-35.42 35.46 35.46 0 0 1 -35.41 35.42z"/><path d="m549.48 143.93a34.83 34.83 0 1 0 34.82 34.82 34.86 34.86 0 0 0 -34.82-34.82zm0 64.52a29.7 29.7 0 1 1 29.69-29.7 29.73 29.73 0 0 1 -29.69 29.7z"/><path d="m249.1 176.31h-20.74c-2.37 0-3.87.18-4.2 2.14a1.7 1.7 0 0 0 1.29 2.13 10.17 10.17 0 0 0 2.07.53c.83.15 1.71.27 2.57.42l15.32 2.84c8.66 1.63 10.89 8.2 9.6 15.93-2 12-10.69 19.12-22.33 19.12h-21.35c-3.23 0-5.58-1.59-5-5.13.56-3.35 3.17-4.84 6.38-4.84h20.74c7.64 0 10.79-4.61 11.48-8.71.64-3.83-.19-6.42-5-7.24l-15.54-2.63c-8.12-1.35-12-5.58-11-11.59 1.42-8.49 8.54-12.94 16.44-12.94h20.64c3.12 0 5.58 1.57 5 5.12-.56 3.37-3.28 4.85-6.38 4.85z"/><path d="m89.27 171.64c3.14-4.22 7.52-5.91 13-5.91 3.47 0 6.06 1.16 5.43 4.92-.54 3.23-2.45 5.06-6.11 5.06-7.11 0-13.6 3.87-14.83 11.24l-4.48 26.81c-.55 3.24-2.24 6-6.16 6-4.15 0-4.94-3-4.4-6.23l6.88-41.23c.54-3.24 2.23-6 6.16-6 3.74 0 4.75 2.46 4.51 5.3z"/><path d="m146.15 210.05c3 0 5.29 1.48 4.73 4.82-.53 3.17-3 4.55-6 4.55h-19.45c-13.87 0-24-9.16-21-27.49a30.75 30.75 0 0 1 30.79-26.2c13 0 22 9.22 19.79 22.53-.75 4.49-1.26 6.06-6.68 6.06h-33.1c-2.16 10.73 4 15.73 11.69 15.73zm-28.8-24.28h27.43c.36-6.19-3.5-10.67-10.92-10.67a17.15 17.15 0 0 0 -16.51 10.67z"/><path d="m198.51 176.31h-20.75c-2.37 0-3.87.18-4.2 2.14a1.7 1.7 0 0 0 1.29 2.13 10.46 10.46 0 0 0 2.08.53c.82.15 1.7.27 2.56.42l15.32 2.84c8.67 1.63 10.9 8.2 9.6 15.93-2 12-10.68 19.12-22.32 19.12h-21.35c-3.24 0-5.58-1.59-5-5.13.56-3.35 3.16-4.84 6.38-4.84h20.74c7.63 0 10.79-4.61 11.47-8.71.64-3.83-.19-6.42-5-7.24l-15.55-2.63c-8.12-1.35-12-5.58-11-11.59 1.42-8.49 8.53-12.94 16.43-12.94h20.69c3.11 0 5.58 1.57 5 5.12-.57 3.37-3.28 4.85-6.38 4.85z"/><path d="m377.36 171.64c3.14-4.22 7.52-5.91 13-5.91 3.47 0 6.06 1.16 5.43 4.92-.54 3.23-2.45 5.06-6.11 5.06-7.11 0-13.6 3.87-14.83 11.24l-4.48 26.81c-.55 3.24-2.24 6-6.16 6-4.15 0-4.94-3-4.4-6.23l6.89-41.19c.54-3.24 2.23-6 6.16-6 3.74 0 4.75 2.46 4.51 5.3z"/><path d="m405.2 166.34h18.72c14.25 0 15.09 10.12 13.57 19.19l-4.69 28c-.58 3.47-2.44 5.86-5.84 5.86-2.94 0-4.22-1.79-4.26-4.36-5.18 3.35-8.84 5-15.37 5-11.47 0-19.43-5.89-17.7-16.26 1.54-9.21 7.93-14.1 15.45-16.76a57.57 57.57 0 0 1 11.75-2.63c3.66-.47 7.24-.7 10.4-.9l.4-2.38c.59-3.54-.4-4.79-6.41-4.79h-17.4c-3.24 0-5.59-1.58-5-5.12.56-3.36 3.16-4.85 6.37-4.85zm4.7 45.13c8.1 0 13.14-2.95 14.53-11.24l1.37-8.23c-11.58.17-24.13 3.17-25.54 11.64-.88 5.27 2.21 7.83 9.64 7.83zm7.88-59.94a3.81 3.81 0 0 0 3.79 4.69 6.11 6.11 0 0 0 5.69-5 3.81 3.81 0 0 0 -3.8-4.69 6.1 6.1 0 0 0 -5.68 5zm6.46-11.3a9.34 9.34 0 0 1 9.52 11.3 13.52 13.52 0 0 1 -13 11 9.34 9.34 0 0 1 -9.52-11.3 13.53 13.53 0 0 1 13-11z"/><path d="m455.5 171.36-.32 1.95c3.88-5.55 10.11-7.58 16.36-7.58 12.51 0 18.51 8.41 16.59 19.9l-4.71 28.13c-.54 3.24-2.23 6-6.16 6-4.15 0-4.93-3-4.4-6.23l4.14-24.53c1.48-8.83-.53-13.29-8.32-13.29-7.34 0-13.84 5.92-15.14 13.66l-4.08 24.39c-.54 3.24-2.23 6-6.16 6-4.15 0-4.93-3-4.4-6.23l7.1-42.4a5.41 5.41 0 0 1 5.45-4.75c3 0 4.57 2.14 4.09 5z"/><path d="m269 212.1-.09.41c-.13.64-.27 1.52-.41 2.49-.3 2.15-2.82 3.8-5.49 3.8a4.28 4.28 0 0 1 -4.32-5l9.78-69.66a5.91 5.91 0 0 1 5.65-4.94 4.29 4.29 0 0 1 4.33 5l-3.83 27.21a15.23 15.23 0 0 0 -.19 2.05l.87-.62 2.73-2a28.14 28.14 0 0 1 4.48-1.93 25.35 25.35 0 0 1 9.83-1.52c13.14 1 21.4 10.49 20.41 26.34-.84 13.54-12.21 26.31-27.74 26.31-6.54 0-12.91-2.85-16-8zm20.95-35.34c-9.87 0-17.06 7.1-18.45 17s3.77 16.94 13.61 16.94 17.06-7.09 18.45-17-3.77-16.94-13.61-16.94z"/><path d="m34.37 136.59 14.48.09c22.3-1 29.83 9.14 26.89 26-3.22 18.43-14.54 25.27-41.66 23.16l-4.89 27c-.57 4-3 7.36-6.93 7.24s-5.25-3.67-4.69-7.68l10.26-70.11c.5-3.53 2.1-5.88 6.54-5.74zm12.39 38a32.74 32.74 0 0 0 8.7-.94c4.73-1.37 7.63-4.56 9.09-11.74 1.45-6.91-1.3-13.66-8.12-13.91l-17.69-.11-3.62 26.33c4.42.15 8.28.33 11.64.32z"/><path d="m318.63 186.5-3.69-13.5c-.07-.25-.13-.49-.18-.73s-.12-.47-.17-.69a3.25 3.25 0 0 1 -.08-.69 4 4 0 0 1 2.62-4.8c4.56-1.94 6.23 2.49 7 5.23l9.65 34c.48-1 1-2.14 1.56-3.18l11.83-23.57 4-8.11c1.44-2.68 3.77-5.55 7.47-3.64 3.22 1.67 2.45 4.59 1.15 7.25l-25.4 50.93a62.91 62.91 0 0 1 -5.54 8.51c-4.41 5.59-11.28 8.88-19 9.71-.22 0-.61.05-1 .06a5.59 5.59 0 0 1 -1.16 0c-2.13-.43-3.05-1.89-3.12-4.27-.11-3.28 2.76-4.33 5-4.8a31.46 31.46 0 0 0 4-1.09c15.43-5.51 11.9-20.52 11.89-20.55v-.32a22.9 22.9 0 0 0 -.74-3l-6.13-22.7z"/></g></svg>