<svg viewBox="0 0 636.49 88.46" xmlns="http://www.w3.org/2000/svg"><g fill="#fff"><path d="m98.86 22.48a24 24 0 0 0 -13-3.85h-28.71v50.63h12.95a1.5 1.5 0 0 0 1.51-1.51v-28.34a7.8 7.8 0 0 1 2.21-5.77 11.24 11.24 0 0 1 8-2.82 12 12 0 0 1 7.07 2.18 1.36 1.36 0 0 0 1.6-.18l8.58-8.24a1.31 1.31 0 0 0 .4-1.1 1.27 1.27 0 0 0 -.61-1"/><path d="m414.08 22.48a24 24 0 0 0 -13-3.85h-28.7v50.63h13a1.51 1.51 0 0 0 1.51-1.51v-28.34a7.79 7.79 0 0 1 2.2-5.77 11.26 11.26 0 0 1 8-2.82 12.06 12.06 0 0 1 7.03 2.18 1.33 1.33 0 0 0 1.59-.19l8.58-8.23a1.33 1.33 0 0 0 .41-1.1 1.28 1.28 0 0 0 -.62-1"/><path d="m239.18 18.63c-7.69 0-13.82 2-18.44 6.42-5 4.72-7.12 9.33-7.12 19.15 0 22.32 17.24 25.63 27.5 25.63 8.88 0 16.53-2.76 22.15-8a1.21 1.21 0 0 0 .41-1 1.3 1.3 0 0 0 -.56-1l-8.61-5.86a1.31 1.31 0 0 0 -1.59.06 19.49 19.49 0 0 1 -10.58 4.21 11.52 11.52 0 0 1 -1.67.13h-.95a11.2 11.2 0 0 1 -1.3-.08h-.35c-.32 0-.63-.1-.94-.16l-.33-.08c-.33-.09-.65-.18-1-.29l-.24-.08c-.38-.14-.76-.3-1.13-.47l-.2-.1a10.63 10.63 0 0 1 -5.78-7.81h34.85a1.5 1.5 0 0 0 1.51-1.51v-7.79c0-12.17-11-21.35-25.63-21.35m-10.56 20a11.22 11.22 0 0 1 11.1-8.37h.95a11.22 11.22 0 0 1 11.1 8.37z"/><path d="m339.74 18.63c-7.69 0-13.82 2-18.44 6.42-5 4.72-7.12 9.33-7.12 19.15 0 22.32 17.24 25.63 27.5 25.63 8.87 0 16.53-2.76 22.14-8a1.2 1.2 0 0 0 .42-1 1.3 1.3 0 0 0 -.56-1l-8.61-5.86a1.32 1.32 0 0 0 -1.6.06 19.46 19.46 0 0 1 -10.58 4.21 11.41 11.41 0 0 1 -1.67.13h-.94a11.07 11.07 0 0 1 -1.3-.08h-.35c-.32 0-.63-.1-.94-.16l-.34-.08c-.32-.09-.64-.18-1-.29l-.23-.08c-.39-.14-.77-.3-1.13-.47l-.2-.1a10.64 10.64 0 0 1 -5.79-7.97h34.82a1.51 1.51 0 0 0 1.51-1.51v-7.63c0-12.17-11-21.35-25.63-21.35m-10.57 20a11.24 11.24 0 0 1 11.11-8.37h.94a11.23 11.23 0 0 1 11.11 8.37z"/><path d="m500.29 18.63c-7.69 0-13.82 2-18.44 6.42-5 4.72-7.12 9.33-7.12 19.15 0 22.32 17.25 25.63 27.5 25.63 8.88 0 16.53-2.76 22.15-8a1.19 1.19 0 0 0 .41-1 1.3 1.3 0 0 0 -.56-1l-8.6-5.86a1.32 1.32 0 0 0 -1.6.06 19.49 19.49 0 0 1 -10.58 4.21 11.52 11.52 0 0 1 -1.67.13h-.95a11.2 11.2 0 0 1 -1.3-.08h-.35c-.32 0-.63-.1-.94-.16l-.33-.08c-.33-.09-.65-.18-1-.29l-.23-.08c-.39-.14-.77-.3-1.14-.47l-.2-.1a10.63 10.63 0 0 1 -5.78-7.81h34.81a1.5 1.5 0 0 0 1.51-1.51v-7.79c0-12.17-11-21.35-25.63-21.35m-10.56 20a11.22 11.22 0 0 1 11.1-8.37h.95a11.22 11.22 0 0 1 11.1 8.37z"/><path d="m283.56 0h-13v67.76a1.5 1.5 0 0 0 1.51 1.5h13v-67.75a1.52 1.52 0 0 0 -1.51-1.51"/><path d="m305.68 0h-13v67.76a1.5 1.5 0 0 0 1.5 1.5h13v-67.75a1.51 1.51 0 0 0 -1.5-1.51"/><path d="m448.49 18.65a0 0 0 0 1 0 0h-15.26v-17.14a1.52 1.52 0 0 0 -1.51-1.51h-13v69.26h14.56v-29.57a8 8 0 0 1 2.3-6 11.29 11.29 0 0 1 8.1-2.88c6.23 0 10.27 3.48 10.3 8.87v29.58h13a1.51 1.51 0 0 0 1.51-1.5v-31.34c0-11-10.31-17.36-20-17.77"/><path d="m45.34 25.19c-2.85-3-8.07-6.56-16.77-6.56h-28.57v69.83h13a1.51 1.51 0 0 0 1.48-1.46v-17.74l14.3-.05c8.7 0 13.92-3.58 16.76-6.59 3.6-3.76 4.53-7.45 4.53-18.68v-.28c0-11.68-1-14.62-4.73-18.47m-9.15 22.37c0 5.58-4.91 10.14-10.9 10.14h-.91c-6 0-10.91-4.56-10.91-10.14v-6.62c0-5.57 4.91-10.14 10.91-10.14h.91c6 0 10.9 4.57 10.9 10.14z"/><path d="m203.19 25.19c-2.85-3-8.07-6.56-16.77-6.56h-28.57v69.83h13a1.52 1.52 0 0 0 1.48-1.46v-17.74l14.3-.05c8.7 0 13.92-3.58 16.76-6.59 3.6-3.76 4.53-7.45 4.53-18.68v-.28c0-11.68-1-14.62-4.73-18.47m-9.19 22.37c0 5.58-4.91 10.14-10.9 10.14h-.91c-6 0-10.91-4.56-10.91-10.14v-6.62c0-5.57 4.91-10.14 10.91-10.14h.91c6 0 10.9 4.57 10.9 10.14z"/><path d="m581.18 67.53v-32c0-11.24-8.74-16.94-25.85-16.94-9.87 0-16.28 2.26-20.86 7.35a1.41 1.41 0 0 0 -.33 1.09 1.26 1.26 0 0 0 .62.93l9.31 5.72a1.33 1.33 0 0 0 1.74-.33c1.56-2 3.64-3.14 10.09-3.14 9.93 0 10.78 2.36 10.78 4.77v3.63h-15.06c-14.14 0-20.5 7.71-20.5 15.36 0 14.68 20 15.25 20 15.25h28.53a1.51 1.51 0 0 0 1.51-1.5v-.23zm-14.49-16.22c0 2.58.06 4.32-.87 5.27-1.55 1.53-5.37 1.62-11 1.62-6.16 0-9.81-1.73-9.81-4.65a3 3 0 0 1 .92-2.29c.92-.95 3.06-2.08 8-2.08h12.84z"/><path d="m636.49 1.51a1.51 1.51 0 0 0 -1.49-1.51h-13v18.63h-13.88c-8.69 0-13.91 3.58-16.76 6.59-3.62 3.75-4.52 7.47-4.52 18.82v.16c0 11.66.87 15.25 4.58 19 5.51 6 14.44 6 14.44 6h29.14a1.5 1.5 0 0 0 1.51-1.51zm-13.67 46.05c0 5.58-4.91 10.14-10.91 10.14h-.91c-6 0-10.9-4.56-10.9-10.14v-6.62c0-5.57 4.9-10.14 10.9-10.14h.91c6 0 10.91 4.57 10.91 10.14z"/><path d="m121.13 18.63a22 22 0 0 0 -22 22v28.63h28.68a22 22 0 0 0 22-22v-28.63zm3.36 40a14.72 14.72 0 1 1 14.72-14.63 14.72 14.72 0 0 1 -14.72 14.72"/><path d="m133 44a8.55 8.55 0 1 1 -8.55-8.55 8.55 8.55 0 0 1 8.55 8.55"/></g></svg>