<svg height="54" width="165" xmlns="http://www.w3.org/2000/svg"><g fill="#61dafb"><path d="m60.436 27.006c0-4.017-5.014-7.824-12.7-10.184 1.772-7.862.984-14.115-2.49-16.117-.8-.47-1.737-.693-2.76-.693v2.758c.567 0 1.023.11 1.405.321 1.675.964 2.402 4.635 1.835 9.356a38.165 38.165 0 0 1 -.628 3.634 59.52 59.52 0 0 0 -7.822-1.347c-1.663-2.287-3.388-4.363-5.125-6.18 4.016-3.745 7.786-5.797 10.348-5.797v-2.757c-3.388 0-7.823 2.423-12.307 6.625-4.482-4.178-8.917-6.576-12.305-6.576v2.757c2.55 0 6.332 2.039 10.348 5.76a58.335 58.335 0 0 0 -5.088 6.167c-2.784.297-5.42.754-7.835 1.36a37.4 37.4 0 0 1 -.64-3.585c-.58-4.721.135-8.392 1.798-9.369.37-.222.85-.321 1.417-.321v-2.756c-1.035 0-1.971.222-2.784.692-3.462 2.002-4.238 8.244-2.452 16.08-7.661 2.373-12.651 6.168-12.651 10.172 0 4.017 5.014 7.824 12.7 10.185-1.773 7.86-.985 14.115 2.49 16.117.8.47 1.736.692 2.77.692 3.388 0 7.823-2.423 12.307-6.625 4.484 4.178 8.92 6.576 12.307 6.576 1.035 0 1.97-.223 2.784-.693 3.461-2.002 4.238-8.244 2.451-16.08 7.638-2.36 12.627-6.167 12.627-10.172zm-16.039-8.244a55.794 55.794 0 0 1 -1.663 4.882 58.554 58.554 0 0 0 -1.614-2.966 66.915 66.915 0 0 0 -1.774-2.892c1.75.26 3.437.58 5.051.976zm-5.642 13.163a65.878 65.878 0 0 1 -2.969 4.722c-1.835.16-3.696.247-5.568.247-1.86 0-3.72-.086-5.543-.235a68.163 68.163 0 0 1 -2.982-4.697 64.457 64.457 0 0 1 -2.562-4.919 64.53 64.53 0 0 1 2.55-4.931 65.878 65.878 0 0 1 2.969-4.722 63.886 63.886 0 0 1 5.568-.247c1.86 0 3.72.087 5.543.235a68.163 68.163 0 0 1 2.982 4.697 64.457 64.457 0 0 1 2.562 4.919 69.287 69.287 0 0 1 -2.55 4.931zm3.979-1.606a53.089 53.089 0 0 1 1.7 4.919c-1.614.395-3.314.729-5.075.989a68.325 68.325 0 0 0 1.773-2.93 70.282 70.282 0 0 0 1.602-2.978zm-12.491 13.188a50.906 50.906 0 0 1 -3.425-3.956c1.109.05 2.242.087 3.388.087 1.158 0 2.303-.025 3.424-.087a48.2 48.2 0 0 1 -3.387 3.956zm-9.166-7.28c-1.749-.26-3.436-.581-5.05-.977a55.794 55.794 0 0 1 1.663-4.882 58.554 58.554 0 0 0 1.614 2.966c.579.99 1.17 1.953 1.773 2.893zm9.104-25.721a50.906 50.906 0 0 1 3.425 3.955 76.006 76.006 0 0 0 -3.388-.087c-1.158 0-2.304.025-3.425.087a48.2 48.2 0 0 1 3.388-3.955zm-9.116 7.28a68.325 68.325 0 0 0 -3.375 5.895 53.089 53.089 0 0 1 -1.7-4.919 59.649 59.649 0 0 1 5.075-.976zm-11.148 15.474c-4.361-1.866-7.182-4.313-7.182-6.254 0-1.94 2.82-4.4 7.182-6.254 1.06-.457 2.217-.865 3.412-1.248a59.489 59.489 0 0 0 2.771 7.526 58.651 58.651 0 0 0 -2.735 7.49 37.342 37.342 0 0 1 -3.45-1.26zm6.627 17.662c-1.675-.964-2.402-4.635-1.835-9.356.135-1.162.357-2.385.628-3.634a59.52 59.52 0 0 0 7.822 1.347c1.663 2.287 3.388 4.363 5.125 6.18-4.016 3.745-7.786 5.797-10.348 5.797-.554-.012-1.022-.123-1.392-.334zm29.22-9.418c.58 4.722-.135 8.393-1.798 9.369-.37.222-.85.321-1.417.321-2.55 0-6.332-2.039-10.348-5.76a58.335 58.335 0 0 0 5.088-6.167c2.784-.297 5.42-.754 7.835-1.36.283 1.249.505 2.448.64 3.597zm4.743-8.244c-1.06.458-2.217.865-3.412 1.249a59.489 59.489 0 0 0 -2.772-7.528 58.651 58.651 0 0 0 2.735-7.49c1.22.384 2.377.804 3.461 1.261 4.361 1.866 7.182 4.314 7.182 6.254-.012 1.94-2.833 4.4-7.194 6.254z"/><ellipse cx="29.738" cy="27" rx="5.756" ry="5.786"/><path d="m81.032 39.196v-9.53h4.78l4.95 9.53h4.593v-.22l-5.543-10.311c1.424-.6 2.534-1.458 3.33-2.574.797-1.115 1.196-2.5 1.196-4.153 0-2.423-.774-4.275-2.322-5.554-1.548-1.28-3.746-1.92-6.594-1.92h-8.678v24.732zm4.407-12.977h-4.407v-8.29h4.526c1.491.023 2.613.397 3.364 1.122.752.724 1.127 1.75 1.127 3.074 0 1.268-.406 2.268-1.22 2.998-.813.73-1.943 1.096-3.39 1.096zm21.373 13.317c1.526 0 2.902-.303 4.128-.909s2.206-1.458 2.94-2.556l-2.22-2.124c-1.186 1.529-2.723 2.293-4.61 2.293-1.345 0-2.46-.441-3.348-1.324-.887-.884-1.392-2.084-1.517-3.602h11.983v-1.664c0-2.922-.68-5.18-2.042-6.778-1.362-1.596-3.29-2.395-5.788-2.395-1.57 0-2.994.402-4.271 1.206s-2.269 1.928-2.975 3.372-1.06 3.083-1.06 4.918v.51c0 2.74.811 4.934 2.433 6.581 1.621 1.648 3.737 2.472 6.347 2.472zm3.289-11.245h-7.848c.192-1.416.636-2.52 1.33-3.312.696-.793 1.608-1.19 2.738-1.19 1.141 0 2.034.355 2.678 1.062.644.708 1.011 1.753 1.102 3.134zm13.661 11.245c1.898 0 3.503-.685 4.814-2.056.135.793.293 1.365.474 1.716h4.204v-.289c-.464-.985-.695-2.304-.695-3.958v-8.289c-.034-1.959-.69-3.479-1.966-4.56-1.277-1.082-2.99-1.623-5.136-1.623-1.413 0-2.692.25-3.84.748-1.146.498-2.053 1.186-2.72 2.064-.666.877-1 1.82-1 2.828h4.12c0-.725.299-1.322.897-1.792.6-.47 1.368-.705 2.306-.705 1.084 0 1.892.286 2.423.858.531.571.797 1.333.797 2.284v1.206h-2.525c-2.701 0-4.777.524-6.23 1.571-1.451 1.048-2.177 2.551-2.177 4.51 0 1.552.582 2.854 1.745 3.907 1.164 1.053 2.667 1.58 4.509 1.58zm.763-3.313c-.882 0-1.585-.235-2.11-.704-.526-.47-.789-1.102-.789-1.894 0-.974.385-1.727 1.153-2.26.768-.532 1.915-.798 3.44-.798h2.221v3.465c-.362.668-.901 1.2-1.619 1.597a4.677 4.677 0 0 1 -2.296.594zm20.661 3.313a8.067 8.067 0 0 0 3.695-.867c1.141-.577 2.045-1.361 2.712-2.352s1.023-2.058 1.068-3.202h-3.882c-.045.883-.406 1.625-1.084 2.225s-1.532.9-2.56.9c-1.356 0-2.392-.49-3.11-1.469-.718-.98-1.076-2.466-1.076-4.459v-.662c.011-1.97.378-3.44 1.101-4.408.724-.968 1.752-1.452 3.085-1.452 1.04 0 1.896.34 2.568 1.019.672.68 1.031 1.546 1.076 2.599h3.882c-.068-2.073-.788-3.746-2.161-5.02s-3.15-1.91-5.33-1.91c-2.577 0-4.611.84-6.103 2.522-1.491 1.681-2.237 3.92-2.237 6.718v.424c0 2.933.751 5.232 2.254 6.897 1.503 1.664 3.537 2.497 6.102 2.497zm17.102 0c.87 0 1.774-.13 2.712-.391v-3.193c-.486.113-.966.17-1.44.17-.713 0-1.207-.156-1.484-.468-.277-.311-.415-.818-.415-1.52v-10.26h3.237v-3.057h-3.237v-4.467h-4.119v4.467h-3.017v3.058h3.017v10.412c0 3.5 1.582 5.249 4.746 5.249z"/></g></svg>