<svg height="45" width="218" xmlns="http://www.w3.org/2000/svg"><g fill="#fff"><path d="M79.729 16.735a8.84 8.84 0 0 0-6.3 2.481 7.906 7.906 0 0 0-2.615 5.955v15.526l4.023-.931V25.481a4.533 4.533 0 0 1 1.422-3.368 4.756 4.756 0 0 1 8.154 3.4 4.655 4.655 0 0 1-1.418 3.645 5.858 5.858 0 0 1-4.062 1.282 6.628 6.628 0 0 1-1.528-.173 2.4 2.4 0 0 1-.4-.095l-.781 3.736a11.7 11.7 0 0 0 3.345.624 8.769 8.769 0 0 0 8.98-8.949 8.654 8.654 0 0 0-8.818-8.848zm19.013 0a8.956 8.956 0 0 0-6.278 15.232 8.41 8.41 0 0 0 6.214 2.6 8.53 8.53 0 0 0 6.314-2.6 8.9 8.9 0 0 0-6.25-15.232zm3.3 12.456a4.351 4.351 0 0 1-3.3 1.491 4.43 4.43 0 0 1-3.312-1.472 4.87 4.87 0 0 1-1.394-3.485 5.059 5.059 0 0 1 1.394-3.574 4.46 4.46 0 0 1 6.643-.017 5.2 5.2 0 0 1-.017 7.056zm9.245-10.388a6.219 6.219 0 0 0-1.926 4.605v10.85h4.025v-10.4a2.938 2.938 0 0 1 3.114-3.136h.2l.9-3.814h-1.627a6.459 6.459 0 0 0-4.686 1.895zm52.589-1.893a7.1 7.1 0 0 0-4.856 2.01 6.381 6.381 0 0 0-4.714-2.01 6.449 6.449 0 0 0-4.806 1.951 6.567 6.567 0 0 0-1.926 4.792v10.594h4.026V23.729a2.818 2.818 0 0 1 .744-2.052 2.671 2.671 0 0 1 2.027-.778c.73-.038 1.44.238 1.952.758.505.554.768 1.286.73 2.035v10.567h3.989V23.696a2.825 2.825 0 0 1 .728-2.035 2.607 2.607 0 0 1 1.979-.758 2.671 2.671 0 0 1 2.013.792 2.83 2.83 0 0 1 .764 2.038v10.526h3.991V23.665a6.585 6.585 0 0 0-1.921-4.792 6.342 6.342 0 0 0-4.72-1.963zm17.455-.175a8.956 8.956 0 0 0-6.281 15.233 8.4 8.4 0 0 0 6.211 2.6 8.526 8.526 0 0 0 6.314-2.6 8.9 8.9 0 0 0-6.245-15.233zm3.3 12.456a4.356 4.356 0 0 1-3.3 1.491 4.418 4.418 0 0 1-3.312-1.472 4.867 4.867 0 0 1-1.394-3.485 5.052 5.052 0 0 1 1.394-3.574 4.46 4.46 0 0 1 6.646-.017 5.2 5.2 0 0 1-.017 7.056zm-44.261-11.04a8.193 8.193 0 0 0-6.718-1.3 9 9 0 0 0-7.05 10.747 8.455 8.455 0 0 0 3.772 5.626 8.62 8.62 0 0 0 6.674 1.182 7.577 7.577 0 0 0 1.422-.421 16.22 16.22 0 0 0 1.8-.948l-.92-3.959a8.6 8.6 0 0 1-1.369.926c-.39.18-.802.312-1.224.393a5.188 5.188 0 0 1-3.945-.65 4.945 4.945 0 0 1-1.531-6.847 4.58 4.58 0 0 1 3.067-2.1 4.371 4.371 0 0 1 3.741.795 6.142 6.142 0 0 1 2.13 3.761l2.085 8.921h4.148l-2.289-9.877a9.781 9.781 0 0 0-3.793-6.249zm-75.82 1.015a6.85 6.85 0 0 1-.51-1.31 4.18 4.18 0 0 1-.176-1.082c0-.705.359-1.361.953-1.74a3.956 3.956 0 0 1 2.359-.689h5.946l.945-4.062h-7.739a7.12 7.12 0 0 0-4.965 1.77 5.854 5.854 0 0 0-1.951 4.55 6.97 6.97 0 0 0 .753 3.15l2.919 5.894c.178.41.33.831.457 1.26.114.345.182.705.2 1.068.006.73-.34 1.418-.931 1.848a3.571 3.571 0 0 1-2.28.739H55.4l-.912 3.961h6.85a7.558 7.558 0 0 0 5.049-1.673 5.21 5.21 0 0 0 2-4.162 8.433 8.433 0 0 0-1.012-3.733zm58.668 10.753a2.671 2.671 0 0 1-.764-1.979l.064-7.248h2.612l.85-3.775h-3.527V12.47l-4.025.934v14.5a6.068 6.068 0 0 0 6.417 6.431h1.673l-.836-3.663a4.269 4.269 0 0 1-2.464-.753zm75.528-13.008a6.481 6.481 0 0 0-4.7 1.893 6.249 6.249 0 0 0-1.91 4.605v10.85h4.02V23.864c-.039-.845.27-1.67.853-2.283a3.066 3.066 0 0 1 2.275-.856h.206l.886-3.814zm13.599 12.079a5.158 5.158 0 1 1 .9-5.361l-7.887 1.82.669 2.894 7.5-1.734 3.825-.884v-.142a8.9 8.9 0 1 0-1.115 4.3zM25.351 17.992h2.411v1.419h-2.411zm12.768 0h2.411v1.419h-2.411zm-4.051 0h2.411v1.419h-2.411zm-4.374 0h2.411v1.419h-2.411z"/><path d="M37.452 1.168A13.459 13.459 0 0 0 28.4 4.692l-2.352 2.353-1.974-1.951a13.422 13.422 0 1 0-19.3 18.656l21.243 21.256 20.658-20.66a13.423 13.423 0 0 0-9.223-23.178zM7.64 20.992a9.409 9.409 0 0 1-1.174-1.581h1.673v-1.418H5.778a9.445 9.445 0 0 1 7.984-12.81v1.778h1.419V5.172a9.37 9.37 0 0 1 6.1 2.749l.783.775a9.509 9.509 0 0 1 1.391 9.31h-2.414v1.419h1.723a9.35 9.35 0 0 1-7.583 4.647v-2.037h-1.419v1.993a9.414 9.414 0 0 1-5.13-2.041zm18.377 18.4l-3.66-3.655h7.3zm15.776-15.779L31.088 34.318H20.946l-5.765-5.782V26.35h-1.419v.767l-1.968-1.974a10.937 10.937 0 0 0 13.351-13.41l.926.917 5.065-5.071a9.4 9.4 0 0 1 10.657-1.362zm2.108-2.107l-.689.686V7.137a9.434 9.434 0 0 1 .689 14.369z"/><path d="M13.761 20.126h1.421v-.79a4.884 4.884 0 0 0 1.656-.558v.63h2.411v-1.415h-1.317a4.929 4.929 0 0 0-2.75-8.416v-.781h-1.421v.778a4.929 4.929 0 0 0-2.752 8.419H9.741v1.419h2.411v-.6c.501.27 1.046.449 1.609.53zm-2.835-5.668a3.538 3.538 0 0 1 2.835-3.462v.64h1.421v-.64a3.535 3.535 0 0 1 0 6.928v-.636h-1.421v.636a3.541 3.541 0 0 1-2.835-3.466z"/><path d="M13.762 13.175h1.419v2.423h-1.419z"/></g></svg>