<svg viewBox="0 0 579.77 87.72" xmlns="http://www.w3.org/2000/svg"><g fill="#fff" transform="translate(0 -.42)"><path d="m111.47 87.67a30.46 30.46 0 0 1 -5.45-.51 30.07 30.07 0 1 1 22.5-4.85 29.55 29.55 0 0 1 -17.05 5.36zm-.09-46.31a16.22 16.22 0 0 0 -2.91 32.17 16 16 0 0 0 12.15-2.64 16.21 16.21 0 0 0 -6.28-29.3 21.67 21.67 0 0 0 -2.96-.23z"/><path d="m192 28a29.67 29.67 0 0 0 -16.66 5v-26h-13.86v81.13h13.86v-5.08a30.07 30.07 0 1 0 16.66-55.05zm0 46.31a16.23 16.23 0 1 1 16.23-16.22 16.22 16.22 0 0 1 -16.23 16.18z"/><path d="m268.42 87.76h-.42a30.1 30.1 0 0 1 -20.56-51.67 29.64 29.64 0 0 1 21.39-8.5 30.12 30.12 0 0 1 29.67 30.5 30 30 0 0 1 -30.08 29.67zm-.05-46.31a16.24 16.24 0 1 0 16.22 16.46 16.33 16.33 0 0 0 -4.59-11.56 16.12 16.12 0 0 0 -11.42-4.9z"/><path d="m451.2 87.67a30 30 0 1 1 21.95-9.47 29.85 29.85 0 0 1 -21.95 9.47zm0-46.31h-.56a16.22 16.22 0 0 0 -10.58 28.06 16.23 16.23 0 0 0 27.31-12.34 16.25 16.25 0 0 0 -16.17-15.72z"/><path d="m565.21 28.1-10 35.58-11.35-35.58h-15l-10 35.58-11.33-35.58h-14.53l19.13 59.8h14.56l10.17-36.23 11.57 36.23h14.57l16.78-59.8z"/><path d="m53 87.62c-10.39-2.62-19.4-4.85-23.7-14-3.37-7.12-3.23-16.91-3-36.37.14-9.61.33-21.54.1-36.65l13.9-.18c.18 15.25.05 27.31-.09 37-.21 16.24-.37 26.08 1.61 30.29 1.21 2.58 4.07 3.83 14.56 6.47z"/><path d="m0 27.22h67.2v13.87h-67.2z"/><path d="m353.64 31a28.72 28.72 0 0 0 -23 4.71v-7.38h-13.88v59.57h13.86v-33.18a17.32 17.32 0 0 1 20.52-12.43c.14 0 .28 0 .42.09l2.77-11.23c-.18-.05-.41-.09-.69-.15z"/><path d="m413.12 31a28.72 28.72 0 0 0 -23 4.71v-7.38h-13.88v59.57h13.86v-33.18a17.32 17.32 0 0 1 20.52-12.43c.14 0 .28 0 .42.09l2.77-11.23z"/></g></svg>