<svg enable-background="new 0 0 451.964 138.716" fill="#fff" height="138.716" stroke="#fff" viewBox="0 0 451.964 138.716" width="451.964" xmlns="http://www.w3.org/2000/svg"><path d="m221.956 87.027c-1.3-1.448-2.833-2.173-4.608-2.173h-27.905c-1.775 0-3.458.725-5.049 2.173-1.598 1.448-2.485 3.057-2.659 4.829l-4.076 38.119c-.174 1.774.383 3.383 1.683 4.832 1.299 1.448 2.836 2.172 4.604 2.172h27.913c1.768 0 3.451-.724 5.049-2.172 1.594-1.449 2.478-3.058 2.655-4.832l4.075-38.119c.178-1.773-.383-3.381-1.682-4.829zm-20.819 35.897h-3.458l2.482-24.132h3.455z"/><path d="m267.736 87.027c-1.299-1.448-2.836-2.173-4.607-2.173h-27.904c-1.775 0-3.459.725-5.053 2.173s-2.482 3.057-2.658 4.829l-4.783 45.123h19.225l3.984-38.187h3.457l-3.986 38.187h19.225l4.785-45.123c.176-1.773-.384-3.381-1.685-4.829z"/><path d="m312.743 112.778 2.889-27.924h-19.182l-2.918 27.877h-3.504l2.922-27.877h-19.225l-5.494 52.125h19.227l1.064-10.192h3.451l-1.016 10.192h19.207l1.037-10.196c.178-1.832-.369-3.458-1.641-4.874-1.271-1.417-2.818-2.127-4.65-2.127 1.838 0 3.557-.71 5.162-2.127 1.6-1.42 2.493-3.042 2.671-4.877z"/><path d="m359.932 98.792 1.506-13.938h-41.908l-5.492 52.125h41.904l1.506-14.055h-22.68l.533-5.038h15.678l1.42-14.055h-15.682l.53-5.039z"/><path d="m387.852 84.854-2.662 25.533h-3.459l2.699-25.533h-19.223l-2.926 27.905c-.176 1.835.369 3.458 1.641 4.874 1.271 1.417 2.82 2.127 4.65 2.127h15.594l-.266 3.281h-15.682l-1.506 13.938h27.908c1.828 0 3.529-.71 5.096-2.126 1.564-1.42 2.436-3.046 2.613-4.878l4.785-45.121z"/><path d="m450.872 101.37 1.061-9.5c.178-1.775-.383-3.391-1.682-4.84-1.301-1.447-2.838-2.176-4.609-2.176h-27.908c-1.768 0-3.455.725-5.049 2.173-1.598 1.444-2.482 3.054-2.658 4.821l-2.035 19.044c-.178 1.828.365 3.45 1.637 4.867 1.268 1.417 2.818 2.127 4.65 2.127h15.682l-.531 5.038h-3.455l.266-2.461h-19.225l-1.061 9.501c-.178 1.774.383 3.391 1.682 4.839 1.301 1.448 2.834 2.176 4.609 2.176h27.904c1.771 0 3.455-.728 5.049-2.176 1.594-1.452 2.482-3.067 2.662-4.846l2.035-19.108c.178-1.835-.369-3.465-1.641-4.885-1.268-1.424-2.818-2.134-4.65-2.134h-15.682l.533-5.038h3.453l-.266 2.577h19.229z"/><path d="m12.039 110.892c-.176 1.828.367 3.45 1.637 4.867 1.271 1.417 2.82 2.127 4.654 2.127h15.678l-.529 5.038h-22.679l-1.507 14.055h34.904c1.775 0 3.458-.728 5.052-2.176 1.594-1.452 2.481-3.067 2.659-4.846l2.038-19.108c.174-1.835-.37-3.465-1.641-4.885-1.271-1.424-2.819-2.134-4.651-2.134h-15.684l.533-5.038h22.683l1.509-13.938h-41.91z"/><path d="m171.923 84.854h-50.766c-1.771 0-3.455.725-5.052 2.173-1.594 1.448-2.478 3.057-2.656 4.829l-4.786 45.123h19.229l3.987-38.187h3.543l-4.033 38.187h19.21l4.019-38.187h3.664l-4.076 38.187h19.222l4.786-45.123c.177-1.829-.369-3.455-1.64-4.871-1.271-1.421-2.819-2.131-4.651-2.131z"/><path d="m212.586 63.518-.445-1.161-.873-1.154-.084-.685-.586-.692-.711-1.466-1.395-1.61-3.486-1.237-5.979-.996-1.033.261-.621-.119-1.559.314-2.943-.414-1.711.56-1.762.257-.852.389-.754.057-1.66.868-6.541 2.192-.408.383-3.279 1.603-2.305.815-2.982 1.109-4.285 2.242-1.639 1.023-1.34.312-2.834-.523-1.734-.763-3.209-1.662-1.557-.636-1.469-.678-6.504-2.116-1.613-.211-8.826-1.008-.674-.649-2.426-1.082-.721.721-.797.266-1.254 1.253-.465-.881.209.209.07-.139h.139l.977-1.116.418-.141 1.535-1.256.631.35 1.115-.838 1.115-2.302.143-3 .557-.071v-.557l-1.467-3.209-.209-1.117-.139-.209-.281-.836.139-1.328.49-.628.348-2.162-.418-1.674.209-.421v-1.743l-1.186-2.023-2.371-3.769-.977-.558-2.096.139-.838.28-2.648.348-.699-.348h-.557l-1.328-.628-3.068-.628h-.627l-.838.838-1.467.558-2.652 2.512h-.348l-.695-.419-2.096.071-1.256 1.186-.697 1.604-.488 2.303.209 1.816.279.557.35 1.186-.629.209-.561-.292c.018-.043.033-.086.049-.13l-.439-.075-.234-.123v.083l-1.676-.285-3.152.323-.85.391-8.665-1.946-1.598-.329-6.838-.14-1.608.16-1.681.089-3.577.517-1.889.153-2.847-.435-8.984 5.684.026-.286-.157-1.952.264-2.114-.054-2.258-.22-2.361.336-2.423.092-1.163-.269-1.195.091-1.229-.032-1.205-1.473-1.098-.263-1.025.294-.998-.585-.673-1.215-4.545-.31-.682c-.016-.286-.056-.572-.131-.851-.566-2.089-.237-4.252-.237-4.252s-.871.225-1.422 1.285l-2.712-3.638-3.377-3.426-3.812-3.095-3.537-2.177-4.907-1.682-5.32-1.198-1.029.081c-2.053-.103-3.661-.931-3.661-.931s-.12.552.074 1.214l-3.654.288-7.219 2.327-6.179 4.048-4.681 5.686-3.889 6.25-.443 1.176c-.314.371-.584.803-.748 1.309-.726 2.248-2.344 3.732-2.344 3.732s.429.277 1.061.351l-.097.258-.271 1.474c-.575 1.331-1.295 2.193-1.295 2.193s.347.166.853.207l-.561 3.044-.565 6.599.964 3.497.939 3.049 1.492 2.5 1.446 2.354 1.979 1.693 2.251.985 1.924 1.167 1.951.602.394.1c1.294.735 2.089 1.581 2.089 1.581s.245-.39.329-.969l.562.142 3.605-.516 3.619-1.179 3.728-1.594 2.984-3.015 2.884-3.27-1.191.03 1.818-4.5.143-4.752-.095-4.165-1.262-3.478-1.904-2.709-2.599-1.617-2.998-.475-3.363.599-3.403 2.345c-1.132.599-2.089.878-2.089.878s.327.386.984.61l-.521.705-.602 1.01-.057.089c-.967.817-1.829 1.29-1.829 1.29s.271.205.741.324l-.09.576-.016.45-.266.087.128.206-.282.414-.025.651.117.739.278.698-.011.827.762.276.782.23 1.06-.085 1.03-.136.593-.854.449-.768c.393.298.75.417.75.417s.114-1.061.663-2.359l.063-.06.133-.377c.214-.441.475-.898.806-1.344.189-.255.333-.523.445-.796l.479-.635 1.125-.608 1.09-.595 1.192.136 1.062.552 1.116.904.42 1.787.597 2.28.166 2.667-.16 2.435-.622 2.174-.877 1.938-.981 2.165-.386-.466s-.512.903-.974 1.605c-.154.234-1.837 1.341-1.837 1.341l-3.345.865-3.375.735-3.287-.925-3.085-1.335-2.469-2.468-1.655-3.444-1.29-4.377.291-5.101 1.308-5.655 2.319-5.768 3.198-5.522 3.797-4.209c.114.441.299.69.299.69s.521-1.046 1.423-2.157l3.894-2.929 6.443-1.699 7.43-.45 4.942 1.312 4.284 2.194 2.707 2.717 3.483 2.896 2.437 3.745 1.976 3.946 1.214 4.206 1.245 3.987c-.547-.202-.944-.145-.944-.145s.58.88 1.076 2.11l.059 1.041.103 1.936c-.518-.351-.951-.389-.951-.389s.664 1.726.739 3.658l.196 2.34-.265 2.148.173 1.877-.106 1.192-1.153.396-2.856 1.399-2.176 1.109-3.421 1.278-.561.039-6.092 3.234-1.771.609-.558.504-.868.354-1.395 1.102-1.587.855-1.726 2.418-1.301.919-.339.531-.902.57-3.389 5.024-1.5 3.385.206 2.121.577 1.521.099.901.442.529.232 1.431.542 1.12.816.714 1.507.735.282.37.499.245 1.09-.164.746-.568 1.87-.64.367-.749.057-.756-.063-.182-.661.066.003-.156-1.188.04-.483-1.4-.602-1.461-.412-.589-.102-.75.89-1.815 1.051-1.196 1.415-2.104.128-.092.178 2.336.447 1.621.561.274 1.062-.413.27-1.502.327-1.47.334-1.626.849-2.377.669-1.846.777-.633.586-1.037 3.886-1.592 2.18-.488 3.983-1.158 1.212-.106 1.31-.29 3.183-.309.46-.056.154 2.257.484 2.803c-.631.059-1.09.31-1.09.31s1.426 1.675 1.795 4.118c.062.409.194.775.363 1.107l.262 1.224.561 1.393.696 2.512 1.257 2.652.767.838.49 1.046 1.396 1.116v.35l.628 1.605.834 1.326.77.557 1.672 1.117h.28l.419.42 2.162.975 1.257.422 1.885.416 2.229-.348 1.676-.49h1.047l-.628.631-.419 1.184.281.281.348.209v.207l-.838 1.814-.557.838.138.141v.141l-.348.557-.49 1.814-.557 1.047-.139.838-1.534 4.605-.209.838-.213.209-.767 1.465-1.672 2.793-1.257 1.326-.767 1.045-.071 1.744-.558.909-.419 2.512v1.604l-.628 3.91-.486.07-2.442 1.395-1.047.277-1.257.84-.558.139-.628.699-1.256 2.58-.277 1.467-.628 2.301-.767 1.467v1.186l.625.629.561.068.419-.418h.277l1.186-1.186 1.118-1.955.419-1.047.767-.768.209.35.209 2.93-.352 1.047-1.324 3.35-.977 1.258-1.047.768h-.417l-1.672.975-.281-.277-.419.35.281 1.395.625.697h2.023l.49.348 1.047.211.628-.348h.558v.137h1.395l.838-.137.419-.42 1.044-.279.909-.768 3.071-5.441.976-3.141.209.209v.068l.209.768-.209.211-.557 1.115.767.838h.696l.352-.209 2.162-.07.419-.348.486-.629.7-.279.767-.629.209-.627 1.328-1.814.557-1.812-.419-2.652.696-.281 5.375-3.068 2.3-1.117 2.443-.906 1.257-.561 1.395-.35.697-.416 1.328-.35 1.324-.629.975-.209.629-.418 1.119-.279.209-.211 2.652-2.512.418-2.232.625-3.559.629-5.164-.277-5.791v-1.188l-.557-2.932-1.258-3.137.139-.141.486-.281.072-.348-.559-2.303-.486-.838-.908-2.721-.139-4.536.348-1.048.209-1.045 1.049-1.047 3.486-3.279h.699l2.58-.557h.629l1.676-.212.486-.208h.561l1.254-.628 1.256-.209 1.605-.7h.699l16.936 3.256 4.074 1.936.324-.338 2.66.614 2.191.472.105-.337.387-.538.066.021 3.785.527 3.729 1.17 3.998 1.473.346-.4 3.662 1.146 1.902.229 2.59.377 2.248-.174 3.682-1.48 1.09-.68 2.643-1.438.756-1.009 1.18-.726 1.285-1.06 2.414-2.098 1.107-.749.916-.808 3.578-2.097 1.854-1.245 3.83-1.725 1.154.288.994-.128 1.797.785 2.314 1.017 1.406.879 1.291.774 1.279.838 1.025-.487.189-.598-.867-1.441-1.572-1.736.152-.027 2.5.421 1.59.059 1.932.605.475.589.143.703.646 1.445.682 1.312-.846.833.117.105-.504.431.096.174.582.476.797.252 1.754-.917.922-.151.867-.674.17-.531-.078-.463.504-1.6zm-135.717-2.396-2.024 1.604-1.047.488-1.743.348-1.257.697-.767.767h-.977l-1.676-.767-1.534-1.674-1.676-2.931s-.36-1.146-.506-2.68c-.02-.208-.038-.464-.055-.755l.979-.317 1.326-2.136 3.445 1.969 1.754-3.325 1.505-2.135-.023-.607 3.837.117.194.492 4.264-.078 3.902.121 3.749.746h.071l.053.18-.63.315-2.933 1.676-3.905 3.139zm13.675 45.285v.42l-.209.209-1.396-.35-1.881.627-3.142 1.606-4.186 2.723-.348-1.256.138-2.862 1.115-2.373 3.98-4.885 1.396-1.467 2.3-2.861.209 4.047.209.49v.139l.142.07.277-.209.348-.279.071 3.629.977.559-.209 1.467z"/></svg>